<svg width="362" height="377" viewBox="0 0 362 377" fill="none" xmlns="http://www.w3.org/2000/svg">
<circle cx="180.721" cy="180.721" r="180.721" fill="#FFF7E7"/>
<g clip-path="url(#clip0_2560_1508)">
<path d="M132.037 234.628C123.119 253.712 109.005 297.018 134.752 344.365C138.848 351.887 147.041 356.255 155.584 355.391L271.914 343.618C283.313 342.473 291.74 332.499 290.92 321.101C289.259 298.093 284.367 260.182 269.925 231.381C269.363 230.236 268.661 229.162 267.912 228.158L249.772 203.982C240.948 192.232 223.088 192.793 215.037 205.103C211.76 210.125 206.493 213.512 200.571 214.446L147.93 222.692C140.978 223.79 135.01 228.228 132.014 234.604L132.037 234.628Z" fill="#FBCF73" stroke="#424376" stroke-linecap="round" stroke-linejoin="round"/>
<path d="M132.388 220.356C132.388 220.356 56.6915 297.485 131.592 353.755C185.38 377.02 197.341 356.138 197.341 356.138L197.997 330.444C198.277 319.652 190.951 310.075 180.395 307.693C168.481 305.007 154.975 298.583 154.297 283.377" fill="#FBCF73"/>
<path d="M132.388 220.356C132.388 220.356 56.6915 297.485 131.592 353.755C185.38 377.02 197.341 356.138 197.341 356.138L197.997 330.444C198.277 319.652 190.951 310.075 180.395 307.693C168.481 305.007 154.975 298.583 154.297 283.377" stroke="#424376" stroke-linecap="round" stroke-linejoin="round"/>
<path d="M206.704 224.981C206.704 224.981 242.516 219.865 244.295 204.939C246.074 190.013 233.177 172.027 228.402 171.467C223.65 170.906 193.292 214.937 193.292 214.937C193.292 214.937 190.038 223.019 206.704 224.981Z" fill="#ED8F4D" stroke="#424376" stroke-linecap="round" stroke-linejoin="round"/>
<path d="M207.289 48.9988C207.289 48.9988 255.506 47.4105 257.894 128.908C260.281 210.405 300.517 196.11 300.517 196.11L299.323 198.89C299.323 198.89 269.433 214.399 259.088 192.536C259.088 192.536 257.894 214.002 251.527 215.591H235.985C235.985 215.591 243.546 202.066 239.567 190.948C239.567 190.948 234.394 214.797 224.025 214.399H186.176L185.778 191.742L207.289 48.9988Z" fill="#798DAE" stroke="#424376" stroke-linecap="round" stroke-linejoin="round"/>
<path d="M195.726 187.771H167.849V220.776H195.726V187.771Z" fill="#FBC59D" stroke="#424376" stroke-width="2" stroke-miterlimit="10"/>
<path d="M189.758 211.62C189.758 211.62 149.124 187.771 130.399 196.11C111.673 204.449 103.715 225.939 107.694 229.909C111.673 233.88 191.349 228.321 191.349 228.321C191.349 228.321 203.708 225.541 189.758 211.62Z" fill="#FBCF73" stroke="#424376" stroke-linecap="round" stroke-linejoin="round"/>
<path d="M143.951 48.9988C143.951 48.9988 95.7336 47.4105 93.3461 128.908C90.9587 210.405 50.7229 196.11 50.7229 196.11L51.9166 198.89C51.9166 198.89 81.8067 214.399 92.1524 192.536C92.1524 192.536 93.3461 214.002 99.7127 215.591H115.255C115.255 215.591 107.694 202.066 111.673 190.948C111.673 190.948 116.846 214.797 127.215 214.399H165.064L165.462 191.742L143.951 48.9988Z" fill="#424376" stroke="#424376" stroke-linecap="round" stroke-linejoin="round"/>
<path d="M261.873 80.3225C261.873 80.3225 276.666 118.21 266.133 154.602C266.133 154.602 267.959 121.48 244.739 76.0946L247.595 63.411L261.873 80.3225Z" fill="#424376" stroke="#424376" stroke-linecap="round" stroke-linejoin="round"/>
<path d="M121.457 157.755C135.174 179.152 159.212 193.33 186.574 193.33C229.268 193.33 263.862 158.807 263.862 116.201C263.862 73.5952 229.268 39.0715 186.574 39.0715C143.881 39.0715 109.286 73.5952 109.286 116.201C109.286 117.696 109.333 119.191 109.426 120.686" fill="#FAEBE3"/>
<path d="M121.457 157.755C135.174 179.152 159.212 193.33 186.574 193.33C229.268 193.33 263.862 158.807 263.862 116.201C263.862 73.5952 229.268 39.0715 186.574 39.0715C143.881 39.0715 109.286 73.5952 109.286 116.201C109.286 117.696 109.333 119.191 109.426 120.686" stroke="#424376" stroke-width="2" stroke-miterlimit="10"/>
<path d="M168.856 116.201C170.73 116.201 172.249 114.685 172.249 112.814C172.249 110.943 170.73 109.427 168.856 109.427C166.981 109.427 165.462 110.943 165.462 112.814C165.462 114.685 166.981 116.201 168.856 116.201Z" fill="#424376"/>
<path d="M213.375 107.862C215.249 107.862 216.769 106.346 216.769 104.475C216.769 102.604 215.249 101.088 213.375 101.088C211.5 101.088 209.981 102.604 209.981 104.475C209.981 106.346 211.5 107.862 213.375 107.862Z" fill="#424376"/>
<path d="M122.604 157.055C119.468 159.134 115.699 160.325 111.673 160.325C100.672 160.325 91.7545 151.425 91.7545 140.447C91.7545 129.468 100.672 120.569 111.673 120.569C119.046 120.569 125.483 124.563 128.924 130.496" fill="#FAEBE3"/>
<path d="M122.604 157.055C119.468 159.134 115.699 160.325 111.673 160.325C100.672 160.325 91.7545 151.425 91.7545 140.447C91.7545 129.468 100.672 120.569 111.673 120.569C119.047 120.569 125.483 124.563 128.924 130.496" stroke="#424376" stroke-width="2" stroke-miterlimit="10" stroke-linecap="round"/>
<path d="M115.325 150.701C120.858 150.701 125.343 146.225 125.343 140.704C125.343 135.182 120.858 130.706 115.325 130.706C109.792 130.706 105.307 135.182 105.307 140.704C105.307 146.225 109.792 150.701 115.325 150.701Z" fill="#FBC59D"/>
<path d="M150.528 152.266C159.875 152.266 167.451 144.705 167.451 135.378C167.451 126.051 159.875 118.49 150.528 118.49C141.182 118.49 133.605 126.051 133.605 135.378C133.605 144.705 141.182 152.266 150.528 152.266Z" fill="#FBC59D"/>
<path d="M242.165 132.785C251.511 132.785 259.088 125.224 259.088 115.897C259.088 106.57 251.511 99.0092 242.165 99.0092C232.818 99.0092 225.242 106.57 225.242 115.897C225.242 125.224 232.818 132.785 242.165 132.785Z" fill="#FBC59D"/>
<path d="M199.126 127.222C202.319 126.306 204.316 123.513 203.588 120.984C202.859 118.455 199.68 117.147 196.487 118.063C193.294 118.979 191.296 121.772 192.025 124.301C192.754 126.831 195.933 128.138 199.126 127.222Z" fill="white"/>
<path d="M236.781 127.133C235.47 148.435 218.782 165.3 198.324 165.3C181.495 165.3 167.147 153.855 161.927 137.901L236.781 127.133Z" fill="white" stroke="#424376" stroke-linecap="round" stroke-linejoin="round"/>
<path d="M126.42 81.21C126.42 81.21 118.859 126.525 135.993 160.325C135.993 160.325 128.035 128.114 142.359 79.2246L137.187 67.2885L126.42 81.21Z" fill="#424376" stroke="#424376" stroke-linecap="round" stroke-linejoin="round"/>
<path d="M138.965 78.6173C138.965 78.6173 136.976 100.878 139.363 106.647C139.363 106.647 170.237 76.4216 234.792 82.0043C265.875 86.3723 264.682 89.549 264.682 89.549C264.682 89.549 261.101 64.1118 231.608 46.2192C202.116 28.3267 172.249 32.2976 156.31 40.6599C140.37 48.9989 131.616 58.9496 131.616 58.9496L138.989 78.6407L138.965 78.6173Z" fill="#424376" stroke="#424376" stroke-linecap="round" stroke-linejoin="round"/>
<path d="M159.399 101.485C158.791 98.7989 160.008 77.6362 161.202 76.4449L172.249 94.3375L159.399 101.485Z" fill="#FAEBE3"/>
<path d="M228.121 66.3074C228.121 66.3074 237.085 78.5238 234.698 85.9985L240.667 85.6948C240.667 85.6948 239.169 78.2435 228.121 66.3074Z" fill="#FAEBE3"/>
<path d="M126.232 56.7538C126.232 56.7538 135.197 29.915 168.645 26.3412C202.116 22.7674 246.94 43.6264 258.877 72.2638C270.838 100.901 235.564 54.3713 235.564 54.3713L126.209 56.7538H126.232Z" fill="#424376" stroke="#424376" stroke-linecap="round" stroke-linejoin="round"/>
<path d="M106.501 94.7346L133.582 54.5815L143.553 65.303L126.817 125.731L106.501 117.789V94.7346Z" fill="#424376"/>
<path d="M187.183 227.924C187.183 227.924 187.183 274.431 182.993 286.367L187.464 287.254C187.464 287.254 193.737 259.435 191.349 228.321L187.159 227.924H187.183Z" fill="white" stroke="#424376" stroke-linecap="round" stroke-linejoin="round"/>
<path d="M212.438 224.046C212.438 224.046 223.463 269.245 222.222 281.835L226.787 281.648C226.787 281.648 226.295 253.128 216.605 223.463L212.438 224.07V224.046Z" fill="white" stroke="#424376" stroke-linecap="round" stroke-linejoin="round"/>
<path d="M248.531 364.804L235.541 370.807L228.378 355.718C228.378 355.718 239.988 344.669 240.269 345.02C240.55 345.37 248.531 364.804 248.531 364.804Z" fill="#FAEBE3"/>
<path d="M257.473 367.584C257.473 367.584 265.688 372.092 270.955 362.889C276.198 353.709 262.411 337.989 262.411 337.989C262.411 337.989 243.756 319.956 222.105 325.562C186.621 334.742 207.172 354.503 207.172 354.503" fill="#FAEBE3"/>
<path d="M257.473 367.584C257.473 367.584 265.688 372.092 270.955 362.889C276.198 353.709 262.411 337.989 262.411 337.989C262.411 337.989 243.756 319.956 222.105 325.562C186.621 334.742 207.172 354.503 207.172 354.503" stroke="#424376" stroke-miterlimit="10" stroke-linecap="round"/>
<path d="M249.187 370.153C249.187 370.153 255.226 376.857 259.907 369.195C267.748 356.395 255.155 345.837 255.155 345.837" fill="#FAEBE3"/>
<path d="M249.187 370.153C249.187 370.153 255.226 376.857 259.907 369.195C267.748 356.395 255.155 345.837 255.155 345.837" stroke="#424376" stroke-miterlimit="10" stroke-linecap="round"/>
<path d="M238.747 372.395C238.747 372.395 243.897 378.469 249.468 371.438C255.062 364.407 247.525 351.583 247.525 351.583" fill="#FAEBE3"/>
<path d="M238.747 372.395C238.747 372.395 243.897 378.469 249.468 371.438C255.062 364.407 247.525 351.583 247.525 351.583" stroke="#424376" stroke-miterlimit="10" stroke-linecap="round"/>
<path d="M206.165 354.807C206.165 354.807 213.819 362.632 222.41 356.886C222.41 356.886 225.593 376.32 234.487 374.731C236.079 374.451 237.179 373.634 237.905 372.489C241.322 367.21 237.085 354.853 237.085 354.853" fill="#FAEBE3"/>
<path d="M206.165 354.807C206.165 354.807 213.819 362.632 222.41 356.886C222.41 356.886 225.593 376.32 234.487 374.731C236.079 374.451 237.179 373.634 237.905 372.489C241.322 367.21 237.085 354.853 237.085 354.853" stroke="#424376" stroke-miterlimit="10" stroke-linecap="round"/>
<path d="M195.843 319.162C195.843 319.162 214.966 319.162 218.852 322.736C222.737 326.309 223.322 360.016 218.243 364.173L191.045 361.184L195.82 319.138L195.843 319.162Z" fill="#FBCF73" stroke="#424376" stroke-linecap="round" stroke-linejoin="round"/>
<path d="M195.703 326.029C195.703 326.029 217.822 325.725 220.654 329.299" stroke="#424376" stroke-linecap="round" stroke-linejoin="round"/>
<path d="M195.703 333.878C195.703 333.878 218.711 333.574 221.661 337.148" stroke="#424376" stroke-linecap="round" stroke-linejoin="round"/>
<path d="M194.158 341.819C194.158 341.819 218.524 341.516 221.637 345.09" stroke="#424376" stroke-linecap="round" stroke-linejoin="round"/>
<path d="M192.754 349.481C192.754 349.481 217.307 349.177 220.443 352.751" stroke="#424376" stroke-linecap="round" stroke-linejoin="round"/>
<path d="M192.754 356.442C192.754 356.442 216.769 356.138 219.835 359.712" stroke="#424376" stroke-linecap="round" stroke-linejoin="round"/>
<path d="M263.863 245.233C263.863 245.233 279.124 311.243 271.891 343.641" stroke="#424376" stroke-linecap="round" stroke-linejoin="round"/>
</g>
<defs>
<clipPath id="clip0_2560_1508">
<rect width="252.135" height="351.24" fill="white" transform="translate(49.5526 24.7762)"/>
</clipPath>
</defs>
</svg>
