<svg width="70" height="71" viewBox="0 0 70 71" fill="none" xmlns="http://www.w3.org/2000/svg">
<path d="M52.5 18H24.1719C23.5917 18 23.0353 17.7695 22.6251 17.3593C22.2148 16.9491 21.9844 16.3927 21.9844 15.8125C21.9844 15.2323 22.2148 14.6759 22.6251 14.2657C23.0353 13.8555 23.5917 13.625 24.1719 13.625H54.6875C55.2677 13.625 55.8241 13.8555 56.2343 14.2657C56.6445 14.6759 56.875 15.2323 56.875 15.8125V46.4375C56.875 47.0177 56.6445 47.5741 56.2343 47.9843C55.8241 48.3945 55.2677 48.625 54.6875 48.625C54.1073 48.625 53.5509 48.3945 53.1407 47.9843C52.7305 47.5741 52.5 47.0177 52.5 46.4375V18Z" fill="#FFF7E7"/>
<path d="M53.1387 14.2637C53.5495 13.853 54.1066 13.6222 54.6875 13.6222C55.2684 13.6222 55.8255 13.853 56.2363 14.2637C56.647 14.6745 56.8778 15.2316 56.8778 15.8125C56.8778 16.3933 56.647 16.9505 56.2363 17.3612L19.0488 54.5487C18.8454 54.7521 18.6039 54.9134 18.3382 55.0235C18.0724 55.1336 17.7876 55.1902 17.5 55.1902C17.2124 55.1902 16.9276 55.1336 16.6618 55.0235C16.3961 54.9134 16.1546 54.7521 15.9513 54.5487C15.7479 54.3453 15.5865 54.1039 15.4765 53.8381C15.3664 53.5724 15.3097 53.2876 15.3097 53C15.3097 52.7123 15.3664 52.4275 15.4765 52.1618C15.5865 51.896 15.7479 51.6546 15.9513 51.4512L53.1387 14.2637Z" fill="#FFF7E7"/>
</svg>
