<svg width="32" height="32" viewBox="0 0 32 32" fill="none" xmlns="http://www.w3.org/2000/svg">
<path d="M24 8H11.05C10.7848 8 10.5305 7.89464 10.3429 7.70711C10.1554 7.51957 10.05 7.26522 10.05 7C10.05 6.73478 10.1554 6.48043 10.3429 6.29289C10.5305 6.10536 10.7848 6 11.05 6H25C25.2653 6 25.5196 6.10536 25.7072 6.29289C25.8947 6.48043 26 6.73478 26 7V21C26 21.2652 25.8947 21.5196 25.7072 21.7071C25.5196 21.8946 25.2653 22 25 22C24.7348 22 24.4805 21.8946 24.2929 21.7071C24.1054 21.5196 24 21.2652 24 21V8Z" fill="#ED8F4D"/>
<path d="M24.292 6.29229C24.4798 6.10451 24.7345 5.99902 25 5.99902C25.2656 5.99902 25.5203 6.10451 25.708 6.29229C25.8958 6.48006 26.0013 6.73474 26.0013 7.00029C26.0013 7.26584 25.8958 7.52051 25.708 7.70829L8.70804 24.7083C8.61507 24.8013 8.50469 24.875 8.38321 24.9253C8.26173 24.9757 8.13153 25.0015 8.00004 25.0015C7.86855 25.0015 7.73835 24.9757 7.61688 24.9253C7.4954 24.875 7.38502 24.8013 7.29204 24.7083C7.19907 24.6153 7.12531 24.5049 7.075 24.3835C7.02468 24.262 6.99878 24.1318 6.99878 24.0003C6.99878 23.8688 7.02468 23.7386 7.075 23.6171C7.12531 23.4956 7.19907 23.3853 7.29204 23.2923L24.292 6.29229Z" fill="#ED8F4D"/>
</svg>
