<svg width="210" height="258" viewBox="0 0 210 258" fill="none" xmlns="http://www.w3.org/2000/svg">
<g clip-path="url(#clip0_2148_3127)">
<path d="M164.181 160.977L207.813 228.846C207.813 228.846 132.678 235.302 117.037 240.056C101.396 244.81 39.2082 235.654 35.3196 236.29L44.1972 152.805C44.1972 152.805 157.379 153.79 164.192 160.975L164.181 160.977Z" fill="#FFF8E8"/>
<path d="M207.984 229.889C208.317 229.835 208.612 229.615 208.755 229.313C208.913 228.977 208.892 228.584 208.691 228.274L165.06 160.405C165.018 160.347 164.979 160.3 164.937 160.243C158.021 152.946 55.816 151.847 44.1952 151.745C43.66 151.737 43.193 152.145 43.1431 152.689L34.2656 236.174C34.2336 236.5 34.3506 236.824 34.5908 237.052C34.831 237.281 35.1564 237.378 35.4891 237.323C36.4769 237.162 43.0158 237.848 50.5886 238.655C71.3154 240.843 106.01 244.495 117.352 241.065C132.711 236.41 207.165 229.97 207.911 229.901C207.943 229.896 207.963 229.893 207.995 229.888L207.984 229.889ZM163.363 161.646L205.98 227.947C194.351 228.971 131.154 234.662 116.734 239.046C105.811 242.364 71.3761 238.734 50.8016 236.564C43.241 235.766 38.7021 235.298 36.4903 235.221L45.1426 153.882C90.2834 154.304 158.123 156.699 163.363 161.646Z" fill="#424376"/>
<path d="M148.361 44.7673C148.361 44.7673 165.49 99.2915 161.786 116.647L79.004 127.845L31.9888 122.557C31.9888 122.557 31.2028 55.8277 49.6451 38.3102C68.0874 20.7926 148.361 44.7673 148.361 44.7673Z" fill="#798DAE"/>
<path d="M161.956 117.69C162.383 117.62 162.725 117.296 162.816 116.875C166.531 99.4533 150.064 46.6948 149.366 44.4529C149.258 44.1173 149.002 43.8592 148.665 43.7538C145.365 42.7728 67.5875 19.825 48.9229 37.5502C30.3695 55.1716 30.9129 119.831 30.9443 122.567C30.9464 123.102 31.3506 123.55 31.8823 123.603L78.8974 128.89C78.984 128.898 79.0689 128.894 79.1538 128.891L161.936 117.693L161.967 117.688L161.956 117.69ZM147.518 45.6227C149.251 51.2508 163.728 99.023 160.894 115.7L78.9997 126.775L33.0391 121.603C33.0436 113.474 33.6438 54.9572 50.3672 39.0702C67.3789 22.9219 140.479 43.5723 147.517 45.6122L147.518 45.6227Z" fill="#424376"/>
<path d="M136.838 104.782C136.838 104.782 165.624 116.95 167.706 134.109C169.787 151.267 166.865 157.946 166.865 157.946L68.3373 157.659L38.5723 175.658C38.5723 175.658 17.8338 146.644 58.2955 107.372L136.828 104.784L136.838 104.782Z" fill="#FBCF73"/>
<path d="M167.562 158.999L167.842 158.364C167.966 158.076 170.848 151.222 168.763 133.979C166.636 116.41 138.46 104.313 137.255 103.804L137.037 103.711L136.804 103.717L57.8677 106.318L57.5725 106.602C36.4015 127.147 32.1051 144.931 32.2261 156.242C32.3584 168.6 37.5124 175.96 37.7334 176.266L38.3013 177.062L68.6491 158.711L167.572 158.998L167.562 158.999ZM136.639 105.843C139.217 106.985 164.769 118.633 166.66 134.237C168.325 147.94 166.737 154.872 166.117 156.89L68.0481 156.603L38.9146 174.22C37.6261 172.022 34.3787 165.549 34.3155 156.092C34.2348 145.289 38.4202 128.262 58.7338 108.415L136.629 105.845L136.639 105.843Z" fill="#424376"/>
<path d="M133.846 160.542C142.338 153.916 135.739 136.094 135.455 135.337L133.486 136.088C133.546 136.26 139.83 153.202 132.56 158.879L133.858 160.551L133.846 160.542Z" fill="#424376"/>
<path d="M66.8644 159.549L67.7802 157.643C65.1142 156.355 63.5702 143.264 63.3324 134.371L61.2277 134.426C61.3344 138.21 62.098 157.234 66.8748 159.547L66.8644 159.549Z" fill="#424376"/>
<path d="M167.283 160.426C167.283 160.426 168.015 169.335 161.11 173.195C154.204 177.056 141.618 169.616 140.522 167.878C139.426 166.14 137.812 168.803 135.447 168.505C133.082 168.207 129.442 161.166 134.024 157.847C138.605 154.527 164.383 153.79 165.981 156.056C167.58 158.322 167.155 159.901 167.273 160.428L167.283 160.426Z" fill="#FAEBE3"/>
<path d="M158.438 175.196C159.571 175.011 160.636 174.665 161.624 174.118C169.038 169.971 168.369 160.731 168.337 160.34L168.326 160.267L168.317 160.215C168.305 160.142 168.312 160.055 168.316 159.947C168.314 159.155 168.301 157.508 166.855 155.453C166.423 154.838 165.518 154.461 163.828 154.181C157.232 153.075 137.729 153.867 133.415 156.993C131.144 158.639 130.279 161.319 131.053 164.351C131.65 166.695 133.348 169.309 135.32 169.554C136.694 169.726 137.826 169.144 138.657 168.74C138.943 168.597 139.358 168.39 139.555 168.358C139.555 168.358 139.555 168.358 139.566 168.356C139.567 168.367 139.595 168.405 139.635 168.452C140.772 170.247 150.829 176.452 158.44 175.206L158.438 175.196ZM166.238 160.555C166.274 161.234 166.562 168.93 160.596 172.273C154.161 175.874 142.264 168.6 141.413 167.315C140.291 165.549 138.614 166.391 137.718 166.849C137.027 167.197 136.316 167.549 135.587 167.465C135.042 167.393 133.67 166.054 133.104 163.834C132.781 162.58 132.558 160.239 134.658 158.718C139.123 155.47 163.275 155.235 165.199 156.752C166.204 158.194 166.208 159.264 166.217 159.969C166.219 160.183 166.221 160.386 166.251 160.574L166.238 160.555Z" fill="#424376"/>
<path d="M98.0256 131.054C86.6397 131.962 76.9026 126.377 76.2772 118.581C75.6518 110.784 84.3749 103.729 95.7609 102.821C107.147 101.914 116.884 107.498 117.509 115.295C118.135 123.091 109.412 130.147 98.0256 131.054Z" fill="#FBC59D"/>
<path d="M100.702 131.791C105.401 131.023 109.674 129.21 112.937 126.577C116.896 123.37 118.894 119.337 118.56 115.205C118.225 111.072 115.607 107.399 111.189 104.866C106.901 102.408 101.392 101.296 95.6819 101.759C89.9698 102.212 84.7078 104.176 80.8617 107.29C76.9027 110.497 74.9042 114.529 75.2387 118.662C75.5732 122.794 78.1918 126.468 82.6095 129.001C86.8974 131.458 92.4064 132.57 98.1168 132.107C98.9917 132.039 99.8598 131.929 100.702 131.791ZM93.4276 104.163C94.2178 104.034 95.0339 103.932 95.8568 103.873C101.157 103.445 106.233 104.456 110.156 106.706C113.949 108.88 116.193 111.962 116.464 115.376C116.734 118.791 115.016 122.189 111.623 124.939C108.106 127.785 103.266 129.584 97.9539 130.003C92.6542 130.431 87.578 129.419 83.655 127.17C79.8618 124.995 77.6176 121.914 77.3471 118.499C77.0767 115.084 78.7947 111.687 82.1879 108.936C85.1576 106.533 89.0816 104.874 93.4276 104.163Z" fill="#424376"/>
<path d="M143.793 84.7566C141.478 79.5458 144.506 73.1349 150.554 70.4373C156.603 67.7398 163.382 69.7771 165.696 74.9879C168.011 80.1987 164.983 86.6096 158.935 89.3072C152.886 92.0047 146.107 89.9674 143.793 84.7566Z" fill="#FAEBE3"/>
<path d="M155.697 91.3626C156.934 91.1602 158.165 90.7875 159.359 90.2601C165.926 87.333 169.204 80.2856 166.663 74.5434C164.114 68.8134 156.695 66.5359 150.128 69.4629C146.974 70.8678 144.472 73.2584 143.084 76.1949C141.672 79.1782 141.586 82.3729 142.825 85.1796C144.074 87.9845 146.493 90.0518 149.659 91.001C151.591 91.5846 153.659 91.696 155.707 91.3609L155.697 91.3626ZM154.113 70.4602C158.657 69.7169 163.055 71.6103 164.733 75.4054C166.81 80.0774 164.011 85.8687 158.498 88.3234C155.802 89.5249 152.872 89.7579 150.255 88.9652C147.695 88.1953 145.738 86.5449 144.743 84.3089C143.747 82.0729 143.829 79.5106 144.982 77.0945C146.157 74.6211 148.281 72.5924 150.977 71.3909C152.013 70.9324 153.061 70.6216 154.111 70.4498L154.113 70.4602Z" fill="#424376"/>
<path d="M144.764 83.2558C143.445 80.2851 145.171 76.6297 148.621 75.0913C152.07 73.5529 155.936 74.714 157.256 77.6847C158.575 80.6555 156.848 84.3108 153.399 85.8493C149.949 87.3877 146.083 86.2265 144.764 83.2558Z" fill="#FBC59D"/>
<path d="M34.2093 98.511C27.7652 96.9754 23.6021 91.2332 24.9109 85.6855C26.2197 80.1377 32.5048 76.8852 38.949 78.4208C45.3931 79.9563 49.5562 85.6985 48.2474 91.2463C46.9386 96.794 40.6535 100.047 34.2093 98.511Z" fill="#FAEBE3"/>
<path d="M39.6919 99.7499C44.381 98.9827 48.2393 95.8777 49.2721 91.4892C50.7076 85.3857 46.1919 79.0564 39.1842 77.397C35.8189 76.5982 32.39 76.9772 29.5144 78.4543C26.5815 79.9729 24.5852 82.4521 23.878 85.4378C22.4321 91.5431 26.9565 97.8603 33.9659 99.53C35.9221 100.002 37.8724 100.048 39.6919 99.7499ZM47.2277 90.9991C46.0548 95.9673 40.3281 98.8747 34.4508 97.4695C28.5736 96.0643 24.7583 90.8841 25.9312 85.9159C26.493 83.5429 28.1106 81.554 30.4832 80.3305C32.9148 79.076 35.8308 78.7596 38.708 79.4454C44.5731 80.8419 48.3988 86.0205 47.2277 90.9991Z" fill="#424376"/>
<path d="M38.997 94.1085C35.3219 93.2328 32.9475 89.9588 33.6937 86.796C34.4399 83.6332 38.024 81.7791 41.6992 82.6548C45.3743 83.5306 47.7486 86.8045 47.0025 89.9673C46.2563 93.1302 42.6721 94.9842 38.997 94.1085Z" fill="#FBC59D"/>
<path d="M104.097 121.876C73.5029 126.881 44.8844 107.609 40.1761 78.8303C35.4678 50.0514 56.4527 22.664 87.0472 17.6586C117.642 12.6533 146.26 31.9256 150.968 60.7044C155.677 89.4833 134.692 116.871 104.097 121.876Z" fill="#FAEBE3"/>
<path d="M104.268 122.919C135.387 117.828 156.803 89.8429 152.008 60.5343C147.213 31.2258 117.995 11.5245 86.8766 16.6156C55.7579 21.7067 34.3415 49.6918 39.1365 79.0004C43.9314 108.309 73.1493 128.01 104.268 122.919ZM87.2179 18.7016C117.193 13.7976 145.322 32.7133 149.929 60.8745C154.536 89.0357 133.902 115.929 103.927 120.833C73.9517 125.737 45.8231 106.821 41.2159 78.6602C36.6087 50.4989 57.2532 23.6039 87.2179 18.7016Z" fill="#424376"/>
<path d="M100.695 110.01C114.679 107.722 125.918 99.6188 128.025 90.3104C128.156 89.7428 127.798 89.1804 127.231 89.0481C126.665 88.9158 126.105 89.2752 125.974 89.8429C124.054 98.3388 113.516 105.771 100.354 107.924C85.8391 110.299 72.4838 105.534 69.2904 96.846C69.0942 96.2998 68.4818 96.0145 67.9391 96.2211C67.3947 96.4172 67.1108 97.0313 67.3174 97.5758C70.8566 107.203 85.2134 112.543 100.695 110.01Z" fill="#424376"/>
<path d="M114.681 81.1817C114.519 80.6882 115.387 79.9591 116.619 79.5534C117.852 79.1477 118.982 79.219 119.144 79.7125C119.306 80.2061 118.438 80.9351 117.206 81.3408C115.973 81.7465 114.843 81.6753 114.681 81.1817Z" fill="#424376"/>
<path d="M116.45 82.073C116.751 82.0236 117.06 81.9518 117.363 81.8486C118.022 81.6337 118.612 81.323 119.034 80.9649C119.766 80.3524 119.731 79.812 119.645 79.5476C119.327 78.5823 117.763 78.6133 116.447 79.0534C115.384 79.4094 114.539 79.9867 114.25 80.5694C114.082 80.9076 114.115 81.1805 114.176 81.3527C114.262 81.6171 114.55 82.0733 115.509 82.1305C115.8 82.1472 116.117 82.1274 116.46 82.0713L116.45 82.073ZM117.531 79.8721C118.176 79.7666 118.584 79.8497 118.672 79.9316C118.606 79.9853 118.105 80.5065 117.04 80.8519C116.099 81.1666 115.429 81.1156 115.211 81.0228C115.327 80.8216 115.831 80.3752 116.784 80.0692C117.058 79.9816 117.314 79.9182 117.533 79.8825L117.531 79.8721Z" fill="#424376"/>
<path d="M76.9712 85.1407C75.7084 84.8398 74.7814 84.1862 74.9006 83.6808C75.0198 83.1755 76.1402 83.0097 77.403 83.3106C78.6658 83.6115 79.5928 84.2652 79.4736 84.7705C79.3543 85.2759 78.234 85.4417 76.9712 85.1407Z" fill="#424376"/>
<path d="M78.7715 85.7634C79.6865 85.6137 79.9197 85.1472 79.9828 84.8799C80.0282 84.7011 80.0359 84.4214 79.834 84.101C79.4976 83.5456 78.6033 83.0387 77.5144 82.7777C76.1693 82.4516 74.6067 82.5573 74.3721 83.5381C74.1393 84.5293 75.485 85.3159 76.8405 85.6403C77.5174 85.7973 78.1876 85.8482 78.7178 85.7615L78.7594 85.7547L78.7715 85.7634ZM75.7661 83.7063C76.0884 83.6536 76.6115 83.6537 77.2884 83.8107C78.3773 84.0716 78.9235 84.5391 78.9699 84.6922C78.8867 84.7058 78.19 84.884 77.1011 84.6231C76.1247 84.3973 75.5887 83.9924 75.4506 83.8008C75.52 83.768 75.6206 83.7301 75.7661 83.7063Z" fill="#424376"/>
<path d="M142.74 69.1939C142.74 69.1939 86.1301 63.9872 52.8618 76.7551C41.1418 81.7246 36.9994 84.8548 36.9994 84.8548C36.9994 84.8548 29.8956 21.8578 79.1789 16.3437C128.462 10.8297 145.467 39.4043 148.362 44.7672C151.257 50.1302 155.809 71.3609 155.809 71.3609L142.742 69.2043L142.74 69.1939Z" fill="#424376"/>
<path d="M155.977 72.3934C156.196 72.3577 156.413 72.2473 156.567 72.0828C156.803 71.83 156.905 71.4707 156.838 71.1282C156.653 70.2589 152.209 49.6852 149.281 44.2527C144.896 36.1135 126.865 9.94498 79.0598 15.2922C58.4483 17.5934 44.4398 30.4338 38.5845 52.3926C34.1961 68.8317 35.9251 84.8162 35.9507 84.9727C35.9914 85.3516 36.2365 85.6756 36.5809 85.8227C36.9252 85.9699 37.3237 85.9261 37.6274 85.6943C37.6656 85.6667 41.8547 82.561 53.266 77.7276C85.5512 65.3455 140.879 70.0873 142.602 70.2445L155.636 72.3957C155.747 72.4204 155.863 72.4122 155.977 72.3934ZM76.4883 17.7798C77.4033 17.6301 78.3424 17.4979 79.2971 17.3952C125.803 12.1964 143.209 37.4176 147.429 45.2626C149.774 49.6124 153.347 65.1238 154.442 70.0531L142.9 68.1503C142.9 68.1503 142.846 68.1484 142.823 68.1413C142.259 68.0838 85.5829 63.0592 52.4758 75.7686C44.5099 79.1495 40.0225 81.672 37.8887 82.985C37.5864 78.4616 37.1708 65.807 40.6289 52.8827C46.0713 32.5765 58.1269 20.7838 76.4883 17.7798Z" fill="#424376"/>
<path d="M133.655 72.3294C133.655 72.3294 133.805 60.5246 127.806 48.9763C127.806 48.9763 128.121 70.868 126.607 71.7262L133.655 72.3294Z" fill="#FAEBE3"/>
<path d="M139.775 95.9058C134.429 96.7804 129.384 93.142 128.506 87.779C127.629 82.4161 131.252 77.3596 136.598 76.485C141.944 75.6104 146.989 79.2489 147.866 84.6118C148.743 89.9747 145.121 95.0312 139.775 95.9058Z" fill="#FBC59D"/>
<path d="M58.3432 103.67C52.9972 104.545 47.9522 100.906 47.0748 95.5435C46.1974 90.1805 49.8199 85.124 55.1659 84.2494C60.5119 83.3748 65.557 87.0133 66.4343 92.3762C67.3117 97.7391 63.6892 102.796 58.3432 103.67Z" fill="#FBC59D"/>
<path d="M95.58 92.2597C93.7065 92.409 92.0917 91.332 91.9731 89.8542C91.8546 88.3764 93.2772 87.0573 95.1507 86.908C97.0242 86.7587 98.6391 87.8357 98.7576 89.3135C98.8762 90.7913 97.4535 92.1104 95.58 92.2597Z" fill="white"/>
<path d="M104.268 122.919C135.387 117.828 156.803 89.8429 152.008 60.5343C147.213 31.2258 117.995 11.5245 86.8766 16.6156C55.7579 21.7067 34.3415 49.6918 39.1365 79.0004C43.9314 108.309 73.1493 128.01 104.268 122.919ZM87.2179 18.7016C117.193 13.7976 145.322 32.7133 149.929 60.8745C154.536 89.0357 133.902 115.929 103.927 120.833C73.9517 125.737 45.8231 106.821 41.2159 78.6602C36.6087 50.4989 57.2532 23.6039 87.2179 18.7016Z" fill="#424376"/>
<path d="M143.056 63.573C143.056 63.573 146.494 100.247 143.695 104.281C143.695 104.281 153.599 89.8422 149.71 66.072C145.822 42.3018 143.056 63.573 143.056 63.573Z" fill="#424376"/>
<path d="M143.865 105.314C144.136 105.27 144.389 105.121 144.563 104.879L144.561 104.868C145.077 104.109 154.629 89.6738 150.741 65.9036C149.08 55.7551 147.693 53.7332 146 53.7638C144.135 53.7799 142.833 57.045 141.999 63.4355C141.99 63.512 141.992 63.5867 141.995 63.6718C143.305 77.6152 144.677 100.683 142.853 103.627C142.827 103.663 142.818 103.676 142.82 103.686C142.493 104.168 142.611 104.823 143.091 105.151C143.321 105.317 143.597 105.369 143.857 105.326L143.865 105.314ZM146.041 56.0381C146.471 56.6425 147.448 58.7637 148.67 66.2317C151.004 80.5 148.24 91.4044 145.776 97.6764C146.209 87.014 144.57 68.4446 144.117 63.5924C144.564 60.253 145.405 56.9775 146.041 56.0381Z" fill="#424376"/>
<path d="M43.5853 77.4802C43.5853 77.4802 52.0138 113.337 55.9524 116.27C55.9524 116.27 41.9635 105.74 38.0746 81.9693C34.1858 58.1992 43.5853 77.4802 43.5853 77.4802Z" fill="#424376"/>
<path d="M56.1217 117.302C56.3816 117.26 56.6262 117.124 56.7913 116.893C57.1424 116.429 57.0453 115.77 56.5819 115.417C56.5819 115.417 56.5577 115.4 56.5318 115.372C53.8662 113.174 47.8138 90.8604 44.6118 77.2266C44.5998 77.1536 44.5654 77.0736 44.5327 77.004C41.7062 71.2122 39.39 68.539 37.6582 69.1115C36.0443 69.6218 35.3733 71.9806 37.0336 82.129C40.9241 105.91 54.5768 116.538 55.3081 117.093C55.5519 117.278 55.8393 117.338 56.1096 117.294L56.1217 117.302ZM42.5871 77.8363C43.7048 82.5797 48.0683 100.703 51.877 110.672C47.5437 105.523 41.4491 96.0676 39.113 81.7888C37.8912 74.3209 38.1395 71.9885 38.356 71.2891C39.2585 71.9768 41.1101 74.8116 42.5871 77.8363Z" fill="#424376"/>
<path d="M166.027 200.963C154.968 193.006 173.35 189.998 170.477 200.235C173.34 190 187.944 200.505 174.011 202.784C187.944 200.505 184.155 214.019 173.096 206.061C184.155 214.019 165.773 217.026 168.646 206.789C165.783 217.024 151.179 206.52 165.111 204.24C151.179 206.52 154.968 193.006 166.027 200.963Z" fill="#FBCF73"/>
<path d="M74.1415 164.752C74.1415 164.752 71.2984 157.292 64.9689 157.364C58.6394 157.435 41.3274 166.854 40.1274 172.309C38.9274 177.763 42.0903 189.004 54.095 189.364C66.0998 189.724 76.2378 180.044 72.8699 171.139C72.8699 171.139 77.2149 169.443 74.1432 164.762L74.1415 164.752Z" fill="#FAEBE3"/>
<path d="M58.4053 190.126C63.9782 189.215 69.0711 186.283 72.0556 182.078C74.4057 178.759 75.1388 175.084 74.1375 171.639C74.8211 171.184 75.6943 170.388 76.0905 169.156C76.5549 167.688 76.2125 166.052 75.0789 164.277C74.6674 163.263 71.5755 156.24 64.9481 156.318C58.4488 156.396 40.4402 165.928 39.0878 172.083C38.3783 175.315 39.0718 180.663 42.2627 184.768C44.1844 187.248 47.7903 190.235 54.0551 190.42C55.5135 190.46 56.9809 190.359 58.4053 190.126ZM63.7006 158.546C64.1685 158.469 64.5999 158.431 64.9827 158.422C70.512 158.353 73.1352 165.056 73.1576 165.127L73.2662 165.334C74.0893 166.581 74.3604 167.651 74.095 168.508C73.7353 169.638 72.506 170.149 72.4956 170.151L71.5229 170.535L71.8964 171.513C73.0408 174.528 72.4835 177.842 70.349 180.847C66.9908 185.573 60.6265 188.499 54.1262 188.31C49.8134 188.18 46.2943 186.507 43.9288 183.467C41.1574 179.904 40.5435 175.303 41.1583 172.536C42.1376 168.082 56.8697 159.664 63.7006 158.546Z" fill="#424376"/>
<path d="M47.7521 139.426C48.8645 138.591 50.4488 138.814 51.2948 139.939L81.6316 180.704L81.7007 180.8C81.894 181.068 82.0371 181.356 82.1195 181.663L82.2082 182.206L82.2099 182.216L82.8703 186.253C82.8889 186.432 82.7084 186.568 82.5458 186.488L78.8728 184.722L78.8416 184.727L78.3399 184.466C78.0787 184.306 77.8402 184.088 77.6382 183.831L77.5692 183.736L47.2323 142.97C46.3968 141.843 46.6276 140.253 47.7504 139.416L47.7521 139.426Z" fill="#424376"/>
<rect x="89" y="176" width="50" height="50" rx="25" fill="#ED8F4D"/>
<path d="M114.003 193.308C109.747 193.308 106.313 196.742 106.313 201C106.313 205.258 109.747 208.692 114.003 208.692C118.26 208.692 121.693 205.258 121.693 201C121.693 196.742 118.26 193.308 114.003 193.308ZM114.003 206.001C111.253 206.001 109.004 203.758 109.004 201C109.004 198.242 111.246 195.999 114.003 195.999C116.761 195.999 119.003 198.242 119.003 201C119.003 203.758 116.754 206.001 114.003 206.001ZM123.801 192.994C123.801 193.991 122.998 194.788 122.008 194.788C121.011 194.788 120.214 193.984 120.214 192.994C120.214 192.003 121.017 191.2 122.008 191.2C122.998 191.2 123.801 192.003 123.801 192.994ZM128.895 194.815C128.781 192.411 128.232 190.283 126.472 188.529C124.718 186.775 122.59 186.226 120.187 186.105C117.711 185.965 110.289 185.965 107.813 186.105C105.417 186.219 103.288 186.768 101.528 188.522C99.768 190.276 99.2259 192.405 99.1054 194.808C98.9649 197.285 98.9649 204.709 99.1054 207.185C99.2192 209.589 99.768 211.717 101.528 213.471C103.288 215.225 105.41 215.774 107.813 215.895C110.289 216.035 117.711 216.035 120.187 215.895C122.59 215.781 124.718 215.232 126.472 213.471C128.225 211.717 128.774 209.589 128.895 207.185C129.035 204.709 129.035 197.291 128.895 194.815ZM125.695 209.843C125.173 211.155 124.163 212.166 122.844 212.695C120.87 213.478 116.185 213.297 114.003 213.297C111.822 213.297 107.13 213.471 105.162 212.695C103.851 212.173 102.84 211.162 102.311 209.843C101.528 207.868 101.709 203.182 101.709 201C101.709 198.818 101.535 194.125 102.311 192.157C102.833 190.845 103.844 189.834 105.162 189.305C107.137 188.522 111.822 188.703 114.003 188.703C116.185 188.703 120.877 188.529 122.844 189.305C124.156 189.827 125.167 190.838 125.695 192.157C126.479 194.132 126.298 198.818 126.298 201C126.298 203.182 126.479 207.875 125.695 209.843Z" fill="white"/>
</g>
<defs>
<clipPath id="clip0_2148_3127">
<rect width="173.539" height="232.671" fill="white" transform="matrix(-0.98688 0.161456 0.161456 0.98688 171.459 0.10083)"/>
</clipPath>
</defs>
</svg>
