<svg width="209" height="116" viewBox="0 0 209 116" fill="none" xmlns="http://www.w3.org/2000/svg">
<path d="M0 34.6916C0 17.7794 4.86055 8.49221 7.56085 5.96262C11.6113 2.16822 18 14.8801 21 15C28 15.2798 38.0342 14.5603 40.5046 10.8411C42.6648 7.58879 46.4452 0 51.3058 0C56.1663 0 58.8666 9.75701 62.107 15.1776C65.3474 20.5981 72.9082 23.3084 103.692 25.4766C134.475 27.6449 156.618 52.5794 159.858 56.3738C163.098 60.1682 176.06 61.7944 183.081 61.7944C190.101 61.7944 197.122 48.243 194.962 38.486C192.802 28.729 194.422 23.8505 200.363 23.3084C206.303 22.7664 214.944 39.028 203.063 61.7944C193.558 80.0075 173.18 78.7788 164.179 75.8878C166.879 83.4766 165.263 98.282 164.179 100.822C162.558 104.617 158.238 112.206 127.454 103.533C96.6709 94.8598 82.0893 108.953 76.1486 107.869C70.2079 106.785 75.0685 103.533 65.8874 100.822C56.7064 98.1122 58.3266 116 43.7449 116C23.7627 113.29 0 55.8318 0 34.6916Z" fill="#FBCF73"/>
<circle cx="18" cy="32" r="2" fill="#ED8F4D"/>
<circle cx="35" cy="28" r="2" fill="#ED8F4D"/>
<path d="M22 37C23.3333 37.5 26.4 37.7 28 34.5C29.3333 35.5 32.6 37.1 35 35.5" stroke="#ED8F4D" stroke-width="2" stroke-linecap="round"/>
<line x1="38.3162" y1="30.3675" x2="43.3675" y2="28.6838" stroke="#FFF7E7" stroke-linecap="round"/>
<line x1="0.5" y1="-0.5" x2="5.82456" y2="-0.5" transform="matrix(-0.997415 0.0718609 0.0718609 0.997415 16.7637 36.6711)" stroke="#FFF7E7" stroke-linecap="round"/>
<line x1="38.5325" y1="33.5347" x2="43.845" y2="33.8924" stroke="#FFF7E7" stroke-linecap="round"/>
<line x1="0.5" y1="-0.5" x2="5.82456" y2="-0.5" transform="matrix(-0.89565 0.444759 0.444759 0.89565 17.9144 39.4415)" stroke="#FFF7E7" stroke-linecap="round"/>
</svg>
