<svg width="130" height="130" viewBox="0 0 130 130" fill="none" xmlns="http://www.w3.org/2000/svg">
<circle cx="65" cy="65" r="65" fill="#FFF7E7"/>
<g clip-path="url(#clip0_2072_170)">
<path d="M67.5722 69.9285C65.0909 67.2901 64.1306 63.5846 63.758 61.2371C63.708 60.4922 63.6351 59.7549 63.5275 59.0255C63.5275 59.0139 63.5275 59.0061 63.5275 59.0061C61.5224 45.4219 49.926 35 35.9174 35C20.4991 35 8 47.6258 8 63.2005C8 78.7751 20.4991 91.4009 35.9174 91.4009C36.2708 91.4009 36.6165 91.3854 36.966 91.3738V91.3815C36.966 91.3815 41.7636 91.2263 45.6201 93.9967C48.428 96.348 52.031 97.7604 55.9643 97.7604C64.9257 97.7604 72.1854 90.4231 72.1854 81.3748C72.1854 76.9205 70.4224 72.8852 67.5684 69.9324L67.5722 69.9285Z" fill="#FBCF73"/>
<path d="M110.747 73.3081H43.6342C42.0978 73.3081 40.8494 72.0471 40.8494 70.4989V44.8399C40.8494 43.2879 42.0978 42.0269 43.6342 42.0269H110.747C112.283 42.0269 113.531 43.2879 113.531 44.8399V70.4989C113.531 72.0471 112.283 73.3081 110.747 73.3081ZM43.6342 43.1948C42.7354 43.1948 42.0018 43.932 42.0018 44.8438V70.5028C42.0018 71.4108 42.7316 72.148 43.6342 72.148H110.747C111.645 72.148 112.379 71.4108 112.379 70.5028V44.8399C112.379 43.932 111.649 43.1909 110.747 43.1909H43.6342V43.1948Z" fill="#798DAE"/>
<path d="M116.051 40.1024H112.014C111.702 40.1024 111.45 40.3578 111.45 40.6728V44.7508C111.45 45.0658 111.702 45.3211 112.014 45.3211H116.051C116.363 45.3211 116.616 45.0658 116.616 44.7508V40.6728C116.616 40.3578 116.363 40.1024 116.051 40.1024Z" fill="#FFF8E8"/>
<path d="M116.051 45.7091H112.014C111.492 45.7091 111.065 45.2784 111.065 44.7507V40.6727C111.065 40.145 111.492 39.7144 112.014 39.7144H116.051C116.574 39.7144 117 40.145 117 40.6727V44.7507C117 45.2784 116.574 45.7091 116.051 45.7091ZM112.014 40.4904C111.914 40.4904 111.834 40.5719 111.834 40.6727V44.7507C111.834 44.8516 111.914 44.9331 112.014 44.9331H116.051C116.151 44.9331 116.232 44.8516 116.232 44.7507V40.6727C116.232 40.5719 116.151 40.4904 116.051 40.4904H112.014Z" fill="#798DAE"/>
<path d="M42.1132 40.1024H38.0761C37.7643 40.1024 37.5115 40.3578 37.5115 40.6728V44.7508C37.5115 45.0658 37.7643 45.3211 38.0761 45.3211H42.1132C42.425 45.3211 42.6778 45.0658 42.6778 44.7508V40.6728C42.6778 40.3578 42.425 40.1024 42.1132 40.1024Z" fill="#FFF8E8"/>
<path d="M42.1132 45.7091H38.0761C37.5537 45.7091 37.1274 45.2784 37.1274 44.7507V40.6727C37.1274 40.145 37.5537 39.7144 38.0761 39.7144H42.1132C42.6355 39.7144 43.0619 40.145 43.0619 40.6727V44.7507C43.0619 45.2784 42.6355 45.7091 42.1132 45.7091ZM38.0761 40.4904C37.9762 40.4904 37.8956 40.5719 37.8956 40.6727V44.7507C37.8956 44.8516 37.9762 44.9331 38.0761 44.9331H42.1132C42.213 44.9331 42.2937 44.8516 42.2937 44.7507V40.6727C42.2937 40.5719 42.213 40.4904 42.1132 40.4904H38.0761Z" fill="#798DAE"/>
<path d="M116.051 70.1188H112.014C111.702 70.1188 111.45 70.3741 111.45 70.6891V74.7671C111.45 75.0821 111.702 75.3375 112.014 75.3375H116.051C116.363 75.3375 116.616 75.0821 116.616 74.7671V70.6891C116.616 70.3741 116.363 70.1188 116.051 70.1188Z" fill="#FFF8E8"/>
<path d="M116.051 75.7254H112.014C111.492 75.7254 111.065 75.2948 111.065 74.7671V70.6891C111.065 70.1614 111.492 69.7307 112.014 69.7307H116.051C116.574 69.7307 117 70.1614 117 70.6891V74.7671C117 75.2948 116.574 75.7254 116.051 75.7254ZM112.014 70.5067C111.914 70.5067 111.834 70.5882 111.834 70.6891V74.7671C111.834 74.8679 111.914 74.9494 112.014 74.9494H116.051C116.151 74.9494 116.232 74.8679 116.232 74.7671V70.6891C116.232 70.5882 116.151 70.5067 116.051 70.5067H112.014Z" fill="#798DAE"/>
<path d="M42.1132 70.1188H38.0761C37.7643 70.1188 37.5115 70.3741 37.5115 70.6891V74.7671C37.5115 75.0821 37.7643 75.3375 38.0761 75.3375H42.1132C42.425 75.3375 42.6778 75.0821 42.6778 74.7671V70.6891C42.6778 70.3741 42.425 70.1188 42.1132 70.1188Z" fill="#FFF8E8"/>
<path d="M42.1132 75.7254H38.0761C37.5537 75.7254 37.1274 75.2948 37.1274 74.7671V70.6891C37.1274 70.1614 37.5537 69.7307 38.0761 69.7307H42.1132C42.6355 69.7307 43.0619 70.1614 43.0619 70.6891V74.7671C43.0619 75.2948 42.6355 75.7254 42.1132 75.7254ZM38.0761 70.5067C37.9762 70.5067 37.8956 70.5882 37.8956 70.6891V74.7671C37.8956 74.8679 37.9762 74.9494 38.0761 74.9494H42.1132C42.213 74.9494 42.2937 74.8679 42.2937 74.7671V70.6891C42.2937 70.5882 42.213 70.5067 42.1132 70.5067H38.0761Z" fill="#798DAE"/>
<path d="M45.3589 64.1782V49.9111H50.387C51.4126 49.9111 52.3536 50.0896 53.2102 50.4466C54.0668 50.8036 54.8158 51.3041 55.4534 51.9482C56.0911 52.5923 56.5866 53.345 56.94 54.2025C57.2933 55.0639 57.47 56.0029 57.47 57.0233C57.47 58.0438 57.2933 58.9905 56.94 59.8558C56.5866 60.7249 56.0911 61.4816 55.4534 62.1334C54.8158 62.7853 54.0668 63.2858 53.2102 63.6428C52.3498 63.9997 51.4087 64.1782 50.387 64.1782H45.3589ZM50.3831 53.2247H48.9926V60.8607H50.3831C51.0745 60.8607 51.6776 60.6939 52.1885 60.3563C52.6993 60.0188 53.095 59.5609 53.3715 58.9828C53.6481 58.4008 53.7864 57.7489 53.7864 57.0195C53.7864 56.29 53.6481 55.642 53.3715 55.0678C53.095 54.4935 52.6993 54.0434 52.1885 53.7136C51.6776 53.3838 51.0745 53.2208 50.3831 53.2208V53.2247Z" fill="#ED8F4D"/>
<path d="M68.4979 63.6738C67.5415 64.0812 66.5927 64.3296 65.6516 64.4304C64.7106 64.5274 63.8194 64.477 62.9821 64.2714C62.1447 64.0696 61.3995 63.7243 60.7504 63.2315C60.0974 62.7426 59.5903 62.1179 59.2254 61.3652C58.8567 60.6086 58.6761 59.7355 58.6761 58.7422C58.6761 57.9158 58.8106 57.1592 59.0795 56.4646C59.3483 55.7701 59.7325 55.1648 60.2318 54.641C60.7312 54.1172 61.3188 53.7098 61.9987 53.4226C62.6786 53.1355 63.4199 52.9919 64.2227 52.9919C64.941 52.9919 65.594 53.1122 66.174 53.3489C66.7541 53.5856 67.2611 53.9193 67.6913 54.3461C68.1215 54.7729 68.4672 55.2812 68.7284 55.8671C68.9896 56.453 69.1586 57.0971 69.2277 57.7955C69.2969 58.4939 69.2546 59.235 69.1048 60.0188H62.2484C62.5096 60.5504 62.9513 60.9267 63.5659 61.1518C64.1805 61.3768 64.9142 61.4467 65.7669 61.3613C66.6196 61.2759 67.53 61.0548 68.4979 60.69V63.6699V63.6738ZM64.1344 56.0999C63.7311 56.0999 63.3623 56.2124 63.0243 56.4375C62.6863 56.6625 62.4251 57.004 62.2446 57.4657H66.005C65.8399 56.9884 65.594 56.6431 65.2675 56.4258C64.941 56.2085 64.5646 56.0999 64.1344 56.0999Z" fill="#ED8F4D"/>
<path d="M79.2339 60.8181C79.2339 61.6872 78.9958 62.3934 78.5156 62.9483C78.0393 63.4992 77.3979 63.9028 76.5951 64.155C75.7923 64.4072 74.8934 64.5158 73.9063 64.4809C72.9152 64.446 71.9089 64.283 70.8833 63.9881V60.7133C71.4633 60.9811 72.0472 61.1867 72.6272 61.3342C73.2072 61.4816 73.7334 61.567 74.2059 61.598C74.6745 61.6252 75.0586 61.5864 75.3467 61.4816C75.6386 61.3768 75.7846 61.1984 75.7846 60.9461C75.7846 60.7521 75.6617 60.5969 75.4197 60.4844C75.1777 60.3719 74.8627 60.271 74.4747 60.1818C74.0868 60.0925 73.6758 59.98 73.2379 59.8442C72.8 59.7123 72.389 59.5222 72.0011 59.2777C71.6131 59.0333 71.2981 58.7035 71.0561 58.2922C70.8141 57.8809 70.6912 57.3454 70.6912 56.6858C70.6912 55.902 70.914 55.2347 71.3673 54.6837C71.8167 54.1327 72.4236 53.7098 73.1841 53.4265C73.9447 53.1394 74.7974 52.9958 75.7385 52.9958C76.6796 52.9958 77.6437 53.1588 78.627 53.477V56.7518C77.8511 56.3754 77.1251 56.1232 76.4453 55.9952C75.7654 55.871 75.2199 55.8516 74.8051 55.9408C74.3902 56.0301 74.1828 56.2241 74.1828 56.519C74.1828 56.7169 74.3057 56.8643 74.5477 56.9691C74.7897 57.0738 75.1009 57.1669 75.4811 57.2523C75.8614 57.3377 76.2724 57.4502 76.7064 57.5899C77.1443 57.7296 77.5515 57.9236 77.9318 58.168C78.312 58.4125 78.6232 58.75 78.8652 59.1768C79.1072 59.6036 79.2301 60.1507 79.2301 60.8259L79.2339 60.8181Z" fill="#ED8F4D"/>
<path d="M82.7255 52.0918C82.3222 52.0918 81.9611 51.9948 81.6346 51.7969C81.3081 51.6029 81.0508 51.3429 80.8549 51.0209C80.659 50.6988 80.563 50.3418 80.563 49.9499C80.563 49.5581 80.659 49.205 80.8549 48.8907C81.0469 48.5764 81.3081 48.3203 81.6346 48.1263C81.9611 47.9323 82.3222 47.8314 82.7255 47.8314C83.1288 47.8314 83.4707 47.9284 83.7934 48.1263C84.1199 48.3242 84.3772 48.5764 84.5731 48.8907C84.7652 49.205 84.865 49.5581 84.865 49.9499C84.865 50.3418 84.769 50.6988 84.5731 51.0209C84.3772 51.3429 84.1199 51.6029 83.7934 51.7969C83.4669 51.9948 83.1096 52.0918 82.7255 52.0918ZM81.0008 64.1782V53.3295H84.4271V64.1782H81.0008Z" fill="#ED8F4D"/>
<path d="M96.9108 62.4128C96.9108 63.6001 96.6573 64.5934 96.1541 65.3927C95.6471 66.192 94.9595 66.7895 94.0876 67.1853C93.2157 67.5849 92.2208 67.7906 91.1069 67.8061C89.993 67.8216 88.8176 67.6509 87.5846 67.3017V64.0075C88.6793 64.4421 89.6703 64.6632 90.5538 64.6671C91.4411 64.6749 92.144 64.5003 92.6625 64.1433C93.1811 63.7863 93.4423 63.2935 93.4423 62.665V62.2886C93.0966 62.5563 92.6933 62.7659 92.2362 62.9172C91.7791 63.0724 91.2874 63.1461 90.7612 63.1461C89.8892 63.1461 89.1095 62.9405 88.4258 62.5253C87.742 62.114 87.2043 61.5397 86.8163 60.8064C86.4284 60.0731 86.2363 59.2156 86.2363 58.2378C86.2363 57.4812 86.3592 56.7905 86.6089 56.1619C86.8586 55.5334 87.2043 54.9863 87.646 54.5246C88.0877 54.0628 88.5948 53.7097 89.1633 53.4653C89.7318 53.2208 90.3271 53.0967 90.9494 53.0967C91.4487 53.0967 91.9097 53.1665 92.3399 53.3062C92.7701 53.4459 93.1504 53.636 93.4807 53.8727V53.3256H96.907V62.4128H96.9108ZM91.6139 60.1468C92.1939 60.1468 92.6625 59.9606 93.0159 59.5919C93.3693 59.2233 93.546 58.7422 93.546 58.1563C93.546 57.5704 93.3693 57.066 93.0159 56.6858C92.6625 56.3094 92.1939 56.1193 91.6139 56.1193C91.0339 56.1193 90.5192 56.3055 90.1581 56.6741C89.7971 57.0466 89.6165 57.5394 89.6165 58.1524C89.6165 58.7655 89.7971 59.235 90.1581 59.5997C90.5192 59.9644 91.0032 60.1468 91.6139 60.1468Z" fill="#ED8F4D"/>
<path d="M99.1963 64.1783V53.3296H102.623V53.8766C102.995 53.6128 103.414 53.4033 103.879 53.2558C104.343 53.1084 104.843 53.0347 105.384 53.0347C106.172 53.0347 106.871 53.217 107.47 53.5818C108.073 53.9465 108.542 54.4664 108.884 55.1454C109.222 55.8244 109.391 56.6393 109.391 57.5899V64.1783H105.964V58.0516C105.964 57.4929 105.838 57.0428 105.58 56.6975C105.323 56.356 104.92 56.1853 104.367 56.1853C103.813 56.1853 103.383 56.3444 103.08 56.6664C102.776 56.9885 102.623 57.4502 102.623 58.0516V64.1783H99.1963Z" fill="#ED8F4D"/>
<path d="M72.6617 87.0436H42.382C41.8538 87.0436 41.4256 87.4761 41.4256 88.0097V89.7752C41.4256 90.3087 41.8538 90.7413 42.382 90.7413H72.6617C73.19 90.7413 73.6182 90.3087 73.6182 89.7752V88.0097C73.6182 87.4761 73.19 87.0436 72.6617 87.0436Z" fill="#ED8F4D"/>
<path d="M91.6984 95.8281C91.6984 95.8281 90.7881 106.219 92.0902 108.338L87.9648 110.933C86.6588 108.819 77.0253 105.059 77.0253 105.059C77.7935 102.467 76.8217 93.6281 76.2302 88.8983L81.6385 97.675C81.2813 98.3308 81.3312 99.1805 81.9342 99.8013C82.3721 100.248 83.0482 100.422 83.6435 100.24C84.8189 99.8789 85.2684 98.5597 84.6691 97.5858C84.3196 97.0154 83.7089 96.7322 83.0904 96.7593L77.6744 87.9709C81.6154 90.5978 89.0519 95.3897 91.6984 95.832V95.8281Z" fill="#798DAE"/>
<path d="M92.2263 107.177L86.8788 110.541C86.4664 110.8 86.3403 111.348 86.5971 111.765L90.7959 118.576C91.0527 118.993 91.5952 119.12 92.0076 118.861L97.355 115.497C97.7674 115.238 97.8936 114.69 97.6368 114.274L93.438 107.462C93.1812 107.046 92.6387 106.918 92.2263 107.177Z" fill="#ED8F4D"/>
<path d="M91.7393 104.303L84.5365 108.833C84.306 108.978 84.2355 109.285 84.379 109.518L86.0947 112.301C86.2382 112.534 86.5414 112.605 86.7719 112.46L93.9747 107.929C94.2052 107.784 94.2757 107.478 94.1322 107.245L92.4165 104.462C92.273 104.229 91.9698 104.158 91.7393 104.303Z" fill="#C5E8FF"/>
<path d="M84.1352 79.5433H42.382C41.8538 79.5433 41.4256 79.9759 41.4256 80.5095V82.2749C41.4256 82.8085 41.8538 83.2411 42.382 83.2411H84.1352C84.6635 83.2411 85.0917 82.8085 85.0917 82.2749V80.5095C85.0917 79.9759 84.6635 79.5433 84.1352 79.5433Z" fill="#ED8F4D"/>
</g>
<defs>
<clipPath id="clip0_2072_170">
<rect width="109" height="84" fill="white" transform="translate(8 35)"/>
</clipPath>
</defs>
</svg>
