<svg width="264" height="200" viewBox="0 0 264 200" fill="none" xmlns="http://www.w3.org/2000/svg">
<g clip-path="url(#clip0_2072_37)">
<path d="M144.238 83.1632C138.251 76.8811 135.934 68.0586 135.035 62.4694C134.915 60.6956 134.739 58.9404 134.479 57.2036C134.479 57.1758 134.479 57.1574 134.479 57.1574C129.641 24.8141 101.661 0 67.8603 0C30.6583 0 0.5 30.0614 0.5 67.144C0.5 104.227 30.6583 134.288 67.8603 134.288C68.713 134.288 69.5471 134.251 70.3905 134.223V134.242C70.3905 134.242 81.9663 133.872 91.2715 140.468C98.0464 146.067 106.74 149.43 116.23 149.43C137.853 149.43 155.369 131.96 155.369 110.416C155.369 99.8106 151.115 90.2028 144.229 83.1724L144.238 83.1632Z" fill="#FBCF73"/>
<path d="M248.412 91.2098H86.4798C82.7726 91.2098 79.7605 88.2073 79.7605 84.5212V23.4284C79.7605 19.733 82.7726 16.7306 86.4798 16.7306H248.412C252.119 16.7306 255.131 19.733 255.131 23.4284V84.5212C255.131 88.2073 252.119 91.2098 248.412 91.2098ZM86.4798 19.5113C84.3111 19.5113 82.5409 21.2666 82.5409 23.4376V84.5305C82.5409 86.6923 84.3019 88.4475 86.4798 88.4475H248.412C250.58 88.4475 252.35 86.6923 252.35 84.5305V23.4284C252.35 21.2666 250.59 19.5021 248.412 19.5021H86.4798V19.5113Z" fill="#798DAE"/>
<path d="M261.211 12.1483H251.47C250.717 12.1483 250.107 12.7563 250.107 13.5063V23.2158C250.107 23.9658 250.717 24.5738 251.47 24.5738H261.211C261.963 24.5738 262.573 23.9658 262.573 23.2158V13.5063C262.573 12.7563 261.963 12.1483 261.211 12.1483Z" fill="#FFF8E8"/>
<path d="M261.211 25.4977H251.47C250.209 25.4977 249.181 24.4722 249.181 23.2158V13.5063C249.181 12.2499 250.209 11.2245 251.47 11.2245H261.211C262.471 11.2245 263.5 12.2499 263.5 13.5063V23.2158C263.5 24.4722 262.471 25.4977 261.211 25.4977ZM251.47 13.0721C251.229 13.0721 251.034 13.2662 251.034 13.5063V23.2158C251.034 23.456 251.229 23.65 251.47 23.65H261.211C261.452 23.65 261.646 23.456 261.646 23.2158V13.5063C261.646 13.2662 261.452 13.0721 261.211 13.0721H251.47Z" fill="#798DAE"/>
<path d="M82.8097 12.1483H73.069C72.3165 12.1483 71.7065 12.7563 71.7065 13.5063V23.2158C71.7065 23.9658 72.3165 24.5738 73.069 24.5738H82.8097C83.5621 24.5738 84.1721 23.9658 84.1721 23.2158V13.5063C84.1721 12.7563 83.5621 12.1483 82.8097 12.1483Z" fill="#FFF8E8"/>
<path d="M82.8097 25.4977H73.069C71.8085 25.4977 70.7798 24.4722 70.7798 23.2158V13.5063C70.7798 12.2499 71.8085 11.2245 73.069 11.2245H82.8097C84.0702 11.2245 85.0989 12.2499 85.0989 13.5063V23.2158C85.0989 24.4722 84.0702 25.4977 82.8097 25.4977ZM73.069 13.0721C72.828 13.0721 72.6334 13.2662 72.6334 13.5063V23.2158C72.6334 23.456 72.828 23.65 73.069 23.65H82.8097C83.0507 23.65 83.2453 23.456 83.2453 23.2158V13.5063C83.2453 13.2662 83.0507 13.0721 82.8097 13.0721H73.069Z" fill="#798DAE"/>
<path d="M261.211 83.6158H251.47C250.717 83.6158 250.107 84.2239 250.107 84.9739V94.6833C250.107 95.4333 250.717 96.0414 251.47 96.0414H261.211C261.963 96.0414 262.573 95.4333 262.573 94.6833V84.9739C262.573 84.2239 261.963 83.6158 261.211 83.6158Z" fill="#FFF8E8"/>
<path d="M261.211 96.9652H251.47C250.209 96.9652 249.181 95.9397 249.181 94.6833V84.9739C249.181 83.7175 250.209 82.692 251.47 82.692H261.211C262.471 82.692 263.5 83.7175 263.5 84.9739V94.6833C263.5 95.9397 262.471 96.9652 261.211 96.9652ZM251.47 84.5397C251.229 84.5397 251.034 84.7337 251.034 84.9739V94.6833C251.034 94.9235 251.229 95.1175 251.47 95.1175H261.211C261.452 95.1175 261.646 94.9235 261.646 94.6833V84.9739C261.646 84.7337 261.452 84.5397 261.211 84.5397H251.47Z" fill="#798DAE"/>
<path d="M82.8097 83.6158H73.069C72.3165 83.6158 71.7065 84.2239 71.7065 84.9739V94.6833C71.7065 95.4333 72.3165 96.0414 73.069 96.0414H82.8097C83.5621 96.0414 84.1721 95.4333 84.1721 94.6833V84.9739C84.1721 84.2239 83.5621 83.6158 82.8097 83.6158Z" fill="#FFF8E8"/>
<path d="M82.8097 96.9652H73.069C71.8085 96.9652 70.7798 95.9397 70.7798 94.6833V84.9739C70.7798 83.7175 71.8085 82.692 73.069 82.692H82.8097C84.0702 82.692 85.0989 83.7175 85.0989 84.9739V94.6833C85.0989 95.9397 84.0702 96.9652 82.8097 96.9652ZM73.069 84.5397C72.828 84.5397 72.6334 84.7337 72.6334 84.9739V94.6833C72.6334 94.9235 72.828 95.1175 73.069 95.1175H82.8097C83.0507 95.1175 83.2453 94.9235 83.2453 94.6833V84.9739C83.2453 84.7337 83.0507 84.5397 82.8097 84.5397H73.069Z" fill="#798DAE"/>
<path d="M90.6414 69.472V35.5028H102.773C105.248 35.5028 107.519 35.9278 109.585 36.7777C111.652 37.6276 113.459 38.8194 114.998 40.3529C116.536 41.8865 117.732 43.6787 118.585 45.7204C119.437 47.7713 119.864 50.0069 119.864 52.4366C119.864 54.8663 119.437 57.1204 118.585 59.1806C117.732 61.25 116.536 63.0514 114.998 64.6035C113.459 66.1555 111.652 67.3472 109.585 68.1972C107.509 69.0471 105.239 69.472 102.773 69.472H90.6414ZM102.764 43.3923H99.409V61.5733H102.764C104.432 61.5733 105.887 61.176 107.12 60.3723C108.353 59.5686 109.307 58.4785 109.975 57.102C110.642 55.7162 110.975 54.1642 110.975 52.4274C110.975 50.6906 110.642 49.1478 109.975 47.7805C109.307 46.4132 108.353 45.3416 107.12 44.5563C105.887 43.7711 104.432 43.3831 102.764 43.3831V43.3923Z" fill="#ED8F4D"/>
<path d="M146.472 68.2711C144.164 69.2411 141.875 69.8323 139.604 70.0725C137.334 70.3035 135.184 70.1834 133.163 69.6938C131.143 69.2134 129.345 68.3912 127.778 67.2179C126.203 66.0539 124.979 64.5665 124.099 62.7743C123.209 60.9728 122.774 58.8942 122.774 56.5292C122.774 54.5614 123.098 52.7599 123.747 51.1063C124.396 49.4526 125.322 48.0115 126.527 46.7643C127.732 45.5171 129.15 44.5471 130.791 43.8635C132.431 43.1798 134.22 42.838 136.157 42.838C137.89 42.838 139.465 43.1244 140.865 43.6879C142.264 44.2515 143.488 45.046 144.526 46.0622C145.564 47.0784 146.398 48.2886 147.028 49.6836C147.658 51.0786 148.066 52.6121 148.233 54.275C148.4 55.9379 148.298 57.7024 147.936 59.5686H131.393C132.023 60.8342 133.089 61.7303 134.572 62.2662C136.055 62.802 137.825 62.9683 139.883 62.765C141.94 62.5618 144.137 62.0352 146.472 61.1668V68.2618V68.2711ZM135.944 50.2379C134.97 50.2379 134.081 50.5058 133.265 51.0416C132.45 51.5774 131.819 52.3904 131.384 53.4898H140.457C140.059 52.3535 139.465 51.5313 138.678 51.0139C137.89 50.4966 136.982 50.2379 135.944 50.2379Z" fill="#ED8F4D"/>
<path d="M172.376 61.4716C172.376 63.541 171.802 65.2223 170.643 66.5434C169.494 67.8552 167.946 68.816 166.009 69.4165C164.072 70.017 161.903 70.2757 159.522 70.1925C157.13 70.1094 154.702 69.7214 152.228 69.0193V61.2221C153.627 61.8596 155.036 62.3492 156.435 62.7003C157.835 63.0513 159.104 63.2546 160.244 63.3285C161.375 63.3932 162.302 63.3008 162.997 63.0513C163.701 62.8019 164.054 62.3769 164.054 61.7765C164.054 61.3145 163.757 60.945 163.173 60.6771C162.589 60.4092 161.829 60.169 160.893 59.9565C159.957 59.744 158.965 59.4761 157.909 59.1528C156.852 58.8387 155.861 58.386 154.925 57.804C153.988 57.222 153.229 56.4367 152.645 55.4574C152.061 54.4782 151.764 53.2033 151.764 51.6328C151.764 49.7667 152.302 48.1777 153.395 46.8658C154.48 45.554 155.944 44.547 157.779 43.8726C159.614 43.189 161.672 42.8472 163.942 42.8472C166.213 42.8472 168.539 43.2352 170.912 43.9927V51.7898C169.04 50.8937 167.288 50.2932 165.648 49.9884C164.007 49.6927 162.691 49.6466 161.69 49.859C160.689 50.0715 160.189 50.5334 160.189 51.2355C160.189 51.7067 160.485 52.0578 161.069 52.3072C161.653 52.5566 162.404 52.7783 163.321 52.9816C164.239 53.1848 165.231 53.4527 166.278 53.7853C167.335 54.1179 168.317 54.5798 169.234 55.1618C170.152 55.7438 170.903 56.5476 171.487 57.5638C172.07 58.58 172.367 59.8826 172.367 61.4901L172.376 61.4716Z" fill="#ED8F4D"/>
<path d="M180.801 40.6947C179.828 40.6947 178.957 40.4637 178.169 39.9926C177.381 39.5307 176.76 38.9117 176.287 38.1449C175.815 37.3781 175.583 36.5282 175.583 35.5951C175.583 34.6621 175.815 33.8214 176.287 33.0731C176.751 32.3248 177.381 31.7151 178.169 31.2531C178.957 30.7912 179.828 30.551 180.801 30.551C181.774 30.551 182.599 30.782 183.377 31.2531C184.165 31.7243 184.786 32.3248 185.259 33.0731C185.722 33.8214 185.963 34.6621 185.963 35.5951C185.963 36.5282 185.732 37.3781 185.259 38.1449C184.786 38.9117 184.165 39.5307 183.377 39.9926C182.59 40.4637 181.728 40.6947 180.801 40.6947ZM176.64 69.472V43.6417H184.907V69.472H176.64Z" fill="#ED8F4D"/>
<path d="M215.028 65.2686C215.028 68.0955 214.416 70.4605 213.202 72.3636C211.979 74.2667 210.32 75.6894 208.216 76.6317C206.112 77.5832 203.712 78.0729 201.024 78.1098C198.336 78.1468 195.5 77.7403 192.525 76.9088V69.0655C195.166 70.1002 197.558 70.6268 199.689 70.636C201.83 70.6545 203.526 70.2388 204.777 69.3888C206.029 68.5389 206.659 67.3657 206.659 65.8691V64.9729C205.825 65.6104 204.852 66.1092 203.749 66.4695C202.646 66.8391 201.459 67.0146 200.19 67.0146C198.086 67.0146 196.205 66.525 194.555 65.5365C192.905 64.5572 191.608 63.1899 190.671 61.4439C189.735 59.6979 189.272 57.6562 189.272 55.3282C189.272 53.5267 189.569 51.8823 190.171 50.3857C190.773 48.8891 191.608 47.5865 192.673 46.4871C193.739 45.3877 194.963 44.5471 196.334 43.965C197.706 43.383 199.142 43.0874 200.644 43.0874C201.849 43.0874 202.961 43.2537 203.999 43.5863C205.037 43.9189 205.954 44.3715 206.752 44.9351V43.6325H215.019V65.2686H215.028ZM202.247 59.8734C203.647 59.8734 204.777 59.43 205.63 58.5523C206.483 57.6747 206.909 56.5291 206.909 55.1341C206.909 53.7392 206.483 52.5382 205.63 51.6328C204.777 50.7367 203.647 50.284 202.247 50.284C200.848 50.284 199.606 50.7275 198.735 51.6051C197.863 52.492 197.428 53.6653 197.428 55.1249C197.428 56.5846 197.863 57.7024 198.735 58.5708C199.606 59.4392 200.774 59.8734 202.247 59.8734Z" fill="#ED8F4D"/>
<path d="M220.542 69.472V43.6417H228.81V44.9443C229.709 44.3161 230.719 43.8172 231.84 43.4662C232.962 43.1151 234.167 42.9396 235.473 42.9396C237.373 42.9396 239.06 43.3738 240.506 44.2422C241.961 45.1106 243.092 46.3485 243.917 47.9652C244.732 49.5819 245.14 51.522 245.14 53.7853V69.472H236.873V54.8847C236.873 53.5544 236.567 52.4827 235.946 51.6605C235.325 50.8476 234.352 50.4411 233.017 50.4411C231.683 50.4411 230.645 50.8198 229.912 51.5866C229.18 52.3534 228.81 53.4528 228.81 54.8847V69.472H220.542Z" fill="#ED8F4D"/>
<path d="M156.519 123.913H83.4584C82.1839 123.913 81.1506 124.943 81.1506 126.214V130.417C81.1506 131.688 82.1839 132.717 83.4584 132.717H156.519C157.793 132.717 158.826 131.688 158.826 130.417V126.214C158.826 124.943 157.793 123.913 156.519 123.913Z" fill="#ED8F4D"/>
<path d="M202.451 144.829C202.451 144.829 200.255 169.569 203.397 174.613L193.443 180.794C190.292 175.759 167.047 166.807 167.047 166.807C168.901 160.636 166.556 139.591 165.129 128.329L178.178 149.226C177.316 150.788 177.437 152.811 178.892 154.289C179.949 155.351 181.58 155.767 183.016 155.333C185.852 154.474 186.937 151.333 185.491 149.014C184.647 147.656 183.174 146.981 181.682 147.046L168.614 126.121C178.123 132.376 196.066 143.785 202.451 144.838V144.829Z" fill="#798DAE"/>
<path d="M203.725 171.851L190.823 179.86C189.828 180.477 189.523 181.782 190.143 182.774L200.274 198.991C200.894 199.983 202.202 200.287 203.197 199.669L216.1 191.661C217.095 191.043 217.399 189.738 216.78 188.746L206.649 172.529C206.029 171.537 204.72 171.234 203.725 171.851Z" fill="#ED8F4D"/>
<path d="M202.55 165.007L185.171 175.794C184.614 176.139 184.444 176.868 184.791 177.423L188.93 184.05C189.277 184.604 190.008 184.773 190.564 184.428L207.944 173.641C208.5 173.296 208.67 172.567 208.324 172.012L204.184 165.386C203.838 164.831 203.106 164.662 202.55 165.007Z" fill="#C5E8FF"/>
<path d="M184.202 106.056H83.4584C82.1839 106.056 81.1506 107.086 81.1506 108.356V112.559C81.1506 113.83 82.1839 114.86 83.4584 114.86H184.202C185.477 114.86 186.51 113.83 186.51 112.559V108.356C186.51 107.086 185.477 106.056 184.202 106.056Z" fill="#ED8F4D"/>
</g>
<defs>
<clipPath id="clip0_2072_37">
<rect width="263" height="200" fill="white" transform="translate(0.5)"/>
</clipPath>
</defs>
</svg>
