<svg width="90" height="90" viewBox="0 0 90 90" fill="none" xmlns="http://www.w3.org/2000/svg">
<g clip-path="url(#clip0_2313_1408)">
<path d="M19.6343 10.0298C18.9548 10.4219 18.3654 10.9528 17.9045 11.5877C17.4436 12.2227 17.1215 12.9475 16.9591 13.7152C16.7968 14.4828 16.7979 15.276 16.9623 16.0432C17.1267 16.8104 17.4508 17.5343 17.9134 18.168L35.4555 42.2097L25.5295 48.5299L16.3634 41.6688C15.3013 40.8737 14.0291 40.4078 12.7047 40.3291C11.3803 40.2505 10.0619 40.5624 8.9131 41.2261C6.37583 42.691 5.50616 45.9367 6.97105 48.474L11.9829 57.1548L9.30629 58.8609C7.88511 59.6814 6.8481 61.0329 6.42337 62.618C5.99864 64.2031 6.22099 65.892 7.0415 67.3132C7.86202 68.7344 9.21348 69.7714 10.7986 70.1961C12.3837 70.6208 14.0726 70.3985 15.4938 69.578L18.3081 68.1103L23.3215 76.7938C24.7864 79.3311 28.0321 80.2008 30.5693 78.7359C32.9164 77.3808 34.2309 74.7571 33.9111 72.0624L32.555 60.6922L42.9888 55.2577L55.0357 82.472C56.3797 85.5113 60.0666 86.7121 62.9441 85.0508C65.4573 83.5998 66.863 80.7877 66.521 77.9058L62.6025 45.0447C67.9624 42.2503 73.4981 39.6615 78.7308 36.6404C80.8625 35.4097 82.418 33.3825 83.0551 31.0048C83.6922 28.6271 83.3587 26.0938 82.1279 23.962C80.8972 21.8303 78.87 20.2747 76.4923 19.6376C74.1146 19.0006 71.5813 19.3341 69.4495 20.5648C64.2169 23.5859 59.2098 27.0841 54.1098 30.3286L27.6105 10.5046C26.4726 9.65522 25.1109 9.15761 23.6935 9.07323C22.276 8.98884 20.8649 9.32137 19.6343 10.0298Z" fill="#ED8F4D"/>
</g>
<defs>
<clipPath id="clip0_2313_1408">
<rect width="90" height="90" fill="white"/>
</clipPath>
</defs>
</svg>
