<svg width="153" height="153" viewBox="0 0 153 153" fill="none" xmlns="http://www.w3.org/2000/svg">
<g clip-path="url(#clip0_2071_73)">
<path d="M76.5 148.749C36.6588 148.749 4.25134 116.341 4.25134 76.5001C4.25134 36.6589 36.6588 4.25146 76.5 4.25146C116.341 4.25146 148.749 36.6589 148.749 76.5001C148.749 116.341 116.341 148.749 76.5 148.749Z" fill="#C5E8FF"/>
<path d="M76.5 8.5027C113.997 8.5027 144.497 39.0031 144.497 76.5C144.497 113.997 113.997 144.497 76.5 144.497C39.0031 144.497 8.5027 113.997 8.5027 76.5C8.5027 39.0031 39.0031 8.5027 76.5 8.5027ZM76.5 0C34.2537 0 0 34.2537 0 76.5C0 118.746 34.2537 153 76.5 153C118.746 153 153 118.746 153 76.5C153 34.2537 118.746 0 76.5 0Z" fill="#798DAE"/>
<path d="M21.3053 74.4839L9.01287 67.3902C7.15442 66.3213 4.82225 67.6574 4.82225 69.8074V84.0069C4.82225 86.1569 7.14227 87.493 9.01287 86.4241L21.3053 79.3304C23.1638 78.2615 23.1638 75.5649 21.3053 74.496V74.4839Z" fill="#FFF8E8"/>
<path d="M131.695 79.3182L143.987 86.4119C145.846 87.4808 148.178 86.1447 148.178 83.9947V69.7952C148.178 67.6452 145.858 66.3091 143.987 67.378L131.695 74.4717C129.836 75.5406 129.836 78.2371 131.695 79.3061V79.3182Z" fill="#FFF8E8"/>
<path d="M76.5 8.5027C113.997 8.5027 144.497 39.0031 144.497 76.5C144.497 113.997 113.997 144.497 76.5 144.497C39.0031 144.497 8.5027 113.997 8.5027 76.5C8.5027 39.0031 39.0031 8.5027 76.5 8.5027ZM76.5 0C34.2537 0 0 34.2537 0 76.5C0 118.746 34.2537 153 76.5 153C118.746 153 153 118.746 153 76.5C153 34.2537 118.746 0 76.5 0Z" fill="#798DAE"/>
<path d="M53.263 40C53.263 37.248 53.263 34.4747 53.263 31.68C53.263 28.864 53.263 26.08 53.263 23.328C52.4523 23.328 51.631 23.328 50.799 23.328C49.967 23.328 49.1457 23.328 48.335 23.328C48.335 22.496 48.335 21.6533 48.335 20.8C48.335 19.9253 48.335 19.072 48.335 18.24C50.8737 18.24 53.4443 18.24 56.047 18.24C58.6497 18.24 61.2203 18.24 63.759 18.24C63.759 19.072 63.759 19.9253 63.759 20.8C63.759 21.6533 63.759 22.496 63.759 23.328C62.9697 23.328 62.159 23.328 61.327 23.328C60.495 23.328 59.6737 23.328 58.863 23.328C58.863 26.08 58.863 28.864 58.863 31.68C58.863 34.4747 58.863 37.248 58.863 40C57.9457 40 57.0177 40 56.079 40C55.1403 40 54.2017 40 53.263 40ZM75.8698 40.512C74.3124 40.512 72.8724 40.2347 71.5498 39.68C70.2271 39.104 69.0858 38.304 68.1258 37.28C67.1658 36.256 66.4191 35.0507 65.8858 33.664C65.3524 32.256 65.0858 30.7307 65.0858 29.088C65.0858 27.4453 65.3524 25.9307 65.8858 24.544C66.4191 23.1573 67.1658 21.9627 68.1258 20.96C69.0858 19.936 70.2271 19.1467 71.5498 18.592C72.8724 18.016 74.3124 17.728 75.8698 17.728C77.4271 17.728 78.8564 18.016 80.1578 18.592C81.4804 19.1467 82.6218 19.936 83.5818 20.96C84.5631 21.9627 85.3204 23.1573 85.8538 24.544C86.3871 25.9307 86.6538 27.4453 86.6538 29.088C86.6538 30.7307 86.3871 32.256 85.8538 33.664C85.3204 35.0507 84.5631 36.256 83.5818 37.28C82.6218 38.304 81.4804 39.104 80.1578 39.68C78.8564 40.2347 77.4271 40.512 75.8698 40.512ZM75.8698 35.328C76.9151 35.328 77.8111 35.072 78.5578 34.56C79.3044 34.0267 79.8804 33.2907 80.2858 32.352C80.7124 31.4133 80.9258 30.3253 80.9258 29.088C80.9258 27.8507 80.7124 26.7733 80.2858 25.856C79.8804 24.9387 79.3044 24.224 78.5578 23.712C77.8111 23.1787 76.9151 22.912 75.8698 22.912C74.8458 22.912 73.9498 23.168 73.1818 23.68C72.4351 24.192 71.8484 24.9173 71.4218 25.856C71.0164 26.7733 70.8138 27.8507 70.8138 29.088C70.8138 30.3253 71.0164 31.4133 71.4218 32.352C71.8484 33.2907 72.4351 34.0267 73.1818 34.56C73.9498 35.072 74.8458 35.328 75.8698 35.328ZM89.7363 40C89.7363 36.416 89.7363 32.7893 89.7363 29.12C89.7363 25.4507 89.7363 21.824 89.7363 18.24C91.0589 18.24 92.3816 18.24 93.7043 18.24C95.0483 18.24 96.3709 18.24 97.6723 18.24C99.3149 18.24 100.744 18.56 101.96 19.2C103.176 19.8187 104.126 20.6933 104.808 21.824C105.491 22.9547 105.832 24.2773 105.832 25.792C105.832 27.2853 105.491 28.5973 104.808 29.728C104.147 30.8587 103.23 31.7333 102.056 32.352C100.904 32.9707 99.5923 33.28 98.1203 33.28C97.6509 33.28 97.1816 33.28 96.7123 33.28C96.2643 33.28 95.8056 33.28 95.3363 33.28C95.3363 34.3893 95.3363 35.5093 95.3363 36.64C95.3363 37.7707 95.3363 38.8907 95.3363 40C94.4189 40 93.4909 40 92.5523 40C91.6136 40 90.6749 40 89.7363 40ZM97.6723 23.264C97.2883 23.264 96.8936 23.264 96.4883 23.264C96.1043 23.264 95.7203 23.264 95.3363 23.264C95.3363 24.1173 95.3363 24.9813 95.3363 25.856C95.3363 26.7093 95.3363 27.5627 95.3363 28.416C95.7629 28.416 96.2003 28.416 96.6483 28.416C97.1176 28.416 97.5656 28.416 97.9923 28.416C98.6536 28.416 99.1869 28.1707 99.5923 27.68C100.019 27.1893 100.232 26.5813 100.232 25.856C100.232 25.1093 100.008 24.4907 99.5603 24C99.1123 23.5093 98.4829 23.264 97.6723 23.264Z" fill="#232461"/>
<path d="M93.1289 76.5001H59.859L61.7175 70.6697L73.4512 33.8044C73.9249 32.3225 75.2003 31.5815 76.4879 31.5815C77.7754 31.5815 79.063 32.3225 79.5367 33.8044L91.2583 70.6697L93.1167 76.5001H93.1289Z" fill="#ED8F4D"/>
<path d="M59.859 76.5H93.1289L91.2704 82.3304L79.5367 119.196C78.5892 122.159 74.3865 122.159 73.439 119.196L61.7175 82.3304L59.859 76.5Z" fill="#798DAE"/>
<path d="M77.2288 85.355C81.9247 85.355 85.7315 81.5482 85.7315 76.8523C85.7315 72.1564 81.9247 68.3496 77.2288 68.3496C72.5329 68.3496 68.7261 72.1564 68.7261 76.8523C68.7261 81.5482 72.5329 85.355 77.2288 85.355Z" fill="#FFF8E8"/>
<path opacity="0.5" d="M76.5 31.5815V76.4879H59.859L61.7175 70.6575L73.4512 33.7922C73.9249 32.3103 75.2003 31.5693 76.4879 31.5693L76.5 31.5815Z" fill="#FFF8E8"/>
<path opacity="0.5" d="M76.5 121.406V76.5H93.141L91.2826 82.3304L79.5488 119.196C79.0751 120.678 77.7997 121.419 76.5121 121.419L76.5 121.406Z" fill="#FFF8E8"/>
</g>
<defs>
<clipPath id="clip0_2071_73">
<rect width="153" height="153" fill="white"/>
</clipPath>
</defs>
</svg>
