<svg width="151" height="175" viewBox="0 0 151 175" fill="none" xmlns="http://www.w3.org/2000/svg">
<path d="M75.2695 0C116.84 3.29861e-05 150.539 33.6996 150.539 75.2695C150.539 113.385 122.207 144.882 85.4531 149.854L77.5166 174.504L69.7344 150.336C30.7488 147.502 0.000194771 114.978 0 75.2695C0 33.6996 33.6994 0 75.2695 0Z" fill="#C5E8FF"/>
<g clip-path="url(#clip0_2310_1396)">
<path d="M60.2411 82.1764L38.5527 115.148L135.428 117.529L136.601 79.395L60.2411 82.1764Z" fill="#FFF8E8" stroke="#424376" stroke-linecap="round" stroke-linejoin="round"/>
<path d="M134.454 93.7349L87.9971 114.4L54.2939 94.9491L118.389 112.418L134.454 93.7349Z" stroke="#424376" stroke-linecap="round" stroke-linejoin="round"/>
<path d="M52.2667 80.9622C52.2667 85.0095 48.0463 85.8896 44.0752 85.8896C40.1042 85.8896 35.8838 81.9175 35.8838 77.8702C35.8838 73.8228 39.1345 71.0603 43.0732 70.5426C52.2667 69.3284 52.2667 76.9148 52.2667 80.9669V80.9622Z" fill="#FAEBE3" stroke="#424376" stroke-miterlimit="10"/>
<path d="M112.345 89.3204C113.689 88.5956 115.268 88.4968 116.695 89.0286C119.119 89.9275 122.882 91.4946 123.852 92.85C125.316 94.8972 123.432 100.94 120.264 101.34C117.096 101.74 110.143 98.1351 112.636 92.69C112.636 92.69 110.022 92.93 110.022 91.4899C110.022 90.7605 111.195 89.9463 112.35 89.3204H112.345Z" fill="#FAEBE3" stroke="#424376" stroke-miterlimit="10"/>
<path d="M112.655 87.7862C112.655 87.7862 113.906 85.1318 115.638 84.8118C117.369 84.4918 127.505 90.6616 127.86 91.3017C128.216 91.9417 125.57 95.1043 124.822 95.1419C124.074 95.1796 112.045 88.5862 112.655 87.7862Z" fill="#FBCF73" stroke="#424376" stroke-miterlimit="10"/>
<path d="M94.5908 70.1661C94.5908 70.1661 96.7149 65.2858 97.1074 65.3658C97.4998 65.4458 110.018 64.4575 110.018 64.4575L103.373 71.9922L94.5908 70.1614V70.1661Z" fill="#FBC59D"/>
<path d="M81.9022 81.1928L122.061 79.3903L125.556 64.9705L120.648 62.8057L104.131 71.9969L94.5911 71.6345L81.9022 68.3355L77.6172 74.8206L81.9022 81.1928Z" fill="#FBCF73"/>
<path d="M81.9021 19.5556C81.9021 19.5556 97.3892 9.31015 114.058 21.6498C119.087 25.3724 122.993 30.4363 125.69 36.1449C133.586 52.8708 144.538 53.4591 144.538 53.4591C144.538 53.4591 134.989 56.9087 127.795 52.9178C127.795 52.9178 132.981 61.662 131.803 64.0668C130.626 66.4717 114.617 57.1393 114.617 57.1393C114.617 57.1393 103.554 22.1063 81.8975 19.5556H81.9021Z" fill="#798DAE" stroke="#424376" stroke-linecap="round" stroke-linejoin="round"/>
<path d="M124.771 58.443C124.771 58.443 134.675 60.8479 136.915 67.813C139.154 74.7782 134.791 89.0804 130.843 91.7253C126.895 94.3702 111.791 85.7955 114.621 82.3129C117.452 78.8303 119.114 75.6253 119.465 74.3029" fill="#FBCF73"/>
<path d="M124.771 58.443C124.771 58.443 134.675 60.8479 136.915 67.813C139.154 74.7782 134.791 89.0804 130.843 91.7253C126.895 94.3702 111.791 85.7955 114.621 82.3129C117.452 78.8303 119.114 75.6253 119.465 74.3029" stroke="#424376" stroke-linecap="round" stroke-linejoin="round"/>
<path d="M80.9137 67.333C80.9137 67.333 62.8777 69.3049 55.5682 68.7966C48.2587 68.2884 51.2047 79.7056 51.7957 81.2681C52.3868 82.8305 53.5642 86.5531 56.9812 86.5531C60.3981 86.5531 85.7482 81.6258 87.1612 80.6657" fill="#FBCF73"/>
<path d="M80.9137 67.333C80.9137 67.333 62.8777 69.3049 55.5682 68.7966C48.2587 68.2884 51.2047 79.7056 51.7957 81.2681C52.3868 82.8305 53.5642 86.5531 56.9812 86.5531C60.3981 86.5531 85.7482 81.6258 87.1612 80.6657" stroke="#424376" stroke-linecap="round" stroke-linejoin="round"/>
<path d="M80.7245 64.7163C80.7245 64.7163 78.5173 66.4529 79.3854 67.893C80.2535 69.3331 92.8731 74.6935 101.886 73.1357C105.871 71.818 85.051 61.7749 80.7245 64.7163Z" fill="#FBCF73" stroke="#424376" stroke-miterlimit="10"/>
<path d="M74.7552 57.8026C77.1766 56.1722 78.0262 53.1329 76.6529 51.0141C75.2795 48.8953 72.2032 48.4994 69.7818 50.1298C67.3604 51.7602 66.5108 54.7995 67.8841 56.9183C69.2575 59.0371 72.3337 59.433 74.7552 57.8026Z" fill="#FAEBE3" stroke="#424376" stroke-miterlimit="10"/>
<path d="M75.2537 55.6131C76.6347 54.6833 77.1194 52.9503 76.3364 51.7424C75.5535 50.5345 73.7993 50.309 72.4184 51.2388C71.0374 52.1686 70.5527 53.9016 71.3357 55.1095C72.1186 56.3175 73.8728 56.543 75.2537 55.6131Z" fill="#FBC59D"/>
<path d="M109.444 63.5965C121.628 55.393 125.654 39.7169 118.438 28.583C111.221 17.4491 95.4937 15.0736 83.31 23.2771C71.1263 31.4807 67.0999 47.1568 74.3166 58.2907C81.5334 69.4246 97.2605 71.8001 109.444 63.5965Z" fill="#FAEBE3" stroke="#424376" stroke-miterlimit="10"/>
<path d="M95.1034 45.7221C95.1034 45.7221 92.079 39.1146 96.0869 36.4321C100.095 33.7495 105.599 36.4744 106.384 41.3171" fill="#FBC59D"/>
<path d="M95.1034 45.7221C95.1034 45.7221 92.079 39.1146 96.0869 36.4321C100.095 33.7495 105.599 36.4744 106.384 41.3171" stroke="#424376" stroke-miterlimit="10" stroke-linecap="round"/>
<path d="M82.8022 56.4193C82.8022 56.4193 88.3017 46.7245 106.379 41.5194" stroke="#424376" stroke-miterlimit="10" stroke-linecap="round"/>
<path d="M100.469 43.4442C100.234 43.4442 98.188 38.3145 98.188 38.3145" stroke="#424376" stroke-miterlimit="10" stroke-linecap="round"/>
<path d="M80.3505 41.477C80.7932 41.3638 81.0259 40.7591 80.8702 40.1263C80.7145 39.4935 80.2293 39.0723 79.7866 39.1854C79.3438 39.2986 79.1111 39.9034 79.2668 40.5361C79.4225 41.1689 79.9077 41.5902 80.3505 41.477Z" fill="#424376" stroke="#424376" stroke-miterlimit="10" stroke-linecap="round"/>
<path d="M91.7279 31.2817C92.1707 31.1685 92.4034 30.5638 92.2477 29.931C92.0919 29.2982 91.6068 28.8769 91.164 28.9901C90.7212 29.1033 90.4885 29.708 90.6443 30.3408C90.8 30.9736 91.2852 31.3949 91.7279 31.2817Z" fill="#424376" stroke="#424376" stroke-miterlimit="10" stroke-linecap="round"/>
<path d="M69.7534 50.6683C69.7534 50.6683 74.3894 32.4835 86.1779 26.6384C97.9664 20.7933 110.013 22.6475 110.013 22.6475C110.013 22.6475 106.573 9.69604 84.0354 18.5861C67.5093 25.1041 68.4928 45.3032 69.7488 50.6683H69.7534Z" fill="#424376" stroke="#424376" stroke-linecap="round" stroke-linejoin="round"/>
<path d="M74.7678 41.5194C74.7678 41.5194 73.6873 36.0555 73.9644 33.533C73.9644 33.533 75.4789 38.6392 76.4809 38.8792L74.7724 41.5241L74.7678 41.5194Z" fill="#FAEBE3"/>
<path d="M96.6597 72.9004C96.6597 72.9004 94.3648 81.541 94.6142 83.0988L96.6089 84.1341C96.6089 84.1341 98.2666 73.3522 98.9777 71.7803C98.9777 71.7803 97.1815 71.0368 96.6643 72.9051L96.6597 72.9004Z" fill="#FFF8E8" stroke="#424376" stroke-miterlimit="10"/>
<path d="M54.3355 85.2872C54.3355 85.2872 51.5512 86.0731 50.1752 84.9578C48.7991 83.8424 46.6751 72.0063 46.9152 71.3098C47.1553 70.6133 51.2326 70.5615 51.7497 71.1074C52.2669 71.6533 55.3237 85.2213 54.3355 85.2825V85.2872Z" fill="#FBCF73" stroke="#424376" stroke-miterlimit="10"/>
<path d="M76.6981 59.0218C79.5721 59.0218 81.902 56.6472 81.902 53.718C81.902 50.7887 79.5721 48.4141 76.6981 48.4141C73.824 48.4141 71.4941 50.7887 71.4941 53.718C71.4941 56.6472 73.824 59.0218 76.6981 59.0218Z" fill="#FBC59D"/>
<path d="M110.604 39.8582C113.478 39.8582 115.808 37.4835 115.808 34.5543C115.808 31.625 113.478 29.2504 110.604 29.2504C107.73 29.2504 105.4 31.625 105.4 34.5543C105.4 37.4835 107.73 39.8582 110.604 39.8582Z" fill="#FBC59D"/>
<path d="M69.2637 43.4442C69.2637 43.4442 70.3257 64.048 75.2803 70.2178C75.2803 70.2178 70.1318 47.5669 72.9207 39.1381L69.2637 43.4489V43.4442Z" fill="#424376" stroke="#424376" stroke-linecap="round" stroke-linejoin="round"/>
<path d="M109.444 63.5965C121.628 55.393 125.654 39.7169 118.438 28.583C111.221 17.4491 95.4937 15.0736 83.31 23.2771C71.1263 31.4807 67.0999 47.1568 74.3166 58.2907C81.5334 69.4246 97.2605 71.8001 109.444 63.5965Z" stroke="#424376" stroke-miterlimit="10"/>
<path d="M102.136 72.0204C102.136 72.0204 107.169 63.6904 113.218 58.5606C119.267 53.4309 122.804 52.4332 126.498 56.4193C130.192 60.4055 119.11 67.9354 112.899 70.2179C106.689 72.5004 100.552 74.4441 102.131 72.0204H102.136Z" fill="#FBCF73" stroke="#424376" stroke-miterlimit="10"/>
<path d="M104.791 71.6768C104.791 71.6768 103.789 80.5668 104.26 82.0728L106.384 82.7928C106.384 82.7928 106.444 71.8791 106.915 70.2178C106.915 70.2178 105.027 69.7566 104.791 71.6815V71.6768Z" fill="#FFF8E8" stroke="#424376" stroke-miterlimit="10"/>
<path d="M112.013 31.6459C112.013 31.6459 120.116 50.1036 127.8 52.9179C135.483 55.7322 144.543 53.4591 144.543 53.4591C144.543 53.4591 136.767 52.8708 130.376 43.9714C123.986 35.072 124.207 31.9329 121.446 29.0527C118.685 26.1725 116.353 22.6758 115.485 22.7605C115.485 22.7605 114.557 24.6477 112.622 24.7889C110.687 24.9301 110.022 25.5701 110.022 25.5701L112.017 31.6364L112.013 31.6459Z" fill="#424376" stroke="#424376" stroke-linecap="round" stroke-linejoin="round"/>
<path d="M115.738 23.0955C116.267 20.1872 114.71 17.4544 112.26 16.9916C109.81 16.5289 107.396 18.5114 106.867 21.4197C106.338 24.328 107.895 27.0608 110.345 27.5236C112.795 27.9863 115.209 26.0038 115.738 23.0955Z" fill="#FAEBE3" stroke="#424376" stroke-miterlimit="10"/>
<path d="M113.124 24.2578C113.426 22.5992 112.538 21.0407 111.142 20.7769C109.745 20.5131 108.368 21.6438 108.067 23.3024C107.765 24.961 108.653 26.5194 110.049 26.7832C111.446 27.0471 112.823 25.9164 113.124 24.2578Z" fill="#FBC59D"/>
<path d="M103.374 21.0851C103.374 21.0851 113.629 36.305 112.923 52.9226C112.923 52.9226 119.405 34.5731 107.026 17.9932L103.374 21.0898V21.0851Z" fill="#424376" stroke="#424376" stroke-linecap="round" stroke-linejoin="round"/>
<path d="M4.46191 87.0661H44.0755V27.6221L4.46191 87.0661ZM35.8794 78.6232H20.6186L35.8794 55.7181V78.6232Z" fill="#FBCF73" stroke="#424376" stroke-linecap="round" stroke-linejoin="round"/>
<path d="M45.7426 74.924C45.7426 74.924 43.383 73.6016 42.0486 74.284C40.7141 74.9664 40.0815 77.4089 42.4826 78.8113C42.4826 78.8113 42.0116 82.8963 44.5743 83.3481" fill="#FAEBE3"/>
<path d="M45.7426 74.924C45.7426 74.924 43.383 73.6016 42.0486 74.284C40.7141 74.9664 40.0815 77.4089 42.4826 78.8113C42.4826 78.8113 42.0116 82.8963 44.5743 83.3481" stroke="#424376" stroke-miterlimit="10" stroke-linecap="round"/>
<path d="M39.6241 96.7796C39.4256 96.1913 39.7257 95.5466 40.3075 95.3442L61.294 87.9225L61.3402 87.9037C61.4741 87.8566 61.6173 87.8378 61.7558 87.8425L61.9913 87.8801H61.9959L63.7644 88.1531C63.8429 88.1625 63.8752 88.2613 63.8198 88.3178L62.5962 89.645V89.6591L62.4207 89.8379C62.3191 89.9273 62.1991 90.0026 62.0605 90.0497L62.0144 90.0685L41.0278 97.4902C40.446 97.6973 39.818 97.382 39.6149 96.789L39.6241 96.7796Z" fill="#424376"/>
<path d="M92.8734 82.9575L88.1636 114.324" stroke="#424376" stroke-linecap="round" stroke-linejoin="round"/>
</g>
<defs>
<clipPath id="clip0_2310_1396">
<rect width="141" height="103" fill="white" transform="translate(4 15)"/>
</clipPath>
</defs>
</svg>
