<svg width="146" height="200" viewBox="0 0 146 200" fill="none" xmlns="http://www.w3.org/2000/svg">
<g clip-path="url(#clip0_2072_67)">
<path d="M94.6156 119.643C92.4186 118.805 100.823 112.755 102.777 110.318C102.777 110.309 102.777 110.299 102.786 110.29C119.053 94.0401 125.457 72.4741 117.118 55.0669C105.731 31.2991 71.2248 24.2986 40.0279 39.4287C8.83091 54.5682 -7.22099 86.0987 4.15651 109.867C9.73775 121.525 20.9002 129.137 34.4934 132.091H34.484C34.484 132.091 34.5775 132.119 34.7365 132.148C35.0824 132.223 35.4376 132.298 35.7929 132.364C40.9721 133.503 59.5856 138.706 52.4711 153.864C47.7406 163.217 47.348 172.655 52.4151 178.695C60.4644 188.312 79.2461 185.705 94.3632 172.88C104.245 164.497 110.107 153.827 110.742 144.756C110.742 144.756 114.79 121.92 94.6156 119.643Z" fill="#FBCF73"/>
<path d="M74.0242 110.035L73.8492 108.929C72.5257 100.566 78.1919 92.7024 86.5011 91.3703C88.6338 91.0284 90.6459 92.4971 90.9856 94.6436C92.3091 103.007 86.6429 110.87 78.3337 112.202L77.2351 112.378C75.7025 112.624 74.2683 111.577 74.0242 110.035Z" fill="#ED8F4D"/>
<path d="M83.6681 90.4365C101.244 64.975 119.596 40.0686 139.78 16.5925C142.294 13.7039 146.997 17.1006 145.034 20.4221C129.141 47.0315 111.322 72.3236 92.7364 97.0512C88.3518 102.8 79.592 96.4678 83.6681 90.4365Z" fill="#798DAE"/>
</g>
<defs>
<clipPath id="clip0_2072_67">
<rect width="145.002" height="200" fill="white" transform="translate(0.499023)"/>
</clipPath>
</defs>
</svg>
