<svg width="356" height="439" viewBox="0 0 356 439" fill="none" xmlns="http://www.w3.org/2000/svg">
<g clip-path="url(#clip0_2148_2646)">
<path d="M279.609 273.961L353.911 389.537C353.911 389.537 225.962 400.531 199.326 408.627C172.691 416.723 66.7889 401.131 60.167 402.214L75.2848 260.045C75.2848 260.045 268.026 261.722 279.627 273.958L279.609 273.961Z" fill="#FFF8E8"/>
<path d="M354.201 391.313C354.768 391.221 355.27 390.847 355.514 390.333C355.783 389.76 355.747 389.091 355.406 388.563L281.104 272.986C281.034 272.889 280.966 272.808 280.895 272.711C269.118 260.285 95.0699 258.413 75.2805 258.24C74.369 258.225 73.5738 258.921 73.4889 259.846L58.3711 402.016C58.3167 402.572 58.5159 403.123 58.925 403.512C59.334 403.901 59.8882 404.066 60.4547 403.973C62.1368 403.698 73.2721 404.867 86.168 406.24C121.464 409.967 180.547 416.186 199.862 410.345C226.016 402.419 352.806 391.451 354.078 391.334C354.131 391.325 354.166 391.319 354.219 391.311L354.201 391.313ZM278.214 275.101L350.788 388.006C330.985 389.75 223.366 399.442 198.808 406.906C180.208 412.557 121.568 406.376 86.5308 402.679C73.6555 401.321 65.9262 400.525 62.1597 400.393L76.8938 261.879C153.765 262.597 269.291 266.676 278.214 275.101Z" fill="#424376"/>
<path d="M252.668 76.0639C252.668 76.0639 281.839 168.915 275.53 198.47L134.559 217.539L54.4954 208.534C54.4954 208.534 53.1568 94.899 84.5628 65.0678C115.969 35.2367 252.668 76.0639 252.668 76.0639Z" fill="#798DAE"/>
<path d="M275.821 200.246C276.547 200.127 277.13 199.576 277.285 198.857C283.612 169.19 255.569 79.3463 254.381 75.5285C254.196 74.9568 253.761 74.5174 253.186 74.3379C247.568 72.6674 115.118 33.5888 83.3333 63.7736C51.7381 93.7816 52.6636 203.892 52.7169 208.552C52.7206 209.463 53.409 210.226 54.3143 210.315L134.378 219.319C134.525 219.332 134.67 219.326 134.814 219.321L275.786 200.252L275.839 200.243L275.821 200.246ZM251.234 77.5205C254.184 87.1048 278.838 168.458 274.012 196.858L134.552 215.717L56.2843 206.91C56.292 193.067 57.314 93.4165 85.7929 66.3621C114.762 38.8627 239.246 74.0288 251.232 77.5027L251.234 77.5205Z" fill="#424376"/>
<path d="M233.048 178.265C233.048 178.265 282.069 198.987 285.613 228.206C289.157 257.426 284.182 268.799 284.182 268.799L116.396 268.31L65.7083 298.961C65.7083 298.961 30.3921 249.554 99.2954 182.676L233.03 178.268L233.048 178.265Z" fill="#FBCF73"/>
<path d="M285.367 270.593L285.844 269.512C286.055 269.022 290.963 257.349 287.413 227.985C283.791 198.067 235.808 177.467 233.757 176.599L233.386 176.441L232.988 176.451L98.5655 180.881L98.0629 181.364C62.0101 216.35 54.6936 246.636 54.8997 265.897C55.125 286.942 63.902 299.476 64.2783 299.998L65.2454 301.353L116.926 270.102L285.385 270.59L285.367 270.593ZM232.707 180.071C237.098 182.016 280.611 201.851 283.831 228.425C286.667 251.76 283.962 263.564 282.907 267.002L115.902 266.512L66.2897 296.514C64.0955 292.769 58.5655 281.747 58.4578 265.643C58.3203 247.246 65.4478 218.25 100.04 184.451L232.69 180.074L232.707 180.071Z" fill="#424376"/>
<path d="M227.949 273.221C242.41 261.937 231.173 231.587 230.689 230.298L227.335 231.576C227.438 231.87 238.139 260.721 225.759 270.388L227.97 273.236L227.949 273.221Z" fill="#424376"/>
<path d="M113.886 271.529L115.446 268.283C110.906 266.09 108.277 243.796 107.872 228.653L104.287 228.747C104.469 235.191 105.77 267.587 113.904 271.526L113.886 271.529Z" fill="#424376"/>
<path d="M284.892 273.023C284.892 273.023 286.137 288.194 274.378 294.768C262.619 301.342 241.185 288.672 239.319 285.713C237.453 282.754 234.705 287.289 230.677 286.781C226.649 286.273 220.451 274.283 228.253 268.63C236.054 262.977 279.952 261.722 282.674 265.581C285.396 269.439 284.673 272.129 284.874 273.026L284.892 273.023Z" fill="#FAEBE3"/>
<path d="M269.827 298.175C271.757 297.859 273.57 297.271 275.253 296.339C287.878 289.277 286.74 273.542 286.686 272.876L286.665 272.752L286.651 272.663C286.63 272.538 286.643 272.39 286.649 272.207C286.646 270.858 286.624 268.053 284.161 264.553C283.426 263.506 281.885 262.865 279.007 262.387C267.773 260.505 234.561 261.853 227.215 267.177C223.347 269.98 221.875 274.543 223.193 279.707C224.21 283.699 227.101 288.15 230.46 288.567C232.798 288.859 234.727 287.869 236.142 287.181C236.629 286.938 237.335 286.585 237.671 286.53C237.671 286.53 237.671 286.53 237.689 286.527C237.692 286.545 237.739 286.61 237.807 286.69C239.743 289.747 256.87 300.313 269.83 298.193L269.827 298.175ZM283.11 273.242C283.172 274.399 283.661 287.504 273.503 293.197C262.544 299.33 242.284 286.943 240.835 284.754C238.925 281.747 236.069 283.181 234.542 283.96C233.367 284.553 232.156 285.153 230.914 285.009C229.985 284.888 227.649 282.607 226.685 278.826C226.136 276.691 225.756 272.704 229.332 270.113C236.935 264.584 278.064 264.183 281.341 266.765C283.052 269.221 283.059 271.044 283.074 272.245C283.079 272.609 283.081 272.955 283.133 273.275L283.11 273.242Z" fill="#424376"/>
<path d="M166.949 223.004C147.56 224.55 130.978 215.039 129.913 201.763C128.848 188.486 143.703 176.471 163.092 174.926C182.482 173.38 199.064 182.89 200.129 196.167C201.194 209.444 186.339 221.459 166.949 223.004Z" fill="#FBC59D"/>
<path d="M171.508 224.26C179.511 222.95 186.787 219.863 192.344 215.38C199.086 209.918 202.489 203.051 201.919 196.014C201.35 188.976 196.89 182.721 189.367 178.408C182.065 174.222 172.684 172.329 162.96 173.117C153.232 173.888 144.272 177.232 137.722 182.535C130.98 187.997 127.577 194.863 128.146 201.901C128.716 208.938 133.175 215.194 140.698 219.507C148 223.692 157.382 225.586 167.106 224.798C168.596 224.681 170.074 224.494 171.508 224.26ZM159.121 177.21C160.466 176.99 161.856 176.817 163.257 176.716C172.282 175.987 180.927 177.71 187.607 181.541C194.067 185.244 197.889 190.491 198.349 196.306C198.81 202.121 195.884 207.907 190.106 212.591C184.118 217.437 175.874 220.5 166.829 221.214C157.804 221.943 149.159 220.22 142.479 216.389C136.019 212.686 132.197 207.439 131.737 201.624C131.276 195.808 134.202 190.023 139.98 185.339C145.037 181.247 151.72 178.421 159.121 177.21Z" fill="#424376"/>
<path d="M244.889 144.163C240.948 135.29 246.103 124.372 256.403 119.778C266.704 115.185 278.249 118.654 282.189 127.528C286.13 136.401 280.975 147.319 270.675 151.913C260.375 156.506 248.83 153.037 244.889 144.163Z" fill="#FAEBE3"/>
<path d="M265.159 155.413C267.266 155.068 269.362 154.433 271.397 153.535C282.58 148.55 288.161 136.549 283.834 126.771C279.493 117.013 266.86 113.134 255.677 118.119C250.305 120.511 246.045 124.582 243.681 129.583C241.276 134.663 241.13 140.104 243.239 144.883C245.366 149.66 249.487 153.18 254.878 154.797C258.168 155.79 261.689 155.98 265.177 155.41L265.159 155.413ZM262.463 119.817C270.2 118.551 277.691 121.776 280.548 128.238C284.085 136.195 279.318 146.057 269.93 150.237C265.338 152.283 260.349 152.68 255.893 151.33C251.533 150.019 248.201 147.208 246.505 143.401C244.81 139.593 244.95 135.229 246.913 131.115C248.915 126.903 252.531 123.448 257.123 121.402C258.886 120.621 260.672 120.092 262.46 119.799L262.463 119.817Z" fill="#424376"/>
<path d="M246.541 141.607C244.294 136.548 247.235 130.323 253.109 127.704C258.984 125.084 265.567 127.061 267.814 132.12C270.06 137.179 267.12 143.404 261.246 146.024C255.371 148.643 248.788 146.666 246.541 141.607Z" fill="#FBC59D"/>
<path d="M58.2734 167.585C47.2995 164.971 40.2101 155.192 42.4389 145.745C44.6677 136.297 55.3707 130.758 66.3447 133.373C77.3187 135.988 84.408 145.767 82.1792 155.214C79.9504 164.662 69.2474 170.2 58.2734 167.585Z" fill="#FAEBE3"/>
<path d="M67.6121 169.695C75.5973 168.389 82.1677 163.101 83.9265 155.628C86.371 145.234 78.6811 134.456 66.7475 131.63C61.0165 130.27 55.1774 130.915 50.2805 133.431C45.2861 136.017 41.8863 140.238 40.6821 145.323C38.2199 155.72 45.9246 166.478 57.8611 169.321C61.1924 170.126 64.5136 170.202 67.6121 169.695ZM80.4449 154.793C78.4477 163.254 68.6954 168.205 58.6869 165.812C48.6784 163.419 42.1812 154.598 44.1785 146.137C45.1353 142.096 47.8899 138.709 51.9303 136.626C56.0712 134.489 61.0369 133.95 65.9365 135.118C75.9244 137.497 82.4392 146.315 80.4449 154.793Z" fill="#424376"/>
<path d="M66.4279 160.089C60.1695 158.597 56.1261 153.022 57.3967 147.636C58.6674 142.25 64.771 139.093 71.0294 140.584C77.2879 142.075 81.3312 147.65 80.0606 153.037C78.7899 158.423 72.6863 161.58 66.4279 160.089Z" fill="#FBC59D"/>
<path d="M177.29 207.375C125.19 215.899 76.4549 183.079 68.437 134.071C60.4191 85.0626 96.1549 38.4236 148.255 29.8999C200.355 21.3762 249.091 54.1955 257.108 103.204C265.126 152.212 229.391 198.851 177.29 207.375Z" fill="#FAEBE3"/>
<path d="M177.581 209.151C230.574 200.481 267.045 152.825 258.88 102.914C250.714 53.0038 200.958 19.4539 147.965 28.1237C94.9719 36.7935 58.5014 84.4502 66.6669 134.361C74.8323 184.271 124.588 217.821 177.581 209.151ZM148.546 31.6761C199.592 23.3249 247.493 55.5369 255.338 103.493C263.184 151.45 228.046 197.247 177 205.599C125.955 213.95 78.0538 181.738 70.208 133.781C62.3622 85.8246 97.5184 40.0243 148.546 31.6761Z" fill="#424376"/>
<path d="M171.495 187.168C195.309 183.272 214.448 169.472 218.036 153.621C218.26 152.654 217.648 151.696 216.684 151.471C215.72 151.246 214.766 151.858 214.543 152.824C211.274 167.292 193.329 179.949 170.913 183.616C146.196 187.66 123.453 179.544 118.015 164.75C117.681 163.82 116.638 163.334 115.714 163.686C114.787 164.02 114.303 165.066 114.655 165.993C120.682 182.387 145.131 191.481 171.495 187.168Z" fill="#424376"/>
<path d="M195.313 138.075C195.037 137.235 196.515 135.994 198.614 135.303C200.713 134.612 202.638 134.733 202.914 135.574C203.19 136.414 201.712 137.655 199.613 138.346C197.514 139.037 195.588 138.916 195.313 138.075Z" fill="#424376"/>
<path d="M198.325 139.593C198.838 139.509 199.363 139.387 199.88 139.211C201.002 138.845 202.006 138.316 202.724 137.706C203.972 136.663 203.912 135.743 203.766 135.293C203.224 133.649 200.56 133.701 198.32 134.451C196.51 135.057 195.071 136.04 194.579 137.033C194.291 137.609 194.349 138.073 194.452 138.366C194.598 138.817 195.089 139.594 196.723 139.691C197.218 139.719 197.758 139.686 198.342 139.59L198.325 139.593ZM200.166 135.845C201.263 135.665 201.959 135.807 202.109 135.947C201.997 136.038 201.142 136.925 199.33 137.514C197.727 138.05 196.585 137.963 196.214 137.805C196.413 137.462 197.27 136.702 198.893 136.181C199.36 136.032 199.797 135.924 200.169 135.863L200.166 135.845Z" fill="#424376"/>
<path d="M131.096 144.817C128.945 144.305 127.367 143.192 127.57 142.331C127.773 141.471 129.68 141.188 131.831 141.701C133.981 142.213 135.56 143.326 135.357 144.187C135.154 145.048 133.246 145.33 131.096 144.817Z" fill="#424376"/>
<path d="M134.161 145.878C135.719 145.623 136.116 144.828 136.224 144.373C136.301 144.069 136.314 143.592 135.97 143.047C135.397 142.101 133.875 141.238 132.02 140.793C129.73 140.238 127.069 140.418 126.669 142.088C126.273 143.776 128.564 145.115 130.873 145.668C132.025 145.935 133.167 146.022 134.07 145.874L134.14 145.863L134.161 145.878ZM129.043 142.375C129.592 142.285 130.483 142.285 131.635 142.552C133.49 142.997 134.42 143.793 134.499 144.053C134.357 144.077 133.171 144.38 131.316 143.936C129.654 143.551 128.741 142.862 128.506 142.535C128.624 142.48 128.795 142.415 129.043 142.375Z" fill="#424376"/>
<path d="M243.095 117.661C243.095 117.661 146.692 108.794 90.0386 130.537C70.0803 139 63.0261 144.33 63.0261 144.33C63.0261 144.33 50.9288 37.0507 134.855 27.6607C218.781 18.2707 247.739 66.9313 252.669 76.0639C257.599 85.1966 265.35 121.351 265.35 121.351L243.098 117.679L243.095 117.661Z" fill="#424376"/>
<path d="M265.638 123.109C266.009 123.049 266.379 122.861 266.642 122.58C267.044 122.15 267.217 121.538 267.103 120.955C266.788 119.474 259.22 84.4389 254.234 75.1877C246.767 61.3273 216.061 16.7641 134.652 25.8701C99.5525 29.7888 75.6969 51.6552 65.7258 89.0494C58.2527 117.044 61.1971 144.265 61.2407 144.531C61.3099 145.176 61.7274 145.728 62.3138 145.979C62.9002 146.229 63.5788 146.155 64.096 145.76C64.161 145.713 71.2948 140.424 90.7274 132.193C145.707 111.107 239.925 119.182 242.86 119.45L265.056 123.113C265.245 123.155 265.443 123.141 265.638 123.109ZM130.273 30.1063C131.831 29.8513 133.431 29.6262 135.056 29.4514C214.253 20.5981 243.895 63.548 251.08 76.9075C255.073 84.315 261.158 110.73 263.022 119.124L243.367 115.884C243.367 115.884 243.276 115.88 243.237 115.868C242.276 115.77 145.761 107.214 89.3817 128.857C75.8163 134.614 68.1747 138.91 64.541 141.146C64.0261 133.443 63.3184 111.893 69.2074 89.8841C78.4754 55.3039 99.0051 35.2218 130.273 30.1063Z" fill="#424376"/>
<path d="M227.624 123C227.624 123 227.88 102.897 217.664 83.2315C217.664 83.2315 218.2 120.512 215.621 121.973L227.624 123Z" fill="#FAEBE3"/>
<path d="M238.047 163.149C228.943 164.639 220.352 158.442 218.858 149.31C217.363 140.177 223.532 131.566 232.636 130.077C241.74 128.587 250.331 134.784 251.825 143.916C253.32 153.049 247.151 161.66 238.047 163.149Z" fill="#FBC59D"/>
<path d="M99.373 176.372C90.2692 177.861 81.6778 171.665 80.1837 162.532C78.6896 153.4 84.8585 144.789 93.9623 143.299C103.066 141.81 111.658 148.006 113.152 157.139C114.646 166.271 108.477 174.882 99.373 176.372Z" fill="#FBC59D"/>
<path d="M162.786 156.94C159.596 157.195 156.846 155.361 156.644 152.844C156.442 150.327 158.865 148.081 162.055 147.827C165.246 147.573 167.996 149.407 168.198 151.923C168.399 154.44 165.977 156.686 162.786 156.94Z" fill="white"/>
<path d="M177.581 209.151C230.574 200.481 267.045 152.825 258.88 102.914C250.714 53.0038 200.958 19.4539 147.965 28.1237C94.9719 36.7935 58.5014 84.4502 66.6669 134.361C74.8323 184.271 124.588 217.821 177.581 209.151ZM148.546 31.6761C199.592 23.3249 247.493 55.5369 255.338 103.493C263.184 151.45 228.046 197.247 177 205.599C125.955 213.95 78.0538 181.738 70.208 133.781C62.3622 85.8246 97.5184 40.0243 148.546 31.6761Z" fill="#424376"/>
<path d="M243.637 108.089C243.637 108.089 249.492 170.541 244.726 177.412C244.726 177.412 261.591 152.823 254.969 112.344C248.346 71.8654 243.637 108.089 243.637 108.089Z" fill="#424376"/>
<path d="M245.013 179.171C245.474 179.095 245.905 178.842 246.201 178.429L246.198 178.411C247.077 177.119 263.344 152.536 256.721 112.058C253.894 94.7754 251.531 91.3322 248.649 91.3843C245.472 91.4116 243.255 96.9719 241.836 107.855C241.821 107.985 241.823 108.112 241.829 108.257C244.059 132.001 246.396 171.285 243.289 176.298C243.244 176.36 243.23 176.38 243.233 176.398C242.676 177.219 242.877 178.335 243.695 178.894C244.087 179.176 244.556 179.264 244.998 179.191L245.013 179.171ZM248.719 95.2573C249.451 96.2865 251.115 99.8988 253.195 112.616C257.17 136.914 252.464 155.484 248.267 166.164C249.005 148.007 246.213 116.385 245.443 108.122C246.203 102.435 247.635 96.8571 248.719 95.2573Z" fill="#424376"/>
<path d="M74.2417 131.772C74.2417 131.772 88.5947 192.834 95.3019 197.828C95.3019 197.828 71.4798 179.895 64.8574 139.416C58.2349 98.9375 74.2417 131.772 74.2417 131.772Z" fill="#424376"/>
<path d="M95.5895 199.586C96.0321 199.514 96.4486 199.281 96.7298 198.889C97.3276 198.098 97.1623 196.976 96.3732 196.376C96.3732 196.376 96.332 196.346 96.2879 196.299C91.7486 192.555 81.4417 154.557 75.9889 131.34C75.9686 131.216 75.9099 131.079 75.8542 130.961C71.041 121.098 67.0966 116.545 64.1474 117.52C61.399 118.389 60.2564 122.406 63.0838 139.688C69.7091 180.185 92.9586 198.284 94.204 199.229C94.6191 199.544 95.1085 199.647 95.5689 199.571L95.5895 199.586ZM72.541 132.378C74.4443 140.456 81.8752 171.319 88.361 188.295C80.9817 179.526 70.603 163.425 66.6249 139.109C64.5443 126.392 64.9671 122.42 65.3358 121.229C66.8727 122.4 70.0258 127.227 72.541 132.378Z" fill="#424376"/>
<path d="M282.751 342.055C263.918 328.504 295.221 323.382 290.329 340.815C295.204 323.385 320.073 341.274 296.348 345.155C320.073 341.274 313.621 364.287 294.788 350.736C313.621 364.287 282.318 369.408 287.21 351.976C282.335 369.405 257.466 351.517 281.191 347.635C257.466 351.517 263.918 328.504 282.751 342.055Z" fill="#FBCF73"/>
<path d="M126.28 280.389C126.28 280.389 121.438 267.686 110.659 267.808C99.8807 267.93 70.3996 283.969 68.3561 293.258C66.3126 302.546 71.6987 321.689 92.1419 322.302C112.585 322.915 129.849 306.431 124.114 291.266C124.114 291.266 131.513 288.378 126.283 280.407L126.28 280.389Z" fill="#FAEBE3"/>
<path d="M99.4808 323.6C108.971 322.048 117.644 317.054 122.726 309.894C126.728 304.243 127.977 297.984 126.272 292.117C127.436 291.343 128.923 289.987 129.598 287.889C130.388 285.389 129.805 282.603 127.875 279.581C127.174 277.854 121.909 265.894 110.623 266.027C99.5549 266.159 68.8876 282.392 66.5845 292.873C65.3762 298.377 66.5572 307.485 71.9911 314.474C75.2637 318.699 81.4043 323.785 92.0728 324.101C94.5563 324.169 97.0551 323.997 99.4808 323.6ZM108.498 269.821C109.295 269.691 110.03 269.625 110.682 269.61C120.098 269.492 124.565 280.907 124.603 281.028L124.788 281.381C126.19 283.504 126.651 285.325 126.199 286.785C125.587 288.709 123.493 289.58 123.476 289.583L121.819 290.237L122.455 291.902C124.404 297.036 123.455 302.681 119.82 307.798C114.101 315.847 103.263 320.829 92.1937 320.507C84.8494 320.286 78.8567 317.436 74.8283 312.26C70.109 306.193 69.0635 298.358 70.1105 293.645C71.7781 286.059 96.8658 271.724 108.498 269.821Z" fill="#424376"/>
<path d="M81.3379 237.261C83.2322 235.839 85.9302 236.218 87.3709 238.134L139.032 307.555L139.15 307.718C139.479 308.175 139.723 308.664 139.863 309.188L140.014 310.112L140.017 310.129L141.142 317.003C141.173 317.308 140.866 317.541 140.589 317.404L134.334 314.397L134.281 314.405L133.427 313.961C132.982 313.688 132.576 313.316 132.232 312.88L132.114 312.717L80.4528 243.297C79.0298 241.377 79.4229 238.669 81.335 237.244L81.3379 237.261Z" fill="#424376"/>
<rect x="141.353" y="287" width="106" height="106" rx="53" fill="#ED8F4D"/>
<path d="M194.359 324.617C185.988 324.617 179.236 331.485 179.236 340C179.236 348.515 185.988 355.383 194.359 355.383C202.73 355.383 209.483 348.515 209.483 340C209.483 331.485 202.73 324.617 194.359 324.617ZM194.359 350.001C188.949 350.001 184.527 345.516 184.527 340C184.527 334.484 188.936 329.999 194.359 329.999C199.782 329.999 204.191 334.484 204.191 340C204.191 345.516 199.769 350.001 194.359 350.001ZM213.629 323.988C213.629 325.982 212.049 327.576 210.101 327.576C208.14 327.576 206.574 325.969 206.574 323.988C206.574 322.006 208.153 320.399 210.101 320.399C212.049 320.399 213.629 322.006 213.629 323.988ZM223.645 327.629C223.421 322.823 222.342 318.565 218.88 315.057C215.432 311.55 211.246 310.452 206.521 310.211C201.651 309.93 187.054 309.93 182.184 310.211C177.472 310.438 173.286 311.536 169.825 315.044C166.363 318.552 165.297 322.809 165.06 327.616C164.783 332.569 164.783 347.417 165.06 352.371C165.284 357.177 166.363 361.435 169.825 364.943C173.286 368.45 177.459 369.548 182.184 369.789C187.054 370.07 201.651 370.07 206.521 369.789C211.246 369.562 215.432 368.464 218.88 364.943C222.329 361.435 223.408 357.177 223.645 352.371C223.922 347.417 223.922 332.583 223.645 327.629ZM217.354 357.686C216.327 360.31 214.339 362.332 211.747 363.389C207.864 364.956 198.65 364.594 194.359 364.594C190.068 364.594 180.841 364.943 176.972 363.389C174.392 362.345 172.404 360.324 171.365 357.686C169.825 353.736 170.18 344.365 170.18 340C170.18 335.635 169.838 326.25 171.365 322.314C172.391 319.69 174.379 317.668 176.972 316.611C180.855 315.044 190.068 315.406 194.359 315.406C198.65 315.406 207.877 315.057 211.747 316.611C214.326 317.655 216.314 319.676 217.354 322.314C218.894 326.264 218.538 335.635 218.538 340C218.538 344.365 218.894 353.75 217.354 357.686Z" fill="white"/>
</g>
<defs>
<clipPath id="clip0_2148_2646">
<rect width="295.525" height="396.222" fill="white" transform="matrix(-0.98688 0.161456 0.161456 0.98688 292 0)"/>
</clipPath>
</defs>
</svg>
