<svg width="130" height="130" viewBox="0 0 130 130" fill="none" xmlns="http://www.w3.org/2000/svg">
<circle cx="65" cy="65" r="65" fill="#FFF7E7"/>
<g clip-path="url(#clip0_2072_172)">
<path d="M76.8821 74.3791C75.7761 73.9579 80.0074 70.9149 80.9911 69.6892C80.9911 69.6845 80.9911 69.6797 80.9958 69.675C89.1854 61.502 92.4094 50.6551 88.2111 41.8999C82.4784 29.9456 65.1061 26.4246 49.3999 34.0345C33.6938 41.6491 25.6124 57.5077 31.3404 69.462C34.1503 75.3256 39.7701 79.1542 46.6136 80.6402H46.6089C46.6089 80.6402 46.6559 80.6544 46.7359 80.6686C46.9101 80.7065 47.0889 80.7443 47.2678 80.7775C49.8753 81.3501 59.2463 83.9672 55.6645 91.5912C53.2829 96.2953 53.0852 101.042 55.6362 104.08C59.6887 108.917 69.1444 107.606 76.7551 101.156C81.73 96.9389 84.6811 91.5723 85.0011 87.0102C85.0011 87.0102 87.0391 75.5244 76.8821 74.3791Z" fill="#FBCF73"/>
<path d="M66.5153 69.5465L66.4272 68.9904C65.7609 64.7841 68.6135 60.829 72.7968 60.159C73.8705 59.9871 74.8835 60.7258 75.0546 61.8054C75.7209 66.0116 72.8682 69.9667 68.685 70.6367L68.1318 70.7253C67.3603 70.8489 66.6382 70.3223 66.5153 69.5465Z" fill="#ED8F4D"/>
<path d="M71.3706 59.6894C80.2191 46.8832 89.4583 34.3563 99.62 22.5487C100.886 21.0958 103.254 22.8042 102.265 24.4748C94.2638 37.8583 85.2929 50.5793 75.9361 63.0163C73.7286 65.9079 69.3185 62.7229 71.3706 59.6894Z" fill="#798DAE"/>
</g>
<defs>
<clipPath id="clip0_2072_172">
<rect width="73" height="85" fill="white" transform="translate(29.5 22)"/>
</clipPath>
</defs>
</svg>
