<svg width="36" height="36" viewBox="0 0 36 36" fill="none" xmlns="http://www.w3.org/2000/svg">
<path d="M18.0039 9.02644C13.0379 9.02644 9.03235 13.0329 9.03235 18C9.03235 22.9671 13.0379 26.9736 18.0039 26.9736C22.9699 26.9736 26.9755 22.9671 26.9755 18C26.9755 13.0329 22.9699 9.02644 18.0039 9.02644ZM18.0039 23.834C14.7948 23.834 12.1712 21.2177 12.1712 18C12.1712 14.7823 14.787 12.166 18.0039 12.166C21.2209 12.166 23.8366 14.7823 23.8366 18C23.8366 21.2177 21.2131 23.834 18.0039 23.834ZM29.435 8.65938C29.435 9.82305 28.4981 10.7524 27.3424 10.7524C26.179 10.7524 25.2499 9.81524 25.2499 8.65938C25.2499 7.50351 26.1868 6.56633 27.3424 6.56633C28.4981 6.56633 29.435 7.50351 29.435 8.65938ZM35.377 10.7837C35.2443 7.97992 34.604 5.49637 32.5505 3.45018C30.5047 1.40399 28.0218 0.763584 25.2186 0.623006C22.3296 0.458998 13.6704 0.458998 10.7814 0.623006C7.98606 0.755774 5.50307 1.39618 3.44953 3.44237C1.39598 5.48856 0.763525 7.97211 0.622978 10.7759C0.459007 13.6655 0.459007 22.3267 0.622978 25.2163C0.755717 28.0201 1.39598 30.5036 3.44953 32.5498C5.50307 34.596 7.97825 35.2364 10.7814 35.377C13.6704 35.541 22.3296 35.541 25.2186 35.377C28.0218 35.2442 30.5047 34.6038 32.5505 32.5498C34.5962 30.5036 35.2365 28.0201 35.377 25.2163C35.541 22.3267 35.541 13.6733 35.377 10.7837ZM31.6447 28.3169C31.0357 29.8476 29.8567 31.0269 28.3185 31.6439C26.0151 32.5576 20.5494 32.3468 18.0039 32.3468C15.4585 32.3468 9.98494 32.5498 7.68935 31.6439C6.15895 31.0347 4.97992 29.8554 4.36308 28.3169C3.44953 26.0129 3.66035 20.546 3.66035 18C3.66035 15.454 3.45733 9.97925 4.36308 7.68314C4.97211 6.1524 6.15114 4.97311 7.68935 4.35613C9.99275 3.44237 15.4585 3.65324 18.0039 3.65324C20.5494 3.65324 26.0229 3.45018 28.3185 4.35613C29.8489 4.9653 31.0279 6.14459 31.6447 7.68314C32.5583 9.98706 32.3475 15.454 32.3475 18C32.3475 20.546 32.5583 26.0208 31.6447 28.3169Z" fill="white"/>
</svg>
