<svg width="408" height="306" viewBox="0 0 408 306" fill="none" xmlns="http://www.w3.org/2000/svg">
<g clip-path="url(#clip0_2145_1915)">
<path d="M109.67 165.652C109.67 165.652 7.77506 160.634 0.608385 194.638C-6.55153 228.649 51.1131 250.932 72.6605 281.442C86.4327 300.942 245.844 326.462 329.43 278.821C413.017 231.181 432.542 197.536 375.256 183.141C317.97 168.746 109.664 165.652 109.664 165.652H109.67Z" fill="#C5E8FF"/>
<path d="M163.502 68.6983C163.502 68.6983 177.544 77.5141 186.056 70.3369C194.568 63.1597 200.025 49.7938 201.1 38.9603C202.175 28.1267 220.294 -3.4327 244.573 11.2535C268.852 25.9397 253.666 59.3612 238.244 63.2816C222.823 67.202 217.914 63.1665 210.403 73.1536C202.519 83.6283 184.778 92.3764 173.765 81.746C162.751 71.1156 163.502 68.6983 163.502 68.6983Z" fill="#C5E8FF"/>
<path d="M56.2921 80.8792C56.2921 80.8792 41.0054 120.916 26.7329 130.768C26.7329 130.768 37.3139 129.786 47.212 117.341C57.1101 104.896 56.2921 80.8792 56.2921 80.8792Z" fill="#424376" stroke="#424376" stroke-width="2" stroke-linecap="round" stroke-linejoin="round"/>
<path d="M83.1469 219.467C83.1469 219.467 70.8013 258.881 65.7847 261.19C65.7847 261.19 123.145 252.658 132.347 254.277C141.549 255.895 205.068 253.816 207.259 252.205C207.259 252.205 188.964 190.203 187.125 190.433C185.286 190.663 90.2054 207.72 90.2054 207.72L83.1469 219.474V219.467Z" fill="#FFF8E8" stroke="#424376" stroke-width="2" stroke-linecap="round" stroke-linejoin="round"/>
<path d="M69.429 56.1516C69.429 56.1516 36.5975 94.0893 61.9649 142.786L96.3513 133.402L69.429 56.1516Z" fill="#798DAE" stroke="#424376" stroke-width="2" stroke-linecap="round" stroke-linejoin="round"/>
<path d="M76.1559 141.581C76.1559 141.581 87.075 137.044 91.6454 137.302L84.7559 132.616L77.5352 127.45L75.4663 129.441L76.1559 141.588V141.581Z" fill="#FBCF73"/>
<path d="M79.077 126.773C79.077 126.773 31.4322 156.335 52.6685 189.181C60.0921 200.766 58.6655 199.378 61.9716 200.075C65.271 200.766 82.3696 195.755 85.0402 198.172C87.7108 200.59 81.6665 170.168 74.7635 166.539" fill="#FBCF73"/>
<path d="M79.077 126.773C79.077 126.773 31.4322 156.335 52.6685 189.181C60.0921 200.766 58.6655 199.378 61.9716 200.075C65.271 200.766 82.3696 195.755 85.0402 198.172C87.7108 200.59 81.6665 170.168 74.7635 166.539" stroke="#424376" stroke-width="2" stroke-miterlimit="10"/>
<path d="M94.5324 137.755C94.5324 137.755 68.0022 134.146 61.9646 163.878C60.0174 175.402 62.6069 186.235 64.9057 187.386C65.6561 190.156 56.6775 196.723 49.0849 195.857C41.4923 194.99 22.8454 187.041 19.3973 193.44C15.9424 199.838 17.3284 204.679 24.2314 208.478C31.1344 212.283 50.4709 212.974 53.5742 212.283C56.6843 211.592 94.0253 209.69 96.3579 209.345C98.6904 208.999 119.805 203.928 139.831 202.316C159.857 200.705 187.185 197.766 207.901 185.545C228.617 173.33 238.799 141.059 236.27 126.996C233.742 112.933 236.615 96.4523 231.091 94.5565C225.568 92.6606 222.978 102.567 221.768 101.93C220.558 101.294 210.632 102.939 209.341 102.248C208.05 101.558 205.372 92.8299 201.573 93.8658C197.773 94.9018 196.299 104.164 195.447 104.151C194.595 104.137 190.674 111.613 186.874 112.303C183.075 112.994 94.5459 137.755 94.5459 137.755H94.5324Z" fill="#FFF8E8" stroke="#ED8F4D" stroke-width="2" stroke-linecap="round" stroke-linejoin="round"/>
<path d="M79.077 126.773C79.077 126.773 31.4322 156.335 52.6685 189.181C60.0921 200.766 58.6655 199.378 61.9716 200.075C65.271 200.766 82.3696 195.755 85.0402 198.172C87.7108 200.59 81.6665 170.168 74.7635 166.539" fill="#FBCF73"/>
<path d="M79.077 126.773C79.077 126.773 31.4322 156.335 52.6685 189.181C60.0921 200.766 58.6655 199.378 61.9716 200.075C65.271 200.766 82.3696 195.755 85.0402 198.172C87.7108 200.59 81.6665 170.168 74.7635 166.539" stroke="#424376" stroke-width="2" stroke-miterlimit="10"/>
<path d="M181.588 107.65C189.213 105.647 194.003 98.7124 192.287 92.1618C190.571 85.6113 182.999 81.9249 175.374 83.9281C167.75 85.9313 162.96 92.8655 164.676 99.416C166.392 105.967 173.964 109.653 181.588 107.65Z" fill="#FAEBE3" stroke="#424376" stroke-width="2" stroke-miterlimit="10"/>
<path d="M178.641 102.546C182.986 101.404 185.716 97.4525 184.738 93.7197C183.76 89.9868 179.445 87.8862 175.1 89.0278C170.755 90.1693 168.026 94.1208 169.003 97.8536C169.981 101.586 174.296 103.687 178.641 102.546Z" fill="#FBC59D"/>
<path d="M119.974 142.786C153.087 142.786 179.931 118.895 179.931 89.4242C179.931 59.9532 153.087 36.0623 119.974 36.0623C86.8611 36.0623 60.0176 59.9532 60.0176 89.4242C60.0176 118.895 86.8611 142.786 119.974 142.786Z" fill="#FAEBE3" stroke="#424376" stroke-width="2" stroke-miterlimit="10"/>
<path d="M109.677 112.188C109.677 112.188 139.135 110.462 152.258 107.347C152.258 107.347 143.8 134.492 126.539 130.341C109.278 126.191 109.677 112.188 109.677 112.188Z" fill="white" stroke="#424376" stroke-width="2" stroke-linecap="round" stroke-linejoin="round"/>
<path d="M101.279 96.9444C103.024 96.4616 104.295 95.5471 104.117 94.9019C103.939 94.2567 102.38 94.1251 100.634 94.6079C98.8888 95.0908 97.6179 96.0052 97.7958 96.6504C97.9738 97.2957 99.5331 97.4273 101.279 96.9444Z" fill="#424376" stroke="#424376" stroke-width="2" stroke-linecap="round" stroke-linejoin="round"/>
<path d="M149.322 93.7553C149.511 93.1132 148.256 92.1771 146.519 91.6644C144.782 91.1517 143.22 91.2566 143.032 91.8987C142.843 92.5408 144.098 93.4769 145.835 93.9896C147.572 94.5022 149.133 94.3973 149.322 93.7553Z" fill="#424376" stroke="#424376" stroke-width="2" stroke-linecap="round" stroke-linejoin="round"/>
<path d="M128.249 104.496C130.229 104.298 131.719 102.985 131.577 101.564C131.435 100.142 129.715 99.1506 127.735 99.3489C125.754 99.5472 124.264 100.86 124.406 102.282C124.548 103.703 126.268 104.695 128.249 104.496Z" fill="white"/>
<path d="M166.727 119.061C174.019 119.061 179.931 113.14 179.931 105.837C179.931 98.5337 174.019 92.6133 166.727 92.6133C159.434 92.6133 153.522 98.5337 153.522 105.837C153.522 113.14 159.434 119.061 166.727 119.061Z" fill="#FBC59D"/>
<path d="M72.4713 93.6899C72.4713 93.6899 114.302 77.6157 152.251 81.2449C185.712 84.0142 182.257 84.3596 182.257 84.3596C182.257 84.3596 175.982 23.7933 114.991 33.706C54.0002 43.6187 58.138 87.4133 57.6782 91.5639C57.6782 96.5202 58.5977 98.3619 58.5977 98.3619L72.4646 93.6967L72.4713 93.6899Z" fill="#424376" stroke="#424376" stroke-width="2" stroke-linecap="round" stroke-linejoin="round"/>
<path d="M85.6486 92.6066C85.6486 92.6066 84.2694 77.2636 85.6486 73.2891C85.6486 73.2891 91.862 88.4425 92.5516 89.4243C93.2413 90.4061 85.6486 92.6066 85.6486 92.6066Z" fill="#FAEBE3"/>
<path d="M168.025 70.8447C168.025 70.8447 176.219 122.026 168.843 134.559C168.843 134.559 185.401 120.307 182.338 84.3393L168.025 70.8447Z" fill="#424376" stroke="#424376" stroke-width="2" stroke-linecap="round" stroke-linejoin="round"/>
<path d="M212.127 125.324C213.112 125.324 213.912 124.293 213.912 123.022C213.912 121.75 213.112 120.719 212.127 120.719C211.141 120.719 210.342 121.75 210.342 123.022C210.342 124.293 211.141 125.324 212.127 125.324Z" fill="#ED8F4D"/>
<path d="M225.331 123.597C226.317 123.597 227.116 122.566 227.116 121.295C227.116 120.024 226.317 118.993 225.331 118.993C224.345 118.993 223.546 120.024 223.546 121.295C223.546 122.566 224.345 123.597 225.331 123.597Z" fill="#ED8F4D"/>
<path d="M215.379 129.312C215.379 129.312 218.097 131.689 219.956 128.317C219.956 128.317 222.633 130.775 224.79 128.54" stroke="#ED8F4D" stroke-width="2" stroke-linecap="round" stroke-linejoin="round"/>
<path d="M207.266 126.542L211.451 126.759" stroke="#ED8F4D" stroke-linecap="round" stroke-linejoin="round"/>
<path d="M207.772 130.131L211.755 128.811" stroke="#ED8F4D" stroke-linecap="round" stroke-linejoin="round"/>
<path d="M231.173 123.969L227.15 125.141" stroke="#ED8F4D" stroke-linecap="round" stroke-linejoin="round"/>
<path d="M231.49 127.578L227.319 127.206" stroke="#ED8F4D" stroke-linecap="round" stroke-linejoin="round"/>
<path opacity="0.2" d="M217.651 102.702C217.651 102.702 215.257 123.963 224.756 124.18C228.86 124.274 235.425 120.313 235.425 120.313L233.843 98.3551C233.843 98.3551 232.444 93.9201 229.408 94.3263C226.372 94.7326 222.917 101.903 222.917 101.903L217.651 102.695V102.702Z" fill="#ED8F4D"/>
<path d="M100.678 198.477C100.678 198.477 98.8393 189.485 91.632 188.402C84.4248 187.319 63.0127 194.773 60.6396 200.732C58.2664 206.69 59.7606 220.022 73.33 222.656C86.8993 225.29 100.212 216.197 98.0415 205.472C98.0415 205.472 103.295 204.348 100.672 198.47L100.678 198.477Z" fill="#FAEBE3" stroke="#424376" stroke-width="2" stroke-miterlimit="10"/>
<path d="M87.6834 139.191C87.6834 139.191 72.9512 138.27 67.4274 154.75C61.9037 171.231 86.2974 171.461 86.2974 171.461L87.6766 139.191H87.6834Z" fill="#FFF8E8"/>
<path d="M77.9005 140.809C77.9005 140.809 69.0639 145.935 67.4277 153.538" stroke="#ED8F4D" stroke-width="2" stroke-miterlimit="10" stroke-linecap="round"/>
<path d="M53.5676 151.744C56.5425 154.561 71.9711 125.073 65.1425 105.83C61.6538 96.0054 60.0176 71.4878 60.0176 71.4878C60.0176 71.4878 40.4851 131.655 34.7314 144.309C37.6657 147.174 53.5676 151.744 53.5676 151.744Z" fill="#424376" stroke="#424376" stroke-width="2" stroke-linecap="round" stroke-linejoin="round"/>
<path d="M75.767 115.149C77.483 108.599 72.6932 101.664 65.0688 99.6613C57.4443 97.6581 49.8724 101.344 48.1564 107.895C46.4404 114.446 51.2302 121.38 58.8546 123.383C66.4791 125.386 74.051 121.7 75.767 115.149Z" fill="#FAEBE3" stroke="#424376" stroke-width="2" stroke-miterlimit="10"/>
<path d="M71.4494 113.588C72.4273 109.855 69.6977 105.904 65.3527 104.762C61.0078 103.62 56.6928 105.721 55.7149 109.454C54.737 113.187 57.4666 117.138 61.8116 118.28C66.1566 119.421 70.4716 117.321 71.4494 113.588Z" fill="#FBC59D"/>
<path d="M83.1471 128.378C90.4396 128.378 96.3514 122.457 96.3514 115.154C96.3514 107.851 90.4396 101.93 83.1471 101.93C75.8546 101.93 69.9429 107.851 69.9429 115.154C69.9429 122.457 75.8546 128.378 83.1471 128.378Z" fill="#FBC59D"/>
<path d="M73.7696 76.1462C73.7696 76.1462 71.9306 127.951 80.7876 139.475C80.7876 139.475 62.6072 127.375 61.2212 91.2996L73.7629 76.1462H73.7696Z" fill="#424376" stroke="#424376" stroke-width="2" stroke-linecap="round" stroke-linejoin="round"/>
<path d="M119.974 142.786C153.087 142.786 179.931 118.895 179.931 89.4242C179.931 59.9532 153.087 36.0623 119.974 36.0623C86.8611 36.0623 60.0176 59.9532 60.0176 89.4242C60.0176 118.895 86.8611 142.786 119.974 142.786Z" stroke="#424376" stroke-width="2" stroke-miterlimit="10"/>
<path d="M119.846 224.024C95.8578 208.722 133.875 200.319 129.054 221.993C133.875 200.326 165.537 220.524 136.721 226.888C165.537 220.524 159.168 249.117 135.18 233.815C159.168 249.117 121.151 257.52 125.971 235.846C121.151 257.513 89.4889 237.316 118.304 230.951C89.4889 237.316 95.8578 208.722 119.846 224.024Z" fill="#FBCF73"/>
<path d="M165.117 231.411C157.755 226.712 169.424 224.132 167.943 230.788C169.424 224.139 179.14 230.335 170.296 232.291C179.14 230.335 177.186 239.117 169.823 234.417C177.186 239.117 165.516 241.696 166.997 235.04C165.516 241.689 155.801 235.494 164.644 233.537C155.801 235.494 157.755 226.712 165.117 231.411Z" fill="#ED8F4D"/>
<path d="M75.4121 164.866C76.8319 164.128 78.5898 164.677 79.3335 166.112L106.209 217.964L106.269 218.086C106.445 218.418 106.547 218.777 106.58 219.142V219.772V219.785L106.567 224.485C106.567 224.694 106.337 224.81 106.161 224.694L102.321 222.006L102.287 221.993L101.767 221.62C101.496 221.39 101.266 221.099 101.09 220.767L101.03 220.645L74.1546 168.793C73.4109 167.358 73.9788 165.604 75.4054 164.859L75.4121 164.866Z" fill="#424376"/>
<path d="M196.191 43.3885C196.191 43.3885 218.286 42.6369 224.614 38.8384V49.3266C224.614 49.3266 205.744 59.2393 198.26 53.247L196.191 43.3952V43.3885Z" fill="#424376"/>
<path d="M196.191 43.3885C196.191 43.3885 218.286 42.6369 224.614 38.8384V49.3266C224.614 49.3266 205.744 59.2393 198.26 53.247L196.191 43.3952V43.3885Z" stroke="#424376" stroke-linecap="round" stroke-linejoin="round"/>
<path d="M197.895 49.489C197.895 49.489 201.336 67.1612 201.106 69.0639" stroke="#424376" stroke-width="2" stroke-linecap="round" stroke-linejoin="round"/>
<path d="M224.263 45.9141C224.263 45.9141 224.392 63.918 223.81 65.7462" stroke="#424376" stroke-width="2" stroke-linecap="round" stroke-linejoin="round"/>
<path d="M200.282 67.8926C200.282 67.8926 197.962 67.2358 196.272 69.2874C194.582 71.339 193.122 73.6276 194.636 75.4151C196.151 77.2026 200.038 76.0719 201.647 73.3364C203.256 70.6009 202.006 68.1905 200.282 67.8926Z" fill="#424376" stroke="#424376" stroke-width="2" stroke-linecap="round" stroke-linejoin="round"/>
<path d="M221.68 64.8794C221.68 64.8794 219.733 64.8456 218.827 66.8024C217.921 68.7592 217.252 70.8514 218.807 71.9348C220.362 73.0181 223.174 71.3322 223.871 68.8608C224.567 66.3894 223.093 64.7576 221.687 64.8794H221.68Z" fill="#424376" stroke="#424376" stroke-width="2" stroke-linecap="round" stroke-linejoin="round"/>
<path d="M228.969 2.62044C228.969 2.62044 246.52 2.24803 251.551 0.338623V5.59289C251.551 5.59289 236.555 10.556 230.612 7.55647L228.969 2.62044Z" fill="#ED8F4D" stroke="#ED8F4D" stroke-linecap="round" stroke-linejoin="round"/>
<path d="M229.489 3.06738C229.489 3.06738 232.931 20.7396 232.701 22.6422" stroke="#ED8F4D" stroke-width="2" stroke-linecap="round" stroke-linejoin="round"/>
<path d="M231.883 21.4707C231.883 21.4707 229.564 20.8139 227.873 22.8655C226.183 24.9171 224.723 27.2057 226.237 28.9932C227.752 30.7807 231.639 29.65 233.248 26.9145C234.857 24.1791 233.607 21.7686 231.883 21.4707Z" fill="#ED8F4D" stroke="#ED8F4D" stroke-width="2" stroke-linecap="round" stroke-linejoin="round"/>
<path d="M328.619 251.521L374.81 231.77C377.285 230.714 377.589 227.328 375.344 225.839L339.491 202.106L324.644 231.492L328.612 251.514L328.619 251.521Z" fill="#424376"/>
<path d="M323.846 249.876L240.706 178.043C238.556 176.187 237.677 172.071 238.725 168.82L264.592 88.6252C265.864 84.6777 268.967 82.6871 271.536 84.2173L373.296 144.912C377.211 147.248 378.617 152.909 376.413 157.479L332.656 248.284C330.918 251.887 326.963 252.57 323.846 249.876Z" fill="#424376"/>
<path d="M240.03 174.102C238.475 172.781 237.839 169.809 238.596 167.46L263.903 89.4107C264.822 86.5872 267.053 85.1653 268.886 86.2689L368.198 146.05C370.957 147.709 371.957 151.744 370.409 154.994L328.572 242.949C327.341 245.542 324.509 246.07 322.271 244.168L240.03 174.102Z" fill="#C5E8FF"/>
<path d="M367.11 148.386C368.766 149.394 369.368 151.818 368.442 153.782L326.942 241.581C326.199 243.152 324.488 243.484 323.136 242.333L240.584 172.423C239.638 171.624 239.252 169.822 239.719 168.394L265.208 90.2095C265.769 88.4965 267.121 87.6433 268.23 88.3204L367.116 148.386H367.11ZM369.3 143.7L269.568 84.2105C266.999 82.6802 263.896 84.6709 262.625 88.6184L237.494 166.525C236.44 169.795 237.325 173.919 239.482 175.767L321.419 245.996C324.536 248.67 328.491 247.953 330.222 244.33L372.403 156.22C374.587 151.656 373.188 146.023 369.3 143.7Z" fill="#798DAE"/>
<path d="M304.854 191.584L272.543 166.572C270.623 165.089 269.873 161.704 270.846 158.982L280.176 133.015C281.224 130.104 283.733 128.851 285.788 130.239L320.6 153.714C323.001 155.333 323.907 159.165 322.608 162.232L311.061 189.553C309.857 192.404 307.072 193.297 304.847 191.577L304.854 191.584Z" fill="#ED8F4D"/>
<path d="M303.225 164.805L294.449 146.07C293.983 145.081 292.908 145.163 292.509 146.219L285.241 165.367C284.862 166.369 285.416 167.595 286.241 167.575L302.278 167.162C303.171 167.141 303.698 165.828 303.218 164.805H303.225Z" fill="#FFF8E8"/>
<path d="M246.554 210.78L238.725 215.201L229.029 220.672L191.756 241.723L180.188 248.257L170.148 253.931C166.233 256.145 164.955 261.068 167.369 264.92L185.705 294.266C188.254 298.349 193.52 299.547 197.394 296.947L218.746 282.64L218.712 282.586L255.39 258.007L255.424 258.055L272.604 246.537C275.464 244.621 275.788 240.41 273.375 237.132L255.958 213.448C253.66 210.319 249.468 209.121 246.547 210.773L246.554 210.78Z" fill="#ED8F4D"/>
<path d="M270.481 243.599L253.666 254.71L229.448 220.435L246.56 210.773C249.414 209.162 253.409 210.191 255.525 213.062L271.515 234.81C273.726 237.816 273.28 241.75 270.481 243.599Z" fill="#FBCF73"/>
<path d="M251.225 217.436C251.787 218.208 251.631 219.19 250.881 219.637C250.13 220.083 249.048 219.813 248.487 219.034C247.926 218.255 248.088 217.273 248.846 216.833C249.603 216.393 250.671 216.664 251.232 217.436H251.225Z" fill="#ED8F4D"/>
<path d="M255.12 222.785C255.688 223.563 255.539 224.566 254.789 225.019C254.038 225.473 252.956 225.209 252.389 224.423C251.821 223.638 251.976 222.643 252.733 222.189C253.491 221.735 254.559 222.006 255.12 222.785Z" fill="#ED8F4D"/>
<path d="M266.005 233.849C267.317 235.643 267.026 237.972 265.342 239.062C263.645 240.152 261.191 239.563 259.873 237.742C258.554 235.92 258.886 233.591 260.59 232.528C262.28 231.472 264.7 232.068 266.005 233.855V233.849Z" fill="#ED8F4D"/>
<path d="M255.464 218.553C256.026 219.325 255.884 220.307 255.133 220.754C254.383 221.2 253.314 220.93 252.753 220.158C252.192 219.386 252.341 218.397 253.091 217.957C253.842 217.517 254.903 217.788 255.464 218.553Z" fill="#ED8F4D"/>
<path d="M250.576 221.444C251.144 222.223 250.982 223.225 250.225 223.679C249.467 224.132 248.379 223.868 247.811 223.083C247.243 222.297 247.412 221.295 248.176 220.848C248.94 220.401 250.015 220.672 250.576 221.451V221.444Z" fill="#ED8F4D"/>
<path d="M172.135 252.807L193.135 240.945L217.88 278.368L197.11 292.099C193.344 294.591 188.348 293.596 186.016 289.878L169.201 263.086C166.983 259.558 168.322 254.954 172.122 252.801L172.135 252.807Z" fill="#FBCF73"/>
<path d="M192.026 283.696C191.418 282.742 191.722 281.455 192.709 280.832C193.696 280.209 194.967 280.473 195.576 281.421C196.184 282.369 195.887 283.649 194.913 284.286C193.94 284.922 192.641 284.651 192.033 283.696H192.026Z" fill="#ED8F4D"/>
<path d="M187.848 277.129C187.246 276.181 187.557 274.921 188.544 274.312C189.531 273.702 190.802 273.973 191.404 274.914C192.006 275.856 191.701 277.115 190.721 277.731C189.741 278.347 188.449 278.083 187.848 277.135V277.129Z" fill="#ED8F4D"/>
<path d="M175.968 264.061C174.643 261.969 175.401 259.213 177.645 257.92C179.89 256.626 182.73 257.256 184.048 259.314C185.373 261.379 184.67 264.122 182.446 265.449C180.208 266.783 177.3 266.167 175.968 264.061Z" fill="#ED8F4D"/>
<path d="M186.861 282.573C186.252 281.611 186.57 280.331 187.564 279.708C188.558 279.086 189.842 279.356 190.451 280.304C191.059 281.252 190.748 282.539 189.761 283.168C188.774 283.798 187.469 283.534 186.861 282.573Z" fill="#ED8F4D"/>
<path d="M193.27 278.523C192.668 277.582 192.966 276.316 193.939 275.707C194.913 275.097 196.177 275.368 196.779 276.302C197.381 277.237 197.09 278.496 196.123 279.112C195.156 279.729 193.872 279.465 193.263 278.517L193.27 278.523Z" fill="#ED8F4D"/>
<path d="M262.942 248.521L206.738 285.673L181.891 247.296L238.913 215.093L262.942 248.521Z" fill="#798DAE"/>
<path d="M256.891 248.433L209.659 279.261L188.835 247.404L236.649 220.056L256.891 248.433Z" fill="#C5E8FF"/>
<path d="M223.877 261.122C230.89 261.122 236.575 255.429 236.575 248.406C236.575 241.384 230.89 235.69 223.877 235.69C216.865 235.69 211.18 241.384 211.18 248.406C211.18 255.429 216.865 261.122 223.877 261.122Z" fill="#ED8F4D"/>
<path d="M225.845 245.63C232.011 239.442 232.011 251.413 225.845 248.528C232.011 251.406 223.871 259.578 223.871 250.505C223.871 259.578 215.73 255.773 221.897 249.584C215.73 255.773 215.73 243.802 221.897 246.686C215.73 243.809 223.871 235.636 223.871 244.709C223.871 235.636 232.011 239.442 225.845 245.63Z" fill="#FBCF73"/>
<path d="M30.6342 61.1621C47.9829 44.6274 19.8504 36.3263 25.4755 59.6387C19.8504 36.3263 -1.39274 56.5714 21.5744 63.3559C-1.3995 56.5714 5.48321 85.1246 22.8387 68.5966C5.48997 85.1313 33.6225 93.4325 27.9974 70.1201C33.6225 93.4325 54.8656 73.1874 31.8985 66.4029C54.8724 73.1874 47.9897 44.6342 30.6342 61.1621Z" fill="#ED8F4D"/>
<path d="M71.3963 31.9048C77.8801 28.7969 70.6188 23.8203 70.0644 30.9907C70.6188 23.8135 62.6813 27.6188 68.6107 31.6881C62.6813 27.6188 62.0052 36.4075 68.489 33.2996C62.0052 36.4075 69.2666 41.3841 69.821 34.2137C69.2666 41.3909 77.204 37.5856 71.2746 33.5163C77.204 37.5856 77.8801 28.7969 71.3963 31.9048Z" fill="#FBCF73"/>
<path d="M36.1917 97.6577C42.6755 94.5498 35.4142 89.5732 34.8598 96.7436C35.4142 89.5664 27.4767 93.3717 33.4062 97.4411C27.4767 93.3717 26.8006 102.16 33.2845 99.0525C26.8006 102.16 34.062 107.137 34.6164 99.9666C34.062 107.144 41.9994 103.339 36.07 99.2692C41.9994 103.339 42.6755 94.5498 36.1917 97.6577Z" fill="#ED8F4D"/>
</g>
<defs>
<clipPath id="clip0_2145_1915">
<rect width="408" height="306" fill="white"/>
</clipPath>
</defs>
</svg>
