<svg width="151" height="175" viewBox="0 0 151 175" fill="none" xmlns="http://www.w3.org/2000/svg">
<path d="M75.2695 0C116.84 3.29861e-05 150.539 33.6996 150.539 75.2695C150.539 113.385 122.207 144.882 85.4531 149.854L77.5166 174.504L69.7344 150.336C30.7488 147.502 0.000194771 114.978 0 75.2695C0 33.6996 33.6994 0 75.2695 0Z" fill="#C5E8FF"/>
<path d="M112.923 31.7987C95.1194 31.7987 80.6875 45.0374 80.6875 61.3621C80.6875 69.4117 84.198 76.704 89.8914 82.037C89.0673 84.0651 87.916 86.4374 86.9157 86.9382C86.9157 86.9382 89.0358 88.5844 95.2641 86.0931C100.335 89.1478 106.399 90.9254 112.917 90.9254C130.721 90.9254 145.153 77.6867 145.153 61.3621C145.153 45.0374 130.727 31.7987 112.923 31.7987Z" fill="white" stroke="#424376" stroke-linecap="round" stroke-linejoin="round"/>
<path d="M86.5122 95.4065H137.433C137.433 95.4065 133.576 98.7616 124.366 98.7616H94.0867C94.0867 98.7616 86.5122 98.1857 86.5122 95.4065Z" fill="white" stroke="#424376" stroke-linecap="round" stroke-linejoin="round"/>
<path d="M90.9291 101.109C90.9291 101.109 91.7344 98.2487 96.7547 98.0046C100.485 97.8293 106.902 97.9107 109.954 97.967C110.69 97.9795 111.099 98.8308 110.639 99.4067C108.582 101.992 103.53 107.1 96.7547 105.491C87.7962 103.363 90.9291 101.109 90.9291 101.109Z" fill="#FAEBE3" stroke="#424376" stroke-miterlimit="10"/>
<path d="M30.6222 33.6074C30.6222 33.6074 7.96783 39.1283 13.2713 88.8283C12.7868 90.8501 22.211 90.9565 24.6771 91.9204C24.6771 91.9204 26.5267 87.1319 27.4326 86.531C27.4326 86.531 26.7343 92.4838 26.9482 92.6966C27.1621 92.9094 70.6465 95.6823 82.7443 91.9517C82.7443 91.9517 86.0283 63.3961 84.0089 59.1898C81.9894 54.9834 30.6222 33.6074 30.6222 33.6074Z" fill="#798DAE" stroke="#424376" stroke-linecap="round" stroke-linejoin="round"/>
<path d="M70.6018 89.7297C70.7842 89.1788 71.4763 88.9973 71.8915 89.4042C73.9864 91.4197 79.6673 96.9218 82.7437 100.352C85.8201 103.782 89.3431 101.36 90.5321 100.327C90.7964 100.095 91.1801 100.077 91.4758 100.271L99.1384 105.322C99.5222 105.579 99.6103 106.098 99.3209 106.455C97.163 109.115 88.8335 118.855 82.0768 119.731C76.83 120.413 73.0805 118.573 71.5832 116.658C70.1803 114.868 68.5823 95.8827 70.6081 89.7359L70.6018 89.7297Z" fill="white" stroke="#424376" stroke-linecap="round" stroke-linejoin="round"/>
<path d="M26.0425 119.731C26.0425 119.731 26.7471 96.2209 36.5927 84.3217L63.7956 82.4939C63.7956 82.4939 71.842 100.872 71.0241 119.731" fill="white"/>
<path d="M26.0425 119.731C26.0425 119.731 26.7471 96.2209 36.5927 84.3217L63.7956 82.4939C63.7956 82.4939 71.842 100.872 71.0241 119.731" stroke="#424376" stroke-linecap="round" stroke-linejoin="round"/>
<path d="M15.5167 89.9238C15.5167 89.9238 18.3288 63.5528 19.3731 62.038C20.4175 60.5232 13.2896 62.038 13.2896 62.038C13.2896 62.038 12.1824 88.5968 13.6105 89.5795C15.0385 90.5623 15.5167 89.9238 15.5167 89.9238Z" fill="#424376" stroke="#424376" stroke-linecap="round" stroke-linejoin="round"/>
<path d="M22.7164 60.8957C24.5752 57.2753 22.6457 52.5938 18.4068 50.4393C14.1678 48.2847 9.22452 49.473 7.3657 53.0934C5.50687 56.7138 7.43638 61.3953 11.6754 63.5499C15.9144 65.7044 20.8576 64.5161 22.7164 60.8957Z" fill="#FAEBE3" stroke="#424376" stroke-miterlimit="10"/>
<path d="M20.3024 59.2266C21.3614 57.164 20.2609 54.4962 17.8444 53.2679C15.4278 52.0397 12.6103 52.7161 11.5513 54.7787C10.4923 56.8413 11.5928 59.5091 14.0093 60.7374C16.4258 61.9656 19.2433 61.2892 20.3024 59.2266Z" fill="#FBC59D"/>
<path d="M88.937 63.5596C93.176 61.4051 95.1055 56.7236 93.2467 53.1032C91.3879 49.4828 86.4446 48.2945 82.2056 50.4491C77.9666 52.6036 76.0371 57.2851 77.896 60.9055C79.7548 64.5259 84.698 65.7142 88.937 63.5596Z" fill="#FAEBE3" stroke="#424376" stroke-miterlimit="10"/>
<path d="M86.6032 60.737C89.0197 59.5087 90.1202 56.8409 89.0611 54.7783C88.0021 52.7157 85.1846 52.0393 82.7681 53.2675C80.3516 54.4958 79.2511 57.1636 80.3101 59.2262C81.3691 61.2888 84.1866 61.9652 86.6032 60.737Z" fill="#FBC59D"/>
<path d="M82.8766 59.19C82.8766 60.0725 82.8325 60.9426 82.7445 61.8001C82.2034 67.1833 80.0015 72.1345 76.5917 76.2595C70.6592 83.4516 61.0778 88.1149 50.2696 88.1149C36.7877 88.1149 25.2183 80.8602 20.2545 70.5133C19.0592 68.022 18.2477 65.3492 17.8828 62.5575C17.7381 61.4559 17.6626 60.3292 17.6626 59.19C17.6626 43.2096 32.258 30.2588 50.2696 30.2588C68.2811 30.2588 82.8766 43.2096 82.8766 59.19Z" fill="#FAEBE3" stroke="#424376" stroke-miterlimit="10"/>
<path d="M39.8013 57.406C39.8013 57.406 42.129 55.5971 43.815 57.406" stroke="#424376" stroke-width="2" stroke-linecap="round" stroke-linejoin="round"/>
<path d="M63.8209 59.1839C63.8209 59.1839 61.4932 57.3749 59.8071 59.1839" stroke="#424376" stroke-width="2" stroke-linecap="round" stroke-linejoin="round"/>
<path d="M17.6569 52.6301C17.6569 52.6301 44.9353 49.1936 58.9079 51.9916C72.8805 54.7896 80.2097 57.212 83.7264 58.7831C83.7264 58.7831 84.9281 34.9722 57.3854 29.8582C29.8428 24.7442 17.5562 43.7855 17.6569 52.6301Z" fill="#424376" stroke="#424376" stroke-linecap="round" stroke-linejoin="round"/>
<path d="M31.6855 53.2435C31.6855 53.2435 33.2898 44.7181 35.649 41.2065C35.649 41.2065 35.0073 52.3922 35.649 52.8178C36.2907 53.2435 31.6855 53.2435 31.6855 53.2435Z" fill="#FAEBE3"/>
<path d="M34.278 64.5041C34.278 69.0735 30.5537 72.7728 25.9611 72.7728C23.7466 72.7728 21.7398 71.9153 20.2551 70.5132C19.0597 68.0219 18.2482 65.3491 17.8833 62.5574C18.7641 58.9269 22.048 56.2291 25.9611 56.2291C30.5537 56.2291 34.278 59.9347 34.278 64.5041Z" fill="#FBC59D"/>
<path d="M82.7442 61.8C82.2032 67.1832 80.0013 72.1344 76.5915 76.2594C72.3135 75.9276 68.9478 72.3597 68.9478 68.0219C68.9478 63.4525 72.6658 59.7469 77.2584 59.7469C79.3596 59.7469 81.2784 60.5231 82.7442 61.8Z" fill="#FBC59D"/>
<path d="M82.8766 59.19C82.8766 60.0725 82.8325 60.9426 82.7445 61.8001C82.2034 67.1833 80.0015 72.1345 76.5917 76.2595C70.6592 83.4516 61.0778 88.1149 50.2696 88.1149C36.7877 88.1149 25.2183 80.8602 20.2545 70.5133C19.0592 68.022 18.2477 65.3492 17.8828 62.5575C17.7381 61.4559 17.6626 60.3292 17.6626 59.19C17.6626 43.2096 32.258 30.2588 50.2696 30.2588C68.2811 30.2588 82.8766 43.2096 82.8766 59.19Z" stroke="#424376" stroke-miterlimit="10"/>
<path d="M67.0038 70.5507C64.3175 78.5127 59.0204 84.1024 50.3008 83.0821C41.5876 82.0618 35.0322 75.0888 34.271 66.7262L67.0038 70.5507Z" fill="white" stroke="#424376" stroke-linecap="round" stroke-linejoin="round"/>
<path d="M26.0799 45.7885C26.0799 45.7885 18.5368 73.593 23.1734 84.6784C23.1734 84.6784 9.9746 62.7579 20.6444 43.4036C28.2063 39.2912 26.0799 45.7885 26.0799 45.7885Z" fill="#424376" stroke="#424376" stroke-linecap="round" stroke-linejoin="round"/>
<path d="M74.5094 47.6414C74.5094 47.6414 82.0525 75.4459 77.4159 86.5313C77.4159 86.5313 90.6147 64.6108 79.9449 45.2565C72.383 41.1441 74.5094 47.6414 74.5094 47.6414Z" fill="#424376" stroke="#424376" stroke-linecap="round" stroke-linejoin="round"/>
<path d="M70.3319 117.065L73.1943 115.869C73.1943 115.869 73.9178 104.577 72.7917 102.605C71.6656 100.634 67.7588 95.4133 67.7588 95.4133V113.315L70.3319 117.071V117.065Z" fill="white"/>
<path d="M35.4854 85.7612L33.4282 89.0474L34.46 120.889L72.2446 120.357V89.0599C72.2446 89.0599 66.0226 84.7409 64.8273 85.0789C63.632 85.4169 55.7052 93.886 55.7052 93.886H46.8158L35.4917 85.7675L35.4854 85.7612Z" fill="#424376" stroke="#424376" stroke-linecap="round" stroke-linejoin="round"/>
<path d="M37.0835 85.7615L50.5528 93.3542L46.5517 98.7686L37.0835 85.7615Z" fill="white" stroke="#424376" stroke-linecap="round" stroke-linejoin="round"/>
<path d="M64.6386 85.9431L51.2573 93.4795L56.0763 98.7687L64.6386 85.9431Z" fill="white" stroke="#424376" stroke-linecap="round" stroke-linejoin="round"/>
<path d="M88.6772 101.56L96.7551 109.422" stroke="#424376" stroke-linecap="round" stroke-linejoin="round"/>
<path d="M107.771 98.1924C107.771 98.1924 105.386 100.803 101.479 100.884" stroke="#424376" stroke-miterlimit="10" stroke-linecap="round"/>
<path d="M33.4284 91.8391C33.4284 91.8391 37.9517 118.379 42.8777 121.684H26.9233C26.9233 121.684 31.3649 99.0187 33.4284 91.8391Z" fill="white" stroke="white" stroke-width="2" stroke-linecap="round" stroke-linejoin="round"/>
<path d="M54.6293 62.963C54.7185 62.1972 53.985 61.4835 52.991 61.3689C51.9969 61.2543 51.1188 61.7822 51.0297 62.548C50.9405 63.3138 51.674 64.0275 52.668 64.1421C53.662 64.2567 54.5401 63.7288 54.6293 62.963Z" fill="white"/>
<path d="M21 41.5C19.4 41.5 17.3333 47.1667 16.5 50H20.5L21 41.5Z" fill="#424376"/>
</svg>
