<svg width="151" height="175" viewBox="0 0 151 175" fill="none" xmlns="http://www.w3.org/2000/svg">
<path d="M75.2695 0C116.84 3.29861e-05 150.539 33.6996 150.539 75.2695C150.539 113.385 122.207 144.882 85.4531 149.854L77.5166 174.504L69.7344 150.336C30.7488 147.502 0.000194771 114.978 0 75.2695C0 33.6996 33.6994 0 75.2695 0Z" fill="#C5E8FF"/>
<path d="M134.091 34.8042H58.8209C57.4156 34.8042 56.2764 35.9442 56.2764 37.3505V88.5867C56.2764 89.993 57.4156 91.133 58.8209 91.133H134.091C135.496 91.133 136.635 89.993 136.635 88.5867V37.3505C136.635 35.9442 135.496 34.8042 134.091 34.8042Z" fill="#424376"/>
<path d="M134.09 91.5967H58.8161C57.1568 91.5967 55.8081 90.247 55.8081 88.5866V37.3504C55.8081 35.69 57.1568 34.3403 58.8161 34.3403H134.086C135.745 34.3403 137.094 35.69 137.094 37.3504V88.5866C137.094 90.247 135.745 91.5967 134.086 91.5967H134.09ZM58.8161 35.2679C57.6667 35.2679 56.7351 36.2002 56.7351 37.3504V88.5866C56.7351 89.7369 57.6667 90.6691 58.8161 90.6691H134.086C135.235 90.6691 136.167 89.7369 136.167 88.5866V37.3504C136.167 36.2002 135.235 35.2679 134.086 35.2679H58.8161Z" fill="#424376"/>
<path d="M57.0509 35.4397H132.321C133.085 35.4397 133.706 36.0612 133.706 36.8265V88.0627C133.706 88.828 133.085 89.4495 132.321 89.4495H57.0509C56.2861 89.4495 55.665 88.828 55.665 88.0627V36.8265C55.665 36.0612 56.2861 35.4397 57.0509 35.4397Z" fill="#C5E8FF"/>
<path d="M132.324 36.5992C132.449 36.5992 132.551 36.7012 132.551 36.8264V88.0626C132.551 88.1879 132.449 88.2899 132.324 88.2899H57.0499C56.9248 88.2899 56.8228 88.1879 56.8228 88.0626V36.8264C56.8228 36.7012 56.9248 36.5992 57.0499 36.5992H132.32M132.324 34.2802H57.0499C55.6455 34.2802 54.5054 35.4211 54.5054 36.8264V88.0626C54.5054 89.468 55.6455 90.6089 57.0499 90.6089H132.32C133.724 90.6089 134.864 89.468 134.864 88.0626V36.8264C134.864 35.4211 133.724 34.2802 132.32 34.2802H132.324Z" fill="#798DAE"/>
<path d="M116.015 42.5544H73.3557C72.6876 42.5544 72.146 43.0964 72.146 43.765V82.1724C72.146 82.841 72.6876 83.3829 73.3557 83.3829H116.015C116.683 83.3829 117.224 82.841 117.224 82.1724V43.765C117.224 43.0964 116.683 42.5544 116.015 42.5544Z" fill="#ED8F4D"/>
<path d="M116.014 83.8467H73.3553C72.433 83.8467 71.6821 83.0953 71.6821 82.1724V43.7649C71.6821 42.8419 72.433 42.0906 73.3553 42.0906H116.014C116.937 42.0906 117.687 42.8419 117.687 43.7649V82.1677C117.687 83.0907 116.937 83.842 116.014 83.842V83.8467ZM73.3553 43.0182C72.9428 43.0182 72.6091 43.3521 72.6091 43.7649V82.1677C72.6091 82.5805 72.9428 82.9144 73.3553 82.9144H116.014C116.427 82.9144 116.761 82.5805 116.761 82.1677V43.7649C116.761 43.3521 116.427 43.0182 116.014 43.0182H73.3553Z" fill="#ED8F4D"/>
<path d="M116.015 50.7358H73.3557C72.6876 50.7358 72.146 51.2778 72.146 51.9464V82.1723C72.146 82.8409 72.6876 83.3829 73.3557 83.3829H116.015C116.683 83.3829 117.224 82.8409 117.224 82.1723V51.9464C117.224 51.2778 116.683 50.7358 116.015 50.7358Z" fill="#FFF8E8"/>
<path d="M116.014 83.8466H73.3553C72.433 83.8466 71.6821 83.0953 71.6821 82.1723V51.9463C71.6821 51.0233 72.433 50.272 73.3553 50.272H116.014C116.937 50.272 117.687 51.0233 117.687 51.9463V82.1723C117.687 83.0953 116.937 83.8466 116.014 83.8466ZM73.3553 51.1996C72.9428 51.1996 72.6091 51.5335 72.6091 51.9463V82.1723C72.6091 82.5851 72.9428 82.919 73.3553 82.919H116.014C116.427 82.919 116.761 82.5851 116.761 82.1723V51.9463C116.761 51.5335 116.427 51.1996 116.014 51.1996H73.3553Z" fill="#ED8F4D"/>
<path d="M115.857 43.3151H111.343C110.841 43.3151 110.434 43.7221 110.434 44.2241V48.7415C110.434 49.2436 110.841 49.6506 111.343 49.6506H115.857C116.359 49.6506 116.765 49.2436 116.765 48.7415V44.2241C116.765 43.7221 116.359 43.3151 115.857 43.3151Z" fill="#FFF8E8"/>
<path d="M115.514 47.8278L114.17 46.4828L115.514 45.1377C115.589 45.0635 115.589 44.9383 115.514 44.8641L115.222 44.5719C115.148 44.4977 115.023 44.4977 114.949 44.5719L113.605 45.9169L112.261 44.5719C112.187 44.4977 112.061 44.4977 111.987 44.5719L111.695 44.8641C111.621 44.9383 111.621 45.0635 111.695 45.1377L113.039 46.4828L111.695 47.8278C111.621 47.902 111.621 48.0272 111.695 48.1014L111.987 48.3936C112.061 48.4678 112.187 48.4678 112.261 48.3936L113.605 47.0486L114.949 48.3936C115.023 48.4678 115.148 48.4678 115.222 48.3936L115.514 48.1014C115.589 48.0272 115.589 47.902 115.514 47.8278Z" fill="#ED8F4D"/>
<path d="M111.663 54.3116H77.7127C76.9499 54.3116 76.3315 54.9304 76.3315 55.6938V66.7462C76.3315 67.5095 76.9499 68.1283 77.7127 68.1283H111.663C112.426 68.1283 113.044 67.5095 113.044 66.7462V55.6938C113.044 54.9304 112.426 54.3116 111.663 54.3116Z" fill="#FBCF73"/>
<path d="M96.7434 70.2432H77.0499C76.6532 70.2432 76.3315 70.565 76.3315 70.9621V72.6781C76.3315 73.0752 76.6532 73.397 77.0499 73.397H96.7434C97.1401 73.397 97.4618 73.0752 97.4618 72.6781V70.9621C97.4618 70.565 97.1401 70.2432 96.7434 70.2432Z" fill="#ED8F4D"/>
<path d="M112.325 70.2432H99.8483C99.4515 70.2432 99.1299 70.565 99.1299 70.9621V77.9469C99.1299 78.344 99.4515 78.6658 99.8483 78.6658H112.325C112.722 78.6658 113.044 78.344 113.044 77.9469V70.9621C113.044 70.565 112.722 70.2432 112.325 70.2432Z" fill="#FBCF73"/>
<path d="M96.7434 75.5122H77.0499C76.6532 75.5122 76.3315 75.8341 76.3315 76.2311V77.9472C76.3315 78.3442 76.6532 78.6661 77.0499 78.6661H96.7434C97.1401 78.6661 97.4618 78.3442 97.4618 77.9472V76.2311C97.4618 75.8341 97.1401 75.5122 96.7434 75.5122Z" fill="#ED8F4D"/>
<path d="M9.93702 55.6615C9.93702 55.6615 3.78196 81.4303 8.63463 88.1833L14.2103 89.0135C14.2103 89.0135 13.8674 80.3682 14.2103 78.3553C14.2103 78.3553 15.9716 87.1165 17.5103 88.3039C19.0491 89.4912 38.1029 92.6868 38.1029 92.6868C38.1029 92.6868 62.4821 87.2418 65.7914 83.3319C65.7914 83.3319 68.9848 54.5205 58.3339 46.6637C47.6831 38.8069 9.93702 55.6615 9.93702 55.6615Z" fill="#798DAE"/>
<path d="M38.1028 93.1413C38.075 93.1413 38.0518 93.1413 38.024 93.1366C36.0635 92.8073 18.8127 89.8854 17.2275 88.6656C16.2171 87.8864 15.1975 84.496 14.5208 81.8106C14.5162 84.9552 14.6691 88.9299 14.6737 88.9902C14.6784 89.1294 14.6228 89.2592 14.5208 89.352C14.4188 89.4448 14.2798 89.4865 14.1454 89.4679L8.56967 88.6377C8.44453 88.6192 8.33329 88.5496 8.25914 88.4476C3.34158 81.6019 9.23245 56.6076 9.48737 55.5501C9.51981 55.411 9.61714 55.295 9.75155 55.2347C11.3042 54.5436 47.8684 38.3569 58.6166 46.2787C69.3601 54.2004 66.3892 82.1862 66.2594 83.3736C66.2502 83.4663 66.2131 83.5498 66.1528 83.624C62.7787 87.6035 39.2106 92.9094 38.2094 93.132C38.177 93.1413 38.1445 93.1413 38.1075 93.1413H38.1028ZM14.2103 77.8868C14.4327 77.8868 14.6228 78.0399 14.6645 78.2578C15.3319 81.5787 16.7733 87.1443 17.793 87.9281C18.8405 88.7351 30.7566 90.9707 38.0889 92.2044C39.6787 91.8426 61.9351 86.7501 65.3464 83.1231C65.5688 80.9015 67.9929 54.3488 58.0604 47.0254C48.1558 39.7205 13.376 54.6596 10.3355 55.9907C9.75619 58.5045 4.65787 81.3468 8.90338 87.7519L13.7282 88.4708C13.6587 86.5042 13.4548 80.0342 13.756 78.2764C13.7931 78.0584 13.9832 77.8961 14.2056 77.8914H14.2103V77.8868Z" fill="#424376"/>
<path d="M14.8823 109.81C14.8823 109.81 19.2854 82.5387 23.2528 76.1614L49.2867 76.653C49.2867 76.653 60.5586 96.8748 60.2759 109.81" fill="#FBCF73"/>
<path d="M14.8826 110.274C14.8594 110.274 14.8316 110.274 14.8084 110.269C14.5535 110.228 14.382 109.991 14.4237 109.736C14.6045 108.618 18.8871 82.2974 22.8591 75.9155C22.9472 75.7764 23.1001 75.7021 23.2624 75.6975L49.2962 76.1891C49.4631 76.1891 49.6114 76.2819 49.6902 76.4257C50.1537 77.2559 61.0177 96.9025 60.735 109.819C60.7303 110.075 60.5171 110.26 60.2622 110.274C60.0073 110.269 59.8034 110.056 59.808 109.801C60.0676 97.8765 50.2464 79.3986 49.0089 77.1121L23.5126 76.6298C19.6704 83.2528 15.3831 109.615 15.3368 109.884C15.2997 110.112 15.105 110.274 14.8779 110.274H14.8826Z" fill="#424376"/>
<path d="M40.3975 83.0584L50.2558 80.0576V81.9546L47.6602 84.4034L43.0393 84.9136L40.3975 83.0584Z" fill="#FBC59D"/>
<path d="M59.3255 115.557C58.4773 116.225 57.8053 117.097 57.3372 118.071C56.7207 119.341 56.0487 121.183 56.4658 122.542C57.1657 124.833 74.8383 124.833 76.3354 123.172C77.8324 121.512 73.1002 114.444 66.63 114.346C61.7773 114.277 60.4518 114.671 59.3255 115.557Z" fill="#FFF8E8"/>
<path d="M67.3851 124.791C64.011 124.791 60.5627 124.545 58.6021 124.109C57.0309 123.761 56.2106 123.302 56.0205 122.676C55.5617 121.178 56.2569 119.235 56.9197 117.866C57.4341 116.8 58.1711 115.877 59.0424 115.19C60.2707 114.226 61.6658 113.808 66.6389 113.882C71.5658 113.957 75.4683 117.866 76.6687 120.626C77.211 121.878 77.2156 122.894 76.6826 123.483C75.8622 124.392 71.6863 124.791 67.3898 124.791H67.3851ZM65.5868 114.801C61.7492 114.801 60.558 115.176 59.6125 115.918C58.8524 116.517 58.2082 117.328 57.7539 118.27C56.9197 119.991 56.6184 121.461 56.9058 122.402C56.9058 122.402 57.0495 122.811 58.8014 123.2C63.8858 124.337 75.0141 123.933 75.9874 122.857C76.2516 122.565 76.182 121.851 75.8113 120.992C74.7128 118.465 71.1347 114.875 66.6204 114.81C66.2542 114.805 65.9113 114.801 65.5868 114.801Z" fill="#424376"/>
<path d="M60.3317 109.755C60.3317 109.755 64.8692 110.566 67.4694 112.333C70.0695 114.1 72.1459 116.883 69.657 117.95C67.1681 119.017 60.1 120.417 53.1895 114.921L60.3271 109.755H60.3317Z" fill="#FAEBE3"/>
<path d="M64.281 119.402C60.9392 119.402 56.8467 118.419 52.9071 115.283L52.4297 114.903L60.2208 109.263L60.4155 109.3C60.6055 109.333 65.0781 110.149 67.7339 111.953C69.4488 113.117 71.3908 115.056 71.2332 116.698C71.1822 117.213 70.9041 117.922 69.8428 118.377C68.5543 118.929 66.5984 119.402 64.281 119.402ZM53.9685 114.935C60.156 119.56 66.5891 118.762 69.4766 117.528C70.2506 117.194 70.297 116.758 70.3062 116.61C70.3989 115.622 69.1244 114.022 67.2055 112.723C65.0086 111.234 61.3147 110.427 60.434 110.251L53.9638 114.935H53.9685Z" fill="#424376"/>
<path d="M64.5413 58.2009C67.5388 56.3793 68.7019 52.8154 67.1394 50.2407C65.5769 47.6659 61.8803 47.0554 58.8829 48.8769C55.8855 50.6985 54.7223 54.2624 56.2848 56.8371C57.8473 59.4119 61.5439 60.0224 64.5413 58.2009Z" fill="#FAEBE3"/>
<path d="M60.8973 59.7151C60.5265 59.7151 60.1604 59.6872 59.7989 59.6269C58.1025 59.3487 56.7167 58.4443 55.8871 57.0807C55.0621 55.7171 54.8998 54.066 55.4328 52.4334C55.9566 50.824 57.0967 49.4233 58.6448 48.4818C61.8567 46.5292 65.8473 47.211 67.539 49.9984C69.2307 52.7859 67.9932 56.6447 64.7813 58.5973C63.5716 59.3301 62.2275 59.7151 60.8973 59.7151ZM62.5334 48.2963C61.4025 48.2963 60.216 48.6163 59.1222 49.2795C57.7688 50.1051 56.7677 51.3249 56.3135 52.7256C55.8639 54.0984 55.9937 55.4759 56.6796 56.603C57.3656 57.73 58.5243 58.4814 59.9472 58.7179C61.3979 58.9591 62.9413 58.6344 64.2993 57.8135C67.0755 56.1252 68.1694 52.8415 66.7465 50.49C65.8798 49.0615 64.2807 48.3009 62.538 48.3009L62.5334 48.2963Z" fill="#424376"/>
<path d="M63.2358 56.1885C64.9671 55.1882 65.6755 53.1724 64.818 51.6862C63.9604 50.1999 61.8618 49.8059 60.1305 50.8062C58.3991 51.8064 57.6908 53.8222 58.5483 55.3085C59.4058 56.7947 61.5045 57.1887 63.2358 56.1885Z" fill="#FBC59D"/>
<path d="M63.5251 61.4497C62.0976 71.9084 53.0133 80.7948 40.9303 82.5387C26.6133 84.6027 13.506 75.8461 11.6567 62.9848C9.8074 50.1283 19.916 38.0277 34.233 35.9684C47.5025 34.0575 59.7292 41.432 62.9226 52.7626C63.1729 53.6578 63.3722 54.5761 63.5066 55.5176C63.7939 57.5259 63.7939 59.5156 63.5251 61.4497Z" fill="#FAEBE3"/>
<path d="M36.7258 83.304C31.1825 83.304 25.8432 81.7364 21.3613 78.7448C15.7207 74.9788 12.1102 69.4039 11.1971 63.0498C10.2841 56.7003 12.1751 50.337 16.5272 45.1285C20.8654 39.9385 27.1271 36.5203 34.1674 35.5092C47.5203 33.5844 60.0761 40.9496 63.3715 52.6374C63.6356 53.5836 63.8349 54.5297 63.9694 55.4527C64.2567 57.4795 64.266 59.5202 63.9879 61.5146C62.5001 72.4279 53.0451 81.2586 40.9991 82.9979C39.5716 83.202 38.1394 83.304 36.7304 83.304H36.7258ZM38.399 36.1307C37.0456 36.1307 35.6783 36.2281 34.2972 36.4275C27.4886 37.4062 21.4262 40.7084 17.2363 45.7268C13.0557 50.7266 11.2389 56.8348 12.1148 62.9199C12.9908 69.0096 16.4577 74.3526 21.8758 77.9749C27.3078 81.6065 34.0515 83.0675 40.8647 82.0796C52.5028 80.4006 61.6334 71.8898 63.0656 61.3847C63.3297 59.4739 63.3251 57.5213 63.047 55.5826C62.9219 54.6967 62.7272 53.7923 62.4769 52.8879C59.6497 42.8512 49.6848 36.1307 38.4036 36.1307H38.399Z" fill="#424376"/>
<path d="M29.6766 58.8479C30.2423 58.8479 30.7009 58.2332 30.7009 57.475C30.7009 56.7168 30.2423 56.1022 29.6766 56.1022C29.1109 56.1022 28.6523 56.7168 28.6523 57.475C28.6523 58.2332 29.1109 58.8479 29.6766 58.8479Z" fill="#424376"/>
<path d="M29.6767 59.3163C28.8425 59.3163 28.189 58.5092 28.189 57.4796C28.189 56.45 28.8425 55.6429 29.6767 55.6429C30.511 55.6429 31.1645 56.45 31.1645 57.4796C31.1645 58.5092 30.511 59.3163 29.6767 59.3163ZM29.6767 56.5659C29.4126 56.5659 29.1159 56.9416 29.1159 57.475C29.1159 58.0083 29.4126 58.384 29.6767 58.384C29.9409 58.384 30.2376 58.0083 30.2376 57.475C30.2376 56.9416 29.9409 56.5659 29.6767 56.5659Z" fill="#424376"/>
<path d="M47.8871 55.6567C48.4528 55.6567 48.9114 55.0421 48.9114 54.2839C48.9114 53.5257 48.4528 52.911 47.8871 52.911C47.3214 52.911 46.8628 53.5257 46.8628 54.2839C46.8628 55.0421 47.3214 55.6567 47.8871 55.6567Z" fill="#424376"/>
<path d="M47.8872 56.1252C47.0529 56.1252 46.3994 55.3182 46.3994 54.2886C46.3994 53.2589 47.0529 52.4519 47.8872 52.4519C48.7215 52.4519 49.375 53.2589 49.375 54.2886C49.375 55.3182 48.7215 56.1252 47.8872 56.1252ZM47.8872 53.3749C47.623 53.3749 47.3264 53.7506 47.3264 54.2839C47.3264 54.8173 47.623 55.193 47.8872 55.193C48.1514 55.193 48.448 54.8173 48.448 54.2839C48.448 53.7506 48.1514 53.3749 47.8872 53.3749Z" fill="#424376"/>
<path d="M14.2751 57.4748C14.2751 57.4748 37.0739 50.0447 46.4641 48.7831C55.8542 47.5216 60.744 47.6004 62.0047 47.6004C62.0047 47.6004 53.5646 31.1818 31.7114 35.0499C9.85814 38.918 9.55225 58.6621 9.55225 58.6621L14.2751 57.4748Z" fill="#424376"/>
<path d="M9.55235 59.126C9.45038 59.126 9.34842 59.0889 9.26499 59.024C9.15375 58.9358 9.08887 58.7967 9.08887 58.6529C9.08887 58.4535 9.65432 38.4775 31.6281 34.5909C53.5601 30.7088 62.3292 47.2202 62.4173 47.3872C62.4914 47.5309 62.4868 47.7025 62.3987 47.8417C62.3153 47.9808 62.167 48.0643 62.0048 48.0643H61.7916C60.2111 48.0643 55.4233 48.0458 46.5244 49.2424C37.2872 50.4854 14.646 57.8413 14.4189 57.9155C14.4097 57.9155 14.4004 57.9201 14.3865 57.9247L9.66359 59.1121C9.62651 59.1214 9.58943 59.126 9.55235 59.126ZM38.1029 34.9294C36.1378 34.9294 34.0382 35.1057 31.7903 35.5045C22.8914 37.0815 16.5278 41.4459 12.8663 48.4864C10.6972 52.6606 10.1734 56.589 10.0529 58.0592L14.1501 57.0296C14.8546 56.8023 37.1852 49.567 46.4039 48.324C54.4361 47.2434 59.1543 47.1413 61.1937 47.1367C59.5205 44.4791 52.5034 34.9294 38.1029 34.9294Z" fill="#424376"/>
<path d="M18.4639 65.0774C18.997 62.1127 16.6312 59.2055 13.1798 58.5841C9.72836 57.9626 6.49828 59.8622 5.96521 62.827C5.43214 65.7917 7.79794 68.6988 11.2494 69.3203C14.7008 69.9417 17.9309 68.0421 18.4639 65.0774Z" fill="#FAEBE3"/>
<path d="M12.5648 69.9001C12.1013 69.9001 11.6332 69.8584 11.1697 69.7749C7.47111 69.107 4.93122 65.9531 5.51057 62.7436C5.7933 61.176 6.76198 59.831 8.24512 58.959C9.70509 58.101 11.4895 57.8041 13.2646 58.1242C16.9632 58.792 19.5031 61.9459 18.9238 65.1554C18.6411 66.7231 17.6724 68.0681 16.1892 68.94C15.1139 69.5708 13.8625 69.9001 12.5694 69.9001H12.5648ZM11.8649 58.9265C10.734 58.9265 9.64484 59.2095 8.71324 59.7567C7.47111 60.4896 6.65537 61.6073 6.42363 62.906C5.93698 65.6146 8.14316 68.2814 11.3366 68.8565C12.8985 69.1395 14.4558 68.8797 15.7211 68.1377C16.9632 67.4048 17.779 66.2871 18.0107 64.9884C18.4974 62.2798 16.2958 59.613 13.0978 59.0379C12.6853 58.9636 12.2728 58.9265 11.8649 58.9265Z" fill="#424376"/>
<path d="M17.7732 64.435C18.077 62.7459 16.7281 61.0894 14.7606 60.7352C12.793 60.3809 10.9518 61.463 10.6481 63.1521C10.3443 64.8412 11.6932 66.4976 13.6607 66.8519C15.6283 67.2062 17.4695 66.1241 17.7732 64.435Z" fill="#FBC59D"/>
<path d="M9.55262 88.3179C9.55262 88.3179 12.4911 73.1052 13.0936 72.7852C13.0936 72.7852 17.4318 77.5809 19.5082 77.9055L16.8525 68.2074C16.8525 68.2074 13.6591 69.7844 12.0971 69.7194C9.96512 69.6267 7.71259 67.5813 7.71259 67.5813C7.71259 67.5813 5.33028 85.9293 9.55262 88.3179Z" fill="#424376"/>
<path d="M9.55243 88.7816C9.47364 88.7816 9.39485 88.7631 9.32533 88.7213C4.95931 86.2493 7.00791 69.4272 7.25356 67.5209C7.27673 67.3493 7.3926 67.2056 7.55482 67.1453C7.71704 67.085 7.8978 67.1221 8.02757 67.238C8.05075 67.2566 10.1828 69.1721 12.1201 69.2556C12.1479 69.2556 12.1757 69.2556 12.2036 69.2556C13.4133 69.2556 15.8095 68.2074 16.6484 67.79C16.7735 67.7297 16.9172 67.725 17.0423 67.7807C17.1675 67.8363 17.2648 67.9476 17.2972 68.0822L19.953 77.7803C19.9947 77.9333 19.953 78.0956 19.851 78.2116C19.7444 78.3275 19.5868 78.3832 19.4339 78.36C17.6078 78.0724 14.4607 74.914 13.2232 73.606C12.5512 75.7395 10.9568 83.4711 10.0066 88.4013C9.97884 88.5497 9.88151 88.6703 9.7471 88.7353C9.68684 88.7631 9.61732 88.777 9.55243 88.777V88.7816ZM8.06929 68.4625C7.47139 73.6385 6.79471 84.6631 9.2419 87.4644C12.0923 72.7851 12.6392 72.4975 12.8756 72.3723C13.0656 72.2749 13.2927 72.3167 13.4364 72.4697C14.4468 73.5875 17.1072 76.2822 18.8267 77.168L16.551 68.8567C15.5592 69.3066 13.353 70.2388 12.0784 70.1739C10.5165 70.1043 8.936 69.1072 8.07392 68.4578L8.06929 68.4625Z" fill="#424376"/>
<path d="M12.4443 57.9387L16.8011 54.924L17.2321 58.8524L16.3654 59.7011L12.4443 57.9387Z" fill="#424376"/>
<path d="M59.6784 71.2358C59.6784 71.2358 60.1929 77.089 59.6784 78.7448C59.164 80.4005 62.8348 77.4415 64.253 65.9577C64.253 65.9577 65.7918 82.1027 64.253 84.5098C64.253 84.5098 68.276 88.1831 65.852 65.4058C65.0224 57.28 63.9564 58.1288 63.8405 58.9682C63.7385 59.7057 63.9425 66.4772 59.6784 71.2358Z" fill="#424376"/>
<path d="M64.8186 85.1917C64.4339 85.1917 64.1095 85.0061 63.938 84.8531C63.7711 84.7 63.7387 84.4496 63.8592 84.2594C64.7306 82.8958 64.5405 75.8507 64.1048 69.812C62.8627 76.0779 60.9068 79.2596 59.9659 79.5936C59.7388 79.6724 59.5071 79.6307 59.3495 79.4776C59.1548 79.2875 59.1131 78.9953 59.2336 78.6057C59.6322 77.3163 59.3541 72.8777 59.2151 71.273C59.2058 71.1431 59.2475 71.0179 59.331 70.9251C62.9971 66.8297 63.2567 61.2502 63.3447 59.4182C63.3586 59.1724 63.3679 58.9961 63.3772 58.9034C63.456 58.3468 63.7665 57.9665 64.1883 57.985C64.6332 57.9943 65.5602 58.0082 66.311 65.3548C67.5995 77.4554 67.2797 84.0832 65.3655 85.0572C65.1755 85.1546 64.9901 85.1917 64.8186 85.1917ZM64.2532 65.494H64.2578C64.4942 65.494 64.6888 65.6795 64.712 65.916C64.865 67.493 66.0793 80.7438 64.8696 84.2594C64.8974 84.2548 64.9206 84.2455 64.9484 84.2316C65.4907 83.944 67.1175 81.7456 65.3841 65.4569C64.9762 61.4682 64.5359 59.8866 64.2763 59.2698C64.2763 59.3254 64.2717 59.395 64.2671 59.4692C64.0307 64.5154 62.6449 68.5272 60.1513 71.3982C60.2255 72.3072 60.4989 75.9852 60.2765 78.012C61.2591 76.5325 62.9415 72.7339 63.785 65.9021C63.8129 65.6702 64.0122 65.494 64.2439 65.494H64.2532Z" fill="#424376"/>
<path d="M25.4124 70.1553C28.2973 70.1553 30.6359 67.815 30.6359 64.9282C30.6359 62.0414 28.2973 59.7012 25.4124 59.7012C22.5276 59.7012 20.189 62.0414 20.189 64.9282C20.189 67.815 22.5276 70.1553 25.4124 70.1553Z" fill="#FBC59D"/>
<path d="M63.5248 61.4496C62.6442 62.1314 61.5411 62.5349 60.3406 62.5349C57.4531 62.5349 55.1172 60.1973 55.1172 57.3079C55.1172 54.4184 57.4531 52.0808 60.3406 52.0808C61.2815 52.0808 62.1621 52.3266 62.9222 52.7626C63.1725 53.6577 63.3718 54.5761 63.5062 55.5176C63.7936 57.5258 63.7936 59.5156 63.5248 61.4496Z" fill="#FBC59D"/>
<path d="M44.0688 62.0822C44.9107 61.8613 45.4464 61.1219 45.2653 60.4306C45.0842 59.7393 44.2549 59.3579 43.413 59.5787C42.5711 59.7996 42.0355 60.539 42.2166 61.2303C42.3977 61.9216 43.227 62.303 44.0688 62.0822Z" fill="white"/>
<path d="M40.0124 74.0002C33.0323 74.0002 26.8541 70.5356 24.977 65.5729C24.8843 65.3317 25.0094 65.0673 25.2458 64.9746C25.4868 64.8818 25.751 65.007 25.8437 65.2436C27.5818 69.8538 33.4078 73.0726 40.0124 73.0726C44.8419 73.0726 49.3608 71.3472 52.1139 68.4577C52.2901 68.2722 52.5821 68.2676 52.7674 68.4438C52.9528 68.6201 52.9621 68.9122 52.7814 69.0978C49.8614 72.1681 45.0875 74.0002 40.0124 74.0002Z" fill="#424376"/>
<path d="M23.6659 47.2295C23.6659 47.2295 17.8306 71.4771 24.8014 83.5869C24.8014 83.5869 12.3337 78.0074 16.7739 49.1914L23.6659 47.2295Z" fill="#424376"/>
<path d="M24.8007 84.0462C24.7359 84.0462 24.671 84.0323 24.6107 84.0045C24.087 83.7726 11.8696 77.9472 16.3144 49.1173C16.3422 48.9364 16.472 48.7926 16.6434 48.7416L23.5354 46.7797C23.693 46.7333 23.8645 46.7797 23.985 46.891C24.1055 47.007 24.1519 47.1739 24.1148 47.3363C24.0592 47.5774 18.4047 71.5421 25.1993 83.3505C25.3013 83.5267 25.2781 83.7447 25.1437 83.8931C25.0557 83.9905 24.9259 84.0462 24.8007 84.0462ZM17.1903 49.5532C13.8811 71.4679 20.5182 79.6586 23.5679 82.191C18.4093 70.8557 22.1357 51.9882 23.0395 47.8882L17.1903 49.5532Z" fill="#424376"/>
<path d="M59.7982 71.8712L59.0427 71.3332C61.1979 68.3231 62.5884 64.8863 63.0657 61.3892C63.3299 59.4784 63.3253 57.5258 63.0472 55.5871C62.9221 54.7012 62.7274 53.7968 62.4771 52.8924C61.6846 50.0864 60.3219 47.4891 58.4263 45.1747L59.1447 44.5857C61.1237 46.9975 62.542 49.7107 63.3716 52.6419C63.6358 53.5881 63.8351 54.5342 63.9695 55.4572C64.2569 57.484 64.2662 59.5248 63.9881 61.5191C63.4921 65.1646 62.0414 68.7451 59.8028 71.8758L59.7982 71.8712Z" fill="#424376"/>
<path d="M49.2363 40.3883C49.2363 40.3883 51.2896 48.0086 50.7751 49.0707L54.1261 48.7136C54.1261 48.7136 50.497 41.3345 49.2363 40.3837V40.3883Z" fill="#FAEBE3"/>
<path d="M50.1904 112.287C50.1904 112.287 51.8404 115.473 52.5218 115.635C53.2031 115.798 61.2213 111.772 62.4727 110.473C63.7241 109.175 60.1136 106.879 60.1136 106.879L50.1951 112.282L50.1904 112.287Z" fill="#FBCF73"/>
<path d="M52.5174 116.099C52.4803 116.099 52.4432 116.099 52.4154 116.09C51.6414 115.909 50.4317 113.762 49.7782 112.5C49.6623 112.277 49.7457 111.999 49.9682 111.879L59.8868 106.475C60.0351 106.396 60.2158 106.401 60.3549 106.489C60.6237 106.661 63.0106 108.215 63.1821 109.671C63.2331 110.098 63.0987 110.487 62.7974 110.798C61.6758 111.957 53.88 116.099 52.5081 116.099H52.5174ZM50.8164 112.477C51.4745 113.697 52.281 114.954 52.6147 115.176C53.6297 115.009 60.9481 111.387 62.1347 110.158C62.2413 110.047 62.283 109.935 62.2644 109.787C62.181 109.082 60.9667 108.029 60.0861 107.431L50.8118 112.482L50.8164 112.477Z" fill="#424376"/>
<path d="M53.5135 115.223C53.4301 115.223 53.3513 115.177 53.3095 115.102L51.6642 112.018C51.6039 111.907 51.6456 111.763 51.7615 111.703C51.8728 111.642 52.0164 111.684 52.0767 111.8L53.722 114.884C53.7823 114.996 53.7406 115.14 53.6247 115.2C53.5876 115.218 53.5506 115.228 53.5135 115.228V115.223Z" fill="#424376"/>
<path d="M54.7239 114.578C54.6405 114.578 54.5617 114.532 54.52 114.457L52.8746 111.373C52.8144 111.262 52.8561 111.118 52.972 111.058C53.0832 110.997 53.2222 111.039 53.2871 111.155L54.9325 114.239C54.9928 114.351 54.951 114.495 54.8352 114.555C54.7981 114.573 54.761 114.583 54.7239 114.583V114.578Z" fill="#424376"/>
<path d="M55.9334 113.933C55.85 113.933 55.7712 113.887 55.7295 113.813L54.0841 110.728C54.0239 110.617 54.0656 110.473 54.1814 110.413C54.2927 110.353 54.4317 110.394 54.4966 110.51L56.142 113.595C56.2022 113.706 56.1605 113.85 56.0446 113.91C56.0076 113.929 55.9705 113.938 55.9334 113.938V113.933Z" fill="#424376"/>
<path d="M57.1434 113.289C57.0599 113.289 56.9811 113.243 56.9394 113.168L55.2941 110.084C55.2338 109.973 55.2755 109.829 55.3914 109.769C55.5026 109.708 55.6417 109.75 55.7066 109.866L57.3519 112.95C57.4122 113.062 57.3705 113.205 57.2546 113.266C57.2175 113.284 57.1804 113.294 57.1434 113.294V113.289Z" fill="#424376"/>
<path d="M58.3577 112.644C58.2743 112.644 58.1955 112.598 58.1538 112.523L56.5084 109.439C56.4482 109.328 56.4899 109.184 56.6058 109.124C56.717 109.063 56.856 109.105 56.9209 109.221L58.5663 112.305C58.6265 112.417 58.5848 112.56 58.469 112.621C58.4319 112.639 58.3948 112.649 58.3577 112.649V112.644Z" fill="#424376"/>
<path d="M59.5662 112C59.4828 112 59.404 111.953 59.3623 111.879L57.7169 108.795C57.6567 108.683 57.6984 108.54 57.8143 108.479C57.9255 108.419 58.0645 108.461 58.1294 108.577L59.7748 111.661C59.835 111.772 59.7933 111.916 59.6775 111.976C59.6404 111.995 59.6033 112.004 59.5662 112.004V112Z" fill="#424376"/>
<path d="M60.7767 111.355C60.6932 111.355 60.6145 111.308 60.5727 111.234L58.9274 108.15C58.8671 108.038 58.9088 107.895 59.0247 107.834C59.1359 107.774 59.275 107.816 59.3399 107.932L60.9852 111.016C61.0455 111.127 61.0038 111.271 60.8879 111.331C60.8508 111.35 60.8137 111.359 60.7767 111.359V111.355Z" fill="#424376"/>
<path d="M61.9861 110.71C61.9027 110.71 61.8239 110.664 61.7822 110.59L60.1368 107.505C60.0766 107.394 60.1183 107.25 60.2342 107.19C60.3454 107.13 60.4845 107.172 60.5493 107.287L62.1947 110.372C62.255 110.483 62.2132 110.627 62.0974 110.687C62.0603 110.706 62.0232 110.715 61.9861 110.715V110.71Z" fill="#424376"/>
<path d="M65.9497 119.147C65.769 119.147 65.6021 119.04 65.5233 118.869C65.0506 117.769 63.039 116.703 62.3021 116.387C62.0657 116.285 61.9591 116.012 62.0611 115.78C62.1631 115.548 62.4365 115.436 62.6682 115.538C62.7888 115.589 65.6577 116.842 66.3715 118.502C66.4735 118.739 66.3668 119.012 66.1305 119.11C66.0702 119.138 66.01 119.147 65.9451 119.147H65.9497Z" fill="#424376"/>
<path d="M70.7041 124.248C70.7041 124.207 70.5372 119.824 69.7725 117.866L70.2035 117.695C70.9961 119.726 71.1629 124.044 71.1675 124.23L70.7041 124.248Z" fill="#424376"/>
<path d="M115.073 100.228V103.66H77.8325V100.228H84.9284C91.6768 100.228 91.5285 89.6857 91.5285 89.6857L96.0196 89.2915V89.2126L96.4506 89.2498L96.8817 89.2126V89.2915L101.373 89.6857C101.373 89.6857 101.368 90.0336 101.401 90.6087C101.549 93.1782 102.457 100.228 107.973 100.228H115.073Z" fill="#798DAE"/>
<g opacity="0.5">
<path d="M115.074 100.228V103.661H96.7617V90.6091H101.401C101.55 93.1786 102.458 100.228 107.973 100.228H115.074Z" fill="#424376"/>
</g>
<path d="M49.1661 80.3867C49.1661 80.3867 47.9703 82.0007 48.0583 84.0971C48.1464 86.1935 49.027 85.892 49.2912 85.7807C49.5554 85.6694 53.2679 84.4728 53.5414 82.0981C53.8148 79.7234 52.188 78.2717 51.7477 78.6057C51.3074 78.9396 49.1661 80.3867 49.1661 80.3867Z" fill="#FBCF73"/>
<path d="M48.9296 86.3281C48.6886 86.3281 48.4986 86.2493 48.3642 86.1658C47.8914 85.8643 47.6411 85.1964 47.5948 84.1204C47.4975 81.8849 48.7396 80.1827 48.7952 80.1132C48.8277 80.0714 48.8647 80.0343 48.9064 80.0065C48.9296 79.9926 51.0431 78.5641 51.4649 78.2394C51.5854 78.1466 51.9284 77.9611 52.4567 78.2626C53.1798 78.6754 54.2411 80.0946 54.0001 82.1539C53.8101 83.7865 52.276 85.1779 49.5553 86.1797L49.4673 86.2122C49.268 86.2956 49.0872 86.3281 48.9296 86.3281ZM49.4997 80.7207C49.3004 81.0176 48.4522 82.3951 48.5218 84.0787C48.5681 85.1408 48.8137 85.3495 48.8647 85.382C48.8972 85.4005 48.9574 85.4191 49.1104 85.3541C49.1336 85.3448 49.1753 85.3309 49.2355 85.3077C51.5715 84.4451 52.9387 83.2902 53.0824 82.0472C53.2864 80.2662 52.2945 79.1809 51.9469 79.0371C51.4324 79.4175 49.8612 80.4796 49.4951 80.7254L49.4997 80.7207Z" fill="#424376"/>
<path d="M50.812 85.1268C50.812 85.1268 53.4909 90.5023 53.8571 91.7221L52.3369 92.3529C52.3369 92.3529 48.8978 85.1917 49.1342 84.7279C49.3706 84.2641 50.2049 83.8931 50.8167 85.1268H50.812Z" fill="white"/>
<path d="M52.3366 92.5845C52.2485 92.5845 52.1651 92.5335 52.128 92.4546C50.5383 89.1431 48.689 85.0941 48.93 84.621C49.0737 84.3381 49.4074 84.0552 49.8292 84.0552H49.8338C50.1582 84.0552 50.631 84.2268 51.0249 85.0199C51.1408 85.2518 53.7178 90.4278 54.0839 91.6523C54.1164 91.7682 54.0608 91.8888 53.9495 91.9305L52.4293 92.5613C52.4015 92.5752 52.3691 92.5799 52.3412 92.5799L52.3366 92.5845ZM49.8292 84.519C49.6021 84.519 49.4167 84.6813 49.3425 84.8297C49.3193 85.2379 50.9091 88.8231 52.4525 92.0511L53.5741 91.5873C53.0365 90.0985 50.6356 85.275 50.6124 85.224C50.39 84.7694 50.1119 84.519 49.8384 84.519H49.8292Z" fill="#424376"/>
<path d="M48.3273 85.9986C48.3273 85.9986 48.851 83.7816 44.2672 83.1091C39.5026 82.4088 21.2089 74.2088 19.6655 76.1845C18.1221 78.1603 17.8255 85.2148 20.4256 85.3586C23.0257 85.5023 39.4979 89.2313 48.3273 85.9986Z" fill="#FBCF73"/>
<path d="M38.8727 87.775C33.0421 87.775 26.9334 86.8056 23.2857 86.2305C21.9416 86.0171 20.8803 85.8502 20.3982 85.8224C19.856 85.7945 19.1051 85.5162 18.586 84.3753C17.5895 82.1861 17.9789 77.5899 19.2998 75.9016C20.338 74.5751 24.9589 76.0547 34.5345 79.5054C38.6502 80.9895 42.5342 82.3902 44.3372 82.6546C46.3858 82.9561 47.7577 83.5961 48.4112 84.5654C48.9395 85.34 48.7959 86.0311 48.7773 86.1099C48.7403 86.263 48.6337 86.3836 48.4853 86.4392C45.774 87.4317 42.372 87.7796 38.8727 87.7796V87.775ZM20.681 76.2959C20.3519 76.2959 20.1248 76.3515 20.0321 76.4721C19.0078 77.7847 18.5165 81.9682 19.4342 83.9903C19.6984 84.5701 20.0414 84.8762 20.4539 84.8994C20.9822 84.9272 22.0112 85.0895 23.4341 85.3168C29.1117 86.2166 40.8425 88.0764 47.8782 85.6693C47.8596 85.5162 47.7994 85.2983 47.6279 85.0571C47.271 84.5562 46.3904 83.8929 44.2028 83.5729C42.3071 83.2946 38.3814 81.88 34.2193 80.382C29.8394 78.805 22.8918 76.3005 20.681 76.3005V76.2959Z" fill="#424376"/>
<path d="M47.3774 86.212C47.3774 86.212 50.0564 91.5875 50.4225 92.8073L48.9023 93.4381C48.9023 93.4381 45.4633 86.277 45.6996 85.8132C45.936 85.3494 46.7703 84.9783 47.3821 86.212H47.3774Z" fill="white"/>
<path d="M48.902 93.6746C48.814 93.6746 48.7306 93.6236 48.6935 93.5447C47.1037 90.2332 45.2544 86.1842 45.4954 85.7157C45.6391 85.4328 45.9728 85.1499 46.3946 85.1499H46.3992C46.7237 85.1499 47.1964 85.3215 47.5904 86.1146C47.7063 86.3465 50.2832 91.5225 50.6494 92.747C50.6818 92.8629 50.6262 92.9835 50.515 93.0253L48.9947 93.656C48.9669 93.6699 48.9345 93.6746 48.9067 93.6746H48.902ZM46.39 85.6091C46.1629 85.6091 45.9775 85.7714 45.9033 85.9198C45.8801 86.328 47.4699 89.9132 49.0133 93.1412L50.1349 92.6774C49.5973 91.1886 47.1964 86.3651 47.1732 86.314C46.9508 85.8595 46.6727 85.6091 46.3992 85.6091H46.39Z" fill="#424376"/>
<path d="M43.3544 87.4504C43.3544 87.4504 60.6053 100.534 60.9575 102.195C61.18 103.224 60.8973 105.038 60.6516 106.258C60.494 107.046 59.9842 107.719 59.2658 108.09L51.4746 112.111C50.696 112.514 49.7737 112.51 48.9996 112.092C45.8433 110.381 37.5145 105.117 32.064 94.7321" fill="#FBCF73"/>
<path d="M50.2557 112.871C49.7458 112.871 49.2406 112.746 48.7818 112.496C45.4586 110.696 37.1391 105.376 31.6561 94.9454C31.5356 94.7182 31.6236 94.4399 31.8507 94.3193C32.0778 94.1987 32.3559 94.2868 32.4764 94.5141C37.8389 104.722 45.9777 109.922 49.2267 111.679C49.8617 112.023 50.6218 112.027 51.2661 111.693L59.0572 107.672C59.6505 107.366 60.0676 106.814 60.1974 106.16C60.5543 104.393 60.6609 103.016 60.5079 102.283C60.1418 101.197 51.2522 94.0132 43.0763 87.8121C42.8724 87.6591 42.8307 87.3669 42.9882 87.1628C43.1412 86.9588 43.4332 86.917 43.6371 87.0747C47.7158 90.1683 61.0502 100.395 61.4163 102.088C61.6527 103.183 61.3793 105.005 61.1104 106.341C60.9251 107.273 60.3318 108.057 59.4836 108.493L51.6925 112.514C51.2429 112.746 50.7516 112.862 50.2603 112.862L50.2557 112.871Z" fill="#424376"/>
</svg>
