<svg width="151" height="175" viewBox="0 0 151 175" fill="none" xmlns="http://www.w3.org/2000/svg">
<path d="M75.2695 0.496094C116.84 0.496127 150.539 34.1957 150.539 75.7656C150.539 113.882 122.207 145.379 85.4531 150.35L77.5166 175L69.7344 150.832C30.7488 147.998 0.000194771 115.474 0 75.7656C0 34.1957 33.6994 0.496094 75.2695 0.496094Z" fill="#C5E8FF"/>
<g clip-path="url(#clip0_2310_1398)">
<path d="M103.719 88.1688L125.462 121.99C125.462 121.99 88.02 125.207 80.2256 127.576C72.4313 129.945 41.4413 125.383 39.5036 125.7L43.9275 84.0967C43.9275 84.0967 100.329 84.5874 103.724 88.1679L103.719 88.1688Z" fill="#FFF8E8"/>
<path d="M125.546 122.51C125.712 122.483 125.859 122.373 125.93 122.223C126.009 122.055 125.999 121.859 125.899 121.705L104.156 87.8838C104.135 87.8552 104.116 87.8317 104.095 87.8031C100.649 84.1669 49.7169 83.6192 43.926 83.5686C43.6592 83.5642 43.4265 83.7677 43.4017 84.0386L38.9778 125.642C38.9618 125.804 39.0201 125.966 39.1398 126.079C39.2595 126.193 39.4217 126.241 39.5875 126.214C40.0797 126.134 43.3383 126.476 47.112 126.878C57.4407 127.968 74.7301 129.788 80.3821 128.079C88.0357 125.759 125.138 122.55 125.51 122.516C125.526 122.513 125.536 122.511 125.552 122.509L125.546 122.51ZM103.31 88.5025L124.547 121.542C118.753 122.052 87.2601 124.888 80.0739 127.073C74.6309 128.726 57.4709 126.917 47.2181 125.836C43.4504 125.438 41.1886 125.205 40.0864 125.167L44.3981 84.6334C66.893 84.8437 100.699 86.0372 103.31 88.5025Z" fill="#424376"/>
<path d="M95.835 30.2586C95.835 30.2586 104.371 57.4294 102.525 66.0781L61.2727 71.6583L37.8438 69.0232C37.8438 69.0232 37.4521 35.7702 46.6424 27.0408C55.8327 18.3113 95.835 30.2586 95.835 30.2586Z" fill="#798DAE"/>
<path d="M102.61 66.5978C102.823 66.5631 102.993 66.4018 103.038 66.1915C104.89 57.51 96.6838 31.219 96.3361 30.1019C96.2821 29.9346 96.1547 29.806 95.9865 29.7535C94.3425 29.2646 55.5836 17.8291 46.2825 26.662C37.0369 35.4432 37.3077 67.6647 37.3233 69.0283C37.3244 69.295 37.5258 69.5182 37.7907 69.5442L61.2196 72.1793C61.2628 72.1829 61.3051 72.1813 61.3474 72.1797L102.6 66.5995L102.615 66.597L102.61 66.5978ZM95.4153 30.6848C96.2785 33.4894 103.493 57.2956 102.081 65.6064L61.2706 71.125L38.3672 68.548C38.3695 64.4971 38.6685 35.3364 47.0023 27.4195C55.4796 19.3724 91.9073 29.663 95.4145 30.6796L95.4153 30.6848Z" fill="#424376"/>
<path d="M90.0931 60.1655C90.0931 60.1655 104.438 66.2293 105.475 74.7798C106.512 83.3303 105.057 86.6585 105.057 86.6585L55.9573 86.5154L41.1246 95.4848C41.1246 95.4848 30.7901 81.0267 50.9532 61.4563L90.0879 60.1664L90.0931 60.1655Z" fill="#FBCF73"/>
<path d="M105.403 87.1834L105.543 86.8671C105.604 86.7236 107.041 83.3079 106.002 74.715C104.942 65.9601 90.9007 59.932 90.3006 59.6779L90.1919 59.6317L90.0754 59.6347L50.7395 60.9309L50.5925 61.0724C40.0424 71.3105 37.9013 80.1728 37.9617 85.8092C38.0276 91.9676 40.596 95.6353 40.7061 95.7881L40.9891 96.1847L56.1122 87.0397L105.408 87.1826L105.403 87.1834ZM89.9934 60.6941C91.2781 61.2631 104.011 67.0676 104.954 74.8438C105.784 81.6724 104.992 85.1267 104.683 86.1325L55.8127 85.9893L41.2947 94.7685C40.6526 93.6728 39.0344 90.4474 39.0028 85.7349C38.9626 80.3514 41.0483 71.8663 51.1711 61.9757L89.9882 60.695L89.9934 60.6941Z" fill="#424376"/>
<path d="M88.601 87.9523C92.8327 84.6503 89.5443 75.769 89.4028 75.3919L88.4213 75.766C88.4513 75.8518 91.5828 84.2945 87.96 87.1233L88.607 87.9566L88.601 87.9523Z" fill="#424376"/>
<path d="M55.2232 87.4573L55.6795 86.5074C54.351 85.8655 53.5816 79.3419 53.4631 74.9104L52.4142 74.9379C52.4674 76.8238 52.8479 86.3035 55.2283 87.4564L55.2232 87.4573Z" fill="#424376"/>
<path d="M105.265 87.8945C105.265 87.8945 105.629 92.3337 102.188 94.2576C98.7469 96.1814 92.4746 92.4739 91.9287 91.6079C91.3827 90.742 90.5784 92.069 89.3996 91.9203C88.2209 91.7716 86.4074 88.2632 88.6903 86.6089C90.9732 84.9546 103.819 84.5874 104.616 85.7166C105.412 86.8457 105.2 87.6328 105.259 87.8954L105.265 87.8945Z" fill="#FAEBE3"/>
<path d="M100.856 95.2547C101.421 95.1623 101.951 94.9901 102.444 94.7174C106.138 92.6508 105.805 88.0463 105.789 87.8514L105.783 87.8151L105.779 87.7891C105.773 87.7527 105.777 87.7094 105.779 87.6557C105.778 87.2609 105.771 86.4402 105.05 85.416C104.835 85.1097 104.384 84.922 103.542 84.7822C100.255 84.2314 90.5363 84.6259 88.3865 86.1837C87.2546 87.004 86.824 88.3392 87.2096 89.8505C87.5071 91.0186 88.3533 92.3211 89.3361 92.4431C90.0204 92.5286 90.5848 92.2388 90.9987 92.0377C91.1413 91.9663 91.3479 91.8631 91.4463 91.847C91.4463 91.847 91.4463 91.847 91.4515 91.8462C91.4524 91.8514 91.4661 91.8705 91.4859 91.8939C92.0526 92.7885 97.0643 95.8804 100.857 95.2599L100.856 95.2547ZM104.743 87.9586C104.761 88.2972 104.904 92.1322 101.932 93.7979C98.7249 95.5927 92.7961 91.9678 92.3721 91.3273C91.8132 90.4475 90.9775 90.8671 90.5306 91.0949C90.1867 91.2686 89.8323 91.444 89.469 91.402C89.1972 91.3665 88.5135 90.6992 88.2314 89.5926C88.0706 88.9678 87.9596 87.8012 89.0059 87.043C91.2309 85.4249 103.267 85.3076 104.225 86.0634C104.726 86.782 104.728 87.3153 104.732 87.6668C104.734 87.7733 104.735 87.8746 104.75 87.9681L104.743 87.9586Z" fill="#424376"/>
<path d="M70.751 73.2576C65.0771 73.7098 60.2249 70.9269 59.9132 67.0417C59.6016 63.1566 63.9485 59.6406 69.6225 59.1884C75.2964 58.7362 80.1486 61.5191 80.4603 65.4043C80.7719 69.2894 76.425 72.8054 70.751 73.2576Z" fill="#FBC59D"/>
<path d="M72.0853 73.625C74.4272 73.2419 76.5563 72.3386 78.1823 71.0265C80.1552 69.4283 81.1511 67.4189 80.9844 65.3595C80.8177 63.3001 79.5128 61.4696 77.3113 60.2074C75.1745 58.9827 72.4293 58.4285 69.5836 58.6592C66.7372 58.8848 64.115 59.8635 62.1983 61.4151C60.2255 63.0134 59.2296 65.0228 59.3963 67.0822C59.5629 69.1416 60.8679 70.9721 63.0693 72.2343C65.2061 73.459 67.9514 74.0132 70.797 73.7824C71.233 73.7485 71.6656 73.6937 72.0853 73.625ZM68.4603 59.857C68.854 59.7926 69.2607 59.7421 69.6708 59.7123C72.3118 59.4991 74.8414 60.0031 76.7964 61.1242C78.6866 62.2078 79.805 63.7433 79.9397 65.445C80.0745 67.1467 79.2184 68.8398 77.5275 70.2104C75.7751 71.6285 73.3629 72.5248 70.7159 72.7337C68.0749 72.947 65.5453 72.4429 63.5903 71.3218C61.7001 70.2382 60.5817 68.7027 60.447 67.001C60.3122 65.2993 61.1683 63.6063 62.8592 62.2356C64.3391 61.0382 66.2945 60.2113 68.4603 59.857Z" fill="#424376"/>
<path d="M93.5581 50.1863C92.4049 47.5897 93.9135 44.3949 96.9276 43.0507C99.9418 41.7064 103.32 42.7217 104.473 45.3183C105.627 47.915 104.118 51.1098 101.104 52.454C98.0897 53.7983 94.7114 52.783 93.5581 50.1863Z" fill="#FAEBE3"/>
<path d="M99.49 53.4783C100.107 53.3775 100.72 53.1917 101.315 52.9289C104.588 51.4703 106.221 47.9583 104.955 45.0969C103.684 42.2415 99.9876 41.1065 96.7151 42.5651C95.1432 43.2652 93.8964 44.4565 93.2049 45.9198C92.5012 47.4065 92.4584 48.9985 93.0756 50.3971C93.6979 51.7949 94.9038 52.8251 96.4814 53.2981C97.444 53.5889 98.4745 53.6445 99.4952 53.4775L99.49 53.4783ZM98.7009 43.0621C100.965 42.6917 103.157 43.6352 103.993 45.5264C105.028 47.8546 103.633 50.7405 100.886 51.9638C99.5423 52.5625 98.0824 52.6786 96.7783 52.2836C95.5026 51.8999 94.5275 51.0775 94.0313 49.9633C93.5351 48.849 93.5763 47.5722 94.1507 46.3681C94.7364 45.1356 95.7945 44.1246 97.1383 43.5259C97.6542 43.2974 98.1768 43.1425 98.7001 43.0569L98.7009 43.0621Z" fill="#424376"/>
<path d="M94.0416 49.4384C93.3841 47.958 94.2446 46.1364 95.9636 45.3698C97.6826 44.6032 99.6091 45.1818 100.267 46.6622C100.924 48.1426 100.064 49.9641 98.3445 50.7308C96.6256 51.4974 94.6991 50.9188 94.0416 49.4384Z" fill="#FBC59D"/>
<path d="M38.949 57.0405C35.7377 56.2753 33.6632 53.4138 34.3154 50.6492C34.9676 47.8846 38.0996 46.2638 41.3109 47.029C44.5222 47.7942 46.5968 50.6557 45.9445 53.4203C45.2923 56.1849 42.1603 57.8057 38.949 57.0405Z" fill="#FAEBE3"/>
<path d="M41.6815 57.6578C44.0182 57.2755 45.9409 55.7282 46.4556 53.5413C47.1709 50.4998 44.9206 47.3457 41.4285 46.5188C39.7514 46.1207 38.0427 46.3096 36.6098 47.0457C35.1483 47.8024 34.1534 49.0379 33.801 50.5258C33.0805 53.5681 35.3351 56.7162 38.8281 57.5483C39.8029 57.7837 40.7748 57.8062 41.6815 57.6578ZM45.4368 53.2971C44.8523 55.7729 41.9985 57.2217 39.0697 56.5214C36.141 55.8212 34.2397 53.2397 34.8241 50.764C35.1041 49.5814 35.9102 48.5903 37.0926 47.9806C38.3043 47.3555 39.7574 47.1978 41.1912 47.5396C44.1139 48.2355 46.0204 50.8161 45.4368 53.2971Z" fill="#424376"/>
<path d="M41.3355 54.8466C39.5041 54.4102 38.3208 52.7787 38.6927 51.2026C39.0645 49.6264 40.8506 48.7025 42.682 49.1389C44.5134 49.5753 45.6966 51.2068 45.3248 52.7829C44.9529 54.359 43.1669 55.283 41.3355 54.8466Z" fill="#FBC59D"/>
<path d="M73.7769 68.6838C58.5309 71.1781 44.2695 61.5742 41.9232 47.2329C39.577 32.8917 50.0343 19.2437 65.2803 16.7495C80.5264 14.2552 94.7878 23.8591 97.134 38.2003C99.4803 52.5416 89.023 66.1895 73.7769 68.6838Z" fill="#FAEBE3"/>
<path d="M73.862 69.2036C89.3693 66.6666 100.042 52.7208 97.6522 38.1156C95.2627 23.5104 80.7026 13.6927 65.1953 16.2297C49.688 18.7668 39.0157 32.7125 41.4051 47.3177C43.7946 61.923 58.3547 71.7406 73.862 69.2036ZM65.3654 17.2693C80.3028 14.8255 94.32 24.2516 96.6159 38.2851C98.9118 52.3186 88.6293 65.7203 73.6919 68.1641C58.7545 70.6079 44.7373 61.1817 42.4414 47.1482C40.1455 33.1147 50.4332 19.7122 65.3654 17.2693Z" fill="#424376"/>
<path d="M72.0807 62.7708C79.0494 61.6307 84.6502 57.5924 85.7001 52.9538C85.7655 52.671 85.5867 52.3907 85.3046 52.3248C85.0225 52.2589 84.7432 52.438 84.6778 52.7208C83.7213 56.9546 78.47 60.6581 71.9106 61.7313C64.6777 62.9146 58.0224 60.5399 56.431 56.2107C56.3333 55.9385 56.0281 55.7963 55.7576 55.8993C55.4864 55.997 55.3449 56.303 55.4478 56.5743C57.2115 61.3717 64.3659 64.033 72.0807 62.7708Z" fill="#424376"/>
<path d="M79.051 48.4048C78.9703 48.1589 79.4028 47.7956 80.017 47.5934C80.6312 47.3912 81.1946 47.4267 81.2753 47.6727C81.356 47.9187 80.9235 48.2819 80.3092 48.4841C79.695 48.6863 79.1317 48.6508 79.051 48.4048Z" fill="#424376"/>
<path d="M79.9322 48.849C80.0824 48.8244 80.2362 48.7885 80.3874 48.7371C80.7156 48.6301 81.0095 48.4752 81.2197 48.2968C81.5847 47.9916 81.5673 47.7222 81.5244 47.5905C81.3659 47.1094 80.5864 47.1249 79.9307 47.3442C79.4012 47.5216 78.9801 47.8093 78.8361 48.0997C78.7519 48.2682 78.7689 48.4042 78.7989 48.49C78.8417 48.6218 78.9853 48.8491 79.4634 48.8776C79.6084 48.8859 79.7664 48.8761 79.9374 48.8481L79.9322 48.849ZM80.4709 47.7522C80.7922 47.6996 80.9958 47.741 81.0397 47.7819C81.0068 47.8086 80.7567 48.0683 80.2263 48.2405C79.7572 48.3973 79.4232 48.3719 79.3146 48.3256C79.3727 48.2254 79.6235 48.0029 80.0987 47.8504C80.2352 47.8068 80.363 47.7752 80.4718 47.7574L80.4709 47.7522Z" fill="#424376"/>
<path d="M60.2592 50.3778C59.6299 50.2278 59.168 49.9021 59.2274 49.6503C59.2868 49.3984 59.8451 49.3158 60.4744 49.4658C61.1036 49.6157 61.5656 49.9415 61.5062 50.1933C61.4468 50.4451 60.8885 50.5277 60.2592 50.3778Z" fill="#424376"/>
<path d="M61.1562 50.688C61.6121 50.6134 61.7284 50.381 61.7598 50.2477C61.7824 50.1587 61.7862 50.0193 61.6856 49.8596C61.518 49.5829 61.0723 49.3302 60.5297 49.2002C59.8594 49.0377 59.0807 49.0904 58.9638 49.5791C58.8478 50.0731 59.5184 50.465 60.1939 50.6267C60.5312 50.7049 60.8652 50.7303 61.1294 50.6871L61.1501 50.6837L61.1562 50.688ZM59.6585 49.6629C59.8191 49.6367 60.0798 49.6367 60.4171 49.7149C60.9597 49.845 61.2319 50.0779 61.255 50.1542C61.2136 50.161 60.8664 50.2498 60.3237 50.1198C59.8372 50.0073 59.5701 49.8055 59.5013 49.71C59.5358 49.6937 59.586 49.6748 59.6585 49.6629Z" fill="#424376"/>
<path d="M93.0334 42.4309C93.0334 42.4309 64.8233 39.8363 48.2448 46.1989C42.4044 48.6753 40.3401 50.2351 40.3401 50.2351C40.3401 50.2351 36.8001 18.8421 61.3593 16.0943C85.9185 13.3465 94.3925 27.586 95.8352 30.2585C97.2779 32.9309 99.5461 43.5108 99.5461 43.5108L93.0343 42.4361L93.0334 42.4309Z" fill="#424376"/>
<path d="M99.63 44.0254C99.7389 44.0076 99.8469 43.9526 99.9239 43.8706C100.042 43.7446 100.092 43.5655 100.059 43.3949C99.9667 42.9617 97.7521 32.7093 96.2931 30.0021C94.1081 25.9461 85.1226 12.9056 61.2999 15.5703C51.0287 16.717 44.0479 23.1158 41.13 34.0584C38.9432 42.2505 39.8048 50.216 39.8175 50.294C39.8378 50.4828 39.96 50.6442 40.1316 50.7175C40.3032 50.7909 40.5017 50.7691 40.6531 50.6536C40.6721 50.6398 42.7597 49.0922 48.4462 46.6836C64.5348 40.5132 92.1059 42.8762 92.9646 42.9545L99.46 44.0265C99.5152 44.0388 99.5731 44.0347 99.63 44.0254ZM60.0185 16.8099C60.4745 16.7353 60.9425 16.6695 61.4182 16.6183C84.5933 14.0276 93.2674 26.596 95.37 30.5053C96.5386 32.673 98.3192 40.4027 98.8647 42.8591L93.1131 41.9109C93.1131 41.9109 93.0863 41.9099 93.0751 41.9064C92.7938 41.8777 64.5506 39.3739 48.0524 45.7073C44.0828 47.3921 41.8466 48.6492 40.7833 49.3034C40.6326 47.0493 40.4255 40.7432 42.1488 34.3027C44.8609 24.1835 50.8685 18.3069 60.0185 16.8099Z" fill="#424376"/>
<path d="M88.506 43.9935C88.506 43.9935 88.5809 38.1108 85.5913 32.356C85.5913 32.356 85.7482 43.2652 84.9935 43.6929L88.506 43.9935Z" fill="#FAEBE3"/>
<path d="M91.556 55.7422C88.892 56.1781 86.3779 54.3649 85.9407 51.6924C85.5034 49.02 87.3086 46.5002 89.9727 46.0643C92.6367 45.6285 95.1508 47.4416 95.5881 50.1141C96.0253 52.7866 94.2201 55.3064 91.556 55.7422Z" fill="#FBC59D"/>
<path d="M50.9759 59.6114C48.3119 60.0472 45.7978 58.2341 45.3606 55.5616C44.9234 52.8891 46.7286 50.3693 49.3926 49.9335C52.0567 49.4976 54.5707 51.3108 55.008 53.9832C55.4452 56.6557 53.64 59.1755 50.9759 59.6114Z" fill="#FBC59D"/>
<path d="M69.5328 53.9252C68.5991 53.9996 67.7944 53.463 67.7353 52.7265C67.6763 51.9901 68.3852 51.3328 69.3188 51.2584C70.2524 51.184 71.0572 51.7207 71.1162 52.4571C71.1753 53.1935 70.4664 53.8508 69.5328 53.9252Z" fill="white"/>
<path d="M73.862 69.2036C89.3693 66.6666 100.042 52.7208 97.6522 38.1156C95.2627 23.5104 80.7026 13.6927 65.1953 16.2297C49.688 18.7668 39.0157 32.7125 41.4051 47.3177C43.7946 61.923 58.3547 71.7406 73.862 69.2036ZM65.3654 17.2693C80.3028 14.8255 94.32 24.2516 96.6159 38.2851C98.9118 52.3186 88.6293 65.7203 73.6919 68.1641C58.7545 70.6079 44.7373 61.1817 42.4414 47.1482C40.1455 33.1147 50.4332 19.7122 65.3654 17.2693Z" fill="#424376"/>
<path d="M93.192 39.6299C93.192 39.6299 94.9051 57.9054 93.5104 59.916C93.5104 59.916 98.4457 52.7205 96.5078 40.8752C94.5699 29.0299 93.192 39.6299 93.192 39.6299Z" fill="#424376"/>
<path d="M93.5945 60.4306C93.7292 60.4086 93.8554 60.3345 93.942 60.2136L93.9412 60.2084C94.1985 59.8301 98.9586 52.6366 97.0207 40.7913C96.1933 35.7341 95.5018 34.7265 94.6584 34.7417C93.7287 34.7497 93.0799 36.3768 92.6646 39.5614C92.6602 39.5995 92.661 39.6367 92.6626 39.6792C93.3153 46.6275 93.999 58.123 93.0899 59.5899C93.0769 59.608 93.0725 59.6141 93.0734 59.6193C92.9105 59.8594 92.9693 60.186 93.2088 60.3496C93.3234 60.4322 93.4606 60.4578 93.5901 60.4366L93.5945 60.4306ZM94.6789 35.8751C94.8931 36.1763 95.3799 37.2333 95.9887 40.9548C97.152 48.0651 95.7747 53.4991 94.5465 56.6245C94.7625 51.3112 93.9455 42.0576 93.7201 39.6396C93.9426 37.9755 94.3618 36.3432 94.6789 35.8751Z" fill="#424376"/>
<path d="M43.6221 46.5602C43.6221 46.5602 47.8222 64.4288 49.7849 65.8902C49.7849 65.8902 42.8138 60.6426 40.8759 48.7973C38.938 36.952 43.6221 46.5602 43.6221 46.5602Z" fill="#424376"/>
<path d="M49.8692 66.4047C49.9988 66.3836 50.1206 66.3156 50.2029 66.2007C50.3779 65.9693 50.3295 65.641 50.0986 65.4653C50.0986 65.4653 50.0865 65.4566 50.0736 65.4427C48.7453 64.3472 45.7292 53.228 44.1335 46.4339C44.1276 46.3975 44.1104 46.3576 44.0941 46.3229C42.6856 43.4367 41.5314 42.1046 40.6684 42.3899C39.8641 42.6442 39.5297 43.8196 40.3571 48.8769C42.2959 60.7274 49.0994 66.0237 49.4638 66.3003C49.5853 66.3925 49.7285 66.4224 49.8632 66.4004L49.8692 66.4047ZM43.1246 46.7377C43.6815 49.1015 45.856 58.133 47.754 63.1005C45.5946 60.5346 42.5575 55.8229 41.3934 48.7073C40.7845 44.9859 40.9082 43.8236 41.0161 43.475C41.4659 43.8177 42.3886 45.2304 43.1246 46.7377Z" fill="#424376"/>
<path d="M69.843 100.403C51.8862 87.4802 81.7247 82.5986 77.0708 99.2207C81.7247 82.5986 105.422 99.6522 82.8111 103.351C105.422 99.6522 99.2805 121.588 81.3237 108.665C99.2805 121.588 69.442 126.469 74.0959 109.847C69.442 126.469 45.7449 109.416 68.3556 105.716C45.7449 109.416 51.8862 87.4802 69.843 100.403Z" fill="#FBCF73"/>
<path d="M104.638 108.095C99.1265 104.13 108.287 102.631 106.855 107.732C108.282 102.632 115.559 107.867 108.616 109.002C115.559 107.867 113.671 114.601 108.16 110.635C113.671 114.601 104.511 116.1 105.942 110.998C104.516 116.099 97.2385 110.864 104.181 109.728C97.2385 110.864 99.1265 104.13 104.638 108.095Z" fill="#ED8F4D"/>
<path d="M58.8502 90.0498C58.8502 90.0498 57.4334 86.3325 54.2792 86.3682C51.1251 86.4039 42.498 91.0974 41.9 93.8155C41.3021 96.5337 42.8782 102.136 48.8605 102.315C54.8427 102.494 59.8948 97.6705 58.2165 93.2328C58.2165 93.2328 60.3817 92.3876 58.851 90.055L58.8502 90.0498Z" fill="#FAEBE3"/>
<path d="M51.0079 102.695C53.785 102.24 56.3229 100.779 57.8102 98.6841C58.9813 97.0302 59.3466 95.1986 58.8477 93.4818C59.1883 93.2553 59.6235 92.8586 59.8209 92.2446C60.0523 91.5129 59.8817 90.6976 59.3168 89.8134C59.1117 89.308 57.571 85.8084 54.2683 85.847C51.0296 85.8859 42.0554 90.6362 41.3815 93.703C41.0279 95.3138 41.3735 97.979 42.9636 100.024C43.9213 101.261 45.7182 102.749 48.8401 102.841C49.5668 102.861 50.2981 102.811 51.0079 102.695ZM53.6467 86.9574C53.8799 86.9192 54.0948 86.9001 54.2856 86.8955C57.041 86.861 58.3482 90.2014 58.3593 90.2369L58.4135 90.3401C58.8237 90.9615 58.9587 91.4944 58.8265 91.9216C58.6473 92.4846 58.0346 92.7396 58.0295 92.7404L57.5447 92.9318L57.7308 93.419C58.3012 94.9214 58.0234 96.5732 56.9597 98.0707C55.2863 100.426 52.1148 101.884 48.8755 101.79C46.7263 101.725 44.9727 100.891 43.7938 99.3761C42.4128 97.6008 42.1069 95.3081 42.4133 93.9291C42.9013 91.7092 50.2427 87.5143 53.6467 86.9574Z" fill="#424376"/>
<path d="M45.6985 77.4296C46.2529 77.0133 47.0424 77.1243 47.464 77.6851L62.5816 97.9995L62.616 98.0473C62.7124 98.1809 62.7837 98.324 62.8247 98.4774L62.8689 98.7477L62.8698 98.7529L63.1989 100.764C63.2082 100.854 63.1182 100.922 63.0372 100.882L61.2068 100.002L61.1913 100.004L60.9413 99.8743C60.8111 99.7941 60.6923 99.6855 60.5916 99.5579L60.5572 99.5102L45.4395 79.1957C45.0231 78.6341 45.1382 77.8414 45.6977 77.4244L45.6985 77.4296Z" fill="#424376"/>
</g>
<defs>
<clipPath id="clip0_2310_1398">
<rect width="86.4792" height="115.946" fill="white" transform="matrix(-0.98688 0.161456 0.161456 0.98688 107.345 8)"/>
</clipPath>
</defs>
</svg>
