<svg width="153" height="153" viewBox="0 0 153 153" fill="none" xmlns="http://www.w3.org/2000/svg">
<path d="M21.3054 74.4836L9.01288 67.3899C7.15443 66.321 4.82227 67.6572 4.82227 69.8071V84.0067C4.82227 86.1566 7.14229 87.4928 9.01288 86.4239L21.3054 79.3302C23.1638 78.2613 23.1638 75.5647 21.3054 74.4958V74.4836Z" fill="white"/>
<path d="M131.695 79.318L143.987 86.4116C145.846 87.4806 148.178 86.1444 148.178 83.9944V69.7949C148.178 67.645 145.858 66.3088 143.987 67.3777L131.695 74.4714C129.836 75.5403 129.836 78.2369 131.695 79.3058V79.318Z" fill="white"/>
<path d="M76.5 8.5027C113.997 8.5027 144.497 39.0031 144.497 76.5C144.497 113.997 113.997 144.497 76.5 144.497C39.0031 144.497 8.5027 113.997 8.5027 76.5C8.5027 39.0031 39.0031 8.5027 76.5 8.5027ZM76.5 0C34.2537 0 0 34.2537 0 76.5C0 118.746 34.2537 153 76.5 153C118.746 153 153 118.746 153 76.5C153 34.2537 118.746 0 76.5 0Z" fill="white"/>
</svg>
