<svg width="91" height="35" viewBox="0 0 91 35" fill="none" xmlns="http://www.w3.org/2000/svg">
<path d="M0.575195 17.5059C0.575215 16.2184 1.31608 14.9308 2.79785 14.457L39.6631 2.73535L45.4941 0.876951L45.4941 0.865232L51.3242 2.72363L88.1895 14.457C91.1531 15.4045 91.1531 19.6072 88.1895 20.5547L51.3242 32.2764L45.4941 34.1348L39.6631 32.2764L2.79785 20.543C1.31599 20.0692 0.575195 18.7934 0.575195 17.5059ZM37.3437 16.7646C37.3437 21.4605 41.1499 25.2674 45.8457 25.2676C50.5416 25.2676 54.3486 21.4606 54.3486 16.7646C54.3484 12.0689 50.5415 8.26269 45.8457 8.26269C41.15 8.26283 37.3439 12.069 37.3437 16.7646Z" fill="white"/>
</svg>
