<svg width="418" height="333" viewBox="0 0 418 333" fill="none" xmlns="http://www.w3.org/2000/svg">
<path d="M373.79 10.4774L24.1543 34.6479C11.9438 35.492 2.73046 46.0613 3.57574 58.2551L20.5457 303.06C21.391 315.254 31.9748 324.455 44.1853 323.611L393.821 299.44C406.031 298.596 415.245 288.027 414.4 275.833L397.43 31.0278C396.584 18.834 386.001 9.63324 373.79 10.4774Z" fill="#FFFAF1" stroke="#798DAE" stroke-width="4" stroke-linecap="round" stroke-linejoin="round"/>
<path d="M346.291 329.712L18.0574 277.908C8.07147 276.333 1.40908 266.758 3.41545 256.862L52.0892 17.2681C53.8965 8.3818 62.1058 2.29444 71.1421 3.13566L398.794 33.4654C409.193 34.429 416.514 44.0953 414.63 54.3429L366.539 315.411C364.793 324.879 355.818 331.226 346.291 329.727V329.712Z" fill="#FFFAF1" stroke="#798DAE" stroke-width="4" stroke-linecap="round" stroke-linejoin="round"/>
<path d="M334.207 315.426L34.7364 268.165C25.6234 266.727 19.543 257.994 21.3809 248.955L65.7816 30.3452C67.4204 22.2389 74.9251 16.6869 83.165 17.4516L382.115 45.1201C391.595 45.9919 398.288 54.817 396.558 64.1622L352.678 302.365C351.085 311.006 342.891 316.803 334.207 315.426Z" fill="#C5E8FF"/>
<path d="M314.235 81.4607L399.483 92.3966C399.483 92.3966 387.843 89.0776 382.804 84.5809C377.765 80.0842 370.153 70.1272 363.307 72.085C356.461 74.0427 351.774 83.602 345.709 81.0631C339.644 78.5241 337.301 70.8002 330.455 71.825C323.608 72.8497 317.742 76.9641 314.22 81.4454L314.235 81.4607Z" fill="white"/>
<path d="M31.7804 245.269L117.028 256.205C117.028 256.205 105.388 252.886 100.349 248.389C95.3105 243.892 87.6985 233.935 80.8524 235.893C74.0062 237.851 69.3195 247.41 63.2544 244.871C57.1894 242.332 54.8461 234.608 47.9999 235.633C41.1537 236.658 35.2877 240.772 31.7651 245.254L31.7804 245.269Z" fill="white"/>
<path d="M275.915 54.9699L340.655 64.8504C340.655 64.8504 331.818 61.8526 327.989 57.7995C324.16 53.7464 318.37 44.7377 313.178 46.5119C307.986 48.2861 304.418 56.9277 299.808 54.6335C295.198 52.3392 293.421 45.3648 288.229 46.2977C283.037 47.2307 278.58 50.9321 275.9 54.9852L275.915 54.9699Z" fill="white"/>
<path d="M239.05 56.8821C239.05 56.8821 197.988 51.4218 182.35 79.9161C166.713 108.41 143.249 136.155 120.566 141.616C97.8836 147.076 84.2065 138.878 90.0725 153.714C95.9385 168.55 111.974 168.152 110.412 179.287C108.85 190.422 90.0725 203.3 117.059 199.017C144.046 194.735 156.16 200.195 154.996 216.193C153.832 232.192 137.215 284.149 163.895 291.949C190.575 299.765 210.914 291.551 234.378 261.879C257.842 232.207 246.891 233.767 276.221 230.632C305.551 227.496 328.234 198.222 350.518 171.67C372.803 145.118 348.558 100.595 331.741 102.155C314.924 103.715 288.719 122.466 278.166 115.828C267.614 109.191 262.912 92.0144 263.31 77.1631C263.708 62.3117 255.958 56.8056 239.065 56.8515L239.05 56.8821Z" fill="#ED8F4D"/>
<path d="M239.05 44.6155C239.05 44.6155 197.988 39.1552 182.35 67.6495C166.713 96.1439 143.249 123.889 120.566 129.349C97.8836 134.809 84.2065 126.611 90.0725 141.447C95.9385 156.283 111.974 155.886 110.412 167.02C108.85 178.155 90.0725 191.033 117.059 186.751C144.046 182.468 156.16 187.928 154.996 203.927C153.832 219.925 137.215 271.882 163.895 279.682C190.575 287.483 210.914 279.285 234.378 249.613C257.842 219.941 246.891 221.501 276.221 218.365C305.551 215.23 328.234 185.955 350.518 159.403C372.803 132.852 348.558 88.3282 331.741 89.8883C314.924 91.4483 288.719 110.2 278.166 103.562C267.614 96.9239 262.912 79.7478 263.31 64.8965C263.708 50.0451 255.958 44.539 239.065 44.5849L239.05 44.6155Z" fill="#FBCF73"/>
<path d="M215.463 128.446L326.779 150.639C326.779 150.639 323.394 116.21 298.628 116.21C273.863 116.21 274.904 130.526 262.651 124.806C250.399 119.086 237.625 114.65 215.463 128.446Z" fill="#ED8F4D"/>
<path d="M106.951 149.645L194.205 167.035C194.205 167.035 191.555 140.055 172.135 140.055C152.714 140.055 153.541 151.282 143.938 146.785C134.335 142.288 124.319 138.832 106.951 149.645Z" fill="#ED8F4D"/>
<path d="M190.498 83.908C190.498 70.4791 182.703 59.6045 173.1 59.6045C163.497 59.6045 155.701 70.4944 155.701 83.908C155.701 95.9604 161.996 105.948 170.236 107.86V125.204H174.34V108.135C183.377 107.248 190.498 96.7557 190.498 83.908Z" fill="#ED8F4D"/>
<path d="M226.338 212.385C226.338 198.956 218.542 188.081 208.939 188.081C199.336 188.081 191.54 198.971 191.54 212.385C191.54 224.437 197.835 234.425 206.075 236.336V253.681H210.179V236.612C219.216 235.725 226.338 225.232 226.338 212.385Z" fill="#ED8F4D"/>
<path d="M74.4044 59.5888C74.4044 59.5888 84.13 65.9056 91.9564 59.5888C99.7828 53.272 112.679 64.8502 112.679 64.8502" stroke="white" stroke-miterlimit="10" stroke-linecap="round"/>
<path d="M78.7541 70.0507C78.7541 70.0507 88.4797 76.3675 96.306 70.0507C104.132 63.7339 117.028 75.3121 117.028 75.3121" stroke="white" stroke-miterlimit="10" stroke-linecap="round"/>
<path d="M332.737 200.715C332.737 200.715 339.598 205.166 345.127 200.715C350.656 196.264 359.754 204.431 359.754 204.431" stroke="white" stroke-miterlimit="10" stroke-linecap="round"/>
<path d="M335.8 208.087C335.8 208.087 342.661 212.538 348.19 208.087C353.719 203.636 362.817 211.803 362.817 211.803" stroke="white" stroke-miterlimit="10" stroke-linecap="round"/>
<path d="M282.256 284.378C282.256 284.378 291.981 290.695 299.808 284.378C307.634 278.061 320.53 289.639 320.53 289.639" stroke="white" stroke-miterlimit="10" stroke-linecap="round"/>
<path d="M286.605 294.839C286.605 294.839 296.331 301.156 304.157 294.839C311.984 288.522 324.88 300.101 324.88 300.101" stroke="white" stroke-miterlimit="10" stroke-linecap="round"/>
<path d="M85.6462 210.244C85.6462 210.244 95.3718 216.56 103.198 210.244C111.025 203.927 123.921 215.505 123.921 215.505" stroke="white" stroke-miterlimit="10" stroke-linecap="round"/>
<path d="M89.9959 220.705C89.9959 220.705 99.7215 227.022 107.548 220.705C115.374 214.388 128.27 225.966 128.27 225.966" stroke="white" stroke-miterlimit="10" stroke-linecap="round"/>
</svg>
