<svg width="494" height="327" viewBox="0 0 494 327" fill="none" xmlns="http://www.w3.org/2000/svg">
<g clip-path="url(#clip0_2256_1453)">
<path d="M160 163.5C160 73.2014 233.201 0 323.5 0H330.5C420.799 0 494 73.2014 494 163.5V327H160V163.5Z" fill="#FBCF73"/>
<path d="M369.487 83.8876L372.487 96.8876" stroke="#ED8F4D" stroke-width="4" stroke-linecap="round"/>
<path d="M396 83.8876L393 96.8876" stroke="#ED8F4D" stroke-width="4" stroke-linecap="round"/>
<path d="M382.5 97.0596V83.7179" stroke="#ED8F4D" stroke-width="4" stroke-linecap="round"/>
<path d="M300 153.17L303 166.17" stroke="#ED8F4D" stroke-width="4" stroke-linecap="round"/>
<path d="M326.513 153.17L323.513 166.17" stroke="#ED8F4D" stroke-width="4" stroke-linecap="round"/>
<path d="M313.013 166.342V153" stroke="#ED8F4D" stroke-width="4" stroke-linecap="round"/>
<path d="M216 289.17L219 302.17" stroke="#ED8F4D" stroke-width="4" stroke-linecap="round"/>
<path d="M242.513 289.17L239.513 302.17" stroke="#ED8F4D" stroke-width="4" stroke-linecap="round"/>
<path d="M229.013 302.342V289" stroke="#ED8F4D" stroke-width="4" stroke-linecap="round"/>
<path d="M406 267.17L409 280.17" stroke="#ED8F4D" stroke-width="4" stroke-linecap="round"/>
<path d="M432.513 267.17L429.513 280.17" stroke="#ED8F4D" stroke-width="4" stroke-linecap="round"/>
<path d="M419.013 280.342V267" stroke="#ED8F4D" stroke-width="4" stroke-linecap="round"/>
<path d="M247 49.1697L250 62.1697" stroke="#ED8F4D" stroke-width="4" stroke-linecap="round"/>
<path d="M273.513 49.1697L270.513 62.1697" stroke="#ED8F4D" stroke-width="4" stroke-linecap="round"/>
<path d="M260.013 62.3417V49" stroke="#ED8F4D" stroke-width="4" stroke-linecap="round"/>
<path d="M0 251.5C0 195.995 44.9954 151 100.5 151C156.005 151 201 195.995 201 251.5V350H0V251.5Z" fill="#ED8F4D"/>
<path d="M145.552 280.17L148.522 293.17" stroke="#FBCF73" stroke-width="4" stroke-linecap="round"/>
<path d="M171.803 280.17L168.833 293.17" stroke="#FBCF73" stroke-width="4" stroke-linecap="round"/>
<path d="M158.436 293.342V280" stroke="#FBCF73" stroke-width="4" stroke-linecap="round"/>
<path d="M20.7931 296.17L23.7635 309.17" stroke="#FBCF73" stroke-width="4" stroke-linecap="round"/>
<path d="M47.0447 296.17L44.0743 309.17" stroke="#FBCF73" stroke-width="4" stroke-linecap="round"/>
<path d="M33.6775 309.342V296" stroke="#FBCF73" stroke-width="4" stroke-linecap="round"/>
<path d="M39.6059 208.17L42.5763 221.17" stroke="#FBCF73" stroke-width="4" stroke-linecap="round"/>
<path d="M65.8575 208.17L62.8871 221.17" stroke="#FBCF73" stroke-width="4" stroke-linecap="round"/>
<path d="M52.4903 221.342V208" stroke="#FBCF73" stroke-width="4" stroke-linecap="round"/>
</g>
<defs>
<clipPath id="clip0_2256_1453">
<rect width="494" height="327" fill="white"/>
</clipPath>
</defs>
</svg>
