<svg width="524" height="503" viewBox="0 0 524 503" fill="none" xmlns="http://www.w3.org/2000/svg">
<path d="M253.681 273.701L221.551 259.205C220.019 258.492 218.269 258.628 216.847 259.341C215.57 259.714 214.476 260.529 213.893 261.751L164.914 362.883C163.82 365.158 164.914 367.874 167.358 368.892C169.801 369.911 172.719 368.892 173.813 366.618L220.858 269.457L249.195 282.256C251.711 283.41 254.811 282.392 256.051 280.049C257.291 277.707 256.197 274.821 253.681 273.667V273.701Z" fill="white"/>
<path d="M169.364 370.997C168.415 370.997 167.504 370.827 166.628 370.454C163.237 369.028 161.741 365.328 163.273 362.204L212.251 261.072C213.017 259.477 214.476 258.288 216.336 257.745C218.014 256.863 220.384 256.795 222.39 257.745L254.483 272.241C257.911 273.803 259.37 277.673 257.692 280.898C256.015 284.089 251.857 285.447 248.429 283.886L221.77 271.868L175.527 367.432C174.797 368.96 173.448 370.114 171.77 370.691C171.005 370.963 170.202 371.099 169.4 371.099L169.364 370.997ZM219.363 260.427C218.816 260.427 218.269 260.563 217.758 260.801C216.591 261.174 215.935 261.717 215.57 262.43L166.592 363.562C165.899 364.988 166.592 366.686 168.124 367.331C168.889 367.636 169.692 367.67 170.458 367.399C171.223 367.127 171.843 366.584 172.172 365.905L219.217 268.745C219.436 268.337 219.801 267.998 220.275 267.862C220.749 267.692 221.259 267.726 221.697 267.93L250.034 280.728C251.675 281.475 253.644 280.83 254.446 279.303C255.249 277.775 254.556 275.942 252.915 275.195L220.785 260.699C220.348 260.495 219.874 260.393 219.363 260.393V260.427Z" fill="#424376"/>
<path d="M242.156 387.598L31.1448 388.344L1.82346 365.395L183.842 364.513L242.156 387.598Z" fill="#FBCF73"/>
<path d="M31.1447 390.042C30.7071 390.042 30.3059 389.906 29.9777 389.635L0.656344 366.685C0.0728352 366.244 -0.145981 365.463 0.109304 364.818C0.36459 364.173 1.05751 363.698 1.82336 363.698L183.842 362.849C184.17 362.917 184.352 362.883 184.571 362.985L242.885 386.07C243.688 386.375 244.125 387.19 243.943 387.971C243.761 388.752 243.031 389.329 242.156 389.329L31.1447 390.076V390.042ZM6.78319 367.059L31.8011 386.647L233.294 385.934L183.477 366.21L6.78319 367.059Z" fill="#424376"/>
<path d="M187.16 365.973L205.978 364.038L196.168 379.111L203.973 395.168L185.519 391.162L171.515 403.01L169.91 385.459L153.499 376.734L170.931 369.877L174.761 352.631L187.16 365.973Z" fill="white"/>
<path d="M171.515 404.708C171.296 404.708 171.077 404.674 170.859 404.606C170.202 404.368 169.765 403.825 169.692 403.18L168.16 386.511L152.551 378.228C151.931 377.922 151.603 377.311 151.639 376.666C151.676 376.021 152.113 375.444 152.733 375.207L169.29 368.722L172.937 352.325C173.083 351.68 173.594 351.205 174.25 351.035C174.943 350.866 175.636 351.069 176.074 351.579L187.817 364.241L205.687 362.408C206.38 362.34 207.036 362.646 207.437 363.189C207.802 363.732 207.802 364.445 207.437 364.988L198.138 379.314L205.541 394.557C205.833 395.134 205.723 395.847 205.286 396.322C204.848 396.832 204.119 397.035 203.462 396.9L185.957 393.097L172.646 404.368C172.317 404.64 171.88 404.81 171.406 404.81L171.515 404.708ZM157.584 376.938L170.822 383.965C171.333 384.237 171.697 384.746 171.734 385.289L173.01 399.412L184.279 389.872C184.717 389.499 185.337 389.363 185.92 389.465L200.763 392.69L194.491 379.756C194.235 379.246 194.272 378.669 194.6 378.194L202.478 366.041L187.343 367.602C186.759 367.67 186.139 367.432 185.775 367.025L175.818 356.297L172.719 370.182C172.609 370.725 172.208 371.167 171.661 371.404L157.62 376.904L157.584 376.938Z" fill="#424376"/>
<path d="M130.195 349.27L146.971 341.055L143.762 358.436L157.329 370.725L138.583 373.271L130.195 389.091L121.808 373.271L103.099 370.725L116.629 358.436L113.456 341.055L130.195 349.27Z" fill="white"/>
<path d="M130.195 390.789C129.502 390.789 128.882 390.415 128.554 389.838L120.604 374.833L102.807 372.423C102.114 372.321 101.567 371.88 101.348 371.269C101.129 370.657 101.348 369.979 101.822 369.537L114.696 357.859L111.669 341.36C111.56 340.715 111.815 340.07 112.398 339.697C112.945 339.323 113.711 339.255 114.331 339.561L130.232 347.335L146.132 339.561C146.752 339.255 147.482 339.289 148.065 339.697C148.612 340.07 148.904 340.715 148.795 341.36L145.768 357.859L158.641 369.537C159.152 369.979 159.334 370.657 159.116 371.269C158.897 371.88 158.35 372.321 157.657 372.423L139.86 374.833L131.909 389.838C131.618 390.415 130.961 390.789 130.268 390.789H130.195ZM107.001 369.537L122.099 371.574C122.683 371.642 123.193 372.015 123.485 372.491L130.232 385.221L136.979 372.491C137.234 371.981 137.745 371.642 138.365 371.574L153.463 369.537L142.558 359.624C142.121 359.217 141.939 358.674 142.048 358.131L144.637 344.144L131.144 350.73C130.633 351.001 129.977 351.001 129.466 350.73L115.972 344.144L118.562 358.131C118.671 358.674 118.452 359.251 118.051 359.624L107.147 369.537H107.001Z" fill="#424376"/>
<path d="M94.8201 340.409L102.953 332.805L104.484 343.431L114.769 348.285L104.375 352.936L102.588 363.528L94.6378 355.754L83.2593 357.451L88.7297 348.014L83.4781 338.474L94.8201 340.409Z" fill="white"/>
<path d="M102.588 365.226C102.114 365.226 101.603 365.056 101.275 364.682L93.9814 357.553L83.5511 359.115C82.8582 359.217 82.1653 358.945 81.7641 358.402C81.363 357.859 81.3265 357.18 81.6547 356.603L86.6875 347.946L81.8736 339.187C81.5453 338.61 81.6183 337.931 82.0194 337.388C82.4206 336.879 83.1135 336.641 83.8064 336.743L94.2002 338.508L101.676 331.549C102.15 331.108 102.88 330.938 103.536 331.141C104.193 331.345 104.667 331.888 104.74 332.533L106.162 342.277L115.608 346.724C116.228 347.029 116.629 347.606 116.592 348.251C116.556 348.896 116.191 349.474 115.571 349.779L106.053 354.023L104.412 363.766C104.302 364.411 103.828 364.92 103.172 365.124C102.989 365.158 102.807 365.192 102.625 365.192L102.588 365.226ZM94.6378 354.057C95.1484 354.057 95.6225 354.26 95.9507 354.6L101.348 359.896L102.552 352.699C102.661 352.156 103.026 351.68 103.573 351.443L110.648 348.285L103.646 344.992C103.099 344.721 102.734 344.246 102.661 343.702L101.603 336.471L96.0601 341.632C95.6225 342.039 95.039 342.175 94.4555 342.107L86.7604 340.783L90.3344 347.267C90.6262 347.776 90.5897 348.353 90.3344 348.829L86.6146 355.245L94.3461 354.091C94.3461 354.091 94.5284 354.091 94.6378 354.091V354.057Z" fill="#424376"/>
<path d="M32.385 327.917L32.5674 320.889L38.4389 325.303L45.6963 323.266L42.9976 329.852L47.301 335.623L39.7518 335.284L35.1932 340.885L33.2238 334.095L26.0758 331.787L32.385 327.917Z" fill="white"/>
<path d="M35.1931 342.141C35.1931 342.141 35.0107 342.141 34.9378 342.141C34.4272 342.039 34.0261 341.7 33.8802 341.224L32.0932 335.08L25.6381 332.975C25.164 332.805 24.7993 332.398 24.7264 331.922C24.6535 331.447 24.9087 330.972 25.3464 330.7L31.0721 327.204L31.2179 320.855C31.2179 320.38 31.5462 319.939 32.0203 319.735C32.4944 319.531 33.0414 319.599 33.4426 319.905L38.7671 323.877L45.2951 322.043C45.8057 321.908 46.3162 322.043 46.6809 322.383C47.0456 322.722 47.155 323.232 46.9727 323.707L44.5657 329.648L48.4679 334.876C48.7597 335.283 48.7961 335.793 48.5409 336.234C48.2856 336.641 47.775 336.913 47.2644 336.879L40.4447 336.573L36.2872 341.632C36.0319 341.937 35.6307 342.141 35.1931 342.141ZM29.1392 331.447L33.6614 332.907C34.099 333.043 34.4272 333.382 34.5366 333.756L35.7766 338.033L38.6577 334.502C38.913 334.163 39.3871 333.993 39.8247 333.993L44.6022 334.197L41.867 330.531C41.6117 330.191 41.5387 329.75 41.7211 329.342L43.3987 325.167L38.84 326.457C38.4024 326.593 37.9283 326.491 37.6001 326.219L33.8802 323.435L33.7708 327.883C33.7708 328.29 33.5155 328.697 33.1508 328.901L29.1392 331.345V331.447Z" fill="#424376"/>
<path d="M43.9819 392.215L12.436 374.358C5.39742 370.386 3.17279 361.831 7.4397 355.279C11.7066 348.727 20.8969 346.656 27.9354 350.628L33.9894 354.057L37.9645 347.98C42.2314 341.428 51.4217 339.357 58.4603 343.329C65.4988 347.301 67.7235 355.856 63.4566 362.408L43.9819 392.215Z" fill="#ED8F4D"/>
<path d="M44.6019 394.557L11.4878 375.818C3.61041 371.336 1.09403 361.763 5.87151 354.396C10.649 347.063 21.0063 344.721 28.8836 349.168L33.3694 351.714L36.3963 347.063C41.1738 339.731 51.5311 337.388 59.4085 341.835C63.2377 344.008 65.9365 347.403 66.9941 351.443C68.0517 355.483 67.3588 359.658 65.0247 363.223L44.6019 394.489V394.557ZM20.2039 350.322C15.7912 350.322 11.4513 352.393 8.9714 356.162C5.21506 361.899 7.1844 369.401 13.3477 372.898L43.362 389.872L61.8884 361.491C63.7118 358.708 64.2589 355.449 63.4201 352.257C62.5813 349.1 60.5025 346.418 57.5121 344.721C54.5216 343.023 51.0205 342.514 47.5924 343.295C44.2008 344.076 41.3197 346.011 39.4962 348.795L34.5729 356.331L26.9508 352.02C24.8355 350.832 22.5015 350.254 20.1675 350.254L20.2039 350.322Z" fill="#424376"/>
<path d="M75.4916 366.04L93.5439 371.268L78.1174 381.419L78.3362 399.072L63.165 388.514L45.2221 394.184L51.3125 377.481L40.007 363.358L58.9345 363.596L69.8753 349.202L75.4916 366.04Z" fill="white"/>
<path d="M78.3362 400.77C77.935 400.77 77.5703 400.668 77.2421 400.43L62.8367 390.415L45.8055 395.779C45.1491 395.983 44.4197 395.847 43.9456 395.372C43.4715 394.897 43.2892 394.251 43.508 393.64L49.2701 377.787L38.5117 364.377C38.1105 363.868 38.0376 363.155 38.3658 362.578C38.6576 362.001 39.314 361.661 40.0069 361.661L57.9863 361.865L68.38 348.184C68.7812 347.64 69.4741 347.403 70.167 347.471C70.86 347.573 71.407 348.014 71.6258 348.659L76.9503 364.649L94.1274 369.605C94.7838 369.809 95.2944 370.318 95.4038 370.963C95.5132 371.608 95.2215 372.253 94.6379 372.626L79.9408 382.302L80.1596 399.038C80.1596 399.683 79.7949 400.294 79.175 400.566C78.9197 400.702 78.6279 400.736 78.3362 400.736V400.77ZM63.1649 386.817C63.5661 386.817 63.9308 386.919 64.259 387.156L76.4762 395.643L76.2939 381.453C76.2939 380.876 76.5856 380.367 77.0597 380.027L89.4958 371.846L74.9445 367.636C74.361 367.466 73.9234 367.059 73.741 366.516L69.2188 352.97L60.4297 364.547C60.1015 364.988 59.518 365.26 58.9345 365.26L43.6903 365.09L52.8076 376.463C53.1723 376.904 53.2818 377.481 53.0629 378.024L48.1761 391.468L62.6179 386.919C62.8002 386.851 63.0191 386.817 63.2014 386.817H63.1649Z" fill="#424376"/>
<path d="M102.515 410.547L78.8467 388.514C73.5587 383.592 73.5587 375.648 78.8467 370.725C84.1348 365.803 92.6686 365.803 97.9566 370.725L102.515 374.969L107.402 370.42C112.69 365.497 121.224 365.497 126.512 370.42C131.8 375.342 131.8 383.286 126.512 388.209L102.479 410.581L102.515 410.547Z" fill="#ED8F4D"/>
<path d="M102.515 412.957L77.5702 389.736C71.5892 384.169 71.5892 375.105 77.5702 369.537C83.5511 363.97 93.2884 363.97 99.2694 369.537L102.515 372.558L106.126 369.198C112.107 363.63 121.844 363.63 127.825 369.198C133.806 374.765 133.806 383.829 127.825 389.397L102.515 412.957ZM88.4015 368.756C85.4111 368.756 82.4206 369.809 80.123 371.947C75.5643 376.191 75.5643 383.082 80.123 387.326L102.479 408.136L125.199 386.986C129.758 382.743 129.758 375.851 125.199 371.608C120.64 367.364 113.237 367.364 108.678 371.608L102.479 377.379L96.6436 371.947C94.3825 369.843 91.3556 368.756 88.3651 368.756H88.4015Z" fill="#424376"/>
<path d="M78.0078 331.719L58.825 323.435C54.5581 321.602 52.6981 316.849 54.6675 312.877C56.6368 308.905 61.7425 307.174 66.0094 309.007L69.6928 310.603L71.5528 306.902C73.5221 302.93 78.6278 301.199 82.8947 303.032C87.1616 304.866 89.0216 309.618 87.0522 313.59L78.0078 331.719Z" fill="#ED8F4D"/>
<path d="M78.8833 333.959L58.0593 324.963C55.5429 323.877 53.6465 321.942 52.6983 319.531C51.7501 317.121 51.8595 314.473 53.0265 312.164C54.1935 309.822 56.2723 308.057 58.8616 307.174C61.4509 306.291 64.2955 306.393 66.7754 307.48L68.8177 308.362L69.8753 306.19C72.2823 301.369 78.4456 299.264 83.6607 301.505C88.8394 303.745 91.1005 309.482 88.6935 314.303L78.8833 333.993V333.959ZM62.4356 309.958C59.8827 309.958 57.4758 311.316 56.3452 313.59C54.777 316.713 56.2358 320.448 59.6275 321.908L77.1692 329.478L85.4113 312.877C86.9794 309.754 85.5207 306.02 82.129 304.56C78.7374 303.1 74.7622 304.492 73.194 307.615L70.5683 312.843L65.2437 310.535C64.332 310.128 63.3838 309.958 62.4356 309.958Z" fill="#424376"/>
<path d="M156.089 395.881L145.476 378.839C143.105 375.037 144.491 370.182 148.576 367.976C152.66 365.769 157.876 367.059 160.246 370.861L162.288 374.12L166.081 372.083C170.166 369.877 175.381 371.167 177.751 374.969C180.122 378.771 178.736 383.626 174.651 385.832L156.089 395.847V395.881Z" fill="#ED8F4D"/>
<path d="M155.432 398.224L143.908 379.722C142.522 377.481 142.157 374.901 142.85 372.389C143.579 369.911 145.294 367.806 147.664 366.516C152.624 363.868 158.97 365.429 161.851 370.012L162.981 371.812L165.206 370.624C170.166 367.942 176.511 369.537 179.356 374.12C180.742 376.361 181.106 378.941 180.413 381.453C179.684 383.931 178.007 386.036 175.6 387.326L155.432 398.19V398.224ZM152.879 368.621C151.749 368.621 150.582 368.892 149.524 369.469C147.956 370.318 146.862 371.642 146.388 373.272C145.914 374.901 146.169 376.564 147.081 378.024L156.781 393.607L173.776 384.441C175.344 383.592 176.438 382.268 176.912 380.638C177.387 379.009 177.131 377.345 176.22 375.886C174.36 372.898 170.239 371.88 167.029 373.611L161.668 376.497L158.714 371.744C157.474 369.741 155.213 368.621 152.879 368.621Z" fill="#424376"/>
<path d="M193.835 351.544L183.988 338.271C181.8 335.317 182.602 331.243 185.775 329.206C188.948 327.17 193.324 327.916 195.512 330.87L197.409 333.416L200.363 331.515C203.535 329.478 207.912 330.225 210.1 333.178C212.288 336.132 211.486 340.206 208.313 342.243L193.871 351.544H193.835Z" fill="#ED8F4D"/>
<path d="M193.36 353.887L182.492 339.221C179.721 335.487 180.742 330.361 184.717 327.815C188.729 325.235 194.236 326.185 196.971 329.886L197.81 331.04L199.268 330.123C201.201 328.867 203.535 328.392 205.869 328.799C208.167 329.207 210.209 330.395 211.522 332.194C212.871 333.993 213.382 336.166 212.944 338.339C212.507 340.511 211.23 342.379 209.297 343.601L193.324 353.853L193.36 353.887ZM189.75 329.75C188.729 329.75 187.708 330.021 186.832 330.598C184.498 332.092 183.915 335.114 185.519 337.286L194.309 349.134L207.255 340.783C208.386 340.036 209.152 338.95 209.407 337.694C209.662 336.438 209.37 335.148 208.568 334.095C207.766 333.043 206.599 332.33 205.249 332.092C203.9 331.855 202.514 332.126 201.384 332.873L196.934 335.725L194.017 331.787C193.032 330.429 191.391 329.716 189.75 329.716V329.75Z" fill="#424376"/>
<path d="M29.7593 479.903C22.2466 479.903 16.1562 474.234 16.1562 467.24C16.1562 460.247 22.2466 454.578 29.7593 454.578C37.272 454.578 43.3623 460.247 43.3623 467.24C43.3623 474.234 37.272 479.903 29.7593 479.903Z" fill="white"/>
<path d="M29.7591 459.636C34.2448 459.636 37.8917 463.031 37.8917 467.206C37.8917 471.382 34.2448 474.777 29.7591 474.777C25.2734 474.777 21.6264 471.382 21.6264 467.206C21.6264 463.031 25.2734 459.636 29.7591 459.636ZM29.7591 449.451C19.2195 449.451 10.6856 457.395 10.6856 467.206C10.6856 477.018 19.2195 484.961 29.7591 484.961C40.2987 484.961 48.8325 477.018 48.8325 467.206C48.8325 457.395 40.2987 449.451 29.7591 449.451Z" fill="#424376"/>
<path d="M242.047 387.903H31.1447V477.629H242.047V387.903Z" fill="#FBCF73"/>
<path d="M242.047 479.326H31.1448C30.1236 479.326 29.3213 478.579 29.3213 477.629V387.937C29.3213 386.987 30.1236 386.24 31.1448 386.24H242.047C243.068 386.24 243.87 386.987 243.87 387.937V477.629C243.87 478.579 243.068 479.326 242.047 479.326ZM32.9683 475.931H240.223V389.635H32.9683V475.931Z" fill="#424376"/>
<path d="M30.233 477.493L1.82344 453.627V365.395L30.233 387.122V477.493Z" fill="#FBCF73"/>
<path d="M30.2331 479.19C29.7955 479.19 29.3578 479.054 29.0296 478.749L0.620024 454.883C0.218862 454.578 4.57764e-05 454.102 4.57764e-05 453.627V365.395C4.57764e-05 364.75 0.401208 364.139 1.05766 363.868C1.7141 363.596 2.44349 363.664 2.99053 364.105L31.4001 385.832C31.8378 386.138 32.0566 386.647 32.0566 387.156V477.527C32.0566 478.206 31.6189 478.817 30.9625 479.088C30.7072 479.19 30.4884 479.224 30.2331 479.224V479.19ZM3.64698 452.846L28.4096 473.657V387.903L3.64698 368.96V452.846Z" fill="#424376"/>
<path d="M252.003 262.226C252.003 262.226 231.836 288.231 247.955 296.311C264.074 304.39 275.891 300.079 282.419 288.502C288.947 276.926 279.61 275.806 279.61 275.806L252.003 262.226Z" fill="#FDEBDB"/>
<path d="M263.308 302.184C258.312 302.184 252.878 300.724 247.116 297.804C243.506 295.971 241.208 293.221 240.333 289.623C237.525 278.182 250.034 261.921 250.544 261.208L251.456 260.02L280.23 274.176C281.251 274.38 284.169 275.195 285.664 277.877C287.232 280.694 286.685 284.53 284.023 289.283C280.522 295.462 275.599 299.604 269.727 301.267C267.685 301.844 265.533 302.15 263.308 302.15V302.184ZM252.586 264.433C249.851 268.303 241.792 280.559 243.87 288.876C244.527 291.524 246.168 293.459 248.83 294.817C256.306 298.585 262.98 299.637 268.669 298.042C273.666 296.616 277.75 293.153 280.814 287.722C282.856 284.089 283.44 281.204 282.455 279.438C281.543 277.775 279.428 277.469 279.391 277.469L278.771 277.299L252.586 264.433Z" fill="#424376"/>
<path d="M470.089 248.579C470.089 248.579 486.683 247.017 487.923 252.178C489.163 257.338 483.145 261.31 483.145 261.31C483.145 261.31 493.503 266.3 490.403 273.192C487.303 280.083 480.045 287.654 474.867 287.823C469.688 287.993 449.995 277.333 450.177 274.923C450.359 272.513 470.089 248.613 470.089 248.613V248.579Z" fill="#FDEBDB"/>
<path d="M474.757 289.521C469.433 289.521 453.569 281.17 449.667 277.367C449.01 276.722 448.244 275.84 448.354 274.787C448.573 272.377 459.477 258.662 468.631 247.561L469.105 246.984L469.871 246.916C472.898 246.61 488.142 245.524 489.673 251.838C490.658 255.878 488.105 259.205 486.172 261.072C489.418 263.177 494.816 267.794 492.08 273.837C488.725 281.237 481.03 289.283 474.903 289.487H474.757V289.521ZM452.11 274.855C454.371 277.469 470.345 286.296 474.794 286.126C478.769 285.99 485.698 279.268 488.725 272.547C491.132 267.217 482.38 262.871 482.307 262.837L479.681 261.547L482.088 259.952C482.088 259.952 487.084 256.557 486.136 252.585C485.625 250.48 477.93 249.699 471.038 250.209C462.467 260.631 453.496 272.139 452.11 274.855Z" fill="#424376"/>
<path d="M310.917 415.68L288.931 411.909L281.338 450.27L303.324 454.041L310.917 415.68Z" fill="#FDEBDB"/>
<path d="M304.701 456.038L279.136 451.658L287.378 409.97L312.943 414.349L304.701 456.038ZM283.403 448.908L301.784 452.066L308.713 417.031L290.332 413.874L283.403 448.908Z" fill="#424376"/>
<path d="M458.375 370.306L445.043 387.01L478.68 410.273L492.012 393.568L458.375 370.306Z" fill="#FDEBDB"/>
<path d="M479.061 412.685L442.482 387.394L457.982 367.975L494.524 393.267L479.024 412.685H479.061ZM447.588 386.715L478.295 407.967L489.455 393.98L458.748 372.728L447.588 386.715Z" fill="#424376"/>
<path d="M293.25 284.327C293.25 284.327 257.875 393.097 256.452 415.639C256.452 415.639 306.744 426.027 317.429 426.468L350.033 352.801C350.033 352.801 405.904 404.809 433.839 415.198L467.354 370.556C467.354 370.556 396.604 304.254 394.27 299.468C391.936 294.681 293.25 284.293 293.25 284.293V284.327Z" fill="#424376"/>
<path d="M317.465 428.2H317.392C306.634 427.759 258.13 417.744 256.088 417.336C255.212 417.167 254.592 416.42 254.665 415.571C256.051 393.097 290.077 288.299 291.536 283.852C291.791 283.071 292.593 282.561 293.505 282.663C330.74 286.601 393.577 293.9 395.984 298.823C397.917 302.421 440.513 342.99 468.704 369.401C469.324 369.978 469.397 370.895 468.922 371.574L435.407 416.216C434.933 416.861 434.021 417.099 433.219 416.827C407.873 407.39 361.01 365.226 350.762 355.822L319.216 427.147C318.924 427.793 318.268 428.2 317.538 428.2H317.465ZM258.422 414.315C266.627 415.979 304.956 423.753 316.298 424.703L348.391 352.156C348.61 351.646 349.121 351.239 349.704 351.137C350.288 351.035 350.908 351.205 351.345 351.612C351.892 352.122 405.502 401.856 433.219 413.127L465.02 370.759C454.189 360.609 396.567 306.427 392.775 300.418C388.07 297.125 330.85 290.03 294.599 286.16C290.624 298.483 260.938 390.891 258.458 414.281L258.422 414.315Z" fill="#424376"/>
<path d="M464.583 237.682C464.583 237.682 478.842 247.221 479.79 248.647C480.739 250.073 467.683 278.997 458.055 281.882L444.707 273.226L464.583 237.682Z" fill="#FBCF73"/>
<path d="M458.091 283.58C457.726 283.58 457.361 283.478 457.033 283.274L443.685 274.618C442.92 274.142 442.701 273.192 443.102 272.445L462.978 236.901C463.233 236.46 463.671 236.154 464.181 236.018C464.692 235.916 465.239 236.018 465.676 236.29C471.11 239.922 480.41 246.271 481.395 247.764C481.869 248.477 482.051 249.326 480.228 253.773C477.456 260.631 467.573 280.796 458.638 283.478C458.456 283.546 458.273 283.546 458.091 283.546V283.58ZM447.077 272.683L458.31 279.981C466.187 276.315 477.091 253.468 477.967 249.292C476.544 248.036 470.855 244.03 465.239 240.228L447.077 272.683Z" fill="#424376"/>
<path d="M388.398 165.609L465.677 232.793C465.677 232.793 470.782 234.525 467.537 246.237C464.291 257.949 449.849 280.898 434.495 277.435C419.142 273.973 399.12 241.45 399.12 241.45L388.398 165.609Z" fill="#FBCF73"/>
<path d="M437.559 279.438C436.392 279.438 435.225 279.302 434.058 279.031C418.121 275.432 398.354 243.623 397.515 242.265C397.406 242.061 397.333 241.857 397.297 241.654L386.575 165.813C386.465 165.1 386.866 164.421 387.559 164.082C388.252 163.742 389.091 163.844 389.638 164.353L466.734 231.367C468.229 232.114 472.496 235.305 469.323 246.644C465.895 258.933 452.438 279.472 437.595 279.472L437.559 279.438ZM400.871 240.873C402.876 244.064 421.22 272.649 434.933 275.738C448.609 278.827 462.504 257.542 465.786 245.761C468.485 236.052 465.02 234.321 464.984 234.321C464.765 234.253 464.619 234.151 464.437 233.981L390.878 170.023L400.871 240.839V240.873Z" fill="#424376"/>
<path d="M380.302 136.991H353.315V162.554H380.302V136.991Z" fill="#F8C29A"/>
<path d="M382.162 164.251H351.528V135.294H382.162V164.251ZM355.138 160.857H378.479V138.688H355.138V160.857Z" fill="#424376"/>
<path d="M300.945 83.8956C300.945 83.8956 293.031 112.412 299.231 134.241L345.364 142.558C350.908 143.543 354.591 137.33 350.689 133.528C335.044 118.285 310.5 93.7746 309.989 89.3613C309.223 82.8772 300.981 83.9296 300.981 83.9296L300.945 83.8956Z" fill="#798DAE"/>
<path d="M346.531 144.358C346.021 144.358 345.51 144.324 345 144.222L297.736 135.701L297.444 134.682C291.171 112.684 298.83 84.6765 299.158 83.4883L299.45 82.368L300.653 82.2322C300.835 82.2322 305.54 81.6212 308.786 83.9975C310.463 85.2197 311.448 86.951 311.703 89.1577C311.813 89.9385 314.366 95.7776 351.892 132.34C354.226 134.615 354.701 137.874 353.059 140.623C351.674 142.966 349.194 144.324 346.422 144.324L346.531 144.358ZM300.726 132.781L345.729 140.895C347.844 141.268 349.303 140.182 349.996 139.028C350.652 137.874 350.871 136.142 349.376 134.716C308.859 95.2344 308.348 90.957 308.166 89.5311C308.02 88.275 307.509 87.3245 306.634 86.6795C305.358 85.7629 303.607 85.5592 302.404 85.5252C301.054 91.0248 295.876 114.279 300.726 132.747V132.781Z" fill="#424376"/>
<path d="M322.091 75.2429C327.8 67.5428 325.171 56.6387 316.219 50.8881C307.267 45.1375 295.383 46.7179 289.674 54.4181C283.966 62.1183 286.595 73.0224 295.546 78.773C304.498 84.5236 316.383 82.9431 322.091 75.2429Z" fill="#FDEBDB"/>
<path d="M307.327 83.9298C302.987 83.9298 298.501 82.7076 294.562 80.1615C289.858 77.1401 286.576 72.6929 285.372 67.7024C284.132 62.6441 285.153 57.5858 288.217 53.4441C291.28 49.3364 295.985 46.6545 301.528 45.9416C306.998 45.2286 312.615 46.4847 317.319 49.5061C327.093 55.7866 329.938 67.7703 323.665 76.2235C319.945 81.2478 313.782 83.9298 307.363 83.9298H307.327ZM304.518 49.1327C303.68 49.1327 302.841 49.2006 302.002 49.3024C297.48 49.8796 293.651 52.0523 291.207 55.3792C288.727 58.7061 287.925 62.8139 288.946 66.9556C289.967 71.1312 292.702 74.8316 296.641 77.3777C304.774 82.5718 315.532 81.2139 320.638 74.2884C325.744 67.363 323.337 57.5179 315.204 52.2899C311.958 50.219 308.238 49.1327 304.518 49.1327Z" fill="#424376"/>
<path d="M316.902 69.5325C318.602 65.2603 315.908 60.3923 310.884 58.6596C305.86 56.9269 300.409 58.9855 298.709 63.2578C297.008 67.53 299.703 72.398 304.726 74.1307C309.75 75.8634 315.202 73.8047 316.902 69.5325Z" fill="#F8C29A"/>
<path d="M381.396 144.358C422.202 144.358 455.283 113.564 455.283 75.5783C455.283 37.5925 422.202 6.79895 381.396 6.79895C340.589 6.79895 307.509 37.5925 307.509 75.5783C307.509 113.564 340.589 144.358 381.396 144.358Z" fill="#FDEBDB"/>
<path d="M381.396 146.904C339.165 146.904 304.774 114.925 304.774 75.6123C304.774 36.3001 339.165 4.28683 381.396 4.28683C423.627 4.28683 457.982 36.2662 457.982 75.6123C457.982 114.958 423.627 146.904 381.396 146.904ZM381.396 9.37909C342.155 9.37909 310.244 39.0839 310.244 75.6123C310.244 112.141 342.155 141.812 381.396 141.812C420.637 141.812 452.511 112.107 452.511 75.6123C452.511 39.1178 420.637 9.37909 381.396 9.37909Z" fill="#424376"/>
<path d="M346.641 66.0396C345.766 66.0396 345 65.4624 344.854 64.6135C344.708 63.6968 345.364 62.814 346.386 62.6781L352.221 61.7953C353.169 61.6595 354.154 62.2707 354.299 63.2214C354.445 64.1382 353.789 65.021 352.768 65.1568L346.933 66.0396C346.933 66.0396 346.75 66.0396 346.641 66.0396Z" fill="#424376"/>
<path d="M389.346 75.3068C388.945 75.3068 388.544 75.171 388.216 74.9333L383.584 71.5385C382.782 70.9614 382.673 69.909 383.292 69.1621C383.912 68.4152 385.08 68.3134 385.845 68.8905L390.477 72.2854C391.279 72.8625 391.389 73.9149 390.769 74.6617C390.404 75.1031 389.857 75.3068 389.346 75.3068Z" fill="#424376"/>
<path d="M309.734 47.2654C309.734 47.2654 335.809 50.151 341.389 51.8823C341.389 51.8823 347.917 36.2661 353.169 33.3805L351.929 53.3082C351.929 53.3082 390.112 60.2336 403.131 66.582C416.151 72.9303 421.767 77.8528 421.767 77.8528L445.035 77.5473L459.002 68.3133C459.002 68.3133 459.951 19.4956 401.6 5.03362C343.249 -9.42838 313.125 31.3096 309.734 47.2314V47.2654Z" fill="#424376"/>
<path d="M421.767 79.6182C421.293 79.6182 420.856 79.4485 420.527 79.1429C420.491 79.109 414.911 74.2883 402.293 68.1437C389.638 61.9651 351.965 55.0736 351.564 55.0057C350.652 54.8359 350.032 54.089 350.105 53.2403L351.053 37.8617C348.099 41.7658 344.854 48.2499 343.067 52.5274C342.702 53.3761 341.717 53.8175 340.805 53.5119C335.445 51.8485 309.77 48.9968 309.515 48.9628C309.004 48.895 308.567 48.6573 308.238 48.2839C307.947 47.9104 307.837 47.4352 307.91 46.9599C309.734 38.4049 319.398 21.6684 338.508 10.6012C356.597 0.111175 378.551 -2.33311 402.037 3.47206C461.081 18.1038 460.826 67.906 460.826 68.4153C460.826 68.9584 460.534 69.4677 460.06 69.7732L446.092 79.0071C445.801 79.2108 445.436 79.3127 445.071 79.3127L421.804 79.5843L421.767 79.6182ZM353.825 51.9842C361.228 53.3761 392.191 59.4189 403.97 65.1562C414.911 70.4861 420.673 74.8315 422.424 76.2234L444.415 75.9518L457.143 67.5326C456.997 60.9127 453.824 19.8352 401.089 6.76505C378.624 1.19752 357.618 3.50601 340.404 13.4868C323.738 23.1621 314.511 37.658 311.958 45.8396C317.72 46.4846 333.767 48.4197 340.258 49.8795C342.082 45.7378 347.37 34.6366 352.22 31.9547C352.804 31.6492 353.533 31.6492 354.08 31.9547C354.627 32.2603 354.992 32.8713 354.956 33.5163L353.825 51.9842Z" fill="#424376"/>
<path d="M457.836 58.9776C457.836 58.9776 464.583 110.851 496.238 121.816C496.238 121.816 491.278 132.781 483.218 133.087C475.159 133.392 455.611 116.316 454.991 108.237C454.991 108.237 459.951 145.512 454.371 153.897C448.791 162.282 418.048 162.554 418.048 162.554C418.048 162.554 418.376 150.129 417.099 147.82C417.099 147.82 411.52 162.86 410.28 163.437C409.04 164.014 385.772 164.319 385.772 164.319L376.144 160.857V144.086C376.144 144.086 393.54 146.123 404.992 138.892C416.479 131.661 419.251 115.502 419.251 115.502L427.639 68.6869L457.836 59.0116V58.9776Z" fill="#424376"/>
<path d="M385.772 165.983C385.553 165.983 385.335 165.949 385.116 165.881L375.488 162.418C374.795 162.147 374.321 161.536 374.321 160.823V144.052C374.321 143.577 374.54 143.102 374.941 142.762C375.342 142.457 375.853 142.287 376.363 142.355C376.546 142.355 393.212 144.188 403.97 137.432C414.692 130.71 417.428 115.332 417.464 115.162L425.852 68.3473C425.961 67.7363 426.436 67.227 427.056 67.0233L457.252 57.3481C457.799 57.1783 458.346 57.2462 458.82 57.5178C459.294 57.7894 459.586 58.2307 459.659 58.7399C459.732 59.2492 466.661 109.696 496.894 120.186C497.368 120.356 497.733 120.696 497.915 121.103C498.098 121.51 498.098 122.02 497.915 122.427C497.697 122.902 492.409 134.411 483.255 134.716C476.544 135.022 464.51 125.958 457.836 117.538C458.966 129.454 459.987 148.567 455.866 154.712C449.922 163.64 421.257 164.15 418.011 164.184C417.537 164.184 417.027 164.014 416.698 163.674C416.334 163.335 416.151 162.894 416.188 162.452C416.261 160.076 416.224 157.496 416.188 155.187C412.577 164.184 411.666 164.625 411.082 164.896C410.644 165.1 409.477 165.643 385.772 165.949V165.983ZM377.968 159.668L386.101 162.588C395.874 162.452 406.742 162.181 409.295 161.875C410.353 160.144 413.197 153.218 415.422 147.243C415.677 146.598 416.297 146.157 417.027 146.123C417.756 146.089 418.449 146.463 418.777 147.074C419.908 149.178 419.981 156.749 419.944 160.823C429.317 160.551 448.974 158.786 452.839 152.981C457.07 146.632 454.663 119.711 453.277 109.051C453.241 108.814 453.204 108.576 453.204 108.338C453.131 107.422 453.861 106.607 454.845 106.539C455.793 106.505 456.705 107.116 456.815 108.033C456.815 108.203 456.851 108.406 456.887 108.644C458.273 115.909 476.253 131.661 483.182 131.389C488.324 131.22 492.19 125.516 493.794 122.699C466.26 111.53 457.982 71.0293 456.377 61.2521L429.317 69.9429L421.111 115.739C421.002 116.418 418.048 132.713 406.049 140.284C396.385 146.361 383.037 146.259 377.968 145.919V159.668Z" fill="#424376"/>
<path d="M447.516 115.484C456.468 109.734 459.097 98.8295 453.388 91.1293C447.68 83.4291 435.795 81.8487 426.843 87.5993C417.892 93.3499 415.263 104.254 420.971 111.954C426.68 119.654 438.564 121.235 447.516 115.484Z" fill="#FDEBDB"/>
<path d="M435.809 120.628C429.39 120.628 423.227 117.946 419.507 112.921C416.443 108.814 415.459 103.755 416.662 98.6971C417.866 93.6727 421.148 89.2594 425.852 86.238C430.557 83.2166 436.173 81.9605 441.644 82.6735C447.151 83.3864 451.892 86.0683 454.955 90.176C461.228 98.6292 458.383 110.613 448.609 116.893C444.671 119.44 440.185 120.662 435.845 120.662L435.809 120.628ZM438.617 85.8307C434.86 85.8307 431.14 86.917 427.931 88.9879C423.993 91.534 421.257 95.2343 420.236 99.41C419.252 103.552 420.054 107.659 422.497 110.986C427.639 117.912 438.398 119.27 446.494 114.076C454.59 108.848 457.034 99.0026 451.928 92.0772C449.448 88.7502 445.619 86.5775 441.133 86.0004C440.294 85.8985 439.455 85.8307 438.617 85.8307Z" fill="#424376"/>
<path d="M438.356 110.835C443.38 109.103 446.074 104.235 444.374 99.9623C442.673 95.6901 437.222 93.6314 432.198 95.3641C427.174 97.0968 424.48 101.965 426.181 106.237C427.881 110.509 433.332 112.568 438.356 110.835Z" fill="#F8C29A"/>
<path d="M417.1 122.461C417.1 122.461 413.598 157.36 408.712 162.113C403.825 166.865 376.108 160.823 376.108 160.823L377.056 144.561C377.056 144.561 405.466 146.496 412.906 123.547C420.345 100.564 417.1 122.461 417.1 122.461Z" fill="#798DAE"/>
<path d="M399.886 165.643C390.769 165.643 378.916 163.199 375.707 162.486L374.212 162.147L375.342 142.762L377.202 142.898C378.296 142.966 404.226 144.459 411.155 123.072C414.802 111.869 415.786 110.986 417.792 111.428C419.178 111.699 420.491 111.971 418.923 122.699C418.303 128.707 415.094 158.378 410.061 163.335C408.274 165.066 404.445 165.677 399.922 165.677L399.886 165.643ZM378.041 159.499C389.091 161.773 404.663 163.64 407.399 160.958C410.644 157.801 413.963 135.565 415.276 122.325V122.257C415.276 122.257 415.276 122.088 415.312 122.02C415.094 122.665 414.875 123.344 414.619 124.057C407.982 144.527 385.408 146.259 378.77 146.327L378.004 159.533L378.041 159.499Z" fill="#424376"/>
<path d="M362.651 156.477C362.651 156.477 385.007 158.209 395.255 172.501C405.503 186.793 422.716 254.418 416.662 278.25C410.608 302.082 397.589 309.449 397.589 309.449C397.589 309.449 292.375 299.468 291.427 294.274C290.478 289.08 279.319 277.367 284.899 258.73C290.478 240.092 329.61 166.424 329.61 166.424L362.651 156.443V156.477Z" fill="#FBCF73"/>
<path d="M397.99 311.214L397.37 311.146C397.114 311.146 370.747 308.6 344.599 305.511C290.405 299.06 289.931 296.48 289.603 294.579C289.421 293.493 288.545 291.795 287.524 289.826C284.242 283.478 278.771 272.852 283.111 258.288C288.691 239.719 326.327 168.699 327.932 165.677L328.26 165.032L362.396 154.746H362.76C363.708 154.848 386.101 156.749 396.713 171.55C407.727 186.963 424.43 254.86 418.376 278.623C412.213 302.863 399.011 310.569 398.464 310.874L397.953 311.18L397.99 311.214ZM293.104 293.629C298.684 297.227 359.223 304.153 397.041 307.751C399.375 306.156 409.696 298.11 414.838 277.911C420.564 255.335 404.153 188.117 393.686 173.485C384.751 160.992 365.641 158.514 362.797 158.243L330.85 167.884C326.984 175.183 291.827 241.891 286.612 259.273C282.637 272.581 287.524 282.12 290.77 288.401C291.864 290.505 292.739 292.203 293.067 293.663L293.104 293.629Z" fill="#424376"/>
<path d="M325.853 162.554C325.853 162.554 255.541 218.467 254.629 233.201C253.681 247.934 257.875 251.838 257.875 251.838C257.875 251.838 281.033 271.325 292.776 270.035C296.496 269.627 340.733 198.539 344.927 185.944" fill="#FBCF73"/>
<path d="M291.682 271.8C279.027 271.8 257.583 253.875 256.635 253.094C256.088 252.585 251.821 248.172 252.769 233.099C253.717 218.094 317.392 167.035 324.65 161.264C325.416 160.653 326.583 160.755 327.239 161.434C327.896 162.147 327.823 163.233 327.057 163.844C307.655 179.257 257.182 221.794 256.452 233.302C255.613 246.78 259.187 250.616 259.224 250.684C265.314 255.81 283.075 268.948 292.265 268.405C297.444 264.161 338.909 198.471 343.213 185.469C343.505 184.586 344.526 184.043 345.51 184.349C346.459 184.62 347.006 185.571 346.714 186.488C343.65 195.688 299.158 271.053 293.031 271.732C292.593 271.766 292.156 271.8 291.718 271.8H291.682Z" fill="#424376"/>
<path d="M283.622 133.325C283.622 133.325 294.891 117.505 316.298 126.365C337.706 135.226 366.699 149.111 371.622 154.237C376.546 159.363 372.972 168.359 364.401 168.529C355.831 168.699 297.48 173.248 294.709 171.856C291.937 170.464 273.301 162.147 283.622 133.325Z" fill="#FBCF73"/>
<path d="M298.902 173.791C295.912 173.791 294.453 173.621 293.87 173.316C285.336 169.072 272.754 158.378 281.908 132.781L282.126 132.374C282.236 132.204 294.526 115.468 317.064 124.803C337.086 133.087 367.647 147.515 373.008 153.082C375.78 155.968 376.473 160.246 374.722 163.946C372.935 167.782 369.106 170.124 364.438 170.226C361.63 170.294 353.132 170.837 343.249 171.482C317.939 173.112 305.102 173.825 298.866 173.825L298.902 173.791ZM285.299 134.105C279.245 151.215 282.819 164.048 295.365 170.226C298.209 170.973 326.291 169.14 343.03 168.088C353.351 167.409 361.484 166.899 364.401 166.831C367.574 166.764 370.163 165.202 371.403 162.588C372.57 160.076 372.169 157.292 370.309 155.357C365.787 150.638 337.852 137.127 315.605 127.927C296.897 120.186 286.649 132.408 285.336 134.105H285.299Z" fill="#424376"/>
<path d="M257.874 248.24C257.874 248.24 250.836 259.239 251.346 260.869C251.857 262.498 285.117 278.861 285.117 278.861L294.198 268.473C294.198 268.473 263.564 252.585 257.874 248.24Z" fill="#FBCF73"/>
<path d="M285.117 280.559C284.825 280.559 284.533 280.491 284.278 280.355C250.362 263.686 249.851 262.159 249.596 261.344C249.377 260.699 248.866 259.001 256.306 247.357C256.598 246.95 257.036 246.644 257.546 246.542C258.057 246.44 258.604 246.576 259.005 246.916C264.512 251.125 294.745 266.809 295.073 266.979C295.547 267.217 295.875 267.658 295.985 268.133C296.094 268.643 295.985 269.152 295.62 269.525L286.539 279.914C286.175 280.321 285.664 280.525 285.117 280.525V280.559ZM253.243 260.223C256.16 262.328 270.93 269.933 284.643 276.688L291.426 268.948C285.19 265.689 265.606 255.369 258.421 250.718C256.051 254.52 253.753 258.662 253.243 260.223Z" fill="#424376"/>
<path d="M377.056 144.935C377.056 144.935 388.216 145.512 391.644 154.169C395.072 162.826 380.776 166.017 380.776 166.017C380.776 166.017 368.048 169.48 377.056 144.935Z" fill="#FBCF73"/>
<path d="M379.354 167.918C377.822 167.918 375.889 167.51 374.394 166.051C370.929 162.69 371.258 155.595 375.342 144.426C375.597 143.713 376.254 143.203 377.166 143.271C377.676 143.271 389.565 144.018 393.358 153.626C394.343 156.104 394.197 158.446 392.957 160.551C390.003 165.677 381.542 167.612 381.177 167.68C380.703 167.816 380.047 167.918 379.317 167.918H379.354ZM378.333 146.802C374.066 158.989 375.999 162.656 377.02 163.674C378.26 164.896 380.265 164.387 380.265 164.387C382.344 163.912 387.96 162.045 389.747 158.922C390.477 157.665 390.513 156.308 389.93 154.746C387.632 148.907 381.141 147.243 378.296 146.768L378.333 146.802Z" fill="#424376"/>
<path d="M384.532 158.243C384.532 158.243 438.434 209.097 439.747 216.804L436.501 219.927C436.501 219.927 386.538 166.458 378.807 163.505C371.075 160.551 384.532 158.277 384.532 158.277V158.243Z" fill="white"/>
<path d="M436.428 222.439L435.115 221.047C415.167 199.66 383.511 167.103 378.114 165.066C377.166 164.693 374.357 163.64 374.613 161.366C374.868 159.227 378.077 157.632 384.204 156.579L385.152 156.409L385.809 157.054C394.89 165.609 440.185 208.69 441.534 216.532L441.68 217.381L436.428 222.439ZM378.807 161.604C378.989 161.705 379.244 161.807 379.536 161.909C386.976 164.761 427.566 207.773 436.574 217.415L437.705 216.328C434.532 209.369 403.825 178.883 383.949 160.076C381.907 160.483 379.864 161.094 378.843 161.604H378.807Z" fill="#424376"/>
<path d="M369.069 162.622C369.069 162.622 385.043 232.488 381.688 239.651L377.165 240.635C377.165 240.635 366.042 170.532 361.228 164.15C356.414 157.767 369.069 162.622 369.069 162.622Z" fill="white"/>
<path d="M375.634 242.706L375.342 240.873C370.893 212.865 363.052 169.547 359.733 165.134C359.15 164.353 357.399 162.045 358.894 160.246C360.353 158.582 364 158.82 369.726 161.026L370.601 161.366L370.82 162.248C373.519 173.995 386.757 233.031 383.329 240.296L382.964 241.077L375.597 242.672L375.634 242.706ZM362.286 162.554C362.286 162.554 362.541 162.927 362.724 163.165C367.355 169.276 376.655 225.902 378.697 238.53L380.265 238.191C381.615 230.756 373.409 189.679 367.501 163.844C365.532 163.165 363.49 162.656 362.322 162.554H362.286Z" fill="#424376"/>
<path d="M474.174 411.531L492.518 421.274L522.204 369.435C522.204 369.435 503.386 357.384 474.174 411.531Z" fill="white"/>
<path d="M492.481 423.006C492.153 423.006 491.861 422.938 491.57 422.768L473.226 413.025C472.387 412.584 472.059 411.599 472.496 410.784C489.928 378.499 503.969 369.232 512.685 367.127C519.213 365.565 523.006 367.942 523.152 368.043C523.918 368.519 524.173 369.469 523.736 370.25L494.05 422.089C493.831 422.497 493.43 422.802 492.955 422.938C492.773 422.972 492.627 423.006 492.445 423.006H492.481ZM476.581 410.886L491.788 418.966L519.651 370.284C518.375 369.978 516.259 369.775 513.415 370.488C505.574 372.457 492.882 381.113 476.581 410.886Z" fill="#424376"/>
<path d="M278.516 446.294L273.812 465.441L335.736 476.882C335.736 476.882 342.666 456.649 278.553 446.294H278.516Z" fill="white"/>
<path d="M335.736 478.613C335.736 478.613 335.518 478.613 335.372 478.613L273.447 467.172C272.973 467.071 272.535 466.799 272.28 466.426C272.025 466.052 271.915 465.577 272.025 465.136L276.729 445.989C276.948 445.106 277.896 444.529 278.808 444.699C317.064 450.877 330.667 460.722 335.335 467.885C338.836 473.249 337.487 477.323 337.451 477.493C337.195 478.206 336.502 478.681 335.7 478.681L335.736 478.613ZM276 464.117L334.095 474.879C334.059 473.623 333.658 471.722 332.09 469.379C327.786 462.963 315.204 454.17 279.902 448.263L276 464.151V464.117Z" fill="#424376"/>
<path d="M272.634 294.793C273.743 292.502 272.647 289.809 270.187 288.776C267.726 287.744 264.832 288.764 263.723 291.055L214.754 392.201C213.645 394.491 214.741 397.185 217.202 398.217C219.662 399.249 222.556 398.229 223.665 395.939L272.634 294.793Z" fill="white"/>
<path d="M219.18 400.328C218.269 400.328 217.321 400.159 216.445 399.785C213.09 398.359 211.558 394.659 213.09 391.536L262.068 290.404C262.798 288.876 264.147 287.722 265.825 287.144C267.502 286.533 269.326 286.601 270.967 287.28C274.322 288.706 275.854 292.406 274.322 295.53L225.344 396.662C224.213 398.97 221.77 400.328 219.217 400.328H219.18ZM268.195 290.064C267.831 290.064 267.466 290.132 267.101 290.268C266.335 290.539 265.715 291.082 265.387 291.761L216.409 392.894C215.716 394.319 216.409 396.017 217.94 396.662C219.472 397.307 221.296 396.662 221.989 395.236L270.967 294.104C271.66 292.678 270.967 290.981 269.435 290.336C269.034 290.166 268.596 290.098 268.195 290.098V290.064Z" fill="#424376"/>
<path d="M264.475 277.979C264.475 277.979 259.807 294.002 266.554 297.703C273.301 301.403 283.002 297.261 283.476 282.765C283.549 280.932 284.351 280.321 284.351 280.321" fill="#FDEBDB"/>
<path d="M271.478 300.656C269.472 300.656 267.466 300.147 265.643 299.162C257.911 294.953 262.178 279.302 262.725 277.537C262.98 276.621 264.001 276.111 264.95 276.349C265.934 276.587 266.481 277.537 266.226 278.42C265.132 282.256 262.98 293.764 267.502 296.243C269.946 297.601 272.754 297.635 275.197 296.378C279.1 294.376 281.47 289.385 281.653 282.731C281.725 280.287 282.856 279.268 283.221 278.997C284.023 278.42 285.154 278.556 285.774 279.268C286.394 279.981 286.248 281.034 285.482 281.645C285.518 281.645 285.299 282.018 285.263 282.833C284.935 293.629 279.902 297.804 276.912 299.366C275.197 300.249 273.338 300.69 271.441 300.69L271.478 300.656Z" fill="#424376"/>
<path d="M200.618 497.692C193.105 497.692 187.015 492.023 187.015 485.029C187.015 478.036 193.105 472.367 200.618 472.367C208.13 472.367 214.221 478.036 214.221 485.029C214.221 492.023 208.13 497.692 200.618 497.692Z" fill="white"/>
<path d="M200.618 477.425C205.103 477.425 208.75 480.82 208.75 484.995C208.75 489.171 205.103 492.566 200.618 492.566C196.132 492.566 192.485 489.171 192.485 484.995C192.485 480.82 196.132 477.425 200.618 477.425ZM200.618 467.24C190.078 467.24 181.544 475.184 181.544 484.995C181.544 494.807 190.078 502.75 200.618 502.75C211.157 502.75 219.691 494.807 219.691 484.995C219.691 475.184 211.157 467.24 200.618 467.24Z" fill="#424376"/>
<path d="M65.6084 497.692C58.0957 497.692 52.0053 492.023 52.0053 485.029C52.0053 478.036 58.0957 472.367 65.6084 472.367C73.1211 472.367 79.2114 478.036 79.2114 485.029C79.2114 492.023 73.1211 497.692 65.6084 497.692Z" fill="white"/>
<path d="M65.6084 477.425C70.0941 477.425 73.7411 480.82 73.7411 484.995C73.7411 489.171 70.0941 492.566 65.6084 492.566C61.1227 492.566 57.4758 489.171 57.4758 484.995C57.4758 480.82 61.1227 477.425 65.6084 477.425ZM65.6084 467.24C55.0688 467.24 46.535 475.184 46.535 484.995C46.535 494.807 55.0688 502.75 65.6084 502.75C76.148 502.75 84.6819 494.807 84.6819 484.995C84.6819 475.184 76.148 467.24 65.6084 467.24Z" fill="#424376"/>
<path d="M476.945 255.301C476.763 255.301 476.544 255.233 476.362 255.131L467.062 248.206C466.661 247.9 466.625 247.391 466.916 247.018C467.245 246.644 467.828 246.61 468.193 246.882L477.492 253.807C477.894 254.113 477.93 254.622 477.638 254.995C477.456 255.199 477.201 255.301 476.909 255.301H476.945Z" fill="#424376"/>
<path d="M474.028 261.242C473.846 261.242 473.627 261.174 473.445 261.072L464.145 254.147C463.744 253.841 463.707 253.332 463.999 252.959C464.327 252.585 464.911 252.517 465.275 252.823L474.575 259.748C474.976 260.054 475.013 260.563 474.721 260.936C474.539 261.14 474.283 261.242 473.992 261.242H474.028Z" fill="#424376"/>
<path d="M471.111 267.217C470.928 267.217 470.709 267.149 470.527 267.047L461.227 260.122C460.826 259.816 460.79 259.307 461.081 258.933C461.41 258.56 461.993 258.526 462.358 258.798L471.658 265.723C472.059 266.029 472.095 266.538 471.803 266.911C471.621 267.115 471.366 267.217 471.074 267.217H471.111Z" fill="#424376"/>
<path d="M468.193 273.158C468.011 273.158 467.792 273.09 467.609 272.988L458.31 266.063C457.909 265.757 457.872 265.248 458.164 264.874C458.492 264.501 459.076 264.467 459.44 264.739L468.74 271.664C469.141 271.97 469.178 272.479 468.886 272.852C468.704 273.056 468.448 273.158 468.156 273.158H468.193Z" fill="#424376"/>
<path d="M463.963 278.046C463.78 278.046 463.561 277.978 463.379 277.877L454.079 270.951C453.678 270.646 453.642 270.136 453.934 269.763C454.262 269.39 454.809 269.356 455.21 269.627L464.51 276.553C464.911 276.858 464.947 277.367 464.656 277.741C464.473 277.945 464.218 278.046 463.926 278.046H463.963Z" fill="#424376"/>
<path d="M257.875 265.485C257.875 265.485 257.583 265.485 257.437 265.384C256.999 265.146 256.853 264.637 257.072 264.229L264.293 252.11C264.548 251.702 265.095 251.533 265.533 251.77C265.971 252.008 266.117 252.517 265.898 252.924L258.677 265.044C258.495 265.316 258.203 265.485 257.875 265.485Z" fill="#424376"/>
<path d="M263.928 268.948C263.928 268.948 263.637 268.948 263.491 268.846C263.053 268.609 262.907 268.099 263.126 267.692L270.347 255.539C270.602 255.131 271.149 254.961 271.587 255.199C272.025 255.437 272.17 255.946 271.952 256.353L264.731 268.507C264.548 268.778 264.257 268.948 263.928 268.948Z" fill="#424376"/>
<path d="M269.982 272.411C269.982 272.411 269.691 272.411 269.545 272.309C269.107 272.071 268.961 271.562 269.18 271.155L276.401 259.035C276.656 258.628 277.203 258.458 277.641 258.696C278.079 258.933 278.224 259.443 278.006 259.85L270.785 271.97C270.602 272.241 270.311 272.411 269.982 272.411Z" fill="#424376"/>
<path d="M276.036 275.874C276.036 275.874 275.745 275.874 275.599 275.772C275.161 275.534 275.015 275.025 275.234 274.617L282.455 262.498C282.71 262.091 283.257 261.921 283.695 262.158C284.133 262.396 284.279 262.905 284.06 263.313L276.839 275.432C276.656 275.704 276.365 275.874 276.036 275.874Z" fill="#424376"/>
<path d="M281.033 277.809C280.85 277.809 280.668 277.741 280.486 277.639C280.084 277.367 279.975 276.824 280.267 276.451L288.545 265.825C288.837 265.451 289.421 265.35 289.822 265.621C290.223 265.893 290.332 266.436 290.04 266.809L281.762 277.435C281.58 277.673 281.324 277.775 281.033 277.775V277.809Z" fill="#424376"/>
<path d="M352.403 350.628C352.403 350.628 352.221 350.628 352.111 350.628C351.382 350.458 350.908 349.779 351.09 349.1L355.284 331.753C355.394 331.345 355.685 331.04 356.087 330.87L369.106 325.676C369.799 325.404 370.601 325.676 370.893 326.355C371.185 327 370.893 327.747 370.164 328.018L357.764 332.975L353.716 349.677C353.57 350.254 353.023 350.662 352.367 350.662L352.403 350.628Z" fill="white"/>
<path d="M320.419 91.1946C328.899 91.1946 335.773 84.7957 335.773 76.9023C335.773 69.0089 328.899 62.61 320.419 62.61C311.94 62.61 305.066 69.0089 305.066 76.9023C305.066 84.7957 311.94 91.1946 320.419 91.1946Z" fill="#F8C29A"/>
<path d="M410.426 110.545C418.905 110.545 425.779 104.146 425.779 96.253C425.779 88.3596 418.905 81.9608 410.426 81.9608C401.946 81.9608 395.072 88.3596 395.072 96.253C395.072 104.146 401.946 110.545 410.426 110.545Z" fill="#F8C29A"/>
<path d="M344.963 40.6455C328.917 43.8706 301.893 76.6647 312.506 112.955C312.506 112.955 285.372 64.5451 324.322 23.875C345.802 1.46909 344.963 40.6115 344.963 40.6115V40.6455Z" fill="#424376"/>
<path d="M312.506 114.653C311.849 114.653 311.229 114.313 310.901 113.736C310.609 113.227 283.622 63.8322 322.972 22.7547C328.99 16.4742 333.95 14.1658 338.217 15.6934C347.006 18.9185 346.86 38.4388 346.823 40.6455C346.823 41.4263 346.203 42.1052 345.401 42.275C338.362 43.7008 329.209 51.441 322.608 61.5237C312.433 77.106 309.406 95.7097 314.293 112.48C314.548 113.329 314.074 114.178 313.199 114.517C312.98 114.585 312.761 114.619 312.542 114.619L312.506 114.653ZM335.554 18.6469C333.038 18.6469 329.683 20.8196 325.635 24.9953C301.091 50.6263 303.534 79.72 308.275 96.9658C308.129 84.1673 311.922 71.199 319.398 59.7584C326.182 49.4041 335.299 41.5621 343.103 39.3215C343.067 31.785 341.426 20.548 336.794 18.8506C336.393 18.7148 335.955 18.6469 335.518 18.6469H335.554Z" fill="#424376"/>
<path d="M410.827 51.475C422.533 61.4219 427.967 100.395 400.178 125.143C400.178 125.143 436.209 110.206 428.77 58.8078C423.299 21.0573 410.827 51.475 410.827 51.475Z" fill="#424376"/>
<path d="M400.178 126.806C399.594 126.806 399.011 126.535 398.646 126.06C398.135 125.381 398.245 124.464 398.901 123.887C416.297 108.406 418.667 89.2256 418.558 79.1769C418.412 67.7703 414.802 57.1444 409.623 52.7311C409.076 52.2559 408.894 51.509 409.149 50.864C410.061 48.6234 414.838 37.4883 421.074 38.2012C425.633 38.7105 428.66 45.1607 430.593 58.5363C438.106 110.579 401.308 126.501 400.943 126.637C400.688 126.739 400.469 126.772 400.214 126.772L400.178 126.806ZM412.978 51.0337C418.485 56.4655 422.059 67.295 422.205 79.109C422.351 92.281 418.376 105.012 411.009 115.57C420.382 106.709 431.395 89.4972 426.983 59.0116C424.648 42.8182 421.293 41.664 420.637 41.5961C418.777 41.3924 415.166 46.1452 412.978 51.0677V51.0337Z" fill="#424376"/>
<path d="M404.043 99.0706C401.089 113.363 387.559 124.158 371.33 124.158C352.913 124.158 337.961 110.24 337.961 93.0957C337.961 90.5156 338.289 88.0035 338.945 85.6271L404.043 99.0706Z" fill="white"/>
<path d="M371.33 125.856C351.929 125.856 336.137 111.156 336.137 93.0958C336.137 90.3799 336.502 87.698 337.195 85.2198C337.45 84.3371 338.399 83.7939 339.347 83.9976L404.445 97.4412C405.393 97.6449 406.013 98.5275 405.83 99.4102C402.658 114.755 388.143 125.856 371.33 125.856ZM340.331 87.6301C339.967 89.3954 339.784 91.1947 339.784 93.0618C339.784 109.255 353.935 122.427 371.33 122.427C385.809 122.427 398.391 113.227 401.855 100.327L340.295 87.6301H340.331Z" fill="#424376"/>
<path d="M364.73 80.6706C367.167 80.6706 369.142 79.2419 369.142 77.4795C369.142 75.7171 367.167 74.2884 364.73 74.2884C362.293 74.2884 360.317 75.7171 360.317 77.4795C360.317 79.2419 362.293 80.6706 364.73 80.6706Z" fill="white"/>
</svg>
