<svg width="65" height="69" viewBox="0 0 65 69" fill="none" xmlns="http://www.w3.org/2000/svg">
<path d="M32.083 2.77979C48.6667 2.77979 62.1111 16.2234 62.1113 32.8071C62.1113 49.391 48.6669 62.8354 32.083 62.8354C28.0518 62.8354 24.2074 62.0379 20.6953 60.5972L12.7998 64.7778L11.9639 65.2202L12.0684 64.2808L12.9902 55.9829C6.31289 50.4754 2.05566 42.1386 2.05566 32.8071C2.05588 16.2236 15.4995 2.78 32.083 2.77979Z" fill="white"/>
<path d="M62.1113 32.8071C62.1111 16.2234 48.6667 2.77979 32.083 2.77979C15.4995 2.78 2.05588 16.2236 2.05566 32.8071C2.05566 42.1386 6.31289 50.4754 12.9902 55.9829L11.9639 65.2202L20.6953 60.5972C24.2074 62.0379 28.0518 62.8354 32.083 62.8354C48.6669 62.8354 62.1113 49.391 62.1113 32.8071ZM64.1113 32.8071C64.1113 50.4956 49.7714 64.8354 32.083 64.8354C28.1212 64.8354 24.3257 64.1112 20.8203 62.7935L9.55859 68.7563L10.8857 56.812C4.24844 50.9465 0.0556641 42.3667 0.0556641 32.8071C0.055896 15.119 14.3949 0.780017 32.083 0.779785C49.7713 0.779785 64.1111 15.1188 64.1113 32.8071Z" fill="white"/>
<path d="M59.1113 32.8071C59.1111 17.8804 47.01 5.77979 32.083 5.77979C17.3894 5.78 5.4345 17.5054 5.06445 32.1099L5.05566 32.8071C5.05566 41.205 8.88321 48.7063 14.8994 53.6685L16.1514 54.7017L15.5713 59.9146L20.5332 57.2886L21.834 57.8218C24.9926 59.1175 28.4508 59.8354 32.083 59.8354V62.8354C28.0518 62.8354 24.2074 62.0379 20.6953 60.5972L11.9639 65.2202L12.9902 55.9829C6.31289 50.4754 2.05566 42.1386 2.05566 32.8071C2.05588 16.2236 15.4995 2.78 32.083 2.77979C48.6667 2.77979 62.1111 16.2234 62.1113 32.8071C62.1113 49.391 48.6669 62.8354 32.083 62.8354V59.8354C47.01 59.8354 59.1113 47.7341 59.1113 32.8071Z" fill="white"/>
<path d="M59.1113 32.8071C59.1111 17.8804 47.01 5.77979 32.083 5.77979C17.3894 5.78 5.4345 17.5054 5.06445 32.1099L5.05566 32.8071C5.05566 41.205 8.88321 48.7063 14.8994 53.6685L16.1514 54.7017L15.5713 59.9146L20.5332 57.2886L21.834 57.8218C24.9926 59.1175 28.4508 59.8354 32.083 59.8354V62.8354C28.0518 62.8354 24.2074 62.0379 20.6953 60.5972L11.9639 65.2202L12.9902 55.9829C6.31289 50.4754 2.05566 42.1386 2.05566 32.8071C2.05588 16.2236 15.4995 2.78 32.083 2.77979C48.6667 2.77979 62.1111 16.2234 62.1113 32.8071C62.1113 49.391 48.6669 62.8354 32.083 62.8354V59.8354C47.01 59.8354 59.1113 47.7341 59.1113 32.8071Z" fill="#ED8F4D"/>
</svg>
