<svg width="65" height="69" viewBox="0 0 65 69" fill="none" xmlns="http://www.w3.org/2000/svg">
<path d="M32.0273 2.77979C48.6111 2.77979 62.0554 16.2234 62.0557 32.8071C62.0557 49.391 48.6112 62.8354 32.0273 62.8354C27.9962 62.8354 24.1517 62.0379 20.6396 60.5972L12.7441 64.7778L11.9082 65.2202L12.0127 64.2808L12.9346 55.9829C6.25723 50.4754 2 42.1386 2 32.8071C2.00022 16.2236 15.4438 2.78 32.0273 2.77979Z" fill="#ED8F4D"/>
<path d="M62.0557 32.8071C62.0554 16.2234 48.6111 2.77979 32.0273 2.77979C15.4438 2.78 2.00022 16.2236 2 32.8071C2 42.1386 6.25723 50.4754 12.9346 55.9829L11.9082 65.2202L20.6396 60.5972C24.1517 62.0379 27.9962 62.8354 32.0273 62.8354C48.6112 62.8354 62.0557 49.391 62.0557 32.8071ZM64.0557 32.8071C64.0557 50.4956 49.7158 64.8354 32.0273 64.8354C28.0655 64.8354 24.27 64.1112 20.7646 62.7935L9.50293 68.7563L10.8301 56.812C4.19278 50.9465 0 42.3667 0 32.8071C0.000231984 15.119 14.3392 0.780017 32.0273 0.779785C49.7156 0.779785 64.0554 15.1188 64.0557 32.8071Z" fill="white"/>
</svg>
