<svg width="61" height="64" viewBox="0 0 61 64" fill="none" xmlns="http://www.w3.org/2000/svg">
<mask id="path-1-inside-1_2157_1350" fill="white">
<path d="M30.083 0.779785C46.6667 0.779785 60.1111 14.2234 60.1113 30.8071C60.1113 47.391 46.6669 60.8354 30.083 60.8354C26.0518 60.8354 22.2074 60.0379 18.6953 58.5972L10.7998 62.7778L9.96387 63.2202L10.0684 62.2808L10.9902 53.9829C4.31289 48.4754 0.0556641 40.1386 0.0556641 30.8071C0.0558816 14.2236 13.4995 0.780003 30.083 0.779785Z"/>
</mask>
<path d="M30.083 0.779785C46.6667 0.779785 60.1111 14.2234 60.1113 30.8071C60.1113 47.391 46.6669 60.8354 30.083 60.8354C26.0518 60.8354 22.2074 60.0379 18.6953 58.5972L10.7998 62.7778L9.96387 63.2202L10.0684 62.2808L10.9902 53.9829C4.31289 48.4754 0.0556641 40.1386 0.0556641 30.8071C0.0558816 14.2236 13.4995 0.780003 30.083 0.779785Z" fill="white"/>
<path d="M30.083 0.779785L30.083 -2.22021L30.083 -2.22021L30.083 0.779785ZM60.1113 30.8071L63.1113 30.8071L63.1113 30.8071L60.1113 30.8071ZM30.083 60.8354L30.083 63.8354H30.083V60.8354ZM18.6953 58.5972L19.8339 55.8216L18.5336 55.2882L17.2915 55.9459L18.6953 58.5972ZM10.7998 62.7778L12.203 65.4294L12.2036 65.4291L10.7998 62.7778ZM9.96387 63.2202L6.98225 62.8886L6.35544 68.524L11.3671 65.8718L9.96387 63.2202ZM10.0684 62.2808L13.05 62.6124L13.05 62.612L10.0684 62.2808ZM10.9902 53.9829L13.9719 54.3142L14.1511 52.7012L12.8991 51.6686L10.9902 53.9829ZM0.0556641 30.8071L-2.94434 30.8071V30.8071H0.0556641ZM30.083 0.779785V3.77979C45.01 3.77979 57.1111 15.8804 57.1113 30.8072L60.1113 30.8071L63.1113 30.8071C63.1111 12.5665 48.3235 -2.22021 30.083 -2.22021V0.779785ZM60.1113 30.8071H57.1113C57.1113 45.7341 45.01 57.8354 30.083 57.8354V60.8354V63.8354C48.3237 63.8354 63.1113 49.0478 63.1113 30.8071H60.1113ZM30.083 60.8354L30.083 57.8354C26.4508 57.8354 22.9926 57.1174 19.8339 55.8216L18.6953 58.5972L17.5567 61.3727C21.4223 62.9585 25.6529 63.8354 30.083 63.8354L30.083 60.8354ZM18.6953 58.5972L17.2915 55.9459L9.39596 60.1266L10.7998 62.7778L12.2036 65.4291L20.0992 61.2484L18.6953 58.5972ZM10.7998 62.7778L9.39657 60.1262L8.56063 60.5686L9.96387 63.2202L11.3671 65.8718L12.203 65.4294L10.7998 62.7778ZM9.96387 63.2202L12.9455 63.5518L13.05 62.6124L10.0684 62.2808L7.08675 61.9491L6.98225 62.8886L9.96387 63.2202ZM10.0684 62.2808L13.05 62.612L13.9719 54.3142L10.9902 53.9829L8.00858 53.6517L7.0867 61.9495L10.0684 62.2808ZM10.9902 53.9829L12.8991 51.6686C6.88291 46.7064 3.05566 39.205 3.05566 30.8071H0.0556641H-2.94434C-2.94434 41.0722 1.74288 50.2445 9.08136 56.2973L10.9902 53.9829ZM0.0556641 30.8071L3.05566 30.8072C3.05586 15.8804 15.1563 3.77998 30.083 3.77979L30.083 0.779785L30.083 -2.22021C11.8426 -2.21998 -2.9441 12.5667 -2.94434 30.8071L0.0556641 30.8071Z" fill="#ED8F4D" mask="url(#path-1-inside-1_2157_1350)"/>
</svg>
