<svg width="140" height="226" viewBox="0 0 140 226" fill="none" xmlns="http://www.w3.org/2000/svg">
<path d="M0.602417 38.6024H10.3012C43.4383 38.6024 70.3012 65.4654 70.3012 98.6024V108.301H60.6024C27.4654 108.301 0.602417 81.4383 0.602417 48.3012V38.6024Z" fill="#FBCF73"/>
<path d="M0.602417 122.241H10.3012C43.4383 122.241 70.3012 149.104 70.3012 182.241V191.94H60.6024C27.4654 191.94 0.602417 165.077 0.602417 131.94V122.241Z" fill="#ED8F4D"/>
<path d="M140 0L140 9.69876C140 42.8358 113.137 69.6988 80 69.6988L70.3012 69.6988L70.3012 60C70.3012 26.8629 97.1641 -1.87241e-06 130.301 -4.23947e-07L140 0Z" fill="#ED8F4D"/>
<path d="M140 83.6385L140 93.3373C140 126.474 113.137 153.337 80 153.337L70.3012 153.337L70.3012 143.639C70.3012 110.501 97.1641 83.6385 130.301 83.6385L140 83.6385Z" fill="#FBCF73"/>
<path d="M70.3012 21.4458V222.5" stroke="#ED8F4D" stroke-width="7" stroke-linecap="round"/>
</svg>
