<svg width="67" height="82" viewBox="0 0 67 82" fill="none" xmlns="http://www.w3.org/2000/svg">
<g clip-path="url(#clip0_2071_61)">
<path d="M29.7926 18.6613L54.4031 80.4083C54.6531 81.0784 54.3198 81.648 53.8199 81.8825C53.3201 82.117 52.6702 82.0165 52.3203 81.38L22.4777 25.3955L21.0614 22.7487C20.7448 22.1624 20.9948 21.4253 21.5946 21.1573L28.243 18.0414C28.8428 17.7567 29.5426 18.0414 29.7926 18.6613Z" fill="#798DAE"/>
<path opacity="0.5" d="M26.6767 23.4189L53.8033 81.8827C53.3034 82.1172 52.6535 82.0167 52.3036 81.3801L22.4777 25.3957L26.6933 23.4189H26.6767Z" fill="#C5E8FF"/>
<path d="M66.4668 38.043C69.4327 44.4254 59.8018 55.2973 44.8222 62.5341C44.5389 62.6849 44.239 62.8356 43.939 62.9697C28.4929 70.2064 13.4966 70.8095 10.4807 64.293C8.83111 60.7417 11.0472 55.8166 15.9293 50.9084C19.995 46.7707 25.9435 42.6497 32.9751 39.3496C33.275 39.2156 33.575 39.0649 33.8749 38.9476C40.5399 35.9155 47.0549 34.1398 52.5369 33.6373C59.5185 33.0007 64.7839 34.4414 66.4501 38.0262L66.4668 38.043Z" fill="#EA7424"/>
<path d="M54.5698 35.9156L58.2189 39.7685L17.1291 59.0331L15.946 50.8917L15.5295 48.1444C14.663 42.1473 12.047 36.5187 8.03134 31.9957L1.44964 24.5411C1.28302 24.3904 1.14972 24.2229 1.01642 24.0553L0.749817 23.7538L41.8396 4.48926L41.8729 4.80754L42.0062 6.09743L42.4228 9.78282C43.3725 18.5775 46.905 26.8864 52.5369 33.6541C53.1701 34.4247 53.8366 35.1953 54.5531 35.9324L54.5698 35.9156Z" fill="#ED8F4D"/>
<path d="M65.6503 36.284C68.0331 41.4101 57.9189 51.2601 42.9393 58.4634C42.656 58.6142 42.3561 58.7482 42.0562 58.8989C26.61 66.1357 12.097 67.7774 9.6809 62.5341C8.36456 59.6863 10.8639 55.3811 15.9293 50.8916C20.1616 47.1224 26.2101 43.2025 33.2417 39.9024C33.5416 39.7684 33.8416 39.6176 34.1415 39.5004C40.8065 36.4516 47.2216 34.4748 52.5536 33.6373C59.3352 32.5819 64.3173 33.386 65.6503 36.2673V36.284Z" fill="#ED8F4D"/>
<path opacity="0.8" d="M65.6503 36.2842C68.033 41.4102 57.9189 51.2603 42.9393 58.4635L17.4956 3.63493C28.5429 -1.2901 39.1902 -1.20634 41.5563 3.88621C41.6396 4.08723 41.7396 4.305 41.7896 4.52277H41.8396L41.8729 4.82431C41.9728 5.2431 42.0228 5.6619 42.0062 6.11419L42.4227 9.79959C43.3725 18.5943 46.905 26.9032 52.5369 33.6709C59.3185 32.6155 64.3006 33.4196 65.6336 36.3009L65.6503 36.2842Z" fill="#FFF8E8"/>
<path d="M41.5563 3.88621C41.6396 4.08723 41.7396 4.305 41.7896 4.52277C41.8229 4.62329 41.8396 4.7238 41.8729 4.82431C41.9729 5.2431 42.0229 5.6619 42.0062 6.11419C42.0395 11.1732 35.6911 17.9745 26.2934 22.598C26.0102 22.7487 25.7103 22.8827 25.4103 23.0335C15.1795 27.8245 5.11538 28.3606 1.44963 24.5747C1.283 24.4239 1.1497 24.2564 1.0164 24.0889C0.933087 23.9883 0.866437 23.8878 0.799787 23.7706C0.683149 23.5863 0.566512 23.3853 0.466537 23.1843C-1.96619 17.9242 5.26534 9.34729 16.6125 4.03697C16.9124 3.90296 17.2124 3.75219 17.5123 3.63493C28.5595 -1.2901 39.2069 -1.20634 41.573 3.88621H41.5563Z" fill="#FBCF73"/>
</g>
<defs>
<clipPath id="clip0_2071_61">
<rect width="67" height="82" fill="white"/>
</clipPath>
</defs>
</svg>
