<svg width="30" height="30" viewBox="0 0 30 30" fill="none" xmlns="http://www.w3.org/2000/svg">
<rect width="30" height="30" rx="15" fill="#ED8F4D"/>
<path d="M13.3334 6.66663C11.5653 6.66663 9.86961 7.36901 8.61937 8.61925C7.36913 9.86949 6.66675 11.5652 6.66675 13.3333C6.66675 15.1014 7.36913 16.7971 8.61937 18.0473C9.86961 19.2976 11.5653 20 13.3334 20C15.1015 20 16.7972 19.2976 18.0475 18.0473C19.2977 16.7971 20.0001 15.1014 20.0001 13.3333C20.0001 11.5652 19.2977 9.86949 18.0475 8.61925C16.7972 7.36901 15.1015 6.66663 13.3334 6.66663Z" fill="#FFF7E7"/>
<path fill-rule="evenodd" clip-rule="evenodd" d="M23.0892 23.0892C22.9329 23.2454 22.721 23.3332 22.5 23.3332C22.279 23.3332 22.0671 23.2454 21.9108 23.0892L18.9942 20.1725C18.8424 20.0153 18.7584 19.8048 18.7603 19.5863C18.7622 19.3678 18.8498 19.1588 19.0043 19.0043C19.1588 18.8498 19.3678 18.7622 19.5863 18.7603C19.8048 18.7584 20.0153 18.8424 20.1725 18.9942L23.0892 21.9108C23.2454 22.0671 23.3332 22.279 23.3332 22.5C23.3332 22.721 23.2454 22.9329 23.0892 23.0892Z" fill="#FFF7E7"/>
</svg>
