<svg width="136" height="136" viewBox="0 0 136 136" fill="none" xmlns="http://www.w3.org/2000/svg">
<path d="M42.6343 32.0298C41.9548 32.4219 41.3654 32.9528 40.9045 33.5877C40.4436 34.2227 40.1215 34.9475 39.9591 35.7152C39.7968 36.4828 39.7979 37.276 39.9623 38.0432C40.1267 38.8104 40.4508 39.5343 40.9134 40.168L58.4555 64.2097L48.5295 70.5299L39.3634 63.6688C38.3013 62.8737 37.0291 62.4078 35.7047 62.3291C34.3803 62.2505 33.0619 62.5623 31.9131 63.2261C29.3758 64.691 28.5062 67.9367 29.971 70.474L34.9829 79.1548L32.3063 80.8609C30.8851 81.6814 29.8481 83.0329 29.4234 84.618C28.9986 86.2031 29.221 87.892 30.0415 89.3132C30.862 90.7344 32.2135 91.7714 33.7986 92.1961C35.3837 92.6208 37.0726 92.3985 38.4938 91.578L41.3081 90.1103L46.3215 98.7938C47.7864 101.331 51.0321 102.201 53.5693 100.736C55.9164 99.3808 57.2309 96.7571 56.9111 94.0624L55.555 82.6922L65.9888 77.2577L78.0357 104.472C79.3797 107.511 83.0666 108.712 85.9441 107.051C88.4573 105.6 89.863 102.788 89.521 99.9058L85.6025 67.0447C90.9624 64.2503 96.4981 61.6615 101.731 58.6404C103.863 57.4097 105.418 55.3825 106.055 53.0048C106.692 50.6271 106.359 48.0938 105.128 45.962C103.897 43.8303 101.87 42.2747 99.4923 41.6376C97.1146 41.0006 94.5813 41.3341 92.4495 42.5648C87.2169 45.5859 82.2098 49.0841 77.1098 52.3286L50.6105 32.5046C49.4726 31.6552 48.1109 31.1576 46.6935 31.0732C45.276 30.9888 43.8649 31.3214 42.6343 32.0298Z" fill="#ED8F4D"/>
</svg>
