<svg width="48" height="48" viewBox="0 0 48 48" fill="none" xmlns="http://www.w3.org/2000/svg">
<circle cx="24" cy="24" r="22.5" stroke="#ED8F4D" stroke-width="3"/>
<path d="M32.9614 22.4389H11.5875C11.2825 22.4389 10.99 22.56 10.7743 22.7757C10.5587 22.9913 10.4375 23.2839 10.4375 23.5889C10.4375 23.8939 10.5587 24.1864 10.7743 24.402C10.99 24.6177 11.2825 24.7389 11.5875 24.7389H32.9614L24.5733 33.1247C24.3574 33.3406 24.236 33.6335 24.236 33.9389C24.236 34.2442 24.3574 34.5371 24.5733 34.7531C24.7892 34.969 25.0821 35.0903 25.3875 35.0903C25.6929 35.0903 25.9858 34.969 26.2017 34.7531L36.5517 24.4031C36.6588 24.2962 36.7438 24.1693 36.8017 24.0296C36.8597 23.8899 36.8896 23.7401 36.8896 23.5889C36.8896 23.4376 36.8597 23.2878 36.8017 23.1481C36.7438 23.0084 36.6588 22.8815 36.5517 22.7747L26.2017 12.4247C25.9858 12.2087 25.6929 12.0874 25.3875 12.0874C25.0821 12.0874 24.7892 12.2087 24.5733 12.4247C24.3574 12.6406 24.236 12.9335 24.236 13.2389C24.236 13.5442 24.3574 13.8371 24.5733 14.0531L32.9614 22.4389Z" fill="#ED8F4D"/>
</svg>
