<svg width="48" height="48" viewBox="0 0 48 48" fill="none" xmlns="http://www.w3.org/2000/svg">
<path d="M24 46.5C11.5736 46.5 1.5 36.4264 1.5 24C1.5 11.5736 11.5736 1.5 24 1.5C36.4264 1.5 46.5 11.5736 46.5 24C46.5 36.4264 36.4264 46.5 24 46.5Z" stroke="#ED8F4D" stroke-width="3"/>
<path d="M15.5142 24.7394L36.8881 24.7394C37.1931 24.7394 37.4856 24.6182 37.7013 24.4025C37.9169 24.1869 38.0381 23.8944 38.0381 23.5894C38.0381 23.2844 37.9169 22.9919 37.7013 22.7762C37.4856 22.5605 37.1931 22.4394 36.8881 22.4394L15.5142 22.4394L23.9023 14.0536C24.1182 13.8376 24.2395 13.5447 24.2395 13.2394C24.2395 12.934 24.1182 12.6411 23.9023 12.4252C23.6864 12.2092 23.3935 12.0879 23.0881 12.0879C22.7827 12.0879 22.4898 12.2092 22.2739 12.4252L11.9239 22.7752C11.8168 22.882 11.7318 23.0089 11.6739 23.1486C11.6159 23.2883 11.586 23.4381 11.586 23.5894C11.586 23.7406 11.6159 23.8904 11.6739 24.0301C11.7318 24.1698 11.8168 24.2967 11.9239 24.4036L22.2739 34.7536C22.4898 34.9695 22.7827 35.0908 23.0881 35.0908C23.3935 35.0908 23.6863 34.9695 23.9023 34.7536C24.1182 34.5376 24.2395 34.2448 24.2395 33.9394C24.2395 33.634 24.1182 33.3411 23.9023 33.1252L15.5142 24.7394Z" fill="#ED8F4D"/>
</svg>
