<svg width="151" height="175" viewBox="0 0 151 175" fill="none" xmlns="http://www.w3.org/2000/svg">
<path d="M75.2695 0C116.84 3.29861e-05 150.539 33.6996 150.539 75.2695C150.539 113.385 122.207 144.882 85.4531 149.854L77.5166 174.504L69.7344 150.336C30.7488 147.502 0.000194771 114.978 0 75.2695C0 33.6996 33.6994 0 75.2695 0Z" fill="#C5E8FF"/>
<path d="M118.82 28.4801H50.0603C48.7765 28.4801 47.7358 29.5243 47.7358 30.8124V77.7425C47.7358 79.0306 48.7765 80.0748 50.0603 80.0748H118.82C120.104 80.0748 121.145 79.0306 121.145 77.7425V30.8124C121.145 29.5243 120.104 28.4801 118.82 28.4801Z" fill="#424376" stroke="#424376" stroke-width="2" stroke-linecap="round" stroke-linejoin="round"/>
<path d="M117.207 29.062H48.4476C47.7484 29.062 47.1816 29.6307 47.1816 30.3322V77.2624C47.1816 77.9639 47.7484 78.5326 48.4476 78.5326H117.207C117.907 78.5326 118.473 77.9639 118.473 77.2624V30.3322C118.473 29.6307 117.907 29.062 117.207 29.062Z" fill="#C5E8FF"/>
<path d="M117.212 30.1241C117.326 30.1241 117.419 30.2176 117.419 30.3323V77.2624C117.419 77.3771 117.326 77.4706 117.212 77.4706H48.4475C48.3332 77.4706 48.24 77.3771 48.24 77.2624V30.3323C48.24 30.2176 48.3332 30.1241 48.4475 30.1241H117.207M117.212 28H48.4475C47.1646 28 46.123 29.0451 46.123 30.3323V77.2624C46.123 78.5496 47.1646 79.5947 48.4475 79.5947H117.207C118.49 79.5947 119.532 78.5496 119.532 77.2624V30.3323C119.532 29.0451 118.49 28 117.207 28H117.212Z" fill="#798DAE"/>
<path d="M102.312 35.5787H63.3424C62.7321 35.5787 62.2373 36.0752 62.2373 36.6875V71.8671C62.2373 72.4794 62.7321 72.9758 63.3424 72.9758H102.312C102.922 72.9758 103.417 72.4794 103.417 71.8671V36.6875C103.417 36.0752 102.922 35.5787 102.312 35.5787Z" fill="#ED8F4D" stroke="#ED8F4D" stroke-width="2" stroke-miterlimit="10"/>
<path d="M102.312 43.0684H63.3424C62.7321 43.0684 62.2373 43.5648 62.2373 44.1771V71.8628C62.2373 72.4752 62.7321 72.9716 63.3424 72.9716H102.312C102.922 72.9716 103.417 72.4752 103.417 71.8628V44.1771C103.417 43.5648 102.922 43.0684 102.312 43.0684Z" fill="#FFF8E8" stroke="#ED8F4D" stroke-width="2" stroke-miterlimit="10"/>
<path d="M102.168 36.2755H98.0442C97.5859 36.2755 97.2144 36.6483 97.2144 37.1082V41.2459C97.2144 41.7058 97.5859 42.0786 98.0442 42.0786H102.168C102.626 42.0786 102.998 41.7058 102.998 41.2459V37.1082C102.998 36.6483 102.626 36.2755 102.168 36.2755Z" fill="#FFF8E8"/>
<path d="M101.855 40.4091L100.627 39.1771L101.855 37.9451C101.922 37.8771 101.922 37.7624 101.855 37.6945L101.588 37.4268C101.52 37.3589 101.406 37.3589 101.338 37.4268L100.11 38.6588L98.8823 37.4268C98.8146 37.3589 98.7002 37.3589 98.6325 37.4268L98.3657 37.6945C98.298 37.7624 98.298 37.8771 98.3657 37.9451L99.5936 39.1771L98.3657 40.4091C98.298 40.4771 98.298 40.5918 98.3657 40.6597L98.6325 40.9274C98.7002 40.9953 98.8146 40.9953 98.8823 40.9274L100.11 39.6954L101.338 40.9274C101.406 40.9953 101.52 40.9953 101.588 40.9274L101.855 40.6597C101.922 40.5918 101.922 40.4771 101.855 40.4091Z" fill="#ED8F4D"/>
<path d="M98.3362 46.3481H67.3223C66.6254 46.3481 66.0605 46.9149 66.0605 47.6141V57.7376C66.0605 58.4368 66.6254 59.0036 67.3223 59.0036H98.3362C99.033 59.0036 99.5979 58.4368 99.5979 57.7376V47.6141C99.5979 46.9149 99.033 46.3481 98.3362 46.3481Z" fill="#FBCF73"/>
<path d="M84.707 60.9408H66.7168C66.3544 60.9408 66.0605 61.2356 66.0605 61.5993V63.1711C66.0605 63.5348 66.3544 63.8296 66.7168 63.8296H84.707C85.0694 63.8296 85.3632 63.5348 85.3632 63.1711V61.5993C85.3632 61.2356 85.0694 60.9408 84.707 60.9408Z" fill="#ED8F4D"/>
<path d="M98.9418 60.9408H87.544C87.1815 60.9408 86.8877 61.2356 86.8877 61.5993V67.9971C86.8877 68.3608 87.1815 68.6556 87.544 68.6556H98.9418C99.3043 68.6556 99.5981 68.3608 99.5981 67.9971V61.5993C99.5981 61.2356 99.3043 60.9408 98.9418 60.9408Z" fill="#FBCF73"/>
<path d="M84.707 65.7668H66.7168C66.3544 65.7668 66.0605 66.0617 66.0605 66.4253V67.9972C66.0605 68.3608 66.3544 68.6556 66.7168 68.6556H84.707C85.0694 68.6556 85.3632 68.3608 85.3632 67.9972V66.4253C85.3632 66.0617 85.0694 65.7668 84.707 65.7668Z" fill="#ED8F4D"/>
<path d="M101.452 88.4013V91.545H67.4321V88.4013H73.9143C80.079 88.4013 79.9435 78.7451 79.9435 78.7451L84.0463 78.384V78.3118L84.44 78.3458L84.8338 78.3118V78.384L88.9365 78.7451C88.9365 78.7451 88.9323 79.0637 88.9619 79.5905C89.0974 81.944 89.9272 88.4013 94.9657 88.4013H101.452Z" fill="#798DAE"/>
<path opacity="0.5" d="M101.452 88.4014V91.5451H84.7236V79.5906H88.9618C89.0973 81.9441 89.9272 88.4014 94.9656 88.4014H101.452Z" fill="#424376"/>
<path d="M70.2863 85.2237C72.1238 83.2653 72.6573 80.8396 71.2432 80.0706C70.0323 79.4121 67.2336 82.6068 66.5138 83.5032C65.6289 83.4862 64.7144 83.6731 63.8464 84.1022C61.1494 85.4319 59.9512 88.5331 61.1705 91.0268C62.3899 93.5205 65.5696 94.4679 68.2667 93.1382C70.9637 91.8085 72.1619 88.7073 70.9426 86.2136C70.7647 85.8482 70.5403 85.5211 70.2863 85.2237Z" fill="#FAEBE3" stroke="#424376" stroke-linecap="round" stroke-linejoin="round"/>
<path d="M6.59024 59.1353C6.59024 59.1353 1.99637 79.9176 6.42935 86.103L11.5228 86.8634C11.5228 86.8634 11.2095 78.9447 11.5228 77.101C11.5228 77.101 13.1317 85.1259 14.5374 86.2134C15.9431 87.301 33.349 90.228 33.349 90.228C33.349 90.228 55.6197 85.2406 58.6428 81.6593C58.6428 81.6593 61.56 55.2694 51.8303 48.0729C42.1006 40.8764 6.59024 59.1353 6.59024 59.1353Z" fill="#798DAE" stroke="#424376" stroke-linecap="round" stroke-linejoin="round"/>
<path d="M12.1323 105.912C12.1323 105.912 16.1546 80.9327 19.7789 75.0914L43.5611 75.5417C43.5611 75.5417 53.2696 93.2143 53.0071 105.063" fill="#FBCF73"/>
<path d="M12.1323 105.912C12.1323 105.912 16.1546 80.9327 19.7789 75.0914L43.5611 75.5417C43.5611 75.5417 53.2696 93.2143 53.0071 105.063" stroke="#424376" stroke-linecap="round" stroke-linejoin="round"/>
<path d="M35.4404 81.4089L44.4503 78.6646V80.3978L42.0751 82.6451L37.8538 83.1082L35.4404 81.4089Z" fill="#FBC59D"/>
<path d="M57.0742 62.755C60.1066 61.7186 61.8462 58.7611 60.9595 56.1493C60.0729 53.5375 56.8958 52.2604 53.8633 53.2968C50.8309 54.3332 49.0913 57.2906 49.978 59.9024C50.8646 62.5142 54.0417 63.7914 57.0742 62.755Z" fill="#FAEBE3" stroke="#424376" stroke-miterlimit="10"/>
<path d="M56.3094 60.6868C58.0507 60.1343 59.0793 58.4713 58.6068 56.9725C58.1344 55.4737 56.3399 54.7066 54.5986 55.2592C52.8574 55.8117 51.8288 57.4747 52.3012 58.9735C52.7736 60.4723 54.5682 61.2394 56.3094 60.6868Z" fill="#FBC59D"/>
<path d="M56.5681 61.6162C55.264 71.1959 46.9655 79.3355 35.9275 80.9329C22.8487 82.8233 10.875 74.8027 9.18568 63.0224C7.49632 51.2463 16.7306 40.1627 29.8094 38.2764C41.9313 36.5262 53.1005 43.2809 56.0177 53.6593C56.2463 54.4792 56.4284 55.3203 56.5512 56.1827C56.8137 58.0222 56.8137 59.8447 56.5681 61.6162Z" fill="#FAEBE3" stroke="#424376" stroke-miterlimit="10"/>
<path d="M35.4401 61.2721C35.9569 61.2721 36.3758 60.7092 36.3758 60.0147C36.3758 59.3202 35.9569 58.7572 35.4401 58.7572C34.9233 58.7572 34.5044 59.3202 34.5044 60.0147C34.5044 60.7092 34.9233 61.2721 35.4401 61.2721Z" fill="#424376" stroke="#424376" stroke-linecap="round" stroke-linejoin="round"/>
<path d="M46.2033 59.7299C46.7201 59.7299 47.139 59.1669 47.139 58.4724C47.139 57.778 46.7201 57.215 46.2033 57.215C45.6865 57.215 45.2676 57.778 45.2676 58.4724C45.2676 59.1669 45.6865 59.7299 46.2033 59.7299Z" fill="#424376" stroke="#424376" stroke-linecap="round" stroke-linejoin="round"/>
<path d="M12.0939 58.0222C12.0939 58.0222 33.5432 56.2422 43.4042 53.4214C51.7239 51.0424 55.0815 50.4732 56.2289 50.5879C56.2289 50.5879 50.0515 34.8524 29.8343 36.3775C9.61704 37.9027 6.4585 59.6068 6.4585 59.6068L12.0939 58.0222Z" fill="#424376" stroke="#424376" stroke-linecap="round" stroke-linejoin="round"/>
<path d="M18.0309 64.2928C18.5179 61.5772 16.3567 58.9144 13.2038 58.3452C10.0509 57.776 7.10015 59.5159 6.61318 62.2315C6.12621 64.947 8.28739 67.6099 11.4403 68.1791C14.5932 68.7483 17.544 67.0083 18.0309 64.2928Z" fill="#FAEBE3" stroke="#424376" stroke-miterlimit="10"/>
<path d="M17.4014 63.6999C17.6789 62.1528 16.4467 60.6356 14.6493 60.3111C12.8519 59.9866 11.1699 60.9777 10.8925 62.5248C10.615 64.072 11.8472 65.5892 13.6446 65.9137C15.442 66.2382 17.124 65.2471 17.4014 63.6999Z" fill="#FBC59D"/>
<path d="M10.9128 86.2305C10.9128 86.2305 12.1449 71.7398 12.6911 71.4509C12.6911 71.4509 16.6541 75.8436 18.5509 76.1409L16.1248 67.2579C16.1248 67.2579 13.1991 68.8085 11.7808 68.6428C7.95747 68.1925 6.00984 63.8296 6.00984 63.8296C6.00984 63.8296 0.890961 89.3614 10.9086 86.2347L10.9128 86.2305Z" fill="#424376" stroke="#424376" stroke-linecap="round" stroke-linejoin="round"/>
<path d="M12.5347 57.7504L16.5146 54.989L16.9084 58.5873L16.1166 59.3647L12.5347 57.7504Z" fill="#424376"/>
<path d="M6.29346 60.5754L7.50437 56.5693L7.89813 60.1676L7.10638 60.945L6.29346 60.5754Z" fill="#424376"/>
<path d="M53.0536 70.5798C53.0536 70.5798 53.5236 75.9411 53.0536 77.4577C52.5836 78.9743 55.9369 76.264 57.2325 65.7454C57.2325 65.7454 58.6382 80.5334 57.2325 82.7383C57.2325 82.7383 60.9076 86.1029 58.6932 65.2398C57.9354 57.7969 53.858 41.3096 57.2156 58.825C57.3426 59.4962 56.9488 66.2212 53.0536 70.5798Z" fill="#424376" stroke="#424376" stroke-linecap="round" stroke-linejoin="round"/>
<path d="M25.2192 71.1024C28.1562 71.1024 30.5371 68.7135 30.5371 65.7667C30.5371 62.8198 28.1562 60.4309 25.2192 60.4309C22.2823 60.4309 19.9014 62.8198 19.9014 65.7667C19.9014 68.7135 22.2823 71.1024 25.2192 71.1024Z" fill="#FBC59D"/>
<path d="M53.9171 68.0692C52.9263 68.2986 51.8551 68.2051 50.8602 67.7463C48.468 66.6333 47.4264 63.7912 48.5357 61.391C49.645 58.9907 52.4775 57.9456 54.8697 59.0587C55.6488 59.4198 56.2839 59.9636 56.7496 60.622C56.6141 61.4632 56.4278 62.3043 56.178 63.137C55.6445 64.917 54.8824 66.5695 53.9171 68.0734V68.0692Z" fill="#FBC59D"/>
<path d="M42.7377 63.6249C43.5068 63.4226 43.9961 62.7453 43.8306 62.1121C43.6652 61.4789 42.9076 61.1295 42.1386 61.3318C41.3695 61.5341 40.8802 62.2114 41.0457 62.8446C41.2111 63.4778 41.9687 63.8272 42.7377 63.6249Z" fill="white"/>
<path d="M52.2407 46.4373C53.9682 48.5486 55.268 50.9829 56.0217 53.6635C56.2503 54.4834 56.4324 55.3245 56.5551 56.1869C56.8176 58.0264 56.8177 59.8489 56.5721 61.6204C56.1148 64.968 54.8065 68.1414 52.825 70.9198" stroke="#424376" stroke-miterlimit="10"/>
<path d="M46.2204 45.507C46.2204 45.507 46.8343 52.7077 46.1992 53.5871L49.2731 53.8122C49.2731 53.8122 47.2027 46.569 46.2204 45.5112V45.507Z" fill="#FAEBE3"/>
<path d="M60.002 94.4124C60.002 94.4124 63.2579 94.782 63.7279 94.3445C64.1978 93.9069 65.2225 85.7503 64.8753 84.136C64.5281 82.5216 60.9504 84.0977 60.9504 84.0977L60.002 94.4082V94.4124Z" fill="#FBCF73" stroke="#424376" stroke-linecap="round" stroke-linejoin="round"/>
<path d="M60.4761 92.7046L64.2189 92.815" stroke="#424376" stroke-width="0.5" stroke-linecap="round" stroke-linejoin="round"/>
<path d="M61.0688 91.4641L64.257 91.5618" stroke="#424376" stroke-width="0.5" stroke-linecap="round" stroke-linejoin="round"/>
<path d="M61.1069 90.2068L64.2951 90.3045" stroke="#424376" stroke-width="0.5" stroke-linecap="round" stroke-linejoin="round"/>
<path d="M61.1494 88.9536L64.3376 89.0471" stroke="#424376" stroke-width="0.5" stroke-linecap="round" stroke-linejoin="round"/>
<path d="M61.187 87.696L64.3752 87.7938" stroke="#424376" stroke-width="0.5" stroke-linecap="round" stroke-linejoin="round"/>
<path d="M61.2251 86.4385L64.4133 86.5362" stroke="#424376" stroke-width="0.5" stroke-linecap="round" stroke-linejoin="round"/>
<path d="M61.2681 85.1855L64.4563 85.279" stroke="#424376" stroke-width="0.5" stroke-linecap="round" stroke-linejoin="round"/>
<path d="M43.4556 78.9619C43.4556 78.9619 42.3632 80.4402 42.4437 82.3604C42.5241 84.2806 43.3286 84.0045 43.5699 83.9025C43.8113 83.8006 47.2027 82.7045 47.4525 80.5295C47.7023 78.3501 46.2162 77.0247 45.8139 77.3305C45.4117 77.6364 43.4556 78.9619 43.4556 78.9619Z" fill="#FBCF73" stroke="#424376" stroke-linecap="round" stroke-linejoin="round"/>
<path d="M44.9584 83.3034C44.9584 83.3034 47.4056 88.2271 47.7401 89.3444L46.3514 89.9221C46.3514 89.9221 43.2097 83.3629 43.4257 82.938C43.6416 82.5132 44.4037 82.1733 44.9626 83.3034H44.9584Z" fill="white" stroke="#424376" stroke-linecap="round" stroke-linejoin="round"/>
<path d="M42.6849 84.1062C42.6849 84.1062 43.1634 82.0755 38.976 81.4595C34.6234 80.818 17.9119 73.3072 16.502 75.1169C15.0921 76.9267 14.8211 83.3882 17.1964 83.5199C19.5717 83.6516 34.6192 87.0672 42.6849 84.1062Z" fill="#FBCF73" stroke="#424376" stroke-linecap="round" stroke-linejoin="round"/>
<path d="M41.2797 83.7069C41.2797 83.7069 43.7269 88.6306 44.0614 89.7479L42.6727 90.3257C42.6727 90.3257 39.531 83.7664 39.747 83.3416C39.9629 82.9168 40.725 82.5769 41.2839 83.7069H41.2797Z" fill="white" stroke="#424376" stroke-linecap="round" stroke-linejoin="round"/>
<path d="M38.036 85.1132C38.036 85.1132 57.5207 81.7359 58.846 82.5346C59.6716 83.0316 60.7047 84.3528 61.3652 85.2832C61.7928 85.8822 61.9241 86.6468 61.7251 87.3563L59.553 95.0881C59.3371 95.8612 58.7571 96.4772 57.9992 96.7321C54.8914 97.7772 46.1864 100.067 35.8555 97.2292" fill="#FBCF73"/>
<path d="M38.036 85.1132C38.036 85.1132 57.5207 81.7359 58.846 82.5346C59.6716 83.0316 60.7047 84.3528 61.3652 85.2832C61.7928 85.8822 61.9241 86.6468 61.7251 87.3563L59.553 95.0881C59.3371 95.8612 58.7571 96.4772 57.9992 96.7321C54.8914 97.7772 46.1864 100.067 35.8555 97.2292" stroke="#424376" stroke-linecap="round" stroke-linejoin="round"/>
<path d="M47.7954 66.3104C47.2492 71.4763 43.2862 75.682 38.1335 76.1408C32.9849 76.5996 28.3445 73.1628 26.8965 68.1754L47.7954 66.3104Z" fill="white"/>
<path d="M47.7954 66.3104C47.2492 71.4763 43.2862 75.682 38.1335 76.1408C32.9849 76.5996 28.3445 73.1628 26.8965 68.1754L47.7954 66.3104Z" stroke="#424376" stroke-linecap="round" stroke-linejoin="round"/>
<path d="M23.5301 49.6573C23.5301 49.6573 18.1995 71.8671 24.5674 82.9592C24.5674 82.9592 13.178 77.8486 17.2341 51.4543L23.5301 49.6573Z" fill="#424376" stroke="#424376" stroke-linecap="round" stroke-linejoin="round"/>
<path d="M95.8379 108.665C95.8379 108.665 96.6889 87.6323 99.0049 81.1155L130.497 83.3331C130.497 83.3331 137.682 108.487 137.233 109.978" fill="#ED8F4D"/>
<path d="M95.8379 108.665C95.8379 108.665 96.6889 87.6323 99.0049 81.1155L130.497 83.3331C130.497 83.3331 137.682 108.487 137.233 109.978" stroke="#424376" stroke-linecap="round" stroke-linejoin="round"/>
<path d="M86.8874 110C90.3903 110 93.2299 106.31 93.2299 101.758C93.2299 97.2067 90.3903 93.5168 86.8874 93.5168C83.3846 93.5168 80.5449 97.2067 80.5449 101.758C80.5449 106.31 83.3846 110 86.8874 110Z" fill="#FFF8E8" stroke="#424376" stroke-miterlimit="10"/>
<path d="M80.6338 100.968C80.6338 100.968 85.6976 99.6591 93.1367 100.968" stroke="#424376" stroke-width="0.5" stroke-miterlimit="10"/>
<path d="M87 94L87 100" stroke="#424376" stroke-width="0.5" stroke-miterlimit="10" stroke-linecap="round"/>
<path d="M87.0616 95.8228H86.7144C86.5016 95.8228 86.3291 95.9958 86.3291 96.2093V97.7302C86.3291 97.9437 86.5016 98.1168 86.7144 98.1168H87.0616C87.2744 98.1168 87.4469 97.9437 87.4469 97.7302V96.2093C87.4469 95.9958 87.2744 95.8228 87.0616 95.8228Z" fill="#FFF8E8" stroke="#424376" stroke-width="0.5" stroke-miterlimit="10"/>
<path d="M116.94 91.6299C130.66 91.6299 141.781 81.3858 141.781 68.749C141.781 56.1122 130.66 45.868 116.94 45.868C103.221 45.868 92.0996 56.1122 92.0996 68.749C92.0996 81.3858 103.221 91.6299 116.94 91.6299Z" fill="#FAEBE3" stroke="#424376" stroke-miterlimit="10"/>
<path d="M101.372 50.0611C101.19 53.1793 101.287 59.7513 104.865 63.0734L118.435 44.3048C118.435 44.3048 114.116 41.4882 102.947 47.5462C102.02 48.0475 101.431 49.0076 101.372 50.0611Z" fill="#424376" stroke="#424376" stroke-width="2" stroke-linecap="round" stroke-linejoin="round"/>
<path d="M97.5276 62.3554C97.7801 62.3554 97.9849 61.897 97.9849 61.3316C97.9849 60.7661 97.7801 60.3077 97.5276 60.3077C97.275 60.3077 97.0703 60.7661 97.0703 61.3316C97.0703 61.897 97.275 62.3554 97.5276 62.3554Z" fill="#424376" stroke="#424376" stroke-width="2" stroke-miterlimit="10"/>
<path d="M103.155 76.073C105.916 76.073 108.155 73.8267 108.155 71.0558C108.155 68.285 105.916 66.0387 103.155 66.0387C100.393 66.0387 98.1543 68.285 98.1543 71.0558C98.1543 73.8267 100.393 76.073 103.155 76.073Z" fill="#FBC59D"/>
<path d="M92.6675 73.167C92.6675 73.167 94.6278 73.8552 99.0057 72.4193" stroke="#424376" stroke-linecap="round" stroke-linejoin="round"/>
<path d="M138.415 96.7149C135.548 97.7728 125.281 98.6564 125.281 98.6564L123.93 93.2102L121.233 98.5247C112.477 99.3701 102.206 95.7548 102.206 95.7548C99.5509 89.7521 100.334 79.5011 102.108 69.7132C102.587 67.0793 103.137 64.4709 103.713 61.9942C104.183 59.9593 104.674 58.0094 105.148 56.1954C107.206 48.3659 114.81 43.3233 122.787 44.568C131.708 45.9572 134.409 49.7253 138.419 53.9608C146.404 62.3893 141.285 95.6529 138.419 96.7107L138.415 96.7149Z" fill="#424376" stroke="#424376" stroke-linecap="round" stroke-linejoin="round"/>
<path d="M106.673 65.6476C106.745 67.8184 104.949 69.6452 102.655 69.7216C102.295 69.7344 101.948 69.7004 101.609 69.6324C102.003 66.9815 102.464 64.3604 102.955 61.8624C104.992 62.0536 106.609 63.6467 106.677 65.6476H106.673Z" fill="#FAEBE3"/>
<path d="M104.432 58.9907C104.432 58.9907 108.069 41.658 116.94 42.9579C125.814 44.2579 119.569 46.45 113.163 51.4161C110.597 53.4086 103.759 62.3171 104.428 58.9865L104.432 58.9907Z" fill="#FBCF73" stroke="#424376" stroke-width="2" stroke-linecap="round" stroke-linejoin="round"/>
<path d="M97.3585 60.3672L96.5752 59.645" stroke="#424376" stroke-linecap="round" stroke-linejoin="round"/>
</svg>
