<svg width="151" height="175" viewBox="0 0 151 175" fill="none" xmlns="http://www.w3.org/2000/svg">
<path d="M75.2695 0.496094C116.84 0.496127 150.539 34.1957 150.539 75.7656C150.539 113.882 122.207 145.379 85.4531 150.35L77.5166 175L69.7344 150.832C30.7488 147.998 0.000194771 115.474 0 75.7656C0 34.1957 33.6994 0.496094 75.2695 0.496094Z" fill="#C5E8FF"/>
<g clip-path="url(#clip0_2310_1397)">
<path d="M107.065 114.629L52.09 91.0433C51.051 90.5992 50.8443 89.8194 51.6385 89.3049L64.5799 80.8671C65.4558 80.2985 67.104 80.1848 68.2682 80.6234L130.848 102.248C132.491 102.871 132.241 105.644 130.935 106.229L111.782 114.813C110.623 115.333 108.518 115.246 107.076 114.629H107.065Z" fill="#424376"/>
<path d="M107.925 112.468L53.8417 89.4132C52.7972 88.9692 52.5905 88.1893 53.3847 87.6748L65.5211 79.7624C66.3969 79.1937 68.0451 79.08 69.2093 79.5187L129.864 102.4C131.496 103.018 131.768 103.998 130.468 104.588L112.625 112.647C111.466 113.167 109.361 113.091 107.919 112.473L107.925 112.468Z" fill="#FFF7E7"/>
<path d="M110.655 113.524C109.649 113.524 108.577 113.334 107.707 112.961L53.624 89.906C52.8678 89.5864 52.4109 89.0719 52.3565 88.4979C52.3293 88.2108 52.3946 87.6638 53.08 87.2089L65.2163 79.2965C66.239 78.6304 68.0722 78.5004 69.3941 78.9987L130.049 101.88C131.175 102.303 131.806 102.925 131.827 103.629C131.838 103.971 131.702 104.604 130.685 105.065L112.842 113.123C112.255 113.389 111.477 113.519 110.645 113.519L110.655 113.524ZM108.137 111.97C109.437 112.522 111.39 112.603 112.402 112.148L130.244 104.09C130.62 103.922 130.75 103.749 130.745 103.673C130.745 103.532 130.446 103.196 129.668 102.904L69.0133 80.0222C68.0178 79.6486 66.5545 79.7352 65.8147 80.2118L53.6784 88.1242C53.526 88.2217 53.4336 88.3354 53.439 88.4112C53.4445 88.4979 53.5859 88.7199 54.0483 88.9149L108.131 111.97H108.137Z" fill="#424376"/>
<path d="M87.5632 102.481L70.0631 95.0834C69.5572 94.8722 69.4647 94.5094 69.851 94.2819L70.8302 93.7078C71.2218 93.475 71.9562 93.4641 72.473 93.6753L90.2559 101.062C90.8271 101.301 90.9304 101.68 90.4844 101.913L89.3746 102.492C88.934 102.72 88.1235 102.714 87.5577 102.476L87.5632 102.481Z" fill="#798DAE"/>
<path d="M68.7305 86.104L67.2726 85.5246C66.8919 85.3729 66.8211 85.1021 67.1149 84.918L68.2301 84.214C68.5238 84.0298 69.0732 84.0027 69.4595 84.149L70.9391 84.7285C71.3308 84.8801 71.4015 85.1563 71.1023 85.3404L69.9654 86.0445C69.6662 86.2286 69.1168 86.2503 68.7305 86.0986V86.104Z" fill="#798DAE"/>
<path d="M72.4131 87.5663L70.9226 86.976C70.5364 86.819 70.4602 86.5482 70.7594 86.364L71.9018 85.66C72.201 85.4759 72.7667 85.4488 73.1638 85.6004L74.6761 86.1907C75.0732 86.3478 75.1494 86.624 74.8393 86.8081L73.6697 87.5122C73.3651 87.6963 72.7993 87.718 72.4077 87.5609L72.4131 87.5663Z" fill="#798DAE"/>
<path d="M76.1832 89.0665L74.66 88.46C74.2629 88.3029 74.1867 88.0267 74.4968 87.8426L75.6718 87.1385C75.9819 86.9544 76.5585 86.9273 76.9611 87.0844L78.506 87.6909C78.914 87.848 78.9901 88.1296 78.6746 88.3192L77.4779 89.0286C77.1678 89.2127 76.5857 89.2344 76.1832 89.0719V89.0665Z" fill="#798DAE"/>
<path d="M80.0345 90.5992L78.4787 89.9818C78.0707 89.8194 78 89.5432 78.3101 89.3536L79.5123 88.6442C79.8278 88.46 80.4208 88.4384 80.8342 88.5954L82.4172 89.2128C82.836 89.3753 82.9122 89.6623 82.5858 89.8464L81.3618 90.5559C81.0409 90.74 80.4479 90.7563 80.04 90.5938L80.0345 90.5992Z" fill="#798DAE"/>
<path d="M83.9729 92.1643L82.379 91.5307C81.9656 91.3682 81.8895 91.0812 82.2104 90.897L83.4453 90.1876C83.7717 89.998 84.3755 89.9818 84.7943 90.1443L86.41 90.7779C86.8343 90.9458 86.9159 91.2328 86.5841 91.4169L85.3274 92.1264C85.0011 92.3105 84.3918 92.3268 83.9729 92.1589V92.1643Z" fill="#798DAE"/>
<path d="M87.9985 93.7619L86.3666 93.112C85.9423 92.9442 85.8661 92.6571 86.1925 92.473L87.46 91.7635C87.7918 91.574 88.412 91.5577 88.8471 91.731L90.5009 92.3755C90.9361 92.5488 91.0176 92.8358 90.6749 93.0254L89.3857 93.7349C89.0484 93.919 88.4283 93.9298 87.9985 93.7619Z" fill="#798DAE"/>
<path d="M92.1222 95.403L90.4522 94.7422C90.017 94.5689 89.9408 94.2819 90.2781 94.0924L91.5782 93.3829C91.9209 93.1933 92.5574 93.1825 92.998 93.3558L94.6898 94.0165C95.1359 94.1898 95.2175 94.4877 94.8693 94.6718L93.5474 95.3867C93.2047 95.5708 92.5683 95.5817 92.1276 95.4084L92.1222 95.403Z" fill="#798DAE"/>
<path d="M96.3431 97.0818L94.635 96.4049C94.1889 96.2262 94.1128 95.9337 94.4555 95.7496L95.7882 95.0347C96.1418 94.8451 96.7892 94.8343 97.2407 95.013L98.976 95.69C99.433 95.8687 99.5146 96.1666 99.1555 96.3561L97.7956 97.071C97.442 97.2552 96.7892 97.2606 96.3377 97.0818H96.3431Z" fill="#798DAE"/>
<path d="M100.668 98.7987L98.9216 98.1055C98.4647 97.9268 98.3831 97.6289 98.7421 97.4393L100.108 96.7245C100.467 96.5349 101.136 96.5295 101.598 96.7082L103.377 97.4014C103.845 97.5856 103.926 97.8888 103.562 98.073L102.169 98.7879C101.805 98.972 101.136 98.9774 100.673 98.7879L100.668 98.7987Z" fill="#798DAE"/>
<path d="M105.09 100.559L103.301 99.8493C102.833 99.6652 102.751 99.3619 103.116 99.1778L104.519 98.4629C104.889 98.2734 105.575 98.2734 106.048 98.4575L107.87 99.167C108.349 99.3565 108.436 99.6598 108.055 99.8493L106.624 100.564C106.249 100.748 105.564 100.748 105.09 100.564V100.559Z" fill="#798DAE"/>
<path d="M109.627 102.362L107.794 101.631C107.315 101.441 107.234 101.138 107.609 100.949L109.051 100.234C109.431 100.044 110.133 100.044 110.617 100.234L112.483 100.965C112.973 101.16 113.06 101.469 112.674 101.653L111.205 102.368C110.824 102.552 110.117 102.546 109.633 102.357L109.627 102.362Z" fill="#798DAE"/>
<path d="M114.273 104.209L112.391 103.461C111.901 103.266 111.814 102.958 112.2 102.774L113.68 102.059C114.072 101.869 114.79 101.875 115.29 102.07L117.2 102.817C117.706 103.012 117.793 103.326 117.39 103.516L115.878 104.23C115.486 104.415 114.763 104.409 114.268 104.209H114.273Z" fill="#798DAE"/>
<path d="M119.033 106.099L117.107 105.335C116.607 105.135 116.52 104.821 116.917 104.637L118.44 103.922C118.843 103.732 119.582 103.743 120.088 103.938L122.047 104.702C122.563 104.902 122.65 105.222 122.242 105.411L120.687 106.126C120.284 106.31 119.539 106.299 119.033 106.099Z" fill="#798DAE"/>
<path d="M66.7502 88.1351L65.3141 87.5502C64.9387 87.3986 64.868 87.1278 65.1563 86.9491L66.2552 86.2613C66.5435 86.0772 67.0875 86.0555 67.4683 86.2071L68.9262 86.792C69.3124 86.9437 69.3831 87.2199 69.0894 87.3986L67.9687 88.0918C67.675 88.2705 67.131 88.2922 66.7502 88.1405V88.1351Z" fill="#798DAE"/>
<path d="M70.3845 89.608L68.9157 89.0123C68.5349 88.8552 68.4588 88.5844 68.7525 88.4057L69.8786 87.7125C70.1778 87.5284 70.7326 87.5067 71.1189 87.6638L72.6094 88.2595C73.001 88.4166 73.0772 88.6928 72.7726 88.8769L71.6248 89.5701C71.3256 89.7488 70.7653 89.7705 70.379 89.6134L70.3845 89.608Z" fill="#798DAE"/>
<path d="M74.0995 91.119L72.5981 90.507C72.2064 90.35 72.1357 90.0738 72.4349 89.8951L73.5881 89.2019C73.8928 89.0177 74.4639 89.0015 74.8611 89.1585L76.3842 89.7651C76.7868 89.9276 76.8629 90.2038 76.5474 90.3879L75.367 91.0811C75.0623 91.2598 74.4911 91.2761 74.094 91.119H74.0995Z" fill="#798DAE"/>
<path d="M77.8969 92.6572L76.3628 92.0344C75.9603 91.8719 75.8896 91.5957 76.1996 91.4115L77.3855 90.7183C77.6956 90.5342 78.2777 90.5179 78.6857 90.6804L80.2469 91.3032C80.6603 91.4657 80.731 91.7473 80.4155 91.9315L79.2079 92.6247C78.8924 92.8034 78.3103 92.8196 77.9023 92.6572H77.8969Z" fill="#798DAE"/>
<path d="M81.7753 94.2332L80.2032 93.5941C79.7952 93.4262 79.7191 93.1446 80.0346 92.9659L81.2477 92.2727C81.5686 92.0885 82.1616 92.0723 82.5804 92.2402L84.1743 92.8792C84.5932 93.0471 84.6693 93.3342 84.3429 93.5183L83.1026 94.2115C82.7817 94.3902 82.1833 94.4011 81.7699 94.2332H81.7753Z" fill="#798DAE"/>
<path d="M85.7466 95.8471L84.1418 95.1972C83.7229 95.0293 83.6468 94.7423 83.9732 94.5636L85.2189 93.8649C85.5453 93.6808 86.16 93.67 86.5843 93.8378L88.2163 94.4877C88.646 94.661 88.7222 94.9481 88.3903 95.1322L87.1228 95.8308C86.791 96.015 86.1817 96.0204 85.7574 95.8471H85.7466Z" fill="#798DAE"/>
<path d="M89.8098 97.4988L88.1669 96.8327C87.7372 96.6594 87.661 96.3724 87.9929 96.1882L89.2712 95.4896C89.6085 95.3055 90.2341 95.2946 90.6693 95.4734L92.3393 96.1395C92.7799 96.3128 92.8561 96.6052 92.5134 96.7894L91.2132 97.488C90.876 97.6721 90.245 97.6721 89.8152 97.4988H89.8098Z" fill="#798DAE"/>
<path d="M93.9715 99.1832L92.2906 98.5008C91.85 98.3221 91.7738 98.0297 92.1165 97.8509L93.4275 97.1523C93.7702 96.9682 94.4121 96.9627 94.8582 97.1415L96.5663 97.8239C97.0178 98.0026 97.0994 98.3004 96.7458 98.4846L95.4076 99.1832C95.0595 99.3673 94.4176 99.3673 93.9715 99.1832Z" fill="#798DAE"/>
<path d="M98.2255 100.911L96.5011 100.212C96.055 100.028 95.9734 99.7355 96.3216 99.5513L97.6652 98.8527C98.0188 98.6686 98.677 98.6686 99.134 98.8527L100.886 99.5513C101.348 99.7355 101.43 100.033 101.065 100.217L99.6943 100.916C99.3352 101.1 98.677 101.095 98.2255 100.916V100.911Z" fill="#798DAE"/>
<path d="M102.588 102.682L100.826 101.967C100.369 101.783 100.287 101.479 100.646 101.301L102.028 100.602C102.393 100.418 103.067 100.418 103.53 100.602L105.319 101.317C105.793 101.506 105.874 101.81 105.504 101.994L104.095 102.692C103.731 102.877 103.051 102.871 102.588 102.682Z" fill="#798DAE"/>
<path d="M107.049 104.496L105.243 103.765C104.769 103.575 104.688 103.272 105.058 103.088L106.472 102.389C106.847 102.205 107.538 102.21 108.017 102.4L109.856 103.131C110.34 103.326 110.421 103.629 110.041 103.814L108.594 104.512C108.218 104.696 107.522 104.685 107.049 104.49V104.496Z" fill="#798DAE"/>
<path d="M111.624 106.348L109.774 105.595C109.29 105.4 109.208 105.092 109.589 104.913L111.042 104.214C111.428 104.03 112.135 104.041 112.625 104.236L114.507 104.989C115.002 105.189 115.089 105.498 114.697 105.682L113.212 106.381C112.826 106.565 112.113 106.549 111.629 106.354L111.624 106.348Z" fill="#798DAE"/>
<path d="M116.313 108.255L114.414 107.485C113.919 107.285 113.838 106.976 114.224 106.792L115.72 106.094C116.112 105.91 116.841 105.92 117.341 106.121L119.272 106.89C119.784 107.096 119.865 107.41 119.463 107.594L117.934 108.292C117.537 108.477 116.808 108.455 116.308 108.255H116.313Z" fill="#798DAE"/>
<path d="M64.6508 90.0685L63.231 89.4836C62.8611 89.332 62.7904 89.0666 63.0733 88.8879L64.1558 88.2109C64.4387 88.0322 64.9772 88.0106 65.3526 88.1622L66.7887 88.7471C67.1695 88.9042 67.2402 89.1695 66.9465 89.3482L65.8422 90.0252C65.5539 90.2039 65.0153 90.2202 64.6454 90.0631L64.6508 90.0685Z" fill="#798DAE"/>
<path d="M68.2303 91.5524L66.7833 90.9513C66.408 90.7942 66.3373 90.5234 66.6256 90.3501L67.7353 89.6732C68.0291 89.4944 68.573 89.4782 68.9593 89.6298L70.428 90.231C70.8143 90.388 70.8904 90.6642 70.5912 90.843L69.4597 91.5199C69.166 91.6987 68.6166 91.7095 68.2358 91.5524H68.2303Z" fill="#798DAE"/>
<path d="M71.8911 93.0688L70.4115 92.4568C70.0253 92.2944 69.9545 92.0236 70.2483 91.8449L71.3852 91.1679C71.6844 90.9892 72.2447 90.9729 72.6364 91.13L74.1378 91.742C74.5349 91.9044 74.6056 92.1807 74.301 92.3594L73.1423 93.0363C72.8377 93.2151 72.2774 93.2259 71.8911 93.0634V93.0688Z" fill="#798DAE"/>
<path d="M60.7502 91.0595L59.3685 90.4746C59.0095 90.323 58.9388 90.0576 59.2162 89.8843L60.2715 89.2236C60.549 89.0503 61.0712 89.0286 61.4357 89.1803L62.8391 89.7652C63.209 89.9168 63.2798 90.1876 62.9969 90.3609L61.9252 91.027C61.6478 91.2003 61.1256 91.2166 60.7611 91.0595H60.7502Z" fill="#798DAE"/>
<path d="M64.2425 92.5327L62.8336 91.937C62.4637 91.7799 62.3929 91.5145 62.6758 91.3412L63.7529 90.6751C64.0358 90.5018 64.5689 90.4856 64.9442 90.6372L66.3749 91.2329C66.7503 91.39 66.821 91.6608 66.5327 91.8341L65.4338 92.5002C65.1455 92.6735 64.6124 92.6843 64.2425 92.5273V92.5327Z" fill="#798DAE"/>
<path d="M67.8113 94.0381L66.3698 93.4315C65.9944 93.2745 65.9237 93.0037 66.212 92.8304L67.3163 92.1642C67.61 91.9909 68.154 91.9747 68.5348 92.1317L69.9981 92.7383C70.3844 92.9008 70.4551 93.1716 70.1613 93.3449L69.0353 94.011C68.7415 94.1843 68.1975 94.1951 67.8168 94.0327L67.8113 94.0381Z" fill="#798DAE"/>
<path d="M75.6337 94.6176L74.1214 93.9894C73.7297 93.8269 73.6536 93.5507 73.9582 93.372L75.1223 92.6951C75.4269 92.5163 76.0036 92.5001 76.4007 92.668L77.9347 93.2962C78.3373 93.4587 78.4134 93.7403 78.1034 93.919L76.9175 94.6014C76.6074 94.7801 76.0308 94.7855 75.6337 94.6231V94.6176Z" fill="#798DAE"/>
<path d="M79.458 96.2045L77.9131 95.5654C77.5106 95.3975 77.4344 95.1213 77.7445 94.9426L78.9358 94.2602C79.2513 94.0815 79.8388 94.0707 80.2468 94.2386L81.8189 94.8776C82.2323 95.0455 82.3085 95.3271 81.9876 95.5113L80.769 96.1937C80.4535 96.3724 79.866 96.3778 79.458 96.2099V96.2045Z" fill="#798DAE"/>
<path d="M83.3693 97.8238L81.7863 97.1685C81.3728 96.9952 81.2967 96.7135 81.6176 96.5402L82.8416 95.8579C83.1626 95.6791 83.7664 95.6683 84.1853 95.8416L85.79 96.4969C86.2143 96.6702 86.2905 96.9573 85.9586 97.136L84.7129 97.8184C84.3865 97.9971 83.7827 97.9971 83.3693 97.8292V97.8238Z" fill="#798DAE"/>
<path d="M87.3674 99.4811L85.7517 98.8095C85.3274 98.6362 85.2513 98.3492 85.5831 98.1705L86.8397 97.4881C87.1715 97.3094 87.7862 97.3039 88.216 97.4773L89.8588 98.1488C90.294 98.3275 90.3702 98.6146 90.0329 98.7933L88.7545 99.4757C88.4227 99.6544 87.8026 99.6544 87.3783 99.4757L87.3674 99.4811Z" fill="#798DAE"/>
<path d="M91.4582 101.181L89.8045 100.494C89.3747 100.315 89.2931 100.028 89.6304 99.8492L90.9197 99.1668C91.2569 98.9881 91.888 98.9827 92.3286 99.1668L94.0095 99.8546C94.4556 100.033 94.5317 100.331 94.1836 100.51L92.8726 101.192C92.5299 101.371 91.8988 101.366 91.4636 101.187L91.4582 101.181Z" fill="#798DAE"/>
<path d="M95.6523 102.915L93.955 102.21C93.5144 102.026 93.4328 101.734 93.7809 101.555L95.1028 100.873C95.451 100.694 96.0983 100.694 96.5444 100.873L98.2634 101.577C98.7149 101.761 98.7965 102.059 98.4429 102.238L97.0938 102.92C96.7402 103.099 96.0929 103.093 95.6468 102.909L95.6523 102.915Z" fill="#798DAE"/>
<path d="M99.9391 104.691L98.2038 103.971C97.7523 103.781 97.6707 103.489 98.0243 103.31L99.3788 102.628C99.7378 102.449 100.396 102.454 100.858 102.638L102.621 103.359C103.083 103.548 103.165 103.846 102.8 104.03L101.419 104.713C101.06 104.891 100.396 104.88 99.9391 104.691Z" fill="#798DAE"/>
<path d="M92.1057 104.301L90.4466 103.602C90.0168 103.418 89.9352 103.131 90.2725 102.958L91.5618 102.286C91.9045 102.108 92.5355 102.113 92.9707 102.297L94.657 102.996C95.1031 103.18 95.1793 103.472 94.8311 103.651L93.5147 104.323C93.1719 104.496 92.5409 104.49 92.1003 104.301H92.1057Z" fill="#798DAE"/>
<path d="M96.3051 106.072L94.6078 105.357C94.1672 105.168 94.0856 104.881 94.4338 104.702L95.7557 104.03C96.1038 103.852 96.7511 103.862 97.2027 104.046L98.9271 104.761C99.384 104.951 99.4602 105.249 99.1066 105.422L97.7575 106.094C97.4039 106.267 96.7566 106.256 96.3105 106.067L96.3051 106.072Z" fill="#798DAE"/>
<path d="M104.329 106.511L102.55 105.774C102.088 105.585 102.006 105.281 102.371 105.103L103.763 104.42C104.128 104.242 104.808 104.247 105.281 104.442L107.087 105.178C107.566 105.373 107.647 105.677 107.272 105.855L105.852 106.538C105.482 106.717 104.802 106.7 104.334 106.511H104.329Z" fill="#798DAE"/>
<path d="M108.828 108.379L107.005 107.626C106.532 107.431 106.451 107.128 106.82 106.949L108.251 106.267C108.626 106.088 109.323 106.099 109.807 106.294L111.656 107.047C112.146 107.247 112.228 107.556 111.841 107.735L110.384 108.417C110.003 108.596 109.306 108.579 108.828 108.379Z" fill="#798DAE"/>
<path d="M102.022 108.487L100.271 107.745C99.8138 107.55 99.7322 107.258 100.091 107.079L101.462 106.408C101.821 106.229 102.49 106.245 102.958 106.435L104.737 107.177C105.205 107.372 105.286 107.675 104.922 107.848L103.524 108.52C103.159 108.693 102.49 108.677 102.028 108.482L102.022 108.487Z" fill="#798DAE"/>
<path d="M106.456 110.361L104.661 109.603C104.193 109.408 104.111 109.105 104.476 108.931L105.885 108.26C106.254 108.081 106.94 108.097 107.419 108.298L109.241 109.056C109.72 109.256 109.807 109.56 109.426 109.738L107.99 110.405C107.614 110.578 106.929 110.556 106.456 110.356V110.361Z" fill="#798DAE"/>
<path d="M69.9162 83.9053L68.4475 83.3312C68.0667 83.1796 67.9905 82.9088 68.2843 82.7247L69.4103 82.0098C69.7095 81.8202 70.2644 81.7878 70.6506 81.9394L72.1411 82.508C72.5328 82.6597 72.6089 82.9359 72.3043 83.1254L71.1565 83.8403C70.8573 84.0299 70.297 84.0569 69.9108 83.9053H69.9162Z" fill="#798DAE"/>
<path d="M73.6317 85.3513L72.1303 84.7664C71.7386 84.6148 71.6679 84.3385 71.9671 84.149L73.1258 83.4287C73.4304 83.2392 74.0016 83.2067 74.3987 83.3637L75.9219 83.9486C76.3244 84.1003 76.4006 84.3819 76.0905 84.5714L74.9101 85.2917C74.6 85.4813 74.0342 85.5083 73.6371 85.3513H73.6317Z" fill="#798DAE"/>
<path d="M77.4345 86.8353L75.8951 86.2341C75.4925 86.0771 75.4218 85.8009 75.7319 85.6113L76.9178 84.891C77.2278 84.7015 77.8153 84.6744 78.2179 84.8315L79.7791 85.4272C80.1926 85.5843 80.2633 85.8659 79.9478 86.0554L78.7401 86.7757C78.4246 86.9653 77.8425 86.9869 77.4345 86.8299V86.8353Z" fill="#798DAE"/>
<path d="M81.3237 88.3462L79.7515 87.7342C79.3436 87.5772 79.2674 87.2955 79.5829 87.106L80.796 86.3857C81.117 86.1961 81.7153 86.1691 82.1288 86.3315L83.7226 86.9435C84.1415 87.106 84.2177 87.3876 83.8913 87.5826L82.651 88.3029C82.33 88.4924 81.7317 88.5141 81.3128 88.3516L81.3237 88.3462Z" fill="#798DAE"/>
<path d="M85.295 89.8951L83.6848 89.2668C83.2659 89.1044 83.1897 88.8173 83.5161 88.6278L84.7619 87.9021C85.0883 87.7125 85.703 87.6909 86.1273 87.8533L87.7592 88.4762C88.189 88.6386 88.2651 88.9311 87.9333 89.1206L86.6604 89.8463C86.3285 90.0359 85.7193 90.0521 85.295 89.8897V89.8951Z" fill="#798DAE"/>
<path d="M89.364 91.482L87.7211 90.8429C87.2914 90.675 87.2152 90.388 87.5471 90.1984L88.8254 89.4727C89.1627 89.2832 89.7883 89.2615 90.2235 89.4294L91.8935 90.0685C92.3341 90.2363 92.4157 90.5288 92.0676 90.7183L90.762 91.4441C90.4247 91.6336 89.7937 91.6499 89.3585 91.482H89.364Z" fill="#798DAE"/>
<path d="M93.5253 93.1011L91.8389 92.4458C91.3983 92.2725 91.3222 91.9855 91.6649 91.796L92.9759 91.0702C93.324 90.8807 93.9605 90.859 94.4066 91.0323L96.1147 91.6876C96.5662 91.8609 96.6478 92.1588 96.2942 92.3484L94.956 93.0741C94.6078 93.2636 93.9659 93.2745 93.5199 93.1011H93.5253Z" fill="#798DAE"/>
<path d="M97.7902 94.7639L96.0657 94.0923C95.6142 93.919 95.5381 93.6212 95.8862 93.4316L97.2299 92.7059C97.5834 92.5164 98.2417 92.5001 98.6986 92.6734L100.45 93.345C100.913 93.5237 100.994 93.8215 100.63 94.0111L99.2589 94.7368C98.8999 94.9264 98.2417 94.9372 97.7847 94.7585L97.7902 94.7639Z" fill="#798DAE"/>
<path d="M102.153 96.4644L100.385 95.7766C99.9228 95.5979 99.8467 95.3 100.206 95.1105L101.587 94.3794C101.952 94.1898 102.626 94.1736 103.094 94.3577L104.889 95.0455C105.363 95.2242 105.444 95.5275 105.074 95.7225L103.665 96.4536C103.296 96.6431 102.621 96.6485 102.159 96.4698L102.153 96.4644Z" fill="#798DAE"/>
<path d="M106.624 98.203L104.818 97.4989C104.345 97.3148 104.264 97.0115 104.633 96.822L106.053 96.0908C106.429 95.8959 107.119 95.8904 107.598 96.0746L109.437 96.7786C109.921 96.9628 110.008 97.2715 109.622 97.4664L108.175 98.1976C107.799 98.3871 107.103 98.3925 106.63 98.203H106.624Z" fill="#798DAE"/>
<path d="M111.205 99.9902L109.35 99.2699C108.866 99.0803 108.784 98.777 109.165 98.5875L110.623 97.8563C111.009 97.6614 111.716 97.6614 112.206 97.8455L114.088 98.5658C114.583 98.7554 114.67 99.0695 114.278 99.259L112.793 99.9902C112.407 100.18 111.694 100.18 111.205 99.9902Z" fill="#798DAE"/>
<path d="M115.894 101.815L113.995 101.073C113.5 100.878 113.413 100.57 113.805 100.38L115.301 99.6489C115.698 99.4539 116.422 99.4539 116.927 99.6489L118.859 100.391C119.37 100.586 119.457 100.9 119.049 101.095L117.52 101.826C117.123 102.016 116.394 102.01 115.894 101.815Z" fill="#798DAE"/>
<path d="M120.709 103.689L118.761 102.931C118.255 102.736 118.168 102.422 118.571 102.227L120.11 101.496C120.518 101.301 121.264 101.306 121.78 101.501L123.76 102.259C124.283 102.46 124.37 102.779 123.956 102.974L122.384 103.705C121.976 103.895 121.225 103.889 120.714 103.689H120.709Z" fill="#798DAE"/>
<path d="M66.2771 82.4865L65.4557 82.167C65.0803 82.0207 65.0096 81.7499 65.2979 81.5658L66.4022 80.8509C66.696 80.6614 67.24 80.6289 67.6208 80.7751L68.4531 81.0946C68.8393 81.2409 68.91 81.5171 68.6163 81.7012L67.4956 82.4161C67.2019 82.6002 66.6579 82.6327 66.2771 82.4865Z" fill="#798DAE"/>
<path d="M57.0728 89.5052L55.2504 88.7362C54.8968 88.59 54.8315 88.33 55.0981 88.1567L56.1208 87.496C56.3928 87.3227 56.8987 87.301 57.2523 87.4472L59.1018 88.2163C59.4609 88.3679 59.5316 88.6279 59.2541 88.8066L58.2097 89.4673C57.9377 89.6406 57.4264 89.6569 57.0728 89.5052Z" fill="#798DAE"/>
<path d="M65.0588 84.6473L62.9263 83.797C62.5564 83.6508 62.4857 83.3854 62.7686 83.2013L63.8566 82.5027C64.1449 82.3185 64.678 82.286 65.0533 82.4322L67.2184 83.2771C67.5992 83.4287 67.6699 83.6995 67.3762 83.8837L66.2664 84.5877C65.9781 84.7719 65.4341 84.7989 65.0588 84.6473Z" fill="#798DAE"/>
<path d="M63.1927 86.6891L60.2715 85.503C59.907 85.3568 59.8363 85.0914 60.1138 84.9127L61.18 84.2249C61.4628 84.0462 61.9851 84.0137 62.355 84.1653L65.3197 85.3514C65.6951 85.503 65.7658 85.7738 65.4775 85.9525L64.384 86.6403C64.0957 86.819 63.5681 86.8407 63.1927 86.6945V86.6891Z" fill="#798DAE"/>
<path d="M61.1149 88.6061L57.666 87.1763C57.307 87.0301 57.2417 86.7647 57.5137 86.5914L58.5581 85.9199C58.8356 85.7412 59.3469 85.7195 59.7114 85.8657L63.2092 87.2901C63.5791 87.4417 63.6498 87.7071 63.367 87.8858L62.2899 88.5628C62.007 88.7415 61.4848 88.7577 61.1203 88.6061H61.1149Z" fill="#798DAE"/>
<path d="M67.3269 26.5419L138.045 45.1125C138.41 45.2099 138.774 45.719 138.736 46.071L133.301 93.8324L67.8926 72.267C67.7893 72.2182 67.5336 71.9691 67.4357 71.6496C67.4248 71.6117 67.4248 71.5954 67.4248 71.59L67.3378 26.5473M66.3097 23C65.0204 23 64.063 24.0669 64.063 25.6429L64.1555 71.5954C64.1555 71.9312 64.2099 72.267 64.3132 72.6027C64.6831 73.8375 65.6786 74.9586 66.8536 75.3485L132.894 97.1198C133.263 97.2443 133.628 97.2985 133.971 97.2985C135.26 97.2985 136.283 96.4753 136.435 95.1593L141.984 46.4393C142.207 44.4842 140.819 42.4804 138.883 41.9767L66.9624 23.0867C66.7394 23.0271 66.5164 23 66.3097 23Z" fill="#424376"/>
<path d="M131.125 94.894C130.962 94.894 130.783 94.8615 130.598 94.8019L66.4781 73.7997C65.8743 73.5993 65.2759 72.9386 65.0583 72.2183C65.0039 72.0396 64.9767 71.8662 64.9767 71.7038L64.8896 27.2568C64.8896 26.8994 64.9767 26.6069 65.1344 26.4553C65.216 26.374 65.3085 26.3416 65.4336 26.3416C65.4989 26.3416 65.5751 26.3524 65.6567 26.374L135.26 44.6522C136.337 44.9338 137.18 46.1307 137.06 47.2084L131.881 94.2657C131.838 94.6828 131.582 94.894 131.125 94.894Z" fill="#C5E8FF"/>
<path d="M66.5218 28.2804L134.841 46.2227C135.173 46.3093 135.466 46.7643 135.434 47.0296L130.375 93.0201L67.0059 72.267C66.9134 72.2236 66.6958 72.0016 66.6142 71.7308C66.6088 71.7146 66.6088 71.7037 66.6088 71.7037L66.5218 28.2804ZM65.4338 24.7168C64.1826 24.7168 63.2524 25.7458 63.2578 27.2622L63.3449 71.7146C63.3449 72.0395 63.3938 72.3645 63.4972 72.6894C63.8562 73.8863 64.8245 74.9748 65.9723 75.3485L130.092 96.3453C130.451 96.4645 130.799 96.5186 131.125 96.5186C132.377 96.5186 133.367 95.7171 133.508 94.439L138.687 47.3817C138.894 45.497 137.55 43.569 135.679 43.0816L66.0702 24.8034C65.8472 24.7439 65.6351 24.7168 65.4283 24.7168H65.4338Z" fill="#798DAE"/>
<path d="M101.168 73.4476H98.6982C98.4752 73.4476 98.2739 73.3122 98.1923 73.1064C98.1107 72.9006 98.1651 72.6623 98.3229 72.5107C98.9158 71.9528 98.2521 69.0229 97.2567 66.64C97.1424 66.3638 97.273 66.0497 97.5504 65.9305C97.8278 65.8168 98.1433 65.9468 98.263 66.223C98.72 67.317 99.9494 70.5285 99.5523 72.3644H101.168C101.467 72.3644 101.712 72.6082 101.712 72.906C101.712 73.2039 101.467 73.4476 101.168 73.4476Z" fill="#ED8F4D"/>
<path d="M108.142 70.1494C108.109 70.1494 108.076 70.1494 108.049 70.144C107.886 70.1169 107.745 70.014 107.668 69.8732C105.813 66.5101 101.908 65.7519 101.87 65.7464C101.576 65.6923 101.38 65.4107 101.434 65.1128C101.489 64.8149 101.772 64.62 102.065 64.6795C102.234 64.712 106.08 65.4486 108.278 68.7792L109.872 67.382C110.095 67.187 110.437 67.2087 110.639 67.4307C110.834 67.6528 110.813 67.9994 110.59 68.1943L108.506 70.0195C108.408 70.1061 108.278 70.1548 108.147 70.1548L108.142 70.1494Z" fill="#ED8F4D"/>
<path d="M103.028 65.3348V65.351L96.419 67.4253L96.2722 67.474C95.1624 67.8206 89.6464 59.6591 89.2765 57.1083C88.9066 54.5467 92.8559 53.5881 97.2405 52.6782C101.609 51.7738 102.974 64.8203 103.028 65.3402V65.3348Z" fill="#FBCF73"/>
<path d="M103.028 65.3349V65.3511L96.4189 67.4253C96.5277 66.6021 96.9412 64.5279 98.3392 64.1651C100.102 63.7101 101.891 64.2788 103.028 65.3349Z" fill="#FFF8E8"/>
<path d="M96.729 59.4696C96.8378 59.9516 96.6801 60.3415 96.3809 60.347C96.0817 60.3524 95.7499 59.9733 95.6411 59.4913C95.5323 59.0093 95.6846 58.6193 95.9838 58.6085C96.283 58.5977 96.6148 58.9822 96.7236 59.4642L96.729 59.4696Z" fill="#ED8F4D"/>
<path d="M99.7319 58.8847C99.8407 59.3667 99.6829 59.762 99.3783 59.7674C99.0737 59.7729 98.7418 59.3883 98.633 58.9063C98.5242 58.4243 98.682 58.029 98.9866 58.0182C99.2913 58.0073 99.6231 58.3973 99.7319 58.8793V58.8847Z" fill="#ED8F4D"/>
<path d="M95.5651 65.4485C93.7101 65.4485 92.2414 63.2714 92.1652 63.1631C92.002 62.914 92.0673 62.5782 92.3175 62.4157C92.5677 62.2478 92.905 62.3182 93.0737 62.5674C93.09 62.589 94.6893 64.9557 96.1689 64.2192C96.4355 64.0838 96.7619 64.1921 96.8979 64.4629C97.0339 64.7282 96.9251 65.0532 96.6531 65.1886C96.2832 65.3727 95.9133 65.454 95.5651 65.454V65.4485Z" fill="#ED8F4D"/>
<path d="M97.7571 64.49C97.8931 65.0857 97.5667 65.5677 97.0281 65.5786C96.4896 65.5894 95.951 65.1128 95.815 64.5171C95.679 63.9213 96.0054 63.4339 96.5385 63.4285C97.0717 63.4231 97.6211 63.8943 97.7571 64.49Z" fill="#ED8F4D"/>
<path d="M92.4646 81.5225C92.4646 81.5225 96.9906 77.8777 105.14 81.3113C113.43 84.8098 118.451 84.7015 123.265 83.6238C128.172 82.5244 133.247 85.633 133.247 85.633L132.23 95.0402L92.4429 82.102L92.4701 81.5225H92.4646Z" fill="#ED8F4D"/>
<path d="M86.4318 79.5674L86.41 80.1414L63.4919 72.6894C63.394 72.3644 63.3396 72.0395 63.3396 71.7145L63.3232 63.3093C64.3786 63.683 65.6569 64.4196 66.8863 65.8656C69.6988 69.1962 72.756 71.7904 78.1577 72.7002C83.6465 73.6317 86.4263 79.562 86.4263 79.562L86.4318 79.5674Z" fill="#FBCF73"/>
<path d="M66.5218 28.2804L134.841 46.2227C135.173 46.3093 135.466 46.7643 135.434 47.0296L130.375 93.0201L67.0059 72.267C66.9134 72.2236 66.6958 72.0016 66.6142 71.7308C66.6088 71.7146 66.6088 71.7037 66.6088 71.7037L66.5218 28.2804ZM65.4338 24.7168C64.1826 24.7168 63.2524 25.7458 63.2578 27.2622L63.3449 71.7146C63.3449 72.0395 63.3938 72.3645 63.4972 72.6894C63.8562 73.8863 64.8245 74.9748 65.9723 75.3485L130.092 96.3453C130.451 96.4645 130.799 96.5186 131.125 96.5186C132.377 96.5186 133.367 95.7171 133.508 94.439L138.687 47.3817C138.894 45.497 137.55 43.569 135.679 43.0816L66.0702 24.8034C65.8472 24.7439 65.6351 24.7168 65.4283 24.7168H65.4338Z" fill="#798DAE"/>
<path d="M92.8998 43.2982L70.8683 37.2001C70.0252 36.9672 69.3452 36.0195 69.3506 35.0771C69.3561 34.1348 70.0469 33.5553 70.8955 33.7882L93.0412 39.8213C93.9388 40.065 94.6351 41.0507 94.5916 42.0093C94.548 42.9678 93.7865 43.5473 92.8943 43.2982H92.8998Z" fill="#ED8F4D"/>
<path d="M93.3132 43.8994C93.1283 43.8994 92.9433 43.8723 92.7529 43.8236L70.7215 37.7254C69.639 37.4276 68.8012 36.2632 68.8067 35.0771C68.8067 34.4327 69.0732 33.8694 69.5247 33.5282C69.949 33.2087 70.4876 33.1166 71.0424 33.2683L93.1881 39.3014C94.3359 39.6155 95.1954 40.8178 95.141 42.0364C95.1138 42.67 94.8309 43.2278 94.3631 43.5636C94.053 43.7856 93.694 43.8994 93.3132 43.8994ZM70.5311 34.281C70.3951 34.281 70.2809 34.3189 70.1775 34.3948C69.998 34.5302 69.8946 34.7793 69.8946 35.088C69.8946 35.7866 70.4005 36.5177 71.0098 36.6856L93.0412 42.7837C93.2969 42.8541 93.5417 42.8216 93.7212 42.6917C93.917 42.5509 94.0367 42.3017 94.0476 41.993C94.0802 41.2836 93.5526 40.5308 92.8944 40.3521L70.7487 34.3189C70.6725 34.2973 70.5964 34.2864 70.5257 34.2864L70.5311 34.281Z" fill="#FFF8E8"/>
<path d="M71.0802 33.3495L70.8463 33.5444L70.6178 33.2249C70.0358 32.4071 69.0838 32.1526 68.4963 32.6454C67.9088 33.1383 67.9034 34.1997 68.4854 35.0067L68.7139 35.3208L70.8082 38.2507L72.957 36.4852L73.1909 36.2956C73.7893 35.8028 73.8056 34.7413 73.2181 33.9235C72.6306 33.1058 71.6786 32.8458 71.0802 33.3441V33.3495Z" fill="#ED8F4D"/>
<path d="M70.803 38.5323C70.803 38.5323 70.7812 38.5323 70.7649 38.5323C70.6887 38.5215 70.6235 38.4836 70.5799 38.4186L68.2571 35.1692C67.588 34.2323 67.6152 33.0354 68.317 32.4451C68.6107 32.1959 68.9915 32.093 69.3941 32.1418C69.938 32.2122 70.4603 32.548 70.8356 33.0733L70.89 33.1545H70.8955C71.1892 32.9 71.5754 32.7917 71.9834 32.8458C72.5274 32.9162 73.0551 33.2574 73.4304 33.7827C74.0941 34.7143 74.0615 35.9382 73.3543 36.5231L70.9716 38.4782C70.9227 38.5161 70.8628 38.5378 70.7975 38.5378L70.803 38.5323ZM69.2091 32.6671C69.0078 32.6671 68.8229 32.7321 68.676 32.8567C68.1973 33.2628 68.2082 34.1564 68.7086 34.8551L70.8628 37.8662L73.017 36.0953C73.5011 35.6999 73.4903 34.7792 72.9952 34.086C72.7124 33.6907 72.3153 33.4253 71.9236 33.3766C71.6679 33.3441 71.434 33.4036 71.2545 33.5553L71.0206 33.7503C70.9607 33.799 70.8846 33.8207 70.8139 33.8098C70.7377 33.799 70.6724 33.7611 70.6289 33.6961L70.4004 33.3766C70.1176 32.9812 69.7204 32.7158 69.3342 32.6671C69.2907 32.6671 69.2472 32.6617 69.2091 32.6617V32.6671Z" fill="#FFF8E8"/>
<path d="M131.12 97.0602C130.728 97.0602 130.32 96.9952 129.918 96.8598L65.7983 75.863C64.509 75.4405 63.3993 74.2545 62.975 72.8464C62.8607 72.4727 62.8009 72.0936 62.8009 71.7145L62.7139 27.2621C62.7139 26.1898 63.1273 25.2583 63.8454 24.7005C64.5036 24.1968 65.3413 24.0452 66.2117 24.2727L135.815 42.5508C137.931 43.1086 139.459 45.2966 139.225 47.4358L134.047 94.4931C133.949 95.3867 133.503 96.1287 132.785 96.589C132.306 96.8977 131.729 97.0548 131.126 97.0548L131.12 97.0602ZM65.4284 25.2583C65.0856 25.2583 64.7701 25.3612 64.509 25.5616C64.0575 25.9082 63.7964 26.531 63.8018 27.2621L63.8889 71.7145C63.8889 71.9853 63.9324 72.2561 64.0194 72.5323C64.3404 73.5992 65.1944 74.5253 66.141 74.834L130.261 95.8308C130.979 96.0637 131.686 96.0095 132.197 95.6846C132.638 95.403 132.904 94.9534 132.964 94.3848L138.143 47.3275C138.322 45.7027 137.153 44.0347 135.537 43.6068L65.9343 25.3287C65.7602 25.2854 65.5916 25.2583 65.4284 25.2583Z" fill="#424376"/>
<path d="M46.106 90.4746C61.5303 90.4746 74.0342 78.0262 74.0342 62.6702C74.0342 47.3143 61.5303 34.8658 46.106 34.8658C30.6816 34.8658 18.1777 47.3143 18.1777 62.6702C18.1777 78.0262 30.6816 90.4746 46.106 90.4746Z" fill="#FAEBE3"/>
<path d="M46.0461 91.0217C40.1384 91.0217 34.394 89.1912 29.4981 85.6926C23.3184 81.2734 19.2385 74.7311 18.0091 67.2574C16.7797 59.7837 18.5422 52.2829 22.9811 46.136C27.4201 39.9838 33.9914 35.922 41.4984 34.698C49 33.4686 56.5396 35.2287 62.7139 39.648C68.8935 44.0672 72.9734 50.6094 74.2028 58.0832C76.7432 73.5072 66.2062 88.1134 50.7135 90.6426C49.1523 90.8971 47.591 91.0217 46.0407 91.0217H46.0461ZM46.1604 35.4021C44.6698 35.4021 43.1684 35.5212 41.667 35.7703C34.4484 36.951 28.1218 40.8557 23.857 46.7697C19.5921 52.6837 17.8949 59.9029 19.0753 67.0841C20.2612 74.2708 24.1833 80.5693 30.1237 84.8152C36.064 89.0612 43.3153 90.7509 50.5286 89.5757C65.4283 87.144 75.5628 73.0902 73.1203 58.2565C71.9344 51.0698 68.0123 44.7713 62.0719 40.5253C57.3665 37.1622 51.8396 35.4021 46.1549 35.4021H46.1604Z" fill="#424376"/>
<path d="M81.8299 121.144C81.8299 121.144 83.8535 114.044 91.2191 113.676C98.5847 113.307 102.006 118.241 101.957 120.267C101.908 122.292 93.8683 122.834 93.0088 122.855C92.2146 122.877 80.5678 123.781 81.8299 121.138V121.144Z" fill="#FFF7E7"/>
<path d="M88.1783 123.559C83.0267 123.559 81.8191 122.812 81.4002 122.189C81.1554 121.826 81.1228 121.382 81.3186 120.944C81.5145 120.315 83.8427 113.497 91.1865 113.129C96.1259 112.88 99.0471 114.959 100.347 116.216C101.68 117.51 102.529 119.102 102.501 120.272C102.436 123.056 93.1177 123.391 93.0252 123.391C92.9599 123.391 92.813 123.402 92.6009 123.413C90.871 123.511 89.4131 123.554 88.1783 123.554V123.559ZM91.9916 114.196C91.7468 114.196 91.502 114.201 91.2464 114.217C84.3758 114.558 82.4338 121.019 82.3576 121.29L82.325 121.371C82.2597 121.512 82.2869 121.556 82.3087 121.583C82.5099 121.88 83.8536 122.823 92.5465 122.335C92.775 122.325 92.9327 122.314 93.0034 122.314C95.9464 122.233 101.397 121.328 101.419 120.25C101.435 119.546 100.869 118.23 99.5965 116.995C98.4922 115.923 96.0715 114.196 91.9971 114.196H91.9916Z" fill="#424376"/>
<path d="M83.4453 111.948C83.4453 111.948 89.2768 109.619 95.0213 112.349C100.766 115.078 87.7972 120.575 87.7972 120.575C87.7972 120.575 82.6402 121.967 81.8841 120.575C81.1279 119.183 83.4453 111.948 83.4453 111.948Z" fill="#FAEBE3"/>
<path d="M83.8478 121.74C82.749 121.74 81.7807 121.518 81.4108 120.835C80.6057 119.357 82.3682 113.535 82.9285 111.786L83.0047 111.542L83.244 111.45C83.4888 111.352 89.3693 109.061 95.2552 111.867C96.452 112.435 97.0504 113.188 97.0286 114.109C96.9633 117.201 88.9232 120.694 88.0093 121.084L87.9386 121.106C87.177 121.312 85.3819 121.745 83.8424 121.745L83.8478 121.74ZM83.8859 112.365C82.8415 115.69 81.982 119.6 82.3682 120.321C82.6892 120.917 85.3873 120.662 87.6231 120.066C90.8381 118.701 95.908 115.88 95.9461 114.082C95.957 113.632 95.5653 113.215 94.7874 112.842C89.9731 110.551 85.012 111.986 83.8859 112.37V112.365Z" fill="#424376"/>
<path d="M82.178 109.056C82.178 109.056 85.5344 109.549 86.2252 111.022C86.9161 112.495 84.1526 121.036 83.4618 121.507C82.7709 121.978 75.1007 122.168 74.9212 121.507C74.7417 120.846 81.1281 108.699 82.178 109.056Z" fill="#FBCF73"/>
<path d="M78.7564 122.471C77.0755 122.471 75.4925 122.368 74.9485 122.173C74.6439 122.065 74.4589 121.886 74.3937 121.653C74.0727 120.505 79.8825 110.274 81.3512 108.899C81.4763 108.78 81.8517 108.422 82.2923 108.525C82.7928 108.601 85.9479 109.148 86.7204 110.794C87.5255 112.506 84.626 121.371 83.7665 121.956C83.2497 122.308 80.9215 122.476 78.7564 122.476V122.471ZM75.5306 121.22C76.9177 121.539 82.325 121.371 83.1409 121.063C83.8372 120.174 86.2634 112.381 85.7358 111.255C85.3332 110.394 83.3803 109.798 82.1835 109.608C81.0466 110.399 76.1997 119.21 75.5306 121.225V121.22Z" fill="#424376"/>
<path d="M19.5923 121.507C19.5923 121.507 20.1472 100.098 23.8517 92.289C27.5562 84.4795 55.1472 92.289 55.1472 92.289C55.1472 92.289 60.8862 93.4805 62.5563 99.0262C64.2263 104.572 70.455 124.464 70.455 124.464" fill="#FBCF73"/>
<path d="M70.4548 125C70.2209 125 70.0087 124.854 69.9326 124.621C69.8727 124.42 63.6822 104.664 62.0339 99.1777C60.4835 94.0165 55.0926 92.8251 55.0382 92.8143C47.4496 90.6696 27.2188 86.4508 24.3466 92.5164C20.7345 100.136 20.147 121.306 20.1416 121.518C20.1361 121.81 19.8913 122.043 19.5976 122.043H19.5812C19.2821 122.038 19.0427 121.788 19.0536 121.485C19.0753 120.608 19.6574 99.8764 23.3674 92.0506C27.2242 83.9162 54.1624 91.4387 55.3048 91.7582C55.5169 91.8015 61.343 93.0742 63.0838 98.8636C64.7321 104.344 70.9172 124.096 70.9825 124.296C71.0695 124.583 70.9117 124.886 70.6234 124.973C70.569 124.989 70.5146 124.995 70.4602 124.995L70.4548 125Z" fill="#424376"/>
<path d="M58.8516 92.2888C58.8516 92.2888 82.6509 107.42 82.0471 109.554C81.0299 113.145 79.5937 123.516 72.2336 121.166C70.4711 120.602 58.8516 113.605 58.8516 113.605" fill="#FBCF73"/>
<path d="M74.2683 122.048C73.572 122.048 72.8322 121.924 72.0652 121.68C70.2591 121.106 59.0476 114.358 58.5689 114.071C58.3132 113.914 58.2316 113.584 58.3839 113.329C58.5362 113.075 58.8735 112.993 59.1292 113.145C62.3441 115.084 70.9989 120.207 72.3915 120.651C73.9256 121.139 75.2203 121.068 76.3572 120.434C79.2077 118.842 80.4045 113.919 81.1171 110.984C81.2585 110.405 81.3836 109.89 81.5033 109.462C81.1171 107.886 69.5683 99.7572 58.5525 92.7492C58.2969 92.5868 58.2262 92.251 58.3894 92.0019C58.5525 91.7473 58.8898 91.6769 59.1401 91.8394C59.1999 91.8773 65.1674 95.6737 70.9826 99.6868C83.0482 108.005 82.749 109.072 82.5641 109.711C82.4444 110.139 82.3193 110.659 82.1778 111.244C81.3728 114.553 80.1597 119.557 76.8957 121.382C76.0906 121.832 75.2148 122.059 74.2683 122.059V122.048Z" fill="#424376"/>
<path d="M26.1201 39.9404C26.1201 39.9404 4.98621 54.4221 9.06066 78.7604C10.3553 86.6891 19.9893 84.0787 22.2088 82.5244L20.1743 77.0599C20.1743 77.0599 14.321 70.5989 20.4517 59.215C26.5824 47.8312 26.1201 39.9404 26.1201 39.9404Z" fill="#424376"/>
<path d="M15.8389 84.7611C14.6693 84.7611 13.478 84.5824 12.39 84.122C10.2522 83.223 8.95204 81.4466 8.52229 78.8417C4.4424 54.4546 25.598 39.6426 25.8102 39.4963C25.9734 39.3826 26.1801 39.3718 26.3596 39.453C26.5337 39.5397 26.6533 39.713 26.6642 39.9079C26.686 40.2383 27.0613 48.0857 20.9306 59.4696C15.0501 70.3931 20.5226 76.6321 20.577 76.697C20.6205 76.7458 20.6586 76.8054 20.6858 76.8703L22.7203 82.3348C22.8074 82.5677 22.7203 82.8277 22.5245 82.9685C21.5127 83.6725 18.7275 84.7611 15.8443 84.7611H15.8389ZM25.5599 41.0344C21.665 44.0943 6.09611 57.7853 9.59394 78.6684C9.95841 80.8834 11.0355 82.3836 12.8089 83.1255C15.6648 84.3224 19.7937 83.2826 21.5399 82.3023L19.6903 77.3415C18.9886 76.5075 14.022 69.9924 19.9623 58.9605C24.6623 50.2357 25.4402 43.5365 25.5545 41.0344H25.5599Z" fill="#424376"/>
<path d="M61.6044 93.8756C61.6044 93.8756 63.0841 87.4254 48.9187 85.9469C34.7533 84.4684 17.139 79.6376 14.5551 84.1273C11.9712 88.6169 15.0284 93.3503 18.6404 94.5796C22.2525 95.809 61.6044 93.8756 61.6044 93.8756Z" fill="#FBCF73"/>
<path d="M26.599 95.5275C22.4701 95.5275 19.3858 95.4083 18.4664 95.0942C16.285 94.3522 14.3974 92.4892 13.5433 90.2417C12.7437 88.1296 12.9341 85.8658 14.0873 83.862C16.111 80.3417 25.4729 81.8527 36.3091 83.602C40.5305 84.2844 44.8987 84.9884 48.9786 85.4109C55.1746 86.0553 59.2708 87.7126 61.1584 90.3338C62.5238 92.2347 62.1539 93.9244 62.1376 93.9948C62.0832 94.2331 61.8765 94.401 61.6371 94.4172C60.4295 94.4768 38.8931 95.5275 26.6044 95.5275H26.599ZM20.4955 82.8113C17.7048 82.8113 15.6975 83.2392 15.0339 84.3981C13.7718 86.5969 14.0819 88.5791 14.566 89.8572C15.3059 91.8123 16.9378 93.4262 18.8254 94.0706C21.6651 95.04 49.8598 93.9082 61.1149 93.3612C61.1149 92.8575 60.9952 91.9477 60.2554 90.9349C59.0804 89.3264 56.1483 87.2522 48.8752 86.494C44.7681 86.0662 40.3836 85.3621 36.1459 84.6743C30.445 83.7536 24.6243 82.8167 20.5064 82.8167L20.4955 82.8113Z" fill="#424376"/>
<path d="M48.2767 60.152L71.7823 49.2284C71.7823 49.2284 65.3252 31.1832 43.2611 32.4722C25.6795 33.5011 19.8371 47.3113 19.8371 47.3113C19.8371 47.3113 11.7807 56.713 15.5777 72.3861C19.3747 88.0593 36.4559 95.2026 38.0334 95.2026C39.611 95.2026 52.7537 94.3524 52.7537 94.3524C52.7537 94.3524 44.2947 73.4043 48.2767 60.152Z" fill="#424376"/>
<path d="M38.0278 95.7442C36.015 95.7442 18.8686 88.2976 15.0444 72.5161C11.3888 57.4333 18.6619 47.907 19.3636 47.0297C19.875 45.9086 26.1907 32.9325 43.2229 31.936C65.4283 30.6308 72.2173 48.8656 72.288 49.0497C72.3805 49.3151 72.2608 49.6021 72.0051 49.7213L48.7225 60.5419C45.0017 73.4747 53.1669 93.9462 53.2485 94.152C53.3138 94.3145 53.2975 94.4932 53.205 94.6448C53.1125 94.791 52.9548 94.8831 52.7807 94.8994C52.2421 94.9319 39.5945 95.755 38.0224 95.755L38.0278 95.7442ZM45.4586 32.9487C44.7515 32.9487 44.0334 32.9704 43.2936 33.0137C26.2723 34.0102 20.3918 47.3925 20.3374 47.5225C20.3156 47.5712 20.2884 47.62 20.2503 47.6633C20.1742 47.7554 12.4224 57.0596 16.1052 72.2616C19.9239 88.0214 36.9507 94.6557 38.0278 94.6611C39.3497 94.6611 49.1741 94.0383 51.9756 93.8595C50.5231 90.0523 44.1204 72.0774 47.7543 59.9949C47.7978 59.8487 47.9066 59.7241 48.048 59.6592L71.0804 48.9522C69.9271 46.2985 63.247 32.9487 45.4532 32.9487H45.4586Z" fill="#424376"/>
<path d="M46.6923 72.2503C50.1044 72.036 52.7207 69.498 52.5359 66.5816C52.3511 63.6651 49.4352 61.4746 46.023 61.689C42.6108 61.9033 39.9946 64.4413 40.1794 67.3577C40.3642 70.2741 43.2801 72.4646 46.6923 72.2503Z" fill="#FAEBE3"/>
<path d="M46.2316 72.7977C44.6322 72.7977 43.1091 72.3103 41.9014 71.4004C40.5415 70.3823 39.7364 68.9525 39.6385 67.382C39.4372 64.1758 42.2877 61.3705 45.9922 61.1376C49.6967 60.8993 52.8791 63.3256 53.0858 66.5317C53.2871 69.7378 50.4366 72.5377 46.732 72.776C46.5634 72.7869 46.4002 72.7923 46.2316 72.7923V72.7977ZM46.4872 62.2099C46.3458 62.2099 46.2044 62.2099 46.0629 62.2208C42.9568 62.4157 40.5632 64.7012 40.7264 67.3116C40.808 68.5626 41.4554 69.7053 42.5597 70.5339C43.6857 71.3788 45.149 71.7904 46.6668 71.6983C49.7729 71.5033 52.1719 69.2179 52.0032 66.6075C51.8455 64.1163 49.4139 62.2099 46.4927 62.2099H46.4872Z" fill="#424376"/>
<path d="M48.4666 70.3523C50.4125 70.2301 51.9046 68.7831 51.7992 67.1205C51.6939 65.4578 50.0309 64.209 48.085 64.3312C46.139 64.4534 44.6469 65.9004 44.7523 67.5631C44.8577 69.2258 46.5206 70.4746 48.4666 70.3523Z" fill="#FBC59D"/>
<path d="M86.334 113.399C86.2959 113.399 86.2578 113.394 86.2197 113.378L81.623 111.303C81.487 111.244 81.4272 111.081 81.487 110.946C81.5469 110.811 81.7101 110.751 81.8461 110.811L86.4427 112.885C86.5787 112.944 86.6386 113.107 86.5787 113.242C86.5352 113.34 86.4373 113.399 86.3285 113.399H86.334Z" fill="#424376"/>
<path d="M85.8933 115.566C85.8606 115.566 85.8225 115.56 85.7899 115.544L80.9811 113.6C80.8396 113.546 80.7744 113.383 80.8342 113.248C80.8886 113.107 81.0463 113.042 81.1878 113.102L85.9966 115.046C86.1381 115.1 86.2033 115.263 86.1435 115.398C86.1 115.501 85.9966 115.566 85.8933 115.566Z" fill="#424376"/>
<path d="M84.8325 117.191C84.7999 117.191 84.7673 117.185 84.7346 117.174L80.5296 115.55C80.3882 115.495 80.3175 115.338 80.3719 115.198C80.4263 115.057 80.584 114.986 80.7255 115.04L84.9305 116.665C85.0719 116.719 85.1426 116.876 85.0882 117.017C85.0447 117.126 84.9413 117.191 84.8325 117.191Z" fill="#424376"/>
<path d="M84.5985 119.449C84.5713 119.449 84.5387 119.449 84.5115 119.433L79.5394 117.754C79.398 117.705 79.3218 117.553 79.3708 117.413C79.4198 117.272 79.5721 117.196 79.7135 117.245L84.6856 118.924C84.827 118.972 84.9031 119.124 84.8542 119.265C84.8161 119.379 84.7073 119.449 84.5985 119.449Z" fill="#424376"/>
<path d="M78.4699 118.943L78.1431 119.976L83.6275 121.696L83.9543 120.662L78.4699 118.943Z" fill="#424376"/>
<path d="M66.56 59.2855C66.9626 59.2855 67.2889 58.7205 67.2889 58.0236C67.2889 57.3267 66.9626 56.7617 66.56 56.7617C66.1574 56.7617 65.8311 57.3267 65.8311 58.0236C65.8311 58.7205 66.1574 59.2855 66.56 59.2855Z" fill="#424376"/>
<path d="M66.56 59.827C65.8365 59.827 65.2871 59.0525 65.2871 58.0235C65.2871 56.9945 65.8365 56.2201 66.56 56.2201C67.2835 56.2201 67.833 56.9945 67.833 58.0235C67.833 59.0525 67.2835 59.827 66.56 59.827ZM66.56 57.3357C66.4839 57.4278 66.3751 57.6715 66.3751 58.0235C66.3751 58.3756 66.4839 58.6193 66.56 58.7113C66.6362 58.6193 66.745 58.3756 66.745 58.0235C66.745 57.6715 66.6362 57.4278 66.56 57.3357Z" fill="#424376"/>
<path d="M56.7085 47.3816C56.7085 47.3816 59.0041 55.906 58.5526 57.3141L61.5717 55.4456C61.5717 55.4456 58.6777 48.4377 56.7085 47.3816Z" fill="#FAEBE3"/>
<path d="M55.9032 73.4422C59.2891 73.4422 62.0339 70.7095 62.0339 67.3386C62.0339 63.9678 59.2891 61.2351 55.9032 61.2351C52.5173 61.2351 49.7725 63.9678 49.7725 67.3386C49.7725 70.7095 52.5173 73.4422 55.9032 73.4422Z" fill="#FBC59D"/>
<path d="M51.5078 47.2463C51.5078 47.2463 53.3356 85.9147 57.9758 94.5799C57.9758 94.5799 40.7968 64.0947 43.5602 50.8694C46.3236 37.6442 51.5024 47.2463 51.5024 47.2463H51.5078Z" fill="#424376"/>
<path d="M57.9813 95.1214C57.7909 95.1214 57.606 95.0239 57.5081 94.8452C56.8009 93.5942 40.2637 64.0297 43.038 50.7611C44.0226 46.0548 45.4152 43.6394 47.2974 43.3632C49.7671 43.0058 51.769 46.5802 51.992 46.9918C52.0301 47.0622 52.0519 47.1434 52.0573 47.2246C52.0736 47.6092 53.9286 85.8713 58.4655 94.3307C58.6069 94.5907 58.509 94.9156 58.2479 95.0618C58.1663 95.1052 58.0738 95.1268 57.9868 95.1268L57.9813 95.1214ZM47.6402 44.4247C47.5749 44.4247 47.515 44.4247 47.4498 44.4355C46.6882 44.5493 45.2357 45.5458 44.0988 50.9832C42.1241 60.4336 50.6919 79.1992 55.4572 88.628C52.3783 75.2998 51.089 49.77 50.9693 47.3979C50.4362 46.4556 48.9892 44.4247 47.6347 44.4247H47.6402Z" fill="#424376"/>
<path d="M67.3707 80.6992C62.7577 78.9499 59.3198 74.8339 58.5527 69.8406L73.6375 67.3765C71.7444 76.632 67.3707 80.6992 67.3707 80.6992Z" fill="white"/>
<path d="M67.3708 81.2408C67.3055 81.2408 67.2402 81.23 67.1749 81.2029C62.3117 79.3561 58.7976 75.0344 58.0142 69.9219C57.9707 69.6294 58.172 69.3532 58.4657 69.3045L73.5504 66.8403C73.7245 66.8078 73.9095 66.8728 74.0292 66.9974C74.1488 67.122 74.2087 67.3061 74.1706 67.4794C72.2666 76.7945 67.9256 80.9213 67.7407 81.0891C67.6373 81.1866 67.5068 81.2354 67.3708 81.2354V81.2408ZM59.1838 70.2847C60.0378 74.6661 63.0733 78.3542 67.2348 80.0602C68.1215 79.1016 71.2983 75.2672 72.9412 68.0372L59.1838 70.2847Z" fill="#424376"/>
<path d="M74.4756 62.8497C74.5588 62.0494 73.8341 61.319 72.8569 61.2183C71.8797 61.1175 71.02 61.6847 70.9368 62.485C70.8536 63.2853 71.5783 64.0157 72.5555 64.1164C73.5327 64.2171 74.3923 63.65 74.4756 62.8497Z" fill="white"/>
<path d="M57.9925 88.4383L57.541 87.4527C68.7145 82.3511 75.1226 70.3444 73.1316 58.2564C72.555 54.7687 71.3365 51.4814 69.5033 48.4865L70.4335 47.9232C72.3374 51.0373 73.6104 54.4546 74.2087 58.0831C76.2813 70.6531 69.6121 83.1309 57.998 88.4383H57.9925Z" fill="#424376"/>
</g>
<defs>
<clipPath id="clip0_2310_1397">
<rect width="134" height="102" fill="white" transform="translate(8 23)"/>
</clipPath>
</defs>
</svg>
