<svg width="234" height="176" viewBox="0 0 234 176" fill="none" xmlns="http://www.w3.org/2000/svg">
<path d="M224.649 176H9.34119C4.18344 176 -0.00488281 171.827 -0.00488281 166.698V9.31103C-0.00488281 4.17262 4.19285 0 9.34119 0H224.649C229.807 0 233.995 4.17262 233.995 9.31103V166.698C233.995 171.827 229.807 176 224.649 176ZM9.34119 2.813C5.74582 2.813 2.8187 5.72914 2.8187 9.31103V166.698C2.8187 170.28 5.74582 173.187 9.34119 173.187H224.649C228.244 173.187 231.172 170.28 231.172 166.698V9.31103C231.172 5.72914 228.244 2.813 224.649 2.813H9.34119Z" fill="#ED8F4D"/>
<path d="M232.583 8.42962V38.0505L229.496 36.0814H3.76914L1.40674 38.2474V8.42962C1.40674 4.55705 4.95505 1.40649 9.34102 1.40649H224.649C229.025 1.40649 232.583 4.55705 232.583 8.42962Z" fill="#ED8F4D"/>
<path d="M222.964 3.68506H208.395C204.787 3.68506 201.863 6.59852 201.863 10.1925V24.7075C201.863 28.3015 204.787 31.2149 208.395 31.2149H222.964C226.572 31.2149 229.496 28.3015 229.496 24.7075V10.1925C229.496 6.59852 226.572 3.68506 222.964 3.68506Z" fill="#FBCF73"/>
<path d="M224.141 35.1719H9.84926C5.18658 35.1719 1.40674 38.9376 1.40674 43.5827V166.192C1.40674 170.837 5.18658 174.603 9.84926 174.603H224.141C228.803 174.603 232.583 170.837 232.583 166.192V43.5827C232.583 38.9376 228.803 35.1719 224.141 35.1719Z" fill="#FFF8E8"/>
<path d="M224.141 176H9.84943C4.41874 176 -0.00488281 171.593 -0.00488281 166.183V43.5734C-0.00488281 38.163 4.41874 33.756 9.84943 33.756H224.15C229.581 33.756 234.005 38.163 234.005 43.5734V166.183C234.005 171.593 229.581 176 224.15 176H224.141ZM9.84943 36.569C5.97171 36.569 2.8187 39.7102 2.8187 43.5734V166.183C2.8187 170.046 5.97171 173.187 9.84943 173.187H224.15C228.028 173.187 231.181 170.046 231.181 166.183V43.5734C231.181 39.7102 228.028 36.569 224.15 36.569H9.84943Z" fill="#ED8F4D"/>
<path d="M222.371 22.0351L217.769 17.4499L222.371 12.8648C222.748 12.4897 222.748 11.8896 222.371 11.5145L221.637 10.7831C221.261 10.4081 220.658 10.4081 220.282 10.7831L215.679 15.3683L211.077 10.7831C210.7 10.4081 210.098 10.4081 209.722 10.7831L208.987 11.5145C208.611 11.8896 208.611 12.4897 208.987 12.8648L213.59 17.4499L208.987 22.0351C208.611 22.4102 208.611 23.0103 208.987 23.3854L209.722 24.1167C210.098 24.4918 210.7 24.4918 211.077 24.1167L215.679 19.5316L220.282 24.1167C220.658 24.4918 221.261 24.4918 221.637 24.1167L222.371 23.3854C222.748 23.0103 222.748 22.4102 222.371 22.0351Z" fill="#ED8F4D"/>
<path d="M206.173 46.9865H27.8166C23.9804 46.9865 20.8706 50.0846 20.8706 53.9064V119.309C20.8706 123.13 23.9804 126.229 27.8166 126.229H206.173C210.009 126.229 213.119 123.13 213.119 119.309V53.9064C213.119 50.0846 210.009 46.9865 206.173 46.9865Z" fill="#FBCF73"/>
<path d="M69.3236 116.168C68.8436 116.168 68.3636 115.98 67.9965 115.614L42.6784 90.3911C42.3207 90.0348 42.123 89.5659 42.123 89.069C42.123 88.572 42.3207 88.0938 42.6784 87.7469L67.9965 62.5236C68.7306 61.7923 69.926 61.7923 70.6601 62.5236C71.3942 63.255 71.3942 64.4459 70.6601 65.1772L46.6784 89.069L70.6601 112.961C71.3942 113.692 71.3942 114.883 70.6601 115.614C70.293 115.98 69.813 116.168 69.333 116.168H69.3236Z" fill="#ED8F4D"/>
<path d="M163.481 116.168C163.001 116.168 162.521 115.98 162.154 115.614C161.419 114.883 161.419 113.692 162.154 112.961L186.135 89.069L162.154 65.1772C161.419 64.4459 161.419 63.255 162.154 62.5236C162.888 61.7923 164.083 61.7923 164.817 62.5236L190.135 87.7469C190.493 88.1032 190.691 88.572 190.691 89.069C190.691 89.5659 190.493 90.0441 190.135 90.3911L164.817 115.614C164.45 115.98 163.97 116.168 163.49 116.168H163.481Z" fill="#ED8F4D"/>
<path d="M78.3685 98.7363H72.6084V76.4198H78.3685V84.4556H85.3804V76.4198H91.1405V98.7363H85.3804V89.744H78.3685V98.7363Z" fill="#ED8F4D"/>
<path d="M102.642 98.7363V81.6426H97.5688V76.4292H113.447V81.6426H108.411V98.7363H102.651H102.642Z" fill="#ED8F4D"/>
<path d="M119.866 98.7363V76.4198H128.101C128.741 78.6514 129.372 80.9112 129.993 83.1991C130.614 85.487 131.235 87.7468 131.857 89.9785C132.468 87.7468 133.09 85.487 133.72 83.1991C134.351 80.9112 134.962 78.6514 135.584 76.4198H143.716C143.734 80.0955 143.763 83.818 143.782 87.578C143.8 91.3381 143.829 95.0606 143.847 98.7363H138.285V83.6117C137.626 86.1059 136.958 88.6282 136.28 91.1787C135.603 93.7291 134.925 96.2514 134.275 98.7456H129.268C128.609 96.2983 127.951 93.8135 127.292 91.3099C126.633 88.8064 125.974 86.3309 125.315 83.8742V98.7363H119.875H119.866Z" fill="#ED8F4D"/>
<path d="M151.424 98.7363V76.4198H157.184V93.5135H164.196V98.7269H151.415L151.424 98.7363Z" fill="#ED8F4D"/>
<path d="M210.776 137.875H108.468C107.174 137.875 106.125 138.92 106.125 140.209V144.476C106.125 145.765 107.174 146.81 108.468 146.81H210.776C212.07 146.81 213.12 145.765 213.12 144.476V140.209C213.12 138.92 212.07 137.875 210.776 137.875Z" fill="#ED8F4D"/>
<path d="M93.8603 137.875H23.2142C21.9199 137.875 20.8706 138.92 20.8706 140.209V160.435C20.8706 161.724 21.9199 162.77 23.2142 162.77H93.8603C95.1546 162.77 96.2039 161.724 96.2039 160.435V140.209C96.2039 138.92 95.1546 137.875 93.8603 137.875Z" fill="#C5E8FF"/>
<path d="M185.119 153.843H108.468C107.174 153.843 106.125 154.888 106.125 156.178V160.444C106.125 161.734 107.174 162.779 108.468 162.779H185.119C186.413 162.779 187.463 161.734 187.463 160.444V156.178C187.463 154.888 186.413 153.843 185.119 153.843Z" fill="#ED8F4D"/>
</svg>
