<svg width="130" height="130" viewBox="0 0 130 130" fill="none" xmlns="http://www.w3.org/2000/svg">
<circle cx="65" cy="65" r="65" fill="#FFF7E7"/>
<g clip-path="url(#clip0_2072_171)">
<path d="M109.076 100.613H21.7889C19.698 100.613 18 98.8911 18 96.775V31.8415C18 29.7215 19.7018 28 21.7889 28H109.076C111.167 28 112.865 29.7215 112.865 31.8415V96.775C112.865 98.8911 111.167 100.613 109.076 100.613ZM21.7889 29.1606C20.3314 29.1606 19.1447 30.3637 19.1447 31.8415V96.775C19.1447 98.2528 20.3314 99.452 21.7889 99.452H109.076C110.534 99.452 111.72 98.2528 111.72 96.775V31.8415C111.72 30.3637 110.534 29.1606 109.076 29.1606H21.7889Z" fill="#ED8F4D"/>
<path d="M112.293 31.4779V43.6986L111.041 42.8862H19.5301L18.5723 43.7798V31.4779C18.5723 29.8802 20.0109 28.5803 21.7889 28.5803H109.076C110.85 28.5803 112.293 29.8802 112.293 31.4779Z" fill="#ED8F4D"/>
<path d="M108.393 29.5204H102.486C101.024 29.5204 99.8382 30.7224 99.8382 32.2052V38.1937C99.8382 39.6764 101.024 40.8784 102.486 40.8784H108.393C109.855 40.8784 111.041 39.6764 111.041 38.1937V32.2052C111.041 30.7224 109.855 29.5204 108.393 29.5204Z" fill="#FBCF73"/>
<path d="M108.87 42.5109H21.995C20.1047 42.5109 18.5723 44.0645 18.5723 45.981V96.5661C18.5723 98.4825 20.1047 100.036 21.995 100.036H108.87C110.76 100.036 112.293 98.4825 112.293 96.5661V45.981C112.293 44.0645 110.76 42.5109 108.87 42.5109Z" fill="#FFF8E8"/>
<path d="M108.87 100.613H21.995C19.7934 100.613 18 98.7944 18 96.5622V45.9771C18 43.745 19.7934 41.9268 21.995 41.9268H108.874C111.075 41.9268 112.869 43.745 112.869 45.9771V96.5622C112.869 98.7944 111.075 100.613 108.874 100.613H108.87ZM21.995 43.0873C20.4229 43.0873 19.1447 44.3833 19.1447 45.9771V96.5622C19.1447 98.1561 20.4229 99.452 21.995 99.452H108.874C110.446 99.452 111.724 98.1561 111.724 96.5622V45.9771C111.724 44.3833 110.446 43.0873 108.874 43.0873H21.995Z" fill="#ED8F4D"/>
<path d="M108.153 37.0911L106.287 35.1994L108.153 33.3076C108.305 33.1529 108.305 32.9053 108.153 32.7506L107.855 32.4488C107.702 32.2941 107.458 32.2941 107.305 32.4488L105.44 34.3405L103.574 32.4488C103.421 32.2941 103.177 32.2941 103.024 32.4488L102.727 32.7506C102.574 32.9053 102.574 33.1529 102.727 33.3076L104.593 35.1994L102.727 37.0911C102.574 37.2458 102.574 37.4934 102.727 37.6481L103.024 37.9499C103.177 38.1046 103.421 38.1046 103.574 37.9499L105.44 36.0582L107.305 37.9499C107.458 38.1046 107.702 38.1046 107.855 37.9499L108.153 37.6481C108.305 37.4934 108.305 37.2458 108.153 37.0911Z" fill="#ED8F4D"/>
<path d="M101.586 47.3853H29.2791C27.7239 47.3853 26.4631 48.6635 26.4631 50.2402V77.2233C26.4631 78.8001 27.7239 80.0783 29.2791 80.0783H101.586C103.141 80.0783 104.402 78.8001 104.402 77.2233V50.2402C104.402 48.6635 103.141 47.3853 101.586 47.3853Z" fill="#FBCF73"/>
<path d="M46.1061 75.9275C45.9115 75.9275 45.7169 75.8501 45.5681 75.6992L35.304 65.2928C35.159 65.1458 35.0789 64.9524 35.0789 64.7474C35.0789 64.5423 35.159 64.3451 35.304 64.2019L45.5681 53.7955C45.8657 53.4938 46.3503 53.4938 46.648 53.7955C46.9456 54.0973 46.9456 54.5886 46.648 54.8903L36.9257 64.7474L46.648 74.6044C46.9456 74.9062 46.9456 75.3975 46.648 75.6992C46.4991 75.8501 46.3045 75.9275 46.1099 75.9275H46.1061Z" fill="#ED8F4D"/>
<path d="M84.278 75.9275C84.0834 75.9275 83.8888 75.8501 83.74 75.6992C83.4423 75.3975 83.4423 74.9062 83.74 74.6044L93.4623 64.7474L83.74 54.8903C83.4423 54.5886 83.4423 54.0973 83.74 53.7955C84.0376 53.4938 84.5222 53.4938 84.8198 53.7955L95.0839 64.2019C95.2289 64.3489 95.309 64.5423 95.309 64.7474C95.309 64.9524 95.2289 65.1497 95.0839 65.2928L84.8198 75.6992C84.671 75.8501 84.4764 75.9275 84.2818 75.9275H84.278Z" fill="#ED8F4D"/>
<path d="M49.773 68.7358H47.4378V59.5287H49.773V62.844H52.6156V59.5287H54.9508V68.7358H52.6156V65.0259H49.773V68.7358Z" fill="#ED8F4D"/>
<path d="M59.6136 68.7359V61.6835H57.5569V59.5326H63.9939V61.6835H61.9526V68.7359H59.6174H59.6136Z" fill="#ED8F4D"/>
<path d="M66.5962 68.7358V59.5287H69.9349C70.1944 60.4494 70.45 61.3817 70.7019 62.3256C70.9537 63.2696 71.2055 64.2019 71.4574 65.1226C71.7054 64.2019 71.9572 63.2696 72.2129 62.3256C72.4685 61.3817 72.7165 60.4494 72.9684 59.5287H76.2651C76.2727 61.0452 76.2842 62.581 76.2918 64.1323C76.2994 65.6835 76.3109 67.2194 76.3185 68.7358H74.0634V62.4959C73.7963 63.5249 73.5254 64.5655 73.2507 65.6178C72.976 66.67 72.7013 67.7107 72.438 68.7397H70.4081C70.141 67.73 69.8739 66.7048 69.6068 65.6719C69.3397 64.639 69.0726 63.6177 68.8055 62.6042V68.7358H66.6H66.5962Z" fill="#ED8F4D"/>
<path d="M79.3901 68.7358V59.5287H81.7253V66.581H84.568V68.732H79.3863L79.3901 68.7358Z" fill="#ED8F4D"/>
<path d="M103.452 84.8831H61.9755C61.4507 84.8831 61.0254 85.3143 61.0254 85.8463V87.6065C61.0254 88.1385 61.4507 88.5698 61.9755 88.5698H103.452C103.976 88.5698 104.402 88.1385 104.402 87.6065V85.8463C104.402 85.3143 103.976 84.8831 103.452 84.8831Z" fill="#ED8F4D"/>
<path d="M56.0536 84.8831H27.4132C26.8885 84.8831 26.4631 85.3143 26.4631 85.8463V94.1908C26.4631 94.7228 26.8885 95.154 27.4132 95.154H56.0536C56.5783 95.154 57.0037 94.7228 57.0037 94.1908V85.8463C57.0037 85.3143 56.5783 84.8831 56.0536 84.8831Z" fill="#C5E8FF"/>
<path d="M93.0502 91.4712H61.9755C61.4507 91.4712 61.0254 91.9025 61.0254 92.4345V94.1946C61.0254 94.7266 61.4507 95.1579 61.9755 95.1579H93.0502C93.5749 95.1579 94.0003 94.7266 94.0003 94.1946V92.4345C94.0003 91.9025 93.5749 91.4712 93.0502 91.4712Z" fill="#ED8F4D"/>
</g>
<defs>
<clipPath id="clip0_2072_171">
<rect width="94.8649" height="72.6126" fill="white" transform="translate(18 28)"/>
</clipPath>
</defs>
</svg>
