<?xml version="1.0" encoding="UTF-8"?>
<svg id="_レイヤー_2" data-name="レイヤー 2" xmlns="http://www.w3.org/2000/svg" viewBox="0 0 80 80">
  <defs>
    <style>
      .cls-1 {
        fill: #ed8f4d;
      }

      .cls-2 {
        fill: #fff;
      }

      .cls-3 {
        fill: #fff8e8;
      }

      .cls-4 {
        fill: #fbcf73;
      }

      .cls-5 {
        fill: #c5e8ff;
      }

      .cls-6 {
        fill: #798dae;
      }
    </style>
  </defs>
  <g id="_レイヤー_1-2" data-name="レイヤー 1">
    <g>
      <circle class="cls-2" cx="40" cy="40" r="40"/>
      <g>
        <path class="cls-1" d="m60.67,61.49c-.18-.08-.38-.06-.57-.06-16.2,0-32.4,0-48.6,0-1.12,0-2.01-.79-2.37-1.73-.06-.17-.06-.37-.06-.56,0-8.99,0-17.99,0-26.98,0-5,.02-9.99,0-14.99,0-1.36,1.17-2.39,2.36-2.41.17,0,.34,0,.51,0,18.77,0,37.54,0,56.32,0,1.56,0,2.6,1.05,2.6,2.61,0,2.6-.01,5.19,0,7.79.08,11.19,0,22.37.04,33.56,0,1.18-.61,2.33-1.96,2.65-.24.06-.51.05-.77.06-.66,0-1.32,0-2.01,0,.19.43.47.79.7,1.18.24.39.2.71-.18.96-.83.54-1.67,1.06-2.52,1.57-.33.2-.67.11-.91-.27-.62-.97-1.22-1.95-1.82-2.92-.02-.03-.02-.07-.02-.1.42-.27.83-.55,1.25-.82.49-.32,1.01-.6,1.51-.9.27-.17.49-.48.87-.46.1.16.2.32.3.49.18.33.39.58.87.54.76-.06,1.52-.02,2.29-.01.13,0,.24-.03.36-.08.84-.42,1.29-1.04,1.29-2.03-.02-10.48-.01-20.97-.01-31.45,0-.31-.02-.61-.02-.92,0-.45-.21-.81-.49-1.13-.43-.5-1.03-.57-1.62-.57-18.73,0-37.45,0-56.18,0-.06,0-.11,0-.17,0-.55.06-1.05.24-1.41.69-.31.38-.4.83-.4,1.33,0,10.7,0,21.4,0,32.1,0,.14,0,.27,0,.41.07.95.94,1.67,1.71,1.67,16.05,0,32.1,0,48.15,0,.16,0,.32,0,.48,0,.19.26.41.5.47.83Zm9.02-42.11c0-.61,0-1.23,0-1.84,0-.89-.75-1.71-1.65-1.77-1.26-.09-2.52-.02-3.78-.03-.98,0-1.85.82-1.87,1.8-.02,1.23-.02,2.46,0,3.69.02,1,.88,1.82,1.88,1.82,1.18,0,2.37,0,3.55,0,1.05,0,1.87-.83,1.87-1.88,0-.59,0-1.18,0-1.78Z"/>
        <path class="cls-5" d="m60.67,61.49c-.06-.33-.29-.57-.47-.83-.07-.25-.31-.53.07-.74.17-.06.28-.22.43-.31.9-.55,1.8-1.11,2.7-1.66.17-.11.36-.2.43-.41.28,0,.46.18.6.4.19.29.35.61.56.89.21.28.24.54.06.83-.38-.02-.6.29-.87.46-.5.31-1.02.58-1.51.9-.42.27-.83.55-1.25.82-.27.15-.46.05-.59-.2-.04-.07-.06-.14-.16-.15Z"/>
        <path class="cls-3" d="m65.04,59.66c.18-.29.15-.55-.06-.83-.21-.28-.37-.6-.56-.89-.14-.21-.31-.39-.6-.4-.06-.09-.08-.18-.08-.29,0-.78-.05-1.57.02-2.35.03-.4-.04-.81.12-1.2.25,0,.5.01.75,0,.43-.02.72-.27.74-.65.02-.36.02-.73,0-1.09-.02-.33-.31-.65-.58-.65-1.58,0-3.16.01-4.74.02-.11-.06-.22-.11-.33-.17-1.02-.63-2.04-1.27-3.06-1.9-.02-.03-.04-.05-.07-.01,0,0,.02.03.04.04.01.09.04.17.09.25.4.57.77,1.16,1.1,1.78-.32,0-.65,0-.97,0-.34-.52-.67-1.05-1.01-1.57-.04.01-.07.02-.11.03.17.5.13,1.02.21,1.53-5.94,0-11.88,0-17.81,0-.11,0-.23,0-.34,0-.42.02-.68.27-.69.69,0,.33,0,.66,0,.99,0,.43.31.71.74.71,6.11,0,12.22,0,18.33,0,.04.62.08,1.23.13,1.85-6.06,0-12.13,0-18.19,0-.13,0-.25,0-.38,0-.39.02-.62.27-.62.66,0,.32,0,.64,0,.96,0,.49.28.77.78.77,6.1,0,12.19,0,18.29,0,0,.12.09.14.17.18.2.09.41.17.62.26.71.31,1.44.61,2.14.95.39.19.82.31,1.16.6-.38.21-.14.48-.07.74-.16,0-.32,0-.48,0-16.05,0-32.1,0-48.15,0-.77,0-1.64-.72-1.71-1.67-.01-.14,0-.27,0-.41,0-10.7,0-21.4,0-32.1,0-.5.09-.94.4-1.33.36-.45.86-.63,1.41-.69.06,0,.11,0,.17,0,18.73,0,37.45,0,56.18,0,.6,0,1.2.08,1.62.57.28.32.49.68.49,1.13,0,.31.02.61.02.92,0,10.48,0,20.97.01,31.45,0,1-.44,1.62-1.29,2.03-.11.06-.22.08-.36.08-.76,0-1.53-.05-2.29.01-.48.04-.69-.21-.87-.54-.09-.17-.2-.33-.3-.49Zm-25.13-32.45c-7.71,0-15.41,0-23.12,0-.24,0-.47-.02-.71.06-1.01.37-1.51,1.07-1.51,2.14,0,5.56,0,11.11,0,16.67,0,1.29.87,2.16,2.15,2.16,15.48,0,30.96,0,46.45,0,1.28,0,2.22-.93,2.22-2.21-.01-5.54-.01-11.09,0-16.63,0-1.34-.98-2.21-2.23-2.21-7.75.02-15.51,0-23.26,0Zm-15.35,24.11c-3.04,0-6.08,0-9.12,0-.59,0-.86.22-.87.8-.02,1.65-.02,3.3,0,4.95,0,.6.29.87.86.87,6.07,0,12.13,0,18.2,0,.6,0,.87-.29.88-.88,0-1.63,0-3.26,0-4.88,0-.62-.24-.86-.87-.86-3.03,0-6.06,0-9.08,0Z"/>
        <path class="cls-4" d="m69.69,19.38c0,.59,0,1.18,0,1.78,0,1.06-.82,1.88-1.87,1.88-1.18,0-2.37,0-3.55,0-1.01,0-1.87-.82-1.88-1.82-.02-1.23-.02-2.46,0-3.69.02-.98.88-1.81,1.87-1.8,1.26,0,2.52-.05,3.78.03.9.06,1.65.88,1.65,1.77,0,.61,0,1.23,0,1.84Zm-3.63.65c.08.01.14.09.2.15.27.26.53.53.8.8.32.32.43.33.67.08.23-.24.22-.34-.08-.65-.27-.27-.54-.55-.82-.82-.16-.15-.17-.27,0-.42.32-.31.62-.63.95-.94.23-.21.13-.38-.04-.55-.17-.17-.33-.27-.55-.04-.29.32-.62.6-.91.93-.19.21-.3.18-.47-.01-.27-.29-.56-.56-.84-.85-.18-.19-.34-.27-.56-.03-.2.22-.24.39-.02.61.3.29.59.6.9.89.15.14.17.23,0,.37-.33.31-.65.64-.97.96-.2.2-.14.38.04.55.18.17.34.24.55.02.29-.32.61-.62.91-.92.06-.06.12-.14.24-.15Z"/>
        <path class="cls-6" d="m60.27,59.92c-.34-.29-.77-.41-1.16-.6-.7-.34-1.42-.63-2.14-.95-.2-.09-.41-.17-.62-.26-.08-.03-.18-.06-.17-.18.22-.79.12-1.59.12-2.4-.04-.62-.08-1.23-.13-1.84.04-.31-.05-.61-.09-.91-.05-.49,0-1-.14-1.48-.09-.51-.04-1.03-.21-1.53.04-.01.07-.02.11-.03.34.52.67,1.05,1.01,1.57.48.81.96,1.62,1.5,2.39.05.23.31.37.2.68-.17.49.13.98.64,1.13.44.13.95-.17,1.1-.63.15-.48-.11-.97-.61-1.12-.12-.04-.24-.05-.37-.07-.45-.82-.95-1.62-1.49-2.38-.33-.62-.71-1.21-1.1-1.78-.05-.08-.08-.16-.09-.25,0,0,.02-.02.03-.03,1.02.63,2.04,1.27,3.06,1.9.11.07.22.12.33.17,1.09.69,2.19,1.34,3.41,1.76.36.12.47.28.42.61-.16.39-.08.8-.12,1.2-.07.78-.02,1.57-.02,2.35,0,.11.01.2.08.29-.07.21-.26.3-.43.41-.9.55-1.8,1.11-2.7,1.66-.15.09-.26.25-.43.31Z"/>
        <path class="cls-4" d="m39.91,27.2c7.75,0,15.51,0,23.26,0,1.24,0,2.23.87,2.23,2.21-.02,5.54-.01,11.09,0,16.63,0,1.28-.94,2.21-2.22,2.21-15.48-.01-30.96,0-46.45,0-1.29,0-2.15-.87-2.15-2.16,0-5.56,0-11.11,0-16.67,0-1.08.5-1.78,1.51-2.14.23-.09.47-.06.71-.06,7.71,0,15.41,0,23.12,0Zm20.08,10.82c0-1.97,0-3.94,0-5.91,0-.27.07-.37.34-.34.28.02.57,0,.85,0,.46,0,.65-.18.65-.64,0-.64,0-1.27,0-1.91,0-.4-.18-.59-.58-.59-.63,0-1.25,0-1.88,0-.55,0-.67.13-.68.68,0,.57.07.5-.52.5-11.54,0-23.08,0-34.63,0q-.58,0-.58-.57c0-.39-.19-.6-.57-.61-.67,0-1.34,0-2.01,0-.34,0-.5.17-.5.51,0,.71,0,1.41,0,2.12,0,.38.14.5.52.51.38,0,.75.01,1.13,0,.23,0,.29.07.29.29,0,3.96,0,7.92,0,11.88,0,.24-.09.29-.3.28-.36-.01-.73,0-1.09,0-.39,0-.54.15-.54.53,0,.68,0,1.37,0,2.05,0,.4.16.56.56.56.6,0,1.21,0,1.81,0,.55,0,.77-.22.77-.78,0-.53-.05-.46.49-.46,11.47,0,22.95,0,34.42,0q.74,0,.77.73c.01.36.13.5.49.51.71.01,1.41.01,2.12,0,.34,0,.52-.21.53-.54,0-.67,0-1.34,0-2.01,0-.37-.19-.56-.57-.58-.3-.01-.59-.03-.89,0-.33.03-.39-.1-.39-.4.01-1.94,0-3.87,0-5.81Z"/>
        <path class="cls-5" d="m24.56,51.32c3.03,0,6.06,0,9.08,0,.63,0,.87.24.87.86,0,1.63,0,3.26,0,4.88,0,.59-.28.88-.88.88-6.07,0-12.13,0-18.2,0-.57,0-.86-.27-.86-.87-.01-1.65-.01-3.3,0-4.95,0-.58.27-.8.87-.8,3.04,0,6.08,0,9.12,0Z"/>
        <path class="cls-1" d="m56.3,55.54c0,.8.1,1.61-.12,2.4-6.1,0-12.19,0-18.29,0-.49,0-.78-.28-.78-.77,0-.32,0-.64,0-.96,0-.39.24-.64.62-.66.12,0,.25,0,.38,0,6.06,0,12.13,0,18.19,0Z"/>
        <path class="cls-1" d="m55.95,51.31c.14.49.08.99.14,1.48.03.3.13.6.09.91-6.11,0-12.22,0-18.33,0-.43,0-.73-.29-.74-.71,0-.33,0-.66,0-.99,0-.42.27-.67.69-.69.11,0,.23,0,.34,0,5.94,0,11.88,0,17.81,0Z"/>
        <path class="cls-1" d="m63.89,53.7c.05-.34-.06-.49-.42-.61-1.22-.42-2.33-1.07-3.41-1.76,1.58,0,3.16-.02,4.74-.02.27,0,.56.32.58.65.02.36.02.73,0,1.09-.02.39-.31.63-.74.65-.25.01-.5,0-.75,0Z"/>
        <path class="cls-1" d="m57.83,51.3c.54.77,1.04,1.56,1.49,2.38-.32,0-.64.01-.97.02-.53-.78-1.01-1.58-1.5-2.39.32,0,.65,0,.97,0Z"/>
        <path class="cls-6" d="m56.64,49.28s-.04-.04-.04-.04c.03-.04.05-.01.07.01,0,0-.02.02-.03.03Z"/>
        <path class="cls-1" d="m66.06,20.03c-.12,0-.17.08-.24.15-.31.3-.62.6-.91.92-.2.22-.37.15-.55-.02-.18-.17-.25-.35-.04-.55.32-.32.63-.65.97-.96.16-.15.14-.24,0-.37-.31-.29-.59-.6-.9-.89-.23-.22-.18-.39.02-.61.22-.24.38-.16.56.03.28.29.57.55.84.85.17.19.28.23.47.01.28-.32.62-.61.91-.93.21-.23.38-.13.55.04.17.17.27.33.04.55-.32.3-.62.63-.95.94-.16.16-.15.27,0,.42.28.26.55.54.82.82.31.31.32.41.08.65-.25.25-.35.24-.67-.08-.27-.26-.53-.53-.8-.8-.06-.06-.12-.14-.2-.15Z"/>
        <path class="cls-3" d="m58.36,53.71c.32,0,.64-.01.97-.02.12.02.25.03.37.07.5.15.76.64.61,1.12-.15.46-.66.76-1.1.63-.51-.15-.81-.64-.64-1.13.11-.31-.15-.45-.2-.68Z"/>
        <path class="cls-6" d="m59.99,38.02c0,1.94,0,3.87,0,5.81,0,.3.06.44.39.4.29-.03.59-.02.89,0,.38.02.56.21.57.58,0,.67,0,1.34,0,2.01,0,.33-.19.53-.53.54-.71.01-1.41.01-2.12,0-.36,0-.48-.15-.49-.51q-.02-.73-.77-.73c-11.47,0-22.95,0-34.42,0-.54,0-.48-.07-.49.46,0,.56-.23.78-.77.78-.6,0-1.21,0-1.81,0-.4,0-.55-.16-.56-.56,0-.68,0-1.37,0-2.05,0-.38.15-.52.54-.53.36,0,.73-.01,1.09,0,.21,0,.3-.04.3-.28,0-3.96,0-7.92,0-11.88,0-.22-.06-.3-.29-.29-.37.02-.75.01-1.13,0-.38,0-.52-.14-.52-.51,0-.71,0-1.41,0-2.12,0-.34.16-.5.5-.51.67,0,1.34,0,2.01,0,.37,0,.57.22.57.61q0,.57.58.57c11.54,0,23.08,0,34.63,0,.59,0,.51.07.52-.5,0-.55.13-.68.68-.68.63,0,1.25,0,1.88,0,.4,0,.58.19.58.59,0,.64,0,1.27,0,1.91,0,.45-.19.63-.65.64-.28,0-.57.02-.85,0-.27-.02-.34.08-.34.34.01,1.97,0,3.94,0,5.91Zm-19.2,7.48c5.73,0,11.45,0,17.18,0,.7,0,.7,0,.72-.71,0-.27.11-.51.37-.53.34-.03.32-.22.32-.46,0-3.87,0-7.74,0-11.61,0-.09,0-.18,0-.27,0-.08-.04-.11-.12-.14-.56-.18-.56-.19-.56-.82,0-.53.08-.5-.49-.5-11.52,0-23.04,0-34.56,0-.68,0-.69,0-.67.69,0,.25-.04.47-.29.55-.23.08-.26.22-.26.43,0,3.93,0,7.85,0,11.78,0,.21.02.36.27.4.19.03.26.2.27.39,0,.15.01.3,0,.44-.02.26.06.35.35.35,5.83,0,11.66,0,17.48,0Zm19.44-14.18c.3,0,.59,0,.89,0,.19,0,.3-.06.3-.27,0-.58,0-1.16,0-1.74,0-.19-.08-.27-.27-.27-.6,0-1.21,0-1.81,0-.21,0-.25.08-.24.26,0,.58,0,1.16,0,1.74,0,.21.08.28.28.28.28,0,.57,0,.85,0Zm0,15.62c.3,0,.59,0,.89,0,.2,0,.29-.08.29-.29,0-.57,0-1.14,0-1.71,0-.2-.08-.29-.28-.28-.59,0-1.18,0-1.78,0-.19,0-.26.07-.26.26,0,.58,0,1.16,0,1.74,0,.21.09.28.29.27.28,0,.57,0,.85,0Zm-39.95-1.16c0,.31,0,.61,0,.92,0,.17.05.24.23.24.58,0,1.16,0,1.74,0,.22,0,.3-.08.3-.3,0-.56-.01-1.12,0-1.67,0-.25-.1-.31-.32-.3-.53.01-1.07.02-1.6,0-.3-.01-.37.1-.35.37.02.25,0,.5,0,.75Zm1.1-14.47c.31,0,.61,0,.92,0,.17,0,.25-.05.25-.24,0-.59,0-1.18,0-1.77,0-.19-.08-.27-.26-.27-.59,0-1.18,0-1.77,0-.18,0-.24.06-.24.24,0,.59,0,1.18,0,1.77,0,.22.09.28.29.27.27,0,.55,0,.82,0Z"/>
        <path class="cls-4" d="m40.8,45.5c-5.83,0-11.66,0-17.48,0-.28,0-.37-.09-.35-.35.01-.15,0-.3,0-.44,0-.18-.08-.35-.27-.39-.25-.04-.27-.19-.27-.4,0-3.93,0-7.85,0-11.78,0-.21.03-.36.26-.43.26-.08.3-.3.29-.55-.02-.69-.01-.69.67-.69,11.52,0,23.04,0,34.56,0,.57,0,.49-.04.49.5,0,.63,0,.64.56.82.08.03.12.06.12.14,0,.09,0,.18,0,.27,0,3.87,0,7.74,0,11.61,0,.24.02.42-.32.46-.27.03-.37.26-.37.53-.01.71-.02.71-.72.71-5.73,0-11.45,0-17.18,0Zm-16.6-7.85c0,1.13,0,2.25,0,3.38,0,.23.06.32.31.31.84-.01,1.68,0,2.53,0,.95,0,1.79-.35,2.44-1.02,1.01-1.01,1.28-2.26.97-3.64-.34-1.57-1.85-2.79-3.46-2.73-.8.03-1.59.02-2.39,0-.3,0-.41.06-.41.39.02,1.1,0,2.21,0,3.31Zm27.05.73c0-.81,0-1.62,0-2.42,0-.22-.06-.3-.29-.29-.41.01-.82,0-1.23,0-.09,0-.22-.04-.24.07-.06.3-.19.11-.31.06-.86-.43-2.01-.25-2.69.41-.73.71-.94,1.56-.8,2.57.24,1.74,2.05,2.48,3.48,1.76.24-.12.24-.04.23.15-.01.4-.43.75-.98.84-.63.11-1.21,0-1.8-.21-.21-.08-.31-.06-.3.2.02.39.01.77,0,1.16,0,.23.09.31.3.36.76.18,1.51.27,2.29.13,1.37-.25,2.31-1.11,2.33-2.61,0-.73,0-1.46,0-2.18Zm-16.37.83c.5,0,1,0,1.5,0,.2,0,.27-.09.32-.27.11-.43.07-.87-.02-1.28-.21-.95-.72-1.71-1.7-2-1.03-.31-2.02-.16-2.83.58-.82.75-1.09,1.7-.93,2.81.2,1.45,1.29,2.22,2.43,2.4.83.13,1.68,0,2.49-.28.15-.05.22-.12.22-.29-.01-.34-.02-.68,0-1.02.02-.3-.1-.34-.34-.22-.59.28-1.22.3-1.86.26-.35-.02-.65-.18-.89-.44-.04-.05-.11-.12-.1-.17.02-.1.13-.07.2-.07.5,0,1,0,1.5,0Zm17.59-.7c0,.82.02,1.64,0,2.46,0,.31.09.39.39.37.34-.02.68-.03,1.02,0,.3.02.39-.07.38-.38-.02-.93-.01-1.87,0-2.8,0-.61.31-.93.85-.93.63,0,.89.26.92.91,0,.08,0,.16,0,.24,0,.89,0,1.78,0,2.66,0,.22.07.3.29.29.4-.01.8-.01,1.19,0,.21,0,.3-.05.3-.28-.01-1.13.02-2.25-.01-3.38-.02-.79-.3-1.5-1.06-1.89-.62-.32-1.27-.24-1.92-.08-.22.06-.45.34-.69.02-.02-.02-.09,0-.13,0-.41,0-.82.01-1.23,0-.22,0-.3.07-.29.29.01.83,0,1.66,0,2.49Zm-10.79-1.9c0-.19,0-.39,0-.58.01-.24-.13-.34-.32-.36-.65-.05-1.29-.19-1.95-.09-.99.14-1.66.68-1.84,1.56-.24,1.18.34,1.63,1.32,1.94.36.12.73.22,1.08.37.26.11.25.31,0,.44-.25.13-.51.17-.79.11-.46-.09-.9-.21-1.33-.38-.17-.07-.27-.07-.26.17.01.35,0,.71,0,1.06,0,.24.11.4.37.49.7.24,1.41.21,2.11.11,1.13-.17,1.99-.81,1.89-2.02-.06-.72-.61-1.42-1.33-1.51-.38-.05-.71-.25-1.08-.33-.13-.03-.22-.12-.19-.28.03-.14.13-.22.27-.22.18,0,.37.02.55,0,.48-.08.9.05,1.3.29.18.11.2.01.2-.12,0-.22,0-.43,0-.65Zm3.07,1.91c0-.82-.01-1.64,0-2.46,0-.28-.09-.35-.35-.34-.41.02-.82.01-1.23,0-.18,0-.27.03-.27.24,0,1.71,0,3.41,0,5.12,0,.2.07.26.26.25.43,0,.86-.01,1.3,0,.23,0,.29-.07.29-.29-.01-.84,0-1.68,0-2.52Zm-.91-5.66c-.69,0-1.13.4-1.14,1.02,0,.72.4,1.15,1.07,1.17.66.02,1.16-.43,1.17-1.14,0-.56-.53-1.11-1.11-1.06Z"/>
        <path class="cls-3" d="m60.24,31.32c-.28,0-.57,0-.85,0-.2,0-.29-.06-.28-.28,0-.58,0-1.16,0-1.74,0-.18.04-.27.24-.26.6.01,1.21,0,1.81,0,.19,0,.27.08.27.27,0,.58,0,1.16,0,1.74,0,.21-.1.28-.3.27-.3,0-.59,0-.89,0Z"/>
        <path class="cls-3" d="m60.25,46.95c-.28,0-.57,0-.85,0-.2,0-.29-.06-.29-.27,0-.58,0-1.16,0-1.74,0-.19.07-.27.26-.26.59,0,1.18,0,1.78,0,.2,0,.29.08.28.28,0,.57,0,1.14,0,1.71,0,.2-.08.29-.29.29-.3,0-.59,0-.89,0Z"/>
        <path class="cls-3" d="m20.3,45.79c0-.25.02-.5,0-.75-.02-.27.05-.39.35-.37.53.02,1.07.01,1.6,0,.23,0,.33.05.32.3-.02.56-.01,1.12,0,1.67,0,.22-.08.31-.3.3-.58,0-1.16,0-1.74,0-.18,0-.24-.07-.23-.24,0-.31,0-.61,0-.92Z"/>
        <path class="cls-3" d="m21.4,31.32c-.27,0-.55,0-.82,0-.2,0-.29-.05-.29-.27,0-.59,0-1.18,0-1.77,0-.17.06-.24.24-.24.59,0,1.18,0,1.77,0,.19,0,.27.08.26.27,0,.59,0,1.18,0,1.77,0,.18-.08.24-.25.24-.31,0-.61,0-.92,0Z"/>
        <path class="cls-1" d="m24.2,37.66c0-1.1.01-2.21,0-3.31,0-.33.1-.4.41-.39.8.02,1.59.03,2.39,0,1.61-.06,3.12,1.16,3.46,2.73.3,1.38.03,2.63-.97,3.64-.66.67-1.49,1.02-2.44,1.02-.84,0-1.68,0-2.53,0-.24,0-.31-.08-.31-.31.01-1.13,0-2.25,0-3.38Zm1.92,0c0,.57,0,1.14,0,1.7,0,.11-.04.26.13.27.52.03,1.05.06,1.52-.25,1.07-.72,1.14-2.45.24-3.28-.47-.44-1.04-.44-1.63-.43-.22,0-.27.09-.27.28,0,.57,0,1.14,0,1.7Z"/>
        <path class="cls-1" d="m51.25,38.39c0,.73,0,1.46,0,2.18-.01,1.51-.95,2.36-2.33,2.61-.77.14-1.53.05-2.29-.13-.21-.05-.31-.13-.3-.36.01-.39.02-.77,0-1.16-.01-.26.09-.28.3-.2.58.21,1.17.33,1.8.21.54-.1.96-.44.98-.84,0-.19,0-.27-.23-.15-1.42.72-3.23-.02-3.48-1.76-.14-1.01.07-1.86.8-2.57.69-.66,1.83-.84,2.69-.41.11.05.24.24.31-.06.02-.11.15-.07.24-.07.41,0,.82,0,1.23,0,.23,0,.29.07.29.29-.01.81,0,1.61,0,2.42Zm-2.82.84c.61,0,1.04-.41,1.05-1,0-.62-.4-1.05-.99-1.05-.63,0-1.05.4-1.04,1.04,0,.63.43,1.05.99,1.01Z"/>
        <path class="cls-1" d="m34.89,39.22c-.5,0-1,0-1.5,0-.07,0-.18-.04-.2.07,0,.05.05.12.1.17.24.26.55.42.89.44.63.04,1.26.02,1.86-.26.23-.11.35-.08.34.22-.02.34-.01.68,0,1.02,0,.17-.07.24-.22.29-.81.28-1.66.41-2.49.28-1.14-.18-2.23-.95-2.43-2.4-.16-1.11.11-2.07.93-2.81.81-.74,1.8-.89,2.83-.58.98.3,1.49,1.05,1.7,2,.09.41.13.85.02,1.28-.05.18-.11.28-.32.27-.5,0-1,0-1.5,0Zm-.85-1.36c.25,0,.5,0,.75,0,.17,0,.25-.05.14-.21-.2-.3-.46-.48-.84-.48-.38,0-.68.13-.89.46-.1.15-.1.24.13.23.24-.01.47,0,.71,0Z"/>
        <path class="cls-1" d="m52.48,38.52c0-.83,0-1.66,0-2.49,0-.22.07-.3.29-.29.41.01.82,0,1.23,0,.05,0,.12-.02.13,0,.24.32.47.04.69-.02.65-.17,1.3-.24,1.92.08.76.39,1.04,1.09,1.06,1.89.03,1.13,0,2.25.01,3.38,0,.23-.09.29-.3.28-.4-.01-.8-.01-1.19,0-.22,0-.3-.07-.29-.29.01-.89,0-1.78,0-2.66,0-.08,0-.16,0-.24-.03-.65-.29-.91-.92-.91-.54,0-.84.32-.85.93,0,.93-.02,1.87,0,2.8,0,.31-.09.4-.38.38-.34-.03-.68-.02-1.02,0-.29.02-.4-.06-.39-.37.02-.82,0-1.64,0-2.46Z"/>
        <path class="cls-1" d="m41.68,36.62c0,.22,0,.43,0,.65,0,.13-.03.23-.2.12-.4-.24-.82-.37-1.3-.29-.18.03-.36,0-.55,0-.14,0-.23.08-.27.22-.04.15.06.25.19.28.37.08.7.28,1.08.33.72.09,1.28.79,1.33,1.51.1,1.21-.76,1.85-1.89,2.02-.71.11-1.41.13-2.11-.11-.27-.09-.37-.25-.37-.49-.01-.35,0-.71,0-1.06-.01-.24.09-.24.26-.17.43.17.88.3,1.33.38.28.05.54.01.79-.11.25-.13.26-.33,0-.44-.35-.15-.72-.26-1.08-.37-.97-.31-1.56-.76-1.32-1.94.18-.88.85-1.42,1.84-1.56.67-.1,1.3.04,1.95.09.2.02.34.12.32.36-.01.19,0,.39,0,.58Z"/>
        <path class="cls-1" d="m44.76,38.53c0,.84,0,1.68,0,2.52,0,.22-.07.3-.29.29-.43-.01-.86-.01-1.3,0-.19,0-.26-.06-.26-.25,0-1.71,0-3.41,0-5.12,0-.21.1-.25.27-.24.41,0,.82.02,1.23,0,.26-.01.36.06.35.34-.02.82,0,1.64,0,2.46Z"/>
        <path class="cls-1" d="m43.84,32.87c.58-.06,1.11.49,1.11,1.06,0,.71-.51,1.16-1.17,1.14-.67-.02-1.08-.45-1.07-1.17,0-.62.45-1.03,1.14-1.02Z"/>
        <path class="cls-4" d="m26.11,37.66c0-.57,0-1.14,0-1.7,0-.2.05-.28.27-.28.59,0,1.16-.01,1.63.43.9.84.83,2.56-.24,3.28-.46.31-.99.27-1.52.25-.17,0-.13-.16-.13-.27,0-.57,0-1.14,0-1.7Z"/>
        <path class="cls-4" d="m48.43,39.23c-.55.04-.98-.38-.99-1.01,0-.65.41-1.04,1.04-1.04.59,0,1,.43.99,1.05,0,.59-.44,1-1.05,1Z"/>
        <path class="cls-4" d="m34.03,37.86c-.24,0-.48,0-.71,0-.23.01-.22-.08-.13-.23.21-.33.51-.45.89-.46.38,0,.64.17.84.48.11.17.03.22-.14.21-.25,0-.5,0-.75,0Z"/>
      </g>
    </g>
  </g>
</svg>