<svg width="81" height="80" viewBox="0 0 81 80" fill="none" xmlns="http://www.w3.org/2000/svg">
<circle cx="40.5" cy="40" r="40" fill="white"/>
<g clip-path="url(#clip0_2146_3603)">
<path d="M42.0827 43.0331C40.5557 41.4094 39.9647 39.1291 39.7355 37.6845C39.7047 37.2261 39.6598 36.7724 39.5936 36.3235C39.5936 36.3163 39.5936 36.3116 39.5936 36.3116C38.3597 27.9521 31.2235 21.5386 22.6028 21.5386C13.1146 21.5386 5.42285 29.3083 5.42285 38.8927C5.42285 48.4771 13.1146 56.2468 22.6028 56.2468C22.8203 56.2468 23.033 56.2373 23.2481 56.2301V56.2349C23.2481 56.2349 26.2005 56.1394 28.5737 57.8442C30.3016 59.2912 32.5188 60.1604 34.9393 60.1604C40.454 60.1604 44.9216 55.6451 44.9216 50.0769C44.9216 47.3358 43.8366 44.8525 42.0803 43.0354L42.0827 43.0331Z" fill="#FBCF73"/>
<path d="M68.6514 45.1128H27.3514C26.4059 45.1128 25.6377 44.3368 25.6377 43.3841V27.5939C25.6377 26.6388 26.4059 25.8628 27.3514 25.8628H68.6514C69.5969 25.8628 70.3651 26.6388 70.3651 27.5939V43.3841C70.3651 44.3368 69.5969 45.1128 68.6514 45.1128ZM27.3514 26.5815C26.7983 26.5815 26.3468 27.0352 26.3468 27.5963V43.3865C26.3468 43.9452 26.7959 44.3989 27.3514 44.3989H68.6514C69.2045 44.3989 69.656 43.9452 69.656 43.3865V27.5939C69.656 27.0352 69.2069 26.5791 68.6514 26.5791H27.3514V26.5815Z" fill="#798DAE"/>
<path d="M71.9158 24.6785H69.4315C69.2396 24.6785 69.084 24.8356 69.084 25.0295V27.539C69.084 27.7328 69.2396 27.89 69.4315 27.89H71.9158C72.1077 27.89 72.2633 27.7328 72.2633 27.539V25.0295C72.2633 24.8356 72.1077 24.6785 71.9158 24.6785Z" fill="#FFF8E8"/>
<path d="M71.9158 28.1288H69.4315C69.11 28.1288 68.8477 27.8637 68.8477 27.539V25.0295C68.8477 24.7047 69.11 24.4397 69.4315 24.4397H71.9158C72.2373 24.4397 72.4997 24.7047 72.4997 25.0295V27.539C72.4997 27.8637 72.2373 28.1288 71.9158 28.1288ZM69.4315 24.9172C69.3701 24.9172 69.3204 24.9674 69.3204 25.0295V27.539C69.3204 27.6011 69.3701 27.6512 69.4315 27.6512H71.9158C71.9773 27.6512 72.0269 27.6011 72.0269 27.539V25.0295C72.0269 24.9674 71.9773 24.9172 71.9158 24.9172H69.4315Z" fill="#798DAE"/>
<path d="M26.4158 24.6785H23.9315C23.7396 24.6785 23.584 24.8356 23.584 25.0295V27.539C23.584 27.7328 23.7396 27.89 23.9315 27.89H26.4158C26.6077 27.89 26.7633 27.7328 26.7633 27.539V25.0295C26.7633 24.8356 26.6077 24.6785 26.4158 24.6785Z" fill="#FFF8E8"/>
<path d="M26.4158 28.1288H23.9315C23.61 28.1288 23.3477 27.8637 23.3477 27.539V25.0295C23.3477 24.7047 23.61 24.4397 23.9315 24.4397H26.4158C26.7373 24.4397 26.9997 24.7047 26.9997 25.0295V27.539C26.9997 27.8637 26.7373 28.1288 26.4158 28.1288ZM23.9315 24.9172C23.8701 24.9172 23.8204 24.9674 23.8204 25.0295V27.539C23.8204 27.6011 23.8701 27.6512 23.9315 27.6512H26.4158C26.4773 27.6512 26.5269 27.6011 26.5269 27.539V25.0295C26.5269 24.9674 26.4773 24.9172 26.4158 24.9172H23.9315Z" fill="#798DAE"/>
<path d="M71.9158 43.1501H69.4315C69.2396 43.1501 69.084 43.3073 69.084 43.5011V46.0107C69.084 46.2045 69.2396 46.3617 69.4315 46.3617H71.9158C72.1077 46.3617 72.2633 46.2045 72.2633 46.0107V43.5011C72.2633 43.3073 72.1077 43.1501 71.9158 43.1501Z" fill="#FFF8E8"/>
<path d="M71.9158 46.6004H69.4315C69.11 46.6004 68.8477 46.3354 68.8477 46.0107V43.5012C68.8477 43.1764 69.11 42.9114 69.4315 42.9114H71.9158C72.2373 42.9114 72.4997 43.1764 72.4997 43.5012V46.0107C72.4997 46.3354 72.2373 46.6004 71.9158 46.6004ZM69.4315 43.3889C69.3701 43.3889 69.3204 43.4391 69.3204 43.5012V46.0107C69.3204 46.0728 69.3701 46.1229 69.4315 46.1229H71.9158C71.9773 46.1229 72.0269 46.0728 72.0269 46.0107V43.5012C72.0269 43.4391 71.9773 43.3889 71.9158 43.3889H69.4315Z" fill="#798DAE"/>
<path d="M26.4158 43.1501H23.9315C23.7396 43.1501 23.584 43.3073 23.584 43.5011V46.0107C23.584 46.2045 23.7396 46.3617 23.9315 46.3617H26.4158C26.6077 46.3617 26.7633 46.2045 26.7633 46.0107V43.5011C26.7633 43.3073 26.6077 43.1501 26.4158 43.1501Z" fill="#FFF8E8"/>
<path d="M26.4158 46.6004H23.9315C23.61 46.6004 23.3477 46.3354 23.3477 46.0107V43.5012C23.3477 43.1764 23.61 42.9114 23.9315 42.9114H26.4158C26.7373 42.9114 26.9997 43.1764 26.9997 43.5012V46.0107C26.9997 46.3354 26.7373 46.6004 26.4158 46.6004ZM23.9315 43.3889C23.8701 43.3889 23.8204 43.4391 23.8204 43.5012V46.0107C23.8204 46.0728 23.8701 46.1229 23.9315 46.1229H26.4158C26.4773 46.1229 26.5269 46.0728 26.5269 46.0107V43.5012C26.5269 43.4391 26.4773 43.3889 26.4158 43.3889H23.9315Z" fill="#798DAE"/>
<path d="M28.4131 39.4943V30.7146H31.5073C32.1384 30.7146 32.7175 30.8244 33.2446 31.0441C33.7718 31.2638 34.2327 31.5718 34.6251 31.9682C35.0175 32.3645 35.3224 32.8278 35.5399 33.3554C35.7573 33.8855 35.8661 34.4634 35.8661 35.0913C35.8661 35.7193 35.7573 36.3019 35.5399 36.8344C35.3224 37.3692 35.0175 37.8349 34.6251 38.236C34.2327 38.6371 33.7718 38.9452 33.2446 39.1648C32.7152 39.3845 32.136 39.4943 31.5073 39.4943H28.4131ZM31.5049 32.7537H30.6492V37.4528H31.5049C31.9304 37.4528 32.3015 37.3501 32.6159 37.1424C32.9303 36.9347 33.1737 36.6529 33.3439 36.2971C33.5141 35.939 33.5992 35.5378 33.5992 35.0889C33.5992 34.6401 33.5141 34.2413 33.3439 33.8879C33.1737 33.5345 32.9303 33.2575 32.6159 33.0546C32.3015 32.8516 31.9304 32.7513 31.5049 32.7513V32.7537Z" fill="#ED8F4D"/>
<path d="M42.6526 39.1841C42.064 39.4348 41.4801 39.5876 40.901 39.6497C40.3219 39.7094 39.7735 39.6783 39.2582 39.5518C38.7429 39.4276 38.2843 39.2151 37.8848 38.9119C37.483 38.611 37.171 38.2266 36.9464 37.7634C36.7195 37.2977 36.6084 36.7605 36.6084 36.1492C36.6084 35.6406 36.6911 35.175 36.8566 34.7476C37.0221 34.3202 37.2584 33.9477 37.5657 33.6254C37.873 33.303 38.2347 33.0523 38.6531 32.8756C39.0715 32.6989 39.5277 32.6106 40.0217 32.6106C40.4637 32.6106 40.8656 32.6846 41.2225 32.8303C41.5794 32.9759 41.8914 33.1813 42.1562 33.4439C42.4209 33.7066 42.6337 34.0194 42.7944 34.3799C42.9551 34.7405 43.0591 35.1368 43.1017 35.5666C43.1442 35.9964 43.1182 36.4525 43.0261 36.9348H38.8067C38.9674 37.2619 39.2393 37.4935 39.6175 37.632C39.9957 37.7705 40.4472 37.8135 40.9719 37.761C41.4967 37.7084 42.0569 37.5723 42.6526 37.3479V39.1817V39.1841ZM39.9673 34.5232C39.7191 34.5232 39.4922 34.5924 39.2842 34.7309C39.0762 34.8694 38.9154 35.0795 38.8044 35.3637H41.1185C41.0168 35.07 40.8656 34.8575 40.6646 34.7238C40.4637 34.59 40.2321 34.5232 39.9673 34.5232Z" fill="#ED8F4D"/>
<path d="M49.259 37.4265C49.259 37.9613 49.1124 38.3959 48.817 38.7374C48.5239 39.0764 48.1291 39.3247 47.6351 39.4799C47.141 39.6352 46.5879 39.702 45.9804 39.6805C45.3706 39.659 44.7513 39.5587 44.1201 39.3773V37.362C44.4771 37.5268 44.8364 37.6533 45.1933 37.7441C45.5502 37.8348 45.8741 37.8873 46.1648 37.9064C46.4532 37.9231 46.6896 37.8993 46.8669 37.8348C47.0465 37.7703 47.1363 37.6605 47.1363 37.5053C47.1363 37.3859 47.0607 37.2904 46.9118 37.2211C46.7628 37.1519 46.569 37.0898 46.3303 37.0349C46.0915 36.98 45.8386 36.9107 45.5691 36.8272C45.2997 36.746 45.0467 36.629 44.808 36.4786C44.5693 36.3281 44.3754 36.1252 44.2265 35.8721C44.0776 35.619 44.002 35.2895 44.002 34.8835C44.002 34.4012 44.1391 33.9905 44.418 33.6515C44.6945 33.3124 45.068 33.0521 45.536 32.8778C46.0041 32.7011 46.5288 32.6128 47.108 32.6128C47.6871 32.6128 48.2804 32.7131 48.8855 32.9089V34.9241C48.408 34.6925 47.9613 34.5373 47.5429 34.4585C47.1245 34.3821 46.7888 34.3702 46.5336 34.4251C46.2783 34.48 46.1506 34.5994 46.1506 34.7809C46.1506 34.9026 46.2263 34.9934 46.3752 35.0578C46.5241 35.1223 46.7156 35.1796 46.9496 35.2321C47.1836 35.2847 47.4365 35.3539 47.7036 35.4399C47.9731 35.5258 48.2237 35.6452 48.4577 35.7957C48.6917 35.9461 48.8832 36.1538 49.0321 36.4165C49.181 36.6791 49.2566 37.0158 49.2566 37.4313L49.259 37.4265Z" fill="#ED8F4D"/>
<path d="M51.408 32.0566C51.1598 32.0566 50.9376 31.9969 50.7366 31.8751C50.5357 31.7557 50.3773 31.5957 50.2568 31.3975C50.1362 31.1994 50.0771 30.9797 50.0771 30.7385C50.0771 30.4974 50.1362 30.2801 50.2568 30.0867C50.375 29.8933 50.5357 29.7357 50.7366 29.6163C50.9376 29.4969 51.1598 29.4348 51.408 29.4348C51.6561 29.4348 51.8665 29.4945 52.0651 29.6163C52.266 29.7381 52.4244 29.8933 52.5449 30.0867C52.6631 30.2801 52.7246 30.4974 52.7246 30.7385C52.7246 30.9797 52.6655 31.1994 52.5449 31.3975C52.4244 31.5957 52.266 31.7557 52.0651 31.8751C51.8642 31.9969 51.6443 32.0566 51.408 32.0566ZM50.3466 39.4944V32.8183H52.4551V39.4944H50.3466Z" fill="#ED8F4D"/>
<path d="M60.1373 38.408C60.1373 39.1387 59.9813 39.7499 59.6716 40.2418C59.3596 40.7337 58.9365 41.1014 58.3999 41.345C57.8633 41.5909 57.2511 41.7174 56.5656 41.727C55.8801 41.7365 55.1568 41.6315 54.398 41.4166V39.3894C55.0717 39.6568 55.6816 39.7929 56.2252 39.7953C56.7713 39.8001 57.2039 39.6926 57.523 39.473C57.8421 39.2533 58.0028 38.95 58.0028 38.5632V38.3316C57.7901 38.4964 57.5419 38.6253 57.2606 38.7184C56.9793 38.8139 56.6767 38.8593 56.3529 38.8593C55.8163 38.8593 55.3365 38.7328 54.9157 38.4773C54.495 38.2242 54.164 37.8708 53.9253 37.4195C53.6866 36.9682 53.5684 36.4405 53.5684 35.8388C53.5684 35.3732 53.644 34.9482 53.7976 34.5614C53.9513 34.1746 54.164 33.8379 54.4359 33.5537C54.7077 33.2696 55.0197 33.0523 55.3696 32.9019C55.7194 32.7515 56.0858 32.675 56.4687 32.675C56.776 32.675 57.0597 32.718 57.3244 32.804C57.5891 32.8899 57.8232 33.0069 58.0264 33.1526V32.8159H60.1349V38.408H60.1373ZM56.8776 37.0136C57.2346 37.0136 57.523 36.899 57.7404 36.6721C57.9579 36.4453 58.0666 36.1492 58.0666 35.7887C58.0666 35.4281 57.9579 35.1177 57.7404 34.8837C57.523 34.6521 57.2346 34.5351 56.8776 34.5351C56.5207 34.5351 56.204 34.6497 55.9818 34.8766C55.7596 35.1058 55.6485 35.409 55.6485 35.7863C55.6485 36.1635 55.7596 36.4525 55.9818 36.6769C56.204 36.9014 56.5018 37.0136 56.8776 37.0136Z" fill="#ED8F4D"/>
<path d="M61.5439 39.4943V32.8182H63.6524V33.1549C63.8817 32.9925 64.1394 32.8636 64.4254 32.7728C64.7114 32.6821 65.0187 32.6367 65.352 32.6367C65.8366 32.6367 66.2668 32.7489 66.6355 32.9734C67.0066 33.1978 67.295 33.5178 67.5054 33.9357C67.7134 34.3535 67.8174 34.8549 67.8174 35.4399V39.4943H65.7089V35.7241C65.7089 35.3802 65.6309 35.1033 65.4725 34.8908C65.3142 34.6806 65.066 34.5756 64.7256 34.5756C64.3852 34.5756 64.1205 34.6735 63.9337 34.8716C63.747 35.0698 63.6524 35.354 63.6524 35.7241V39.4943H61.5439Z" fill="#ED8F4D"/>
<path d="M45.2144 53.5654H26.5808C26.2557 53.5654 25.9922 53.8316 25.9922 54.16V55.2464C25.9922 55.5748 26.2557 55.841 26.5808 55.841H45.2144C45.5395 55.841 45.803 55.5748 45.803 55.2464V54.16C45.803 53.8316 45.5395 53.5654 45.2144 53.5654Z" fill="#ED8F4D"/>
<path d="M56.9291 58.9712C56.9291 58.9712 56.3689 65.3656 57.1702 66.6693L54.6315 68.2667C53.8278 66.9653 47.8995 64.6516 47.8995 64.6516C48.3722 63.0566 47.7742 57.6173 47.4102 54.7067L50.7384 60.1077C50.5185 60.5113 50.5493 61.0342 50.9204 61.4162C51.1898 61.6908 51.6059 61.7983 51.9722 61.686C52.6956 61.464 52.9721 60.6521 52.6034 60.0528C52.3883 59.7018 52.0124 59.5275 51.6319 59.5442L48.2989 54.136C50.7242 55.7525 55.3004 58.7014 56.9291 58.9736V58.9712Z" fill="#798DAE"/>
<path d="M57.2542 65.9553L53.9634 68.0252C53.7096 68.1848 53.632 68.522 53.79 68.7784L56.3739 72.97C56.5319 73.2264 56.8658 73.3048 57.1195 73.1452L60.4103 71.0753C60.6641 70.9156 60.7417 70.5784 60.5837 70.3221L57.9998 66.1304C57.8418 65.8741 57.5079 65.7957 57.2542 65.9553Z" fill="#ED8F4D"/>
<path d="M56.954 64.1864L52.5215 66.9744C52.3796 67.0637 52.3363 67.2521 52.4246 67.3954L53.4804 69.1082C53.5687 69.2515 53.7553 69.2953 53.8971 69.2061L58.3296 66.418C58.4715 66.3288 58.5149 66.1403 58.4265 65.997L57.3708 64.2843C57.2824 64.141 57.0958 64.0972 56.954 64.1864Z" fill="#C5E8FF"/>
<path d="M52.275 48.95H26.5808C26.2557 48.95 25.9922 49.2161 25.9922 49.5445V50.6309C25.9922 50.9593 26.2557 51.2255 26.5808 51.2255H52.275C52.6001 51.2255 52.8636 50.9593 52.8636 50.6309V49.5445C52.8636 49.2161 52.6001 48.95 52.275 48.95Z" fill="#ED8F4D"/>
</g>
<defs>
<clipPath id="clip0_2146_3603">
<rect width="67.0769" height="51.6923" fill="white" transform="translate(5.42285 21.5386)"/>
</clipPath>
</defs>
</svg>
