<svg width="81" height="80" viewBox="0 0 81 80" fill="none" xmlns="http://www.w3.org/2000/svg">
<circle cx="40.5" cy="40" r="40" fill="white"/>
<g clip-path="url(#clip0_2146_3637)">
<path d="M67.6239 61.9154H13.9088C12.6221 61.9154 11.5771 60.856 11.5771 59.5538V19.5947C11.5771 18.2901 12.6244 17.2307 13.9088 17.2307H67.6239C68.9106 17.2307 69.9555 18.2901 69.9555 19.5947V59.5538C69.9555 60.856 68.9106 61.9154 67.6239 61.9154ZM13.9088 17.9449C13.0118 17.9449 12.2816 18.6853 12.2816 19.5947V59.5538C12.2816 60.4632 13.0118 61.2012 13.9088 61.2012H67.6239C68.5208 61.2012 69.2511 60.4632 69.2511 59.5538V19.5947C69.2511 18.6853 68.5208 17.9449 67.6239 17.9449H13.9088Z" fill="#ED8F4D"/>
<path d="M69.6036 19.371V26.8914L68.8335 26.3915H12.5191L11.9297 26.9414V19.371C11.9297 18.3878 12.8149 17.5879 13.9091 17.5879H67.6242C68.7161 17.5879 69.6036 18.3878 69.6036 19.371Z" fill="#ED8F4D"/>
<path d="M67.2039 18.1663H63.569C62.669 18.1663 61.9395 18.906 61.9395 19.8184V23.5037C61.9395 24.4161 62.669 25.1558 63.569 25.1558H67.2039C68.1039 25.1558 68.8335 24.4161 68.8335 23.5037V19.8184C68.8335 18.906 68.1039 18.1663 67.2039 18.1663Z" fill="#FBCF73"/>
<path d="M67.4974 26.1604H14.0359C12.8727 26.1604 11.9297 27.1165 11.9297 28.2958V59.4251C11.9297 60.6045 12.8727 61.5606 14.0359 61.5606H67.4974C68.6606 61.5606 69.6036 60.6045 69.6036 59.4251V28.2958C69.6036 27.1165 68.6606 26.1604 67.4974 26.1604Z" fill="#FFF8E8"/>
<path d="M67.4971 61.9154H14.0356C12.6808 61.9154 11.5771 60.7965 11.5771 59.4229V28.2936C11.5771 26.9199 12.6808 25.801 14.0356 25.801H67.4994C68.8543 25.801 69.9579 26.9199 69.9579 28.2936V59.4229C69.9579 60.7965 68.8543 61.9154 67.4994 61.9154H67.4971ZM14.0356 26.5152C13.0682 26.5152 12.2816 27.3127 12.2816 28.2936V59.4229C12.2816 60.4037 13.0682 61.2012 14.0356 61.2012H67.4994C68.4668 61.2012 69.2534 60.4037 69.2534 59.4229V28.2936C69.2534 27.3127 68.4668 26.5152 67.4994 26.5152H14.0356Z" fill="#ED8F4D"/>
<path d="M67.0559 22.8252L65.9077 21.661L67.0559 20.4969C67.1498 20.4017 67.1498 20.2493 67.0559 20.1541L66.8728 19.9684C66.7788 19.8732 66.6286 19.8732 66.5346 19.9684L65.3864 21.1325L64.2382 19.9684C64.1443 19.8732 63.994 19.8732 63.9001 19.9684L63.7169 20.1541C63.623 20.2493 63.623 20.4017 63.7169 20.4969L64.8651 21.661L63.7169 22.8252C63.623 22.9204 63.623 23.0728 63.7169 23.168L63.9001 23.3537C63.994 23.4489 64.1443 23.4489 64.2382 23.3537L65.3864 22.1895L66.5346 23.3537C66.6286 23.4489 66.7788 23.4489 66.8728 23.3537L67.0559 23.168C67.1498 23.0728 67.1498 22.9204 67.0559 22.8252Z" fill="#ED8F4D"/>
<path d="M63.0145 29.1602H18.5181C17.561 29.1602 16.7852 29.9468 16.7852 30.9171V47.5221C16.7852 48.4924 17.561 49.279 18.5181 49.279H63.0145C63.9715 49.279 64.7474 48.4924 64.7474 47.5221V30.9171C64.7474 29.9468 63.9715 29.1602 63.0145 29.1602Z" fill="#FBCF73"/>
<path d="M28.8729 46.7245C28.7532 46.7245 28.6334 46.6769 28.5418 46.5841L22.2255 40.1801C22.1362 40.0897 22.0869 39.9706 22.0869 39.8444C22.0869 39.7183 22.1362 39.5969 22.2255 39.5088L28.5418 33.1048C28.725 32.9192 29.0232 32.9192 29.2063 33.1048C29.3895 33.2905 29.3895 33.5929 29.2063 33.7786L23.2234 39.8444L29.2063 45.9103C29.3895 46.096 29.3895 46.3984 29.2063 46.5841C29.1148 46.6769 28.995 46.7245 28.8753 46.7245H28.8729Z" fill="#ED8F4D"/>
<path d="M52.363 46.7245C52.2432 46.7245 52.1235 46.6769 52.0319 46.5841C51.8487 46.3984 51.8487 46.096 52.0319 45.9103L58.0148 39.8444L52.0319 33.7786C51.8487 33.5929 51.8487 33.2905 52.0319 33.1048C52.215 32.9192 52.5133 32.9192 52.6964 33.1048L59.0128 39.5088C59.102 39.5992 59.1513 39.7183 59.1513 39.8444C59.1513 39.9706 59.102 40.092 59.0128 40.1801L52.6964 46.5841C52.6048 46.6769 52.4851 46.7245 52.3653 46.7245H52.363Z" fill="#ED8F4D"/>
<path d="M31.1294 42.299H29.6924V36.6331H31.1294V38.6733H32.8787V36.6331H34.3158V42.299H32.8787V40.016H31.1294V42.299Z" fill="#ED8F4D"/>
<path d="M37.1855 42.299V37.9591H35.9199V36.6355H39.8812V37.9591H38.6249V42.299H37.1879H37.1855Z" fill="#ED8F4D"/>
<path d="M41.4824 42.299V36.6331H43.537C43.6967 37.1996 43.854 37.7734 44.009 38.3543C44.1639 38.9351 44.3189 39.5089 44.4739 40.0755C44.6265 39.5089 44.7815 38.9351 44.9388 38.3543C45.0961 37.7734 45.2488 37.1996 45.4037 36.6331H47.4325C47.4372 37.5663 47.4442 38.5114 47.4489 39.466C47.4536 40.4207 47.4607 41.3658 47.4654 42.299H46.0776V38.459C45.9133 39.0923 45.7466 39.7327 45.5775 40.3802C45.4084 41.0277 45.2394 41.6681 45.0774 42.3014H43.8282C43.6638 41.68 43.4994 41.0492 43.3351 40.4135C43.1707 39.7779 43.0063 39.1494 42.842 38.5257V42.299H41.4848H41.4824Z" fill="#ED8F4D"/>
<path d="M49.3549 42.299V36.6331H50.7919V40.973H52.5413V42.2966H49.3525L49.3549 42.299Z" fill="#ED8F4D"/>
<path d="M64.1632 52.2356H38.6394C38.3165 52.2356 38.0547 52.501 38.0547 52.8284V53.9116C38.0547 54.239 38.3165 54.5044 38.6394 54.5044H64.1632C64.4861 54.5044 64.7479 54.239 64.7479 53.9116V52.8284C64.7479 52.501 64.4861 52.2356 64.1632 52.2356Z" fill="#ED8F4D"/>
<path d="M34.9946 52.2356H17.3698C17.0469 52.2356 16.7852 52.501 16.7852 52.8284V57.9634C16.7852 58.2908 17.0469 58.5562 17.3698 58.5562H34.9946C35.3176 58.5562 35.5793 58.2908 35.5793 57.9634V52.8284C35.5793 52.501 35.3176 52.2356 34.9946 52.2356Z" fill="#C5E8FF"/>
<path d="M57.7623 56.29H38.6394C38.3165 56.29 38.0547 56.5554 38.0547 56.8828V57.966C38.0547 58.2934 38.3165 58.5588 38.6394 58.5588H57.7623C58.0852 58.5588 58.3469 58.2934 58.3469 57.966V56.8828C58.3469 56.5554 58.0852 56.29 57.7623 56.29Z" fill="#ED8F4D"/>
</g>
<defs>
<clipPath id="clip0_2146_3637">
<rect width="58.3784" height="44.6847" fill="white" transform="translate(11.5771 17.2307)"/>
</clipPath>
</defs>
</svg>
